<?xml version="1.0" encoding="UTF-8"?><svg xmlns="http://www.w3.org/2000/svg" viewBox="0 0 814.58227 653.33337"><path d="M629.48608,365.22662c-4.25415-1.77228-10.28467,3.90131-13.47632,7.8028-3.19177,3.90143-2.83472,12.05695-4.25415,18.79285-1.41943,6.73608-5.67358,20.56519-6.73608,35.104-.36621,5.01196-1.70227,17.18811-3.32495,31.39929-5.08362,7.37341-11.21375,17.1792-11.21375,17.1792l7.80286-20.21216s-27.30566,35.46082-33.33191,44.32617c-6.03052,8.86511-12.41394,20.21228-12.41394,20.21228,0,0,5.32092-53.90112,7.09302-70.56482,1.77222-16.66809,3.19165-47.51367,4.25415-56.7359,1.06677-9.21796,8.15552-50.70532,10.28467-65.5968,2.12927-14.89587,6.38342-41.48737,6.02637-45.03595-.35278-3.54437-8.5083-13.11945-10.28027-15.95404-1.77234-2.83899-7.80286-12.05695-7.80286-12.05695l-3.90149,1.41956-2.48193-6.74042-1.77222,3.19165-5.67358-7.7984-2.83459,22.33728-2.83899-13.8291s-1.41943,6.38336-1.77209,11.34717c-.18066,2.55072-6.02625,16.6637-6.73608,22.33728-.70959,5.67358-3.19171,11.34717-3.19171,14.89594,0,3.54437-8.51239,91.48279-12.40948,123.75208-1.10187,9.11371-3.02435,23.17798-5.23163,39.21893-1.60657-4.45325-3.30145-8.53674-5.05347-11.91638-7.85101-15.14062-25.23749-37.5863-41.9881-45.44409,10.50525-3.60822,20.0155-6.72803,23.01605-7.56897,6.64996-1.85815,23.93744-10.63745,23.93744-10.63745l-9.57489.53339,9.04156-5.58313-11.17078,2.6582,8.24579-9.57495-7.4458.79999,6.3833-5.32086-6.11658-6.64996,1.59583-2.65833-4.25848-1.86249s.53345-4.7832-1.85815-5.84998c-2.39594-1.06238-34.57483,4.52087-38.03326,6.11658-1.59998.7392-19.52222,6.21521-39.64838,12.33002,2.50616-13.19232,5.26746-27.55634,7.02338-36.17529,3.90149-19.14996,15.60138-78.3634,18.08325-92.90222,2.14349-12.55646,7.4588-53.92493,11.38202-78.45471,7.37524-2.74951,15.55365-5.50549,23.93872-7.71252,26.94836-7.09296,66.47412-21.23175,69.14539-20.21228,4.91663,1.87531,21.27502-7.44586,21.27502-7.44586l15.95825-4.61108-18.79736.35706,23.40405-5.32086h-20.91772s13.11926-9.9278,14.53442-12.40967c1.41943-2.48193-6.73608-16.31097-8.50806-16.6637-1.77234-.35706-8.5127-9.93213-20.21252-9.22235-9.32581.56573-60.3313,16.00122-87.11182,24.21777,3.57526-15.01581,6.87976-28.68701,8.17889-34.85425,2.83472-13.4765,9.92773-49.99554,9.57068-53.54419-.35272-3.54437-14.18182-18.43597-14.18182-18.43597l-8.15546,16.66376-5.67358-8.15552c-2.12921,1.0625-14.18182,14.53888-19.14996,28.36792-4.96381,13.8291-10.28046,49.64276-11.69989,55.66907-.40607,1.72498-2.72809,12.33411-5.87604,26.82587-11.42554,2.86694-23.13507,6.07501-30.83014,9.17261-4.7998-7.55939-10.87476-15.18774-18.25061-21.45703-15.91473-13.53046-38.37897-11.58002-61.00775-5.4339,2.12494-10.74365,3.56384-18.53027,3.56384-20.09943,0-5.67358-3.90143-8.86523-3.90143-8.86523l-2.48193,2.12921-8.15546-8.15552-4.25421,7.09314s3.46277-11.54083,1.77228-12.414c-1.5528-.80011-8.86523,5.48444-10.59882,5.72095-7.20483.98071-12.25043,7.51886-14.71082,14.36243-4.12744,11.48212-9.14197,31.43719-12.01404,43.4082-.57098.46851-1.13275.93781-1.68091,1.40814l1.4187-18.80127s-2.92023,11.34235-5.53235,22.54077c-8.65204,8.30914-13.61658,16.11365-14.32477,18.94647-.38934,1.55487,4.5553,5.03162,9.10022,8.43909-2.40881,15.81952-5.94379,41.00256-8.68927,62.43329-5.62195-12.40039-11.63428-24.11743-14.24176-26.54999-2.98804-2.78979-12.58508-5.35522-23.12537-6.43823,2.90863-15.5202-4.09436-29.2489-14.45789-43.20319-13.91235-18.7251-39.1297-24.93365-69.55536-22.89764,1.28448-9.85376,2.53644-20.00793,2.53644-20.00793l-3.90137-.70978-1.77222-1.41943-11.69989-6.02631-6.3833-1.77228-2.12921,6.02631-2.48193-7.44568s-2.83459,9.57501-5.32086,15.95825c-1.87781,4.82623-4.16229,14.93091-7.00531,21.56085C42.05426,137.90955,12.49695,168.18719.08557,182.61292c-1.10547,4.24554,8.8653,10.63739,8.8653,10.63739l3.90137-3.19165v4.25415l5.67358,4.61108,2.12494-2.83459,4.25836,7.44586,4.25409-.70978,2.12494,4.96381,2.48193-3.54443,1.77649,7.08881,1.41516-3.54437s7.09308,5.67358,9.57495,5.31653c1.46625-.20837,7.51117-5.86328,13.45654-11.6991-1.62598,16.88611-3.49432,38.03101-4.94659,53.18707-5.32581,1.06946-30.13702,12.05658-26.9502,14.53827,3.19171,2.48187,12.05695,3.90131,12.05695,3.90131,0,0,4.61115,6.03064,8.15552,6.38336.72882.07245,1.92554.47729,3.37854,1.06976-1.81409,10.76489-4.43933,29.32526-4.43933,39.35193,0,12.7666,4.60681,29.78735,4.60681,29.78735l1.77222-4.61108,3.54865,5.32086,5.67358,2.83459-.70966-4.25415,7.44574,7.09314,1.41949-5.67358,9.21796,9.92761s4.61115-.70966,8.15552.35272c3.54871,1.06683,9.92767,4.96393,9.92767,4.96393,0,0-2.48193-11.34296-2.12488-21.62762.35272-10.28467,6.02631-47.16083,6.3833-56.37878.07971-2.08447.48621-6.81879,1.07483-13.04193l17.013-1.77734c-.04962,15.00067,6.69147,50.26245,20.20782,58.43317,15.24426,9.21802,30.84985,12.76672,30.84985,12.76672,0,0,3.54437,4.25403,7.79852,6.02631,4.25409,1.77216,10.28467,3.19171,10.28467,3.19171l-4.61108-5.32086s14.89154,0,21.27478-2.48193c4.06183-1.57935,15.72784-12.05774,24.50208-21.20776-2.43079,22.09357-4.76428,42.66907-5.70563,50.99469-1.84802,16.31012-3.69543,59.32349-3.45404,73.65088-4.65894,1.50745-8.30255,2.77985-9.93335,3.7403-4.52075,2.65845-6.38336,7.1792-6.38336,13.29578,0,2.50769,10.10406,5.05408,12.7666,8.50818,2.65833,3.4585,6.11676,4.7876,6.11676,4.7876,0,0,18.08313,18.0874,21.27478,18.34985,2.02435.16919,19.44989-7.79089,34.09973-14.58691-.33936,3.60034-.68488,7.26855-1.03131,10.94238-9.13184,3.84094-17.59741,7.23364-21.63379,8.43335-9.83746,2.92493-31.11658,10.90405-37.23322,12.7666-6.11664,1.85828-18.08325,6.1167-21.54156,10.104-3.45404,3.99182-4.78314,7.71252-3.98743,10.9043.57642,2.30542,10.90417,7.17896,12.23328,8.50806,1.32922,1.3335,6.91669,5.85437,6.91669,5.85437,0,0,7.97485,5.31653,11.96661,9.57068,3.98743,4.2583,7.44574,8.51245,13.56238,8.51245,4.38171,0,21.72583-8.87061,34.0484-14.88037-2.05835,26.4729-3.99738,68.36206-3.99738,76.31177,0,9.30823,4.78754,12.49988,4.78754,12.49988l2.12921-4.78748s2.39154,4.25415,2.39154,6.65002c0,2.3916,6.38336,9.04163,6.38336,9.04163l2.92499-4.7876s19.1499-1.3291,21.2749-5.0542c2.12921-3.7207-2.125-13.56226-2.125-13.56226,0,0,7.44586-51.59131,9.04156-76.59131.35199-5.51392.69092-11.80505,1.01984-18.41187,20.08807-8.59619,41.79547-18.0238,41.79547-18.0238l-27.92493,9.0459,21.54156-9.57507-13.5625,3.19177s24.46661-14.09583,29.78748-16.75415c.47223-.23645,1.00555-.49695,1.58118-.77454-.45416,2.87402-.70667,5.2998-.70667,7.08997,0,15.00769,7.29517,38.94934,13.78607,46.17151,12.87421,14.31934,56.61115,29.77441,65.11932,31.55103,8.51257,1.77209,21.27911-1.06677,31.91656-6.03064,10.63751-4.96387,17.7262-9.92773,17.7262-9.92773l-10.99011,1.41956s7.12231-4.66345,13.698-9.52686c-.51007,5.37268-.84143,9.83862-.93524,13.07422-.70544,24.46643-1.41522,37.22876,0,39.35791,1.41943,2.12927,13.8291,6.02637,16.66803,8.5083,2.83466,2.48193,9.21783,4.61108,9.21783,4.61108,0,0,2.12933,4.25415,3.90149,4.25415s4.61108-7.79858,4.61108-7.79858c0,0-1.77209-10.99438,0-15.24854,1.77234-4.25403,3.54431-8.51245,3.54431-8.51245,0,0,6.02637-3.54443,7.09326-4.96387,1.06226-1.41516,4.96375-11.69995,8.15552-14.53882,3.19165-2.83472,16.66357-32.26514,19.14551-33.32739,2.48193-1.06689,8.51257-3.54883,10.63745-5.32092,1.05151-.87537,6.427-10.74719,11.72754-20.77112-.18591,1.81934-.31738,3.22253-.38037,4.10474-.70544,9.92773.0946,33.27173,2.12915,36.52344,1.77222,2.83472,8.15552,8.86536,9.57507,7.80286,1.41931-1.06677,3.54431-4.61108,3.54431-4.61108l1.0625,5.31653,4.61108-2.125,5.3208,6.02637s-.70972-15.95398-.70972-25.52905,6.3833-52.83447,6.3833-52.83447v45.03174s5.67358-57.44116,6.73608-65.24414c1.0625-7.80273,10.63745-59.21771,11.69995-67.01617,1.06665-7.80273-2.83472-17.73053-5.31665-24.82349-2.48193-7.09314-5.3208-17.73053-9.57495-19.50269ZM114.26276,226.58221c-1.57544,1.09814-3.7171,2.39337-6.23395,3.80804,1.15039-11.64606,2.09235-21.67773,2.33417-26.1485.39966-7.38745,2.48505-25.23108,4.48444-41.0592,3.63928-1.80194,6.67639-3.1087,8.63757-3.6167,9.57068-2.48187,44.14557-8.68884,48.22333-2.83893,4.18958,6.01343-4.61115,19.50262-8.51257,26.23871-3.89703,6.7403-37.22882,35.46094-48.93298,43.61658ZM221.7055,253.17657c-2.03021,11.16217-7.44568,30.14001-17.73053,47.16083-10.28033,17.02075-34.39417,22.69434-37.58582,19.85535-3.19171-2.83459-2.3916-9.22217-2.12921-17.37335.35699-10.99023,10.33636-40.48944,19.85968-54.60663,10.28046-15.24866,29.78314-26.59583,35.81378-24.46661,5.44122,1.91846,3.90131,17.73053,1.77209,29.43042ZM295.10419,188.64172c.5954-4.06549,2.4942-13.78937,4.92035-25.8103,5.21265-3.75879,10.72211-7.27881,16.00446-9.65063,17.37347-7.79858,35.10388-14.53882,48.57605-15.95404,2.83893,12.05261-6.38336,29.43042-17.73053,42.90247-7.16626,8.51251-44.67474,43.26379-52.12476,49.2901-1.46637,1.18683-3.61224,2.59564-6.1095,4.11182,2.1601-15.86908,5.03455-35.10925,6.46393-44.8894ZM306.54309,347.23077l-1.86255,1.86249s-6.38336-7.44574-8.77496-7.97906c-2.39594-.52917-7.61346,1.87531-8.24579,3.45825-1.59589,3.98743-1.0625,18.08325-1.0625,28.98743,0,7.58685-.64374,30.61731-1.57281,48.9472-6.90009,3.461-19.92249,10.23224-30.55927,14.8772,1.68097-13.36664,4.35632-31.85632,6.24475-40.59631,2.83893-13.12366,9.21796-23.40411,12.40967-47.51788,2.0545-15.51984,6.31366-45.14557,9.46655-68.06989,4.56055,3.23004,8.63391,5.73639,10.0387,6.01733,1.60107.32062,11.33557-5.28833,24.09692-13.72601,1.24402,28.35632,5.59503,57.82068,7.10736,63.26819,1.77228,6.37903,11.69989,21.62769,11.69989,21.62769l.35706-4.25421,4.96381,7.79846,2.48187-1.4151,15.9541,8.8653s-.70978-38.29572.35706-59.57483c1.06238-21.27496,15.55396-57.14886,15.20123-62.82245-.12286-1.95264-3.0545-6.33435-7.12115-11.4295,25.88977-22.284,37.06311-58.42902,37.63647-72.83313,2.11554,1.85632,4.38104,3.76074,6.6181,5.57037-5.66522,26.34369-10.79102,50.42792-11.5614,54.74536-1.77661,9.9278-14.89594,64.1817-13.8291,66.66364,1.06238,2.48187,3.89703,4.96381,3.89703,4.96381,0,0-4.96387,36.87616-5.31659,46.09412-.2619,6.76569-1.85522,30.5-1.98688,43.93243-9.13635,2.79547-16.40942,5.04974-19.72803,6.15594-6.18896,2.06299-21.51581,8.16833-36.63007,14.29846,1.19269-12.00012,2.0578-20.68219,2.0578-20.68219,0,0-3.72083-6.64996-6.65009-10.10406-2.92493-3.45825-15.68719-27.12903-15.68719-27.12903ZM394.39117,435.79114c-4.69318.1864-12.79364,21.33276-18.50159,41.37903-1.22809-1.63953-2.25757-2.94983-2.8606-3.6134-2.66266-2.92493-6.38336-7.979-9.30829-7.979s-6.38336,4.52075-6.38336,4.52075l2.65833-8.24597s-10.63739,7.71252-14.36255,7.97925c-3.7207.26672-9.83734-.53333-12.76227.80005-2.92493,1.3291-6.65009,9.04163-6.65009,9.04163,0,0-2.64514-1.36084-6.49878-1.60974.12799-1.81299.25574-3.42053.38348-4.77527.17615-1.86816.46045-4.80884.81989-8.4917,7.59033-3.11987,15.05048-6.11841,19.38989-7.72876,9.30829-3.45825,12.7666-2.66248,17.28735-4.52075,4.52081-1.86243,27.92493-16.75397,36.69989-20.2124,6.97797-2.75006,20.85052-6.67529,31.59033-10.57507-2.31915,3.14398-3.90753,5.69745-4.90594,6.58557-3.19171,2.83459-14.53888,10.28479-16.31097,10.28479s-7.45007-2.95081-10.28473-2.83899ZM473.55469,524.88232c-20.21246,21.80823-58.508,18.08313-61.43311,14.89148-2.92493-3.19165-2.6582-14.35815.7959-28.45386,3.45831-14.09583,19.41656-32.44568,31.38318-44.41235,11.96649-11.96655,35.87823-21.4856,38.29553-20.479,6.38336,2.65833,11.1709,23.40405,11.96667,36.96643.80005,13.5625-.79578,19.67908-21.00818,41.4873ZM640.47925,299.62903c4.25415,4.96381,16.31104,12.7666,16.66382,14.8916.35693,2.12915,2.48193,4.96381,4.96375,4.96381s4.96814-21.62769,4.96814-21.62769l1.0625,26.94855s2.83472-26.23877,5.31665-39.36237c2.48181-13.11945,12.7666-51.7677,15.60547-57.44135,2.83472-5.67358,8.86108-28.0152,10.28052-31.91229,1.41943-3.90131,0-10.28467.70972-13.47638.70972-3.19165,2.83899-9.21796,2.83899-9.21796,0,0-3.90149-8.51257-6.03064-9.57489-2.12915-1.0625-8.86523-3.90149-10.63745-3.19171-1.77222.70966-2.83459,3.54437-4.25415,4.25403-1.41943.70978-7.09302,1.06683-8.86523,2.48193-1.77222,1.41956-3.54443,5.32086-4.96387,7.80292-1.41943,2.48187-9.92773,12.76654-13.11926,20.21228-3.19177,7.44586-17.37781,42.90247-19.50281,47.51367-2.12915,4.61108-3.54858,9.21796-4.2583,11.69989-.70557,2.48627.35693,12.41388-.70557,18.08746-1.06665,5.67358-2.12915,11.69989-2.12915,14.89154,0,2.83466,7.80273,7.09302,12.05688,12.05695ZM812.81006,366.29004l-1.41943,13.11932s-2.48193-29.07336-4.96387-37.58594c-2.48193-8.50824-12.05688-21.98456-15.60132-24.81921-3.54443-2.83893-9.57495-3.19165-9.57495-3.19165,0,0-5.67358-7.8028-7.79858-8.8653-2.12915-1.0625-6.3833-4.61108-7.80273-4.25403-1.41943.35272-4.25415,7.08868-5.67358,7.08868s-12.40967-.35272-18.08325,2.83893c-5.67358,3.19171-13.8291,6.02631-17.02075,9.21802-3.19165,3.19165-8.51245,8.86523-8.51245,8.86523,0,0-4.96387-5.31653-9.2179-3.54437-4.25415,1.77216-14.53894,19.14563-14.53894,19.14563,0,0-8.1554,4.25848-13.11938,11.70422-4.96387,7.44568-25.52893,47.16077-25.88599,82.97455-.35254,35.8136,11.70422,69.14551,29.43042,79.78284,17.73047,10.63745,22.69434,16.31104,30.49707,18.08325s21.98474-.35266,21.98474-.35266l-19.50281-2.48621s19.50281-3.89722,24.46655-5.67358c4.96387-1.77222,25.17627-15.24438,28.36792-18.43604,3.19177-3.19165,4.96387-7.4458,4.96387-7.4458l10.28467-6.03052h-4.2583s9.93188-11.34717,11.7041-13.47217c1.77222-2.12915,4.60693-8.86523,5.67358-10.63733,1.0625-1.77649,13.8291-39.36243,15.24854-49.99982,1.41528-10.63739,2.125-28.01086,2.125-33.33173,0-5.31665-1.77222-22.69434-1.77222-22.69434ZM744.55078,484.19202c-5.58325,6.38342-22.3374,23.13745-37.23328,20.47925-14.89148-2.65833-17.54968-11.69995-18.34985-16.2251-.79578-4.52075-2.28406-32.36816-.46448-44.87677,1.38928-9.53186,4.45605-16.28949,4.45605-16.28949,0,0-3.96582,21.48566-1.5957,54.52051.70532-31.11206,4.78748-51.06207,4.78748-51.06207,0,0,12.76233,18.88324,33.24133,19.67902,20.47925.80005,38.5625-10.63745,38.5625-10.63745,0,0-17.8208,38.02893-23.40405,44.41211ZM773.80469,384.73022c-2.12915,2.83459-7.44568,7.80273-15.95825,12.05695-8.50818,4.25403-24.81934,4.96381-26.59143,2.83459-1.77209-2.125-1.41956-7.44586.70984-16.6637,2.12476-9.22229,9.92749-20.21246,14.89136-22.69434,4.96387-2.48206,20.63818-11.0332,22.3374-9.57501,2.48193,2.12915,6.74023,31.20251,4.61108,34.0415Z" /></svg>