<?xml version="1.0" encoding="UTF-8"?><svg id="b" xmlns="http://www.w3.org/2000/svg" viewBox="0 0 63.3555 101.63369"><g id="c"><path d="M50.36976,57.36348h3.44438l-1.69085-4.99152-1.75353,4.99152ZM50.36976,22.93775h3.44438l-1.69085-4.98888-1.75353,4.98888ZM21.64639,84.12944c.67423,0,1.2152-.79185,1.2152-1.76661,0-.9774-.54097-1.75619-1.2152-1.75619-.6716,0-1.21257.77879-1.21257,1.75619,0,.97476.54097,1.76661,1.21257,1.76661M63.3555,6.6252C48.12486-2.14,16.81693-2.2184,0,6.45271v86.71893c0,3.31375,12.17035,4.94971,19.45636,5.9271,6.37404.85717,10.25483,1.43733,12.22266,2.53494,1.96528-1.0976,5.84607-1.67777,12.22266-2.53494,7.27302-.9774,19.45381-2.61335,19.45381-5.9271V6.6252ZM49.2068,75.60468c.0784.61936.2509,1.52881.50181,1.83458.46257.56709,1.24136.84411,2.34937.84411.66123,0,1.20212-.0784,1.6229-.22474.77879-.29008,1.17604-.81799,1.17604-1.5837,0-.44949-.19867-.80491-.5802-1.04271-.38417-.25088-1.00354-.46257-1.83456-.64811l-1.42687-.32928c-1.39815-.31622-2.37553-.67164-2.90342-1.04273-.89906-.63244-1.33284-1.6229-1.33284-2.95572,0-1.22826.43378-2.24485,1.30668-3.04978.87027-.80491,2.13771-1.2152,3.82592-1.2152,1.41387,0,2.61599.38417,3.61689,1.1368.99046.76571,1.57066,1.93912,1.57066,3.69529h-2.66567c0-.91206-.39462-1.76925-1.05577-2.11159-.43641-.22474-.99046-.34236-1.63598-.34236-.72647,0-1.30668.15681-1.74309.4469s-.6586.70037-.6586,1.22828c0,.48869.22219.84411.64552,1.09499.27706.15941.85719.34495,1.75617.55403l2.31021.56972c1.01661.24827,1.78233.58016,2.2815,1.0009.77879.63506,1.17596,1.57064,1.17596,2.78584,0,1.25442-.46257,2.29713-1.39815,3.11512-.93814.83105-2.25789,1.24134-3.96182,1.24134-1.74046,0-3.10208-.41029-4.10299-1.2152-1.00354-.81799-1.49218-2.12467-1.49218-3.82857l2.65251.04181ZM50.55271,49.28559h3.1804l4.75377,13.5424h-3.04984l-.89635-2.81196h-4.92357l-.92514,2.81196h-2.94266l4.80338-13.5424ZM50.55271,14.85988h3.1804l4.75377,13.5424h-3.04984l-.89635-2.80937h-4.92357l-.92514,2.80937h-2.94266l4.80338-13.5424ZM46.698,32.20472h2.93221l5.33119,9.42374v-9.42374h2.60035v13.5424h-2.79894l-5.46453-9.60931v9.60931h-2.60027v-13.5424ZM23.71877,90.59749l18.83708-11.27139,14.67659,5.62133s-3.49933,4.46361-7.90538,5.49326c-4.40876,1.01398-10.67816.23521-13.5555,1.02704-2.7597.76571-5.30774,2.7205-5.30774,2.7205l-6.74505-3.59075ZM21.64639,74.9827c2.79894,0,5.06991,3.30067,5.06991,7.38013,0,4.07683-2.27097,7.39055-5.06991,7.39055-2.81194,0-5.08036-3.31373-5.08036-7.39055,0-4.07946,2.26842-7.38013,5.08036-7.38013M17.26379,87.6026s-4.24933-2.29713-7.74595-5.49065c-3.9749-3.64303-3.18311-9.71646-3.18311-9.71646l9.69034,8.51432c-.06795.48869-.09411.99046-.09411,1.50528,0,1.96524.50181,3.77368,1.33284,5.18751M25.5011,88.53818s2.9165-3.285,1.73001-8.48557c-1.20212-5.2816-4.87125-5.70234-4.87125-5.70234l15.04768-7.8662c.58013-.37109,1.22565-.56972,1.89988-.56972,2.61335,0,4.73806,3.08898,4.73806,6.9045,0,2.81196-1.16033,5.22671-2.81202,6.29556v.01306l-15.73236,9.4107ZM21.09234,74.31108c-2.32329.34234-4.23625,2.62641-4.91049,5.67359l-8.18244-7.17889s-6.12569-5.45145-2.9295-14.94315c0,0,.30314,3.27453,1.8084,5.6762,2.07239,3.32681,6.07082,5.41225,6.65102,4.3434.54097-.9774-5.10915-3.15432-7.49776-11.29755-.51481-1.75617-1.64898-9.54397.58276-13.87429,0,0,.80495,11.85418,8.09097,16.55299,1.64906,1.05579,1.48963-.43643.737-1.34588-.88335-1.08454-5.64749-6.46805-6.70326-12.52581-1.70393-9.86019,1.5445-14.62694,1.5445-14.62694,0,0-.79187,7.60487,7.66756,17.56958,5.91402,6.95676,8.72596,13.17131,8.46206,15.85261-.42341,4.23623-5.32082,10.12414-5.32082,10.12414M12.15727,67.4458c-.77871-.42076-3.14124-2.15081-3.4313-2.58724-.29006-.43382.19603-.88331.54097-.51483.3293.35803,1.51834,1.5837,3.10208,2.8773.14372.12023.14372.42337-.21174.22476M15.0346,58.84001c-.84411-.42074-1.59674-1.35894-1.86072-1.74049-.2639-.37109.26398-.66117.42078-.42335.15943.25088,1.51834,1.8999,1.51834,1.8999.19859.19863.09411.35803-.0784.26394M22.87467,73.26835s.68731-1.00354,1.6229-2.40428c1.33284-2.01752,3.15432-5.20059,2.72046-8.10403l5.59525,5.30774-9.93861,5.20057ZM22.5846,53.04621s-2.05931-3.15432-3.31375-4.58121l4.80593-6.50727s.26398,2.57416.52789,3.15432c0,0-2.39116,3.48621-2.02007,7.93415M25.62129,48.39967c.29006-.09148.4861.73957,1.16033,2.02011l-.46257,1.01659c-.84411-1.67777-.81795-2.99751-.69776-3.0367M31.54576,56.63696c-.31622,0-2.61335-1.78231-3.78676-3.08898l.43386-.9382c.12019.15941.2639.33189.39725.48869,1.02961,1.18908,2.15079,2.33635,3.20656,3.15432,0,0-.03924.23782-.2509.38417M30.25216,41.94468l.2509.39723-.34238.72651-.23782-.38417c-2.52188-3.99843-2.52188-7.07435-2.31021-7.12661.41033-.08101.52789,2.9557,2.63951,6.38704M34.35778,48.03119c-.48873-.19863-1.4661-1.12374-2.74407-2.85118l.38154-.83105c1.12117,1.42427,2.27105,2.74403,2.60027,3.35031-.0784.17249-.15935.25088-.23774.33191M34.27938,21.47428c.14372.21169,3.27188,4.84254.63236,11.32366-.50173-.84411-2.69175-4.5394-3.00797-5.81993,0,0,1.19957-1.6229-1.71693-6.42885l-7.97333-12.73751h3.28759l8.7652,13.64957.01308.01306ZM31.4282,7.81165c4.11862,5.90096,11.45695,15.57561,10.90291,20.97478-.39725,3.77368-2.8381,10.17641-2.8381,10.17641-.47565-.56711-2.99753-3.94617-2.99753-3.94617l-.10456-.14635.17251-.36848c3.70837-7.90801-.14635-13.80634-.47565-14.26891l-7.97333-12.42129h3.31375ZM33.55283,67.64441l-6.79737-6.50725c-.75263-2.78584-3.33983-6.90187-3.33983-6.90187-.90943-3.81551,1.45302-8.21117,1.45302-8.21117,0,5.25285,1.77969,7.37751,3.5097,8.94813,1.41387,1.26748,2.79894,1.95479,3.35299,2.25793,1.22828.63244,1.33276-.43643.80487-1.02965-.52789-.58016-4.47408-2.67869-6.91493-9.79486-2.45656-7.12663.36846-14.67659.36846-14.67659,1.00354,11.45693,6.91756,15.85259,7.98641,16.60524.87027.6063,1.67522-.14635,1.16033-.80491-.68731-.91206-6.03158-6.38965-7.07435-13.55548-1.49218-10.17639,1.34592-13.43786,1.34592-13.43786,0,0,.09148,6.84961,6.69281,15.52333,3.28496,4.34077,8.77565,10.45342,9.21206,16.24721.31622,4.35646-2.74399,7.74861-4.7119,10.36196-1.05577,1.41121-1.73001,2.52188-1.73001,2.52188-.42078-.10715-.96174.15681-.96174.15681l-4.35644,2.29713Z" style=" fill-rule:evenodd; stroke-width:0px;"/></g></svg>