<?xml version="1.0" encoding="UTF-8"?><svg id="b" xmlns="http://www.w3.org/2000/svg" viewBox="0 0 69.64453 126.54855"><g id="c"><path d="M10.62329,103.81723l-2.38342-.92236c-.20911,1.09497-.55139,1.89453-1.02454,2.39893-.4729.50439-1.03491.75793-1.68555.75793-.88586,0-1.60718-.39722-2.16125-1.18909-.55396-.79187-.83093-2.12463-.83093-3.99841,0-1.80579.28479-3.09949.85181-3.88611.56982-.78394,1.30664-1.17603,2.20837-1.17603.62976,0,1.17615.21436,1.64124.64294.46252.43127.77356,1.04797.93042,1.85291l2.43555-.71094c-.30566-1.30396-.78662-2.28931-1.4425-2.953-.92261-.93298-2.0647-1.40076-3.43396-1.40076-1.68042,0-3.01587.62451-4.01147,1.86853-1.14478,1.43469-1.71704,3.41833-1.71704,5.95581,0,2.40173.56714,4.30945,1.70386,5.72327.98792,1.22559,2.27625,1.83716,3.8678,1.83716,1.26489,0,2.33093-.38416,3.19617-1.15247.86499-.76575,1.48438-1.98352,1.85547-3.64832ZM17.04468,93.23532c-1.20496,0-2.22925.27966-3.07349.84143-.84668.56201-1.53137,1.4165-2.05664,2.56116-.52271,1.14734-.78662,2.60815-.78662,4.38,0,2.44092.58276,4.36169,1.74585,5.76245,1.02173,1.22559,2.41455,1.83716,4.18115,1.83716,1.75098,0,3.13867-.61938,4.1604-1.85547,1.16309-1.40076,1.74585-3.34766,1.74585-5.83569,0-2.46167-.55139-4.36157-1.64893-5.69189-1.10034-1.33276-2.52197-1.99915-4.26758-1.99915ZM19.46973,104.77597c-.6377.84937-1.43994,1.27515-2.40942,1.27515-.96167,0-1.76929-.42847-2.42017-1.28308-.65051-.85706-.97461-2.14026-.97461-3.85205,0-1.74573.31616-3.03406.94604-3.86511.62988-.83374,1.44507-1.24927,2.44873-1.24927,1.00085,0,1.81348.41296,2.43286,1.23877s.93042,2.09851.93042,3.82593c0,1.75879-.31885,3.06287-.95386,3.90967ZM31.16187,108.3641l2.43042-11.72095v11.72095h2.29443v-14.87524h-3.70044l-2.20044,10.15552-2.21875-10.15552h-3.68213v14.87524h2.29443v-11.72095l2.41223,11.72095h2.37024ZM39.54382,107.93173c.7135.4574,1.70398.68738,2.97668.68738,1.22559,0,2.21069-.27698,2.95825-.82849.74744-.55139,1.22827-1.27271,1.43994-2.16113.21436-.88867.32153-2.33118.32153-4.32776v-7.81396h-2.45654v8.22949c0,1.48181-.06543,2.44861-.19873,2.89819-.13062.44946-.37622.79968-.73682,1.0531-.35815.2561-.82324.38159-1.39307.38159-.67163,0-1.21252-.17773-1.62292-.53833-.41028-.35803-.66907-.86499-.77625-1.521-.06262-.37891-.09131-1.19434-.09131-2.44604v-8.05701h-2.45654v7.9342c0,2.22656.1593,3.75537.48096,4.58374.32129.82849.83875,1.47144,1.55481,1.92603ZM51.24805,98.66318l4.91064,9.70093h2.47461v-14.87524h-2.29175v9.93335l-4.99414-9.93335h-2.3938v14.87524h2.29443v-9.70093ZM62.82642,105.84738v-4.03772h6.12817v-2.5061h-6.12817v-3.2981h6.59595v-2.5166h-9.05261v14.87524h9.27478v-2.51672h-6.81812ZM15.27124,113.337c-.48608-.60376-1.01929-1.02966-1.59668-1.2832-.57764-.25342-1.43481-.38159-2.56909-.38159h-4.49219v14.87524h4.62292c.99304,0,1.80591-.13843,2.43835-.42065.63245-.27979,1.17078-.69775,1.61755-1.25195.44446-.55396.81287-1.30664,1.10559-2.25781.28992-.95129.43359-2.06982.43359-3.35559,0-1.42688-.13843-2.62122-.41553-3.5802-.27686-.96179-.65845-1.74316-1.14453-2.34424ZM14.07178,121.71017c-.14893.64807-.33716,1.12366-.56201,1.42419-.22729.30054-.51733.52539-.8728.67432-.35535.14893-.92773.22217-1.7196.22217h-1.84753v-9.84192h1.11584c.98792,0,1.65417.04443,1.99927.13074.45984.11499.85193.35535,1.17334.72119.31885.36328.55664.86499.70813,1.5.1543.63513.2301,1.50269.2301,2.60559,0,1.06104-.07581,1.91565-.22473,2.56372ZM18.04077,126.54721h2.45654v-14.87524h-2.45654v14.87524ZM36.15491,119.96237c-.4104-.62195-.97485-1.06104-1.69873-1.3197.50964-.2771.92517-.70312,1.24402-1.2832.31885-.57764.47827-1.22559.47827-1.94165,0-.77881-.18555-1.47656-.55933-2.09082-.37109-.6167-.82849-1.04529-1.36938-1.28833-.54358-.24561-1.48169-.36584-2.8147-.36584h-4.88696v14.87512h4.15015c1.80054,0,2.94775-.06006,3.44189-.18286.71069-.17505,1.32471-.6377,1.84741-1.38501.52002-.74756.77881-1.66211.77881-2.74414,0-.8938-.20374-1.65161-.61145-2.27356ZM29.00476,114.14755h1.42163c1.29895,0,2.08533.03406,2.3573.10205.27441.06787.50952.23779.70032.51221.19348.27441.29016.63232.29016,1.07141,0,.49402-.11755.88342-.35547,1.17078-.23523.2876-.56445.46521-.98523.5332-.22998.03394-.83093.05225-1.80591.05225h-1.6228v-3.44189ZM33.94128,123.25778c-.19324.30579-.43115.51221-.71594.61682-.28491.10449-.93042.15674-1.93384.15674h-2.28674v-3.96704h1.99402c1.05566,0,1.7561.06006,2.09839.17773.34253.11755.61682.33447.82324.64807.20654.3136.31104.7135.31104,1.19958,0,.47034-.09668.8623-.29016,1.16809ZM41.28418,111.67306l-4.75098,14.87512h2.61853l1.00867-3.36853h4.88184l1.06885,3.36853h2.6709l-4.88965-14.87512h-2.60815ZM40.91309,120.66293l1.6543-5.51929,1.68298,5.51929h-3.33728ZM57.34497,121.22519c-.34497-.44958-.78125-.86255-1.30933-1.24146,1.02966-.18286,1.82153-.62976,2.38086-1.34058.55664-.71094.83618-1.64648.83618-2.80933,0-.91992-.18286-1.71179-.54614-2.37036-.36584-.65857-.83374-1.12378-1.40063-1.39038-.56982-.26648-1.51587-.39978-2.84351-.39978h-5.18481v14.87524h2.45654v-6.20935h.50684c.56982,0,.97998.05493,1.23901.16724.25586.10986.49902.31372.729.60889.22986.29272.6665,1.0271,1.30933,2.19531l1.78223,3.23792h2.9375l-1.48181-2.90344c-.59595-1.16296-1.06628-1.9679-1.41125-2.41992ZM53.56079,117.96371h-1.82666v-3.77368h1.92847c1.10291,0,1.76929.03662,1.99927.10974.32422.10974.5802.30579.771.59314.18823.2876.28223.66907.28223,1.14209,0,.4939-.09399.89111-.28223,1.18909-.1908.29797-.43652.4939-.74219.59326-.3031.09668-1.01392.14636-2.12988.14636ZM60.7168,126.54721h2.45654v-14.87524h-2.45654v14.87524Z" style=" stroke-width:0px;"/><path d="M53.28928,17.70757H19.09364v37.75513c0,2.27622,2.42258,3.99059,4.07156,3.99059h9.61186c1.43476,0,3.19874,1.66471,3.19874,2.06194,0-.39723,1.69874-2.06194,3.13351-2.06194h9.66147c1.31976,0,4.41929-2.10897,4.5185-3.99059.0654-2.22398,0-37.75513,0-37.75513M35.53159,59.17366c0,.16465-1.54977-.89116-2.54014-.89116h-9.14945c-1.54961,0-3.59336-1.15247-3.59336-3.26406V18.928h15.28296v40.24566Z" style=" fill-rule:evenodd; stroke-width:0px;"/><path d="M51.33198,7.16583l.09395-1.00092,2.09336-1.99399-.98782-.51222-.39717.56186-.609-.27961.44423-.61153-1.03743-.44427-.18295.65856-.5932-.2143.09921-.7239-.94077-.28225v2.67086l-.75255,1.0976c-.87298-.30053-1.93657-.62981-3.15695-.9382l-.04705-1.0976,1.53397-2.39122-1.04014-.32928-.22985.60892-.6586-.115.27961-.65856-1.05577-.23258-.04961.67687-.6586-.06534-.0654-.70823-.99038-.1176.56178,2.60552-.47038,1.20475c-1.53669-.26917-3.23798-.47563-5.06736-.55664l-.36575-1.14205,1.04014-2.67084-1.04014-.115-.16461.67425h-.609l.115-.7239-1.10538.04965.04961.67425-.61155.04965-.16461-.7239-.98782.16465,1.03743,2.45656-.20911,1.29621c-1.63063.06534-3.2013.24305-4.66477.48348l-.58284-1.07148.49399-2.77015-1.10283.11498.06524.66117-.65844.16465v-.70823l-1.10554.2143.21438.65856-.61155.16465-.27961-.60892-.98782.34497,1.59937,2.16123v1.26748c-1.3172.311-2.48543.65073-3.45236.95909l-.78653-.95909.04961-2.88513-1.05577.34756.11756.65856-.61155.2143-.09921-.70821-1.05577.44427.33177.61153-.54615.26394-.44423-.61153-.89116.51222,1.88154,1.87901.27451,1.26748c-.10464.04442-.15951.06795-.15951.06795-.56178.27963.09937.77616.09937.77616,0,0,.865-.38676,2.34937-.88592l1.31194,2.73095c-.15153.04703-.29796.09409-.43641.13851l-.12553.01045-1.05577-1.94694-.32922.1176.36591,2.21612c-.14643.05487-.28233.10454-.40259.15157l-.73947-2.91388-.6586.26394.75271,2.91127c-.06285.02614-.09411.04181-.09411.04181-.5436.27963.115.77357.115.77357,0,0,.10448-.04444.2978-.12545l.2509,2.40167c-.06524.03136-.10192.04967-.10192.04967-.32396.15941-.35012.33712-.31614.45994-.00271.12545.03924.29008.2509.38156.39462.2143,3.5436,1.77969,6.90711,2.04364,3.41296.34497,6.44709.39462,9.05263.22999,2.5218-.16465,6.06555-.39462,8.7703-.9382,1.20475-.2326,3.36351-1.1708,3.52812-1.38507.09666-.10454.11229-.31361.11229-.47302.0209-.12284.01834-.26135-.06269-.31883-.06269-.02353-.17243-.07056-.32396-.13851l.32141-2.28407c.14116.06011.21693.0967.21693.0967,0,0,.56178-.55927-.04977-.77357-.02871-.01045-.06795-.02873-.115-.04965l.84156-2.78584-.02871-.01567c.19077.08362.29269.13066.29269.13066,0,0,.5436-.59322-.02871-.83103M49.92593,5.44101l.88861.39462.61139-.60892-1.38499-.51222.04961-.65856,1.76398.77355-1.03998,1.00615-.38425.95648c-.28743-.11498-.64026-.25611-1.05051-.40768l.54615-.94342ZM47.28642,13.9318c0,.18555,0,.32145-.01818.47302-.11772-.0392-.2458-.07579-.38425-.1176-.10448-.45473-.08103-.8598-.33449-1.23089.18822.05748.37372.11237.55141.16724.09937.25874.18551.42076.18551.70823M32.06104,12.87078c-.25872-.3502-.38409-.80491-.68476-1.02967.32938-.04181.66387-.08101,1.00888-.11498.10448.04442.19859.10715.2769.21169.26669.26656.28759.6063.48346.87547-.36846.01306-.7291.03397-1.08448.0575M24.3883,13.40389c.17769-.05748.3632-.1176.55652-.17771.32157.14374.50452.48087.76324.79185-.17259.05489-.32667.10976-.46783.15943-.29014-.311-.48873-.61675-.85192-.77357M28.91191,9.36626l.09411,2.1534c-.18295.02875-.36064.0575-.53052.08625-1.4791.32667-2.86426.76571-3.97219,1.16817l-.609-2.15862c1.26233-.40509,2.97655-.8781,5.0176-1.2492M29.24384,5.36522l.83103,2.91127-.56178.09931-.77361-2.2109-.32922.09931v2.37031c-.1308.02614-.25617.05226-.38154.0784l-.31885-3.0524c.49383-.10454,1.00617-.20385,1.53397-.29531M35.97581,4.77983c.20911.00261.41551.00522.61936.01045l.37117,3.04195h-.61155l-.37899-2.27624-.39462.04967-.32396,2.28144c-.12808.00261-.25617.00524-.38154.00786l.2064-3.10729c.29525-.00784.59592-.00784.89371-.00784M44.4614,5.78335l-.26398,2.94002c-.17498-.03659-.35012-.07317-.52781-.10715l-.02616-.01045.09937-2.27361h-.37899l-.77361,2.08806c-.13845-.02353-.27961-.04442-.42333-.06795l.7945-2.87991c.51999.0967,1.01909.20122,1.5.31098M36.72326,10.94213l-.23782-2.21614c2.3154.02875,4.41131.25088,6.23032.55666l-.69003,2.12726c-1.56013-.24564-3.32938-.42335-5.30247-.46777M30.50091,11.31061l-.62718-2.10897c1.7064-.26919,3.60644-.45734,5.64222-.47826l-.27451,2.21876c-1.60448.0392-3.26925.18293-4.74053.36848M41.50303,8.2556c-1.15499-.15943-2.41461-.27963-3.77616-.33714l-.36862-3.10204c1.75888.07579,3.42875.277,4.95762.53835l-.81285,2.90082ZM34.21183,7.92107c-1.18386.05489-2.32066.16726-3.38951.311l-.90424-2.97922c1.39823-.22213,2.89568-.38417,4.45581-.44688l-.16206,3.1151ZM27.04074,12.94134c.23001.15157.26925.38938.40515.59322-.26654.06273-.51489.12543-.7449.18816-.23766-.31622-.41807-.66117-.75-.79185.17259-.04703.35028-.09668.53323-.14374.18279.00261.36064.0183.55652.1542M27.69934,13.99713c.17514-.03397.35809-.06534.5436-.09931v2.11159c-.20385-.04442-.39462-.08885-.56976-.13329h.02616v-1.87899ZM28.4991,13.3046c-.15679-.21169-.21964-.48087-.47038-.64289-.15679-.10976-.29014-.14112-.43131-.14896.31885-.07317.65079-.14374.99054-.2143.2509.19338.39191.5488.53833.89114-.03669.00524-.07321.01047-.10719.01569-.17769.03397-.35012.06534-.51999.09931M30.15063,13.04849c-.16461-.39462-.32667-.77095-.64026-.92514.29796-.05226.59847-.10192.90695-.14896.24819.23782.37883.64289.62447.9774-.30306.02875-.60102.06011-.89116.0967M34.25633,12.79238c-.26398-.2326-.24835-.61414-.53833-.90422-.12808-.13068-.25888-.19863-.39733-.24305.36846-.02614.7449-.04965,1.12643-.06795.03397.02353.06524.04965.09666.0784.42333.33975.44694.83366.78653,1.14727-.3632-.00784-.72129-.01308-1.07396-.01045M36.22943,12.82897c-.23527-.32406-.32667-.72129-.64823-1.00876-.21422-.16465-.37883-.2143-.5932-.2143-.05232-.0183-.10448-.03136-.15679-.04181.41025-.01308.82321-.02353,1.24399-.02353h.09666c.42333.38156.51489.90945.99054,1.31974-.30577-.01306-.61426-.02351-.93295-.03134M38.03775,12.89951c-.41025-.48085-.53833-1.0009-1.0923-1.3511.4077.00784.81013.02353,1.2073.04442.33449.36326.35538.9382.70566,1.35896-.26654-.0183-.54105-.03659-.82066-.05228M39.79663,13.02757c-.31885-.43121-.30849-1.04012-.76308-1.37463.30051.02353.5932.05228.8859.08362.40243.45473.50962.9774.91732,1.39554-.33464-.0392-.68221-.07317-1.04014-.10454M41.79062,13.24709c-.36336-.42337-.44439-.94342-.8599-1.3903.28759.0392.56976.08101.84682.12543.30306.4861.53307.81277.71602,1.36418-.2273-.03397-.46257-.06795-.70295-.09931M43.47357,13.50581c-.21948-.52527-.46257-.84672-.76579-1.36416.4077.07579.80232.15418,1.18386.2378.24054.36848.21964.8023.35809,1.27009-.24819-.04965-.50436-.0967-.77616-.14374M45.22719,13.85601c-.1359-.47824-.11245-.90161-.42349-1.26748.26143.06273.51489.12804.75797.19338.25346.37109.2273.77618.32396,1.2335-.2064-.05226-.42588-.10454-.65844-.15941M43.49973,11.67647l.17769-2.21874c1.78488.34495,3.26143.76049,4.37478,1.12636l-.62208,2.13773c-1.03488-.3502-2.34937-.72651-3.9304-1.04535M44.91615,8.88541l.2064-2.94786c1.22054.29531,2.29976.61414,3.20145.90945l-1.29886,2.61074c-.61936-.19079-1.32502-.38678-2.10899-.57233M43.69305,3.61167l.94077.2143.49399-.71084-1.48437-.22997-.0654-.60892,1.87899.39462-.82321,1.15511-.15153,1.10544c-.36591-.08362-.74745-.16465-1.13935-.24305l.35012-1.07669ZM35.20236,2.05933l-.21438-.60892h1.92875l-.56194,1.31974.0654,1.17602c-.14898-.00261-.29541-.00522-.44439-.00522-.24293-.00261-.48602,0-.72639.00261l.16716-1.17341h.93822l.33193-.8258-1.48437.11498ZM28.73948,2.10897l-.10719.56449-1.42679.37632-.32938-.49393,1.86335-.44688ZM27.53473,3.72665l.94077-.2326.3163,1.12897c-.39462.07581-.78413.1542-1.16041.23521l-.09666-1.13158ZM20.97263,5.60566l.92514-.3293v-.8415l-1.36952.55927-.39717-.44429,1.83193-.72388-.06524,1.45039.43115,1.0741c-.40499.14112-.75271.26917-1.04014.37893l-.31614-1.12372ZM23.53622,6.76074c.98527-.31098,2.17439-.64809,3.51249-.95387l.31359,3.04978c-.9513.2143-1.81375.44165-2.5663.66379l-1.25978-2.7597ZM22.30276,11.17209c.15424-.0575.33193-.12282.53052-.19601l.4077,2.28407c-.24309.09931-.45731.19079-.635.26658l-.30322-2.35463ZM23.3874,13.75147c.02871-.01045.05742-.02092.08358-.03136.35283.18555.53307.52266.82848.84672-.05232.02614-.07848.04183-.07848.04183-.15424.09146-.23527.16724-.27706.22474-.18551-.1176-.72384-.5096-.55652-1.08193M26.47895,15.15224c.12537-.33714.09921-.54358.77616-.9382v1.54709c-.56449-.17247-.85974-.3554-.77616-.6089M28.63229,16.09042h.00782v-2.25793c.15951-.02614.32412-.04965.49399-.07579v2.43826c-.17514-.03659-.3423-.07056-.50181-.10454M29.46332,16.2629v-2.55063c.16206-.02353.32667-.04442.49654-.06534v2.68914c-.16461-.01828-.31359-.0392-.44678-.06273-.01579-.00261-.03142-.00784-.04977-.01045M44.255,15.87612c-2.81992.49654-5.52467.61153-6.5152.66119-.93295,0-5.18221.04965-7.45055-.16465v-2.76231c.23511-.02614.47565-.05226.72384-.07579v2.22657h.33193v-2.25793c.23001-.0209.46512-.0392.70821-.05487v1.70391h.27961v-1.72482c.21693-.01306.43641-.02614.6586-.03659v1.14988h.21422v-1.16294c.32667-.01308.66387-.02614,1.00617-.03659v1.26748h.37899v-1.27533c.26909-.00522.54615-.01045.82577-.01045v.9382h.32922v-.9382c.1099,0,.21693-.00261.32938,0,8.09097.04442,11.31587,1.62029,11.67125,1.81106-.42078.18555-1.09246.36326-3.49144.74218M48.30566,14.78113c-.00526-.00522-.01053-.00784-.01834-.01306.00526-.19338-.01037-.39201-.01037-.55664,0-.27963-.08374-.44167-.16987-.65595.36846.12804.69258.24564.96948.35279-.17243.22738-.47565.60892-.77089.87286M49.34309,13.44572c-.20114-.08364-.43115-.18032-.69768-.28225l.32922-2.26057c.25617.09409.48091.18032.67168.25613l-.30322,2.28669ZM49.57837,10.37763c-.15153-.06273-.32412-.13329-.51489-.20907l.53323-2.12203-.37899-.16465-1.13935,1.92082c-.13861-.04703-.28233-.0967-.43386-.14635l1.34065-2.58722c.56976.19599,1.04796.37632,1.42168.52527l-.82848,2.78323Z" style=" fill-rule:evenodd; stroke-width:0px;"/><path d="M67.46829,39.35502c.23001-.04967.44423-.11498.55923-.11498.33193-.09931.38154-.60892.33193-1.27009-.04961-.7239-.77616-.60892-.77616-.88855,0-.16724.04961-.56186-.115-.99046-.04961-.18032-.16461-.44427-.32922-.67687-.26398-.32928-.61155-.32928-.87553-.2143-.27961.09931-.55923.33189-.60884.4469-.16477.16463-.27961.26394-.39462.44427-.09937.04965-.16732.09931-.26398.2143-.33193.32928-.61155.89114-1.10554,1.38507l-.11484.11498c-.49654.44688-.21438-1.05579-.21438-1.45041,0-.2143.16461-.44427.32922-.60892.115-.16724.27977-.33189.32938-.44688.16461-.26394.70821-1.31974.82577-1.66471.16461-.37893.115-1.50006,0-1.87899-.04961-.4469-.49654-.77618-.82577-.89116-.21438-.11498-.16461-.32928-.32938-.65856-.06524-.115-.16461-.2326-.27961-.39723-.49654-.49393-.87537-.2143-1.10538-.2143h-.04961c-.115,0-.16477-.06534-.27961-.11498-.115-.16465-.16477-.3293-.115-.55927,0-.04965.06524-.16463.115-.33189.11484-.11498.16461-.2143.27961-.32928.21422-.39462.5436-.77355.5436-.88855.06524-.23258,0-1.45302-.09937-1.94694-.115-.37895-.23001-.55927-.44423-.65856-.0654-.06534-.16477-.115-.27961-.115,0,0-.04977,0-.115-.04965h-.16477c-.21422,0-.33177.04965-.43115.04965-.16461,0-.23001-.04965-.23001-.23258,0-.09931.115-.26394.23001-.49393l.43115-.6089c.0654-.04967.115-.16726.16477-.2143.27961-.56188,0-.89114-.09937-1.33543,0-.1176-.0654-.16726-.0654-.23258-.09921-.2143-.26382-.44427-.43115-.60892-.115-.04965-.23001-.16465-.32922-.2143h-.0654c-.49383-.28225-.32922,0-.60884.16465-.21438.11498-.21438.55925-.42859.49391-.06795,0-.11772-.04965-.23256-.09929-.26398-.22999-.609-.55927-.82321-.79185l-.27977-.26396s-.33177,0-.66115.04967c-.16461.04965-.32922.04965-.37883.16463h-.0654c-.09937.1176-.21422.33189-.32922.56188-.09937.2143-.21438.49391-.16477.70821,0,.2326.115.39723.16477.56188.06524.16463.115.27961.115.39462,0,.09929-.04977.16463-.115.2143-.16477.16463-.49654.32926-.5436.56186-.11756.32928.04705.82321.32922,1.10283l.21438.2326c.115.09929.22985.2143.39462.32928.09921.11498.21422.16463.37883.27963.04977,0,.115,0,.16477.04965.44678.16465.66115.11498.72639.27963.04977.1176.04977.82582.04977,1.05579,0,.16463-.5436.8258-.61155,1.27009-.04977.34495.28217.8415.61155,1.12111l.16461.16465c.21422.16465.55923.27963.89116.32928.21422.04967.42859.04967.5436.04967.21422,0,.44423.11498.55923.27961.04961.06795.09921.16465.09921.28225.0654.16465,0,.32928-.09921.44427-.115.16465-.27961.27963-.34501.39462-.16461.16726-.5436.54619-.75782.94081-.11772.09931-.16461.2143-.16461.32928,0,.27963.04689.32928.16461.44688l.21422.2143c.21438.27963-.04961.7239-.04961.7239,0,0-.06795-.04965-.16461-.21428-.28233-.22999-.72655-.67687-1.05577-.84152-.04977-.04965-.115-.04965-.16477-.11498-.37883,0-.37883.44688-.37883.79185,0,.32928.16461,1.22042.26382,1.54973.0654.11498.16477.2143.27977.32928.27961.28223.60884.49652.60884.61153.04961.16463-.04961.83888-.115,1.10283-.04961.23258.32938.34756.56194.44688.04961.06534.09666.06534.09666.11498.11756.115.23256.65856.23256.94081,0,.27963.609.34497.77361.39462h.04961c.04961,0,.16461.11498.27961.32928.09937.16465.16732.44429.21693.61153.04705.22997.115.39462.21422.49393.0654.06534.115.11498.23001.11498q.04977,0,.04977.06534c.11484.04965.21422.16463.27961.32928,0,.04965.04961.16463.04961.2143q0,.06795-.04961.06795c-.0654.04965-.16477,0-.27961,0h-.27977c-.16716,0-.26382-.06795-.43115-.06795h-.06524c-.09937,0-.21438.06795-.26398.06795-.27961.09929-.27961.37893-.44439.65856-.22985.32928-.22985.56186-.39462,1.00613-.16716.44429.16477,1.15249.16477,1.31976,0,.16463.06524.60892.32922.95387.1804.09931.23001.26394.34501.44688.09921.16465.21422.37895.32922.54358,0,.06534.04961.11498.09937.16465.28217.44427.06795.67685.06795,1.22044,0,.22997-.06795.34495-.16732.3946-.115,0-.23001,0-.32922-.11498-.0654,0-.115-.04965-.115-.09931-.23001-.22997-.115-1.17078-.44423-1.50006-.27977-.34495-.44694-.83888-.44694-1.28576,0-.27963-.04705-.55927-.09666-.89116-.06795-.2143-.16461-.44427-.23256-.60892-.16477-.44427-.32938-.6089-.37899-.98784-.0654-.34756.49383-1.28837.49383-1.66732,0-.39462.04977-1.28576-.16461-1.73005-.21422-.44427-.27961-.27961-.39462-.77616-.04961-.27961-.16461-.49391-.37883-.7239-.16477-.2143-.37899-.32928-.61155-.32928h-.32938c-.115,0-.27961,0-.37883-.04965-.16477,0-.27961-.1176-.39462-.2326h-.04977c-.21422-.2143-.37883-.54358-.72639-.82319-.09937-.11498-.26398-.16465-.37899-.22999-.609-.2143-1.22038.22999-1.31976.44429-.16461.22997-.0654,1.66471-.0654,2.06192,0,.37895.56194.55927.56194.55927,0,0,.04961.42859,0,.54358-.11756.11498-.56194.27963-.89116.44688-.09937.06534-.21422.16465-.21422.22997-.115.26396-.16477.87286.04961,1.22044,0,.09931.115.2143.16461.26394.27961.27963.6586.5096.6586.5096,0,0,.23256.49654.51218.49654.26398.04703.75782.22997.75782.44427,0,.04967.0654.04967.16477.115.18279.04965.51218.04965.77616.04965h.39462c.09921,0,.21422.11498.37883.16463.32938.22999.66115.51224.94093.77618v.06532c.37883.44429.44423,1.10546.32922,1.27011-.04961.06532-.16461,0-.32922-.11762-.16477-.2143-.37899-.6089-.5436-.98784-.06795-.22997-.23256-.39723-.39733-.44427-.115-.04965-.27961-.1176-.37883-.04965-.115,0-.23001.04965-.27961.04965,0,.04703-.04977.11498-.115.16463-.21438.2143-.5436.49393-.5436.49393,0,0-.11756-.04965-.23256-.16465-.37899-.27961-1.15259-.77616-1.48453-.72651-.27961.115-.44423.2326-.60884.39723-.09937.16465-.21422.32928-.32922.60892-.16477.44427.27961,1.05579.32922,1.10546v.11498c0,.22997-.04961.67685-.21422.94081-.21438.27961-.44439.7239-.16477,1.17078.115.27963.27961.44427.37899.55925.115.09931.23001.16465.23001.2143.04961.11498.37883.67687.61155.72651h.87282l.37899.2143.23256.18032.5436.26394c.115.06534.22985.115.39462.18032l.16461.16465c.04961.04965.16461.09931.21422.16726.27961.21428.72655.54356.94093.77355l.21422.2143c.16461.22997.115,1.28576.0654,1.33541-.0654,0-.16477-.04965-.27961-.16463-.21438-.16463-.5436-.55925-.5436-.77355-.06795-.16726-.23256-.4469-.39733-.72651-.115-.2143-.27961-.44429-.32922-.56188,0,0-.04961,0-.04961-.04965-.115-.04703-.23001-.11498-.39462-.16465l-.77616-.16463c-.21438-.04967-.37899-.04967-.49399-.04967-.32922,0-.42859.42859-.49399.54619-.09921.115.55939,1.1708.82321,1.54973,0,.06534.115.11498.16477.18032.18279.04967.51218.04967.77616,0,.115,0,.27961-.06534.39462-.06534h.04961c.37899,0,.27961.55927.27961.55927,0,0-.16461,0-.32922.11498-.115.04965-.27961.09931-.39462.2143-.04977,0-.09937.04965-.16477.1176-.42859.32928-.16716.54358-.09921.82321.04961.27961-.115.72651-.32938.72651-.06779,0-.11756,0-.18279-.11498-.21438-.21693-.37899-.66119-.6586-.99048-.32938-.44427-.70821-.72651-.99054-.6089-.21422.16463-.16461.21428-.37883.21428h-.0654c-.16461.06534-.32922.55927-.32922.88855,0,.39723-.21438,1.17078-.21438,1.50006,0,.39723,0,.82582.37899.89116.06524,0,.16461,0,.16461.04965.27961.06534.27961.22997.44423,1.00615.21438.9382.56194.82321.72655.82321.16461.06793.5436.11498.5932.44688.0654.39462.0654,1.05318.16461,1.33543.16477.27961-.37883,1.00613-.37883,1.00613,0,0-.32938.16465-.609.2143-.21422.11498-.71076.44429-.94077.67425,0,.04965-.04961.04965-.04961.09931-.115.22997-.72655.32928-.609,0,.0654-.32928-.04961-.77357-.49654-1.66471-.04961-.16465-.16461-.32928-.27961-.4469-.32922-.44427-.70821-.37893-.82321-.27961l-.04961.11498-.66115.67685c-.32938.26396-.83884.44429-.93822.61153-.115.16465-.32922.32928-.32922.88855,0,.49391-.23272.61153-.23272.61153,0,0-.04961-.39723-.42859-.61153l-.34485-.18032c-.21438-.16465-.33193-.32928-.37899-.61153-.04961-.37893-.71076-.65856-1.15515-.37893-.39462.28223-.89116,1.71436-.89116,1.71436,0,0,.23272.94081.39733,1.17078.16461.2143.09921.77616.09921,1.10544,0,.27963.32938.3293.609.39462.30306,0,.42333.55927.27435.82844-.05232.02353-.52525.24044-1.14717.44165-.28233.11498-.67695.2326-1.00617.32928-.71092.28225-1.36952.4469-1.48437.34758-.04977-.06534-.16477-.22997-.37899-.39723-.44694-.39462-1.17078-.88853-1.71438-1.00354-.16461-.04965-.39717-.04965-.61155-.04965-.49383,0-1.05577.16465-1.48437.32928-.16461.06534-.32922.16465-.44423.22997l-.04977.04967c-.60884.39723-2.27361,2.06194-2.27361,2.06194,0,0-.66115.16463-.82577.16463s-.6586.54358-.09937.65856c.49399.11498.87553.11498.87553.11498,0,0,.609.49654.44423,1.66732-.16461,1.00354-.94077,1.05318-1.31976,1.05318-.11484.11762-.16461.2143-.22985.28225.115.2143.32922.44427.65844.37895.61155-.04967.89116-.16465.89116-.16465,0,0,.94093,1.05318,1.27015,1.38507.09937.18032.37899.34497.6586.55927.16461.04965.27961.11498.44423.22997.26398.09931.49654.2143.71076.26394l.77361.16465c.32938,0,.56194.06795.56194.06795,0,0-.0654.82319-.0654,1.33541,0,.54358,1.05322,1.31714,1.3172,1.54973.23256.2143.16461.82321.16461.82321,0,0-.92259,1.05579-1.03759,1.40075-.115.33191.5436,1.55234.5436,1.55234,0,0,.115-.77616.72655-1.22042l.115-.11762c.5436-.37893,1.31976-.77355,1.31976-.77355,0,0,.21422.2143.5436.39462.22985.16463.49383.26394.72384.33189h.28233c.70821-.16726,1.92859-.8415,1.92859-.8415,0,0-.39717-.32928-1.10538-.32928-.32938,0-.609-.04967-.82321-.16465-.23272-.16724-.44694-.33189-.61155-.56186-.115-.09931-.27961-.2143-.39462-.37895-.26398-.27961-.49654-.56186-.66115-.77616-.21438-.39462-.87298-.55925-.87298-.55925,0,0-.32922-.3293-.06524-.49393.27961-.18293,1.26999-.72651,1.59937-.89116l.06524-.06532.94093.77355.75782.56186,1.27015,1.05318c.11484.11762.32922.2326.60884.39723.6586.37895,1.5.82321,1.5.82321,0,0-.06524-1.17078-.27961-2.38861-.22985-.99046-.94077-1.50267-1.22038-1.66732l-.04961-.04965-1.87899-.88855s.16461-.61151.21422-1.33541c.0654-.66119-.5436-1.27009-.92243-1.59937v-.06534c-.28233-.26396-.77632-.33189-1.00617-.38156h-.16461s-.09937-.32928-.09937-.88853c0-.56188-.115-.94081-.115-.94081l.37899-.11498,1.00617-.39462,1.86064-.66117-.01308-.02875c.08885-.00261.2013-.01045.34501-.02092h.39462c1.10538-.11498.82577.09931,1.31976.77618.55923.65856.60884.70821.98782.98784.11756.06795.16461.11498.23256.11498.21422.04965.27961-.32928.60884-.39462.09937,0,.21438.06534.26398.18032.16461.16726.39462.38156,1.05577.49654.16477.04965.32938.11498.37899.04965.32922,0-.09937-.37893.44423-.72651.66115-.32928.39733.44427.39733.44427,0,0,.49383-.16463.82321-.44427.16461-.2143.32922-.32928.42859-.42859.06524-.11498.115-.18032.18279-.27961.16477-.27963.21438-.27963.59336-.27963h.16461c.115,0,.16461,0,.23001.04703.21422.06795.04961.39723.37883.72651.44694.39462.82592.65856.82592.65856,0,0,.06524-.04965.115-.04965.11484-.04703.32922-.16465.60884-.32928.16461-.06534.28233-.11498.44694-.06534.26382.06534.5436.27963.87282.11498.115-.04965.16461-.11498.23001-.2143.09921-.16463.16461-.3946.32922-.44427.04961-.06534.09937-.06534.16732-.06534.09666.06534.16461,0,.26382-.04965.115-.04965.23001-.16465.27977-.28225.11484-.09668.16461-.2143.27961-.32928.16461-.27963.32922-.60892.32922-.77355,0-.28225-.115-.4469-.32922-.67687-.0654-.04965-.16477-.09931-.27961-.2143l-.115-.04965-.16477-.16465c-.38154-.27961-.43115-.51222-.33177-.79183.06795-.2143.23256-.44429.33177-.60892.0654-.16465.16477-.26394.16477-.37895,0-.1176-.09937-.28223-.16477-.49652-.04961-.18032-.16716-.27963-.26382-.44429,0-.06532-.11772-.11498-.16732-.18032-.115,0-.23001-.04965-.32922-.04965-.44439-.11498-1.05322-.11498-.839-.16463.27977-.11762.724-.49654.55939-.94081-.115-.39462-.32938-.51224-.82321-.67687l-.16461-.04965c-.28233-.16465-.61155-.16465-.89116-.16465-.32938,0-.61155,0-.66131.04965h-.27961c-.115,0-.27961-.04965-.37883-.09929-.115-.11498-.16477-.22999-.16477-.34497,0-.09931.04977-.16463.16477-.2143.09921-.11498.21422-.11498.37883-.16463.23256,0,.49399.04965.61155.04965.115.06534.21438.11498.32938.11498.44423.16465.93806.44429.93806.44429l.11772-.06534c.16461-.04967.5436-.26396.75782-.26396.115-.06532.23001-.06532.34501.04967.09921.04965.16461.16463.21422.32928,0,.06534.04977.11498.115.16463.09937.115.21693.16465.43115.2326.115,0,.16477,0,.27977-.06795.11484,0,.16461,0,.27961-.04965.5436-.16465.65844-.44429.99038-.88855.16461-.28225.27961,0,.44423.27963.115.2143.21438.49391.44439.56186.42859.0967.49654-.16724.71076-.51222.04705-.04965.115-.09931.21438-.09931.22985-.06532.55923.2143.55923.2143,0,0,.21422.04967.44423,0,.16461,0,.37899-.04965.49654-.2143.32922-.44427.16461-.6089.70821-.8415.55923-.2143.49399-.2143.6586-.44427.115-.2143-.04961-.72651-.04961-1.22044,0-.44427-.16477-.32928-.609-.65856-.04961-.06532-.09921-.06532-.09921-.11498-.55939-.49654-.44439-.44688-.94093-.8415-.06524-.04965-.115-.09931-.16461-.09931-.39462-.22997-.60884,0-.77361.2143-.04961.06534-.11484.16465-.22985.27963-.21438.16463-.49654.39723-.66115.49654-.21438.16463-.16477-.21693-.5436-.4469-.04977,0-.115-.04965-.16477-.04965-.32922-.04967-.61139.16463-.61139.16463l-.77361.2326-.04961.04965s0-.04965.04961-.04965c.23001-.11762.32922-.56188.39462-.79185,0-.26394.37899,0,.66115,0,.09937,0,.21438-.16465.32922-.37895.115-.16463.16477-.44688.21438-.56186.0654-.2143.23001-1.22044.27961-1.82934.115-.56188.61155-.2143.87553-.2143h.06524c.27961-.06534.49399-.06534.70821-.27963.23001-.28225.115-.61153-.16461-.94081-.16461-.22997-.37899-.27963-.60884-.44427-.09937-.06795-.21438-.11498-.33193-.23258-.32922-.3293.11756-.44429.11756-.44429h.21438c.22985-.04965.72384-.16463,1.00346-.32928l.04961-.04965c.37899-.34758.44694-.77618.61155-1.00615.115-.16463.44439-.77355.44439-1.27009,0-.44427-.39462-.67423-.89116-.67423-.115,0-.16477-.04967-.21438-.11762-.06524-.04703-.06524-.16463,0-.26394.04961-.11498.04961-.16465.09937-.22997.115-.2143.16461-1.1708-.04977-1.50008h-.04961c-.23001-.2143-.55923-.27961-1.00346-.27961-.09937-.04967-.26398-.04967-.38154-.04967-.70821-.11498-.44439.32928-.70821.7239-.16477.1176-.23001.28225-.27977.38156-.11484.16463-.16461.27961-.27961.5096-.21422.27961-.94077.94081-.94077.66117,0-.21691.23001-.94081.27961-1.10546.04977-.06532.49654-.67685.94077-1.17078.115-.16463.27977-.32928.44439-.44427.5932-.56186.71076-1.27009.82577-1.71697.09937-.44427-.23256-1.28578-.23256-1.28578l.33193-.04965c.27961-.04965.72384-.16465,1.00346-.16465.04961-.06532.16461-.06532.21438-.06532.39717-.04967.89116-.54358.94077-.99048.115-.44427-.21438-.6089-.5436-.83888-.34756-.26394-.18295-.44688-.18295-.54358.06795-.06795.44694-.16724.77616-.23258M67.46829,38.13457c.0654.04965.16461.04965.23001.16465.16461.16724-.0654.28225-.23001.39723-.04961,0-.04961.04965-.09921.04965-.16477.16463-.16477-.66117-.16477-.66117,0,0,.16477,0,.26398.04965M63.82533,33.02546h.06524c.21438-.09929.44439-.26394.44439-.49652,0-.16465.26398.16463.09921.56186-.09921.32928-.37883.60892-.5436.60892-.06524.04965-.11484,0-.11484-.06534,0-.16465-.21438-.54358.04961-.60892M58.15168,42.5224h-.49383c-.16477,0-.27961,0-.39462-.1176-.09937,0-.16477-.04967-.21438-.0967-.32922-.28225-.37899-.67687-.49654-.67687l-.06524.06534c-.16477.04967-.49399.32928-.6586.04967-.26398-.32928-.32938-.60892-.42859-.77618-.115-.22997-.115-.7239.42859-.6089.32922.04965.49383,0,.6586,0,.115,0,.23256,0,.39717.16463.27961.32928,0,.61153.37899.77616v.04967c.16461.06534.27961.06534.39462.11498.16461.04965.26382.04965.37883.16463l.115.115c.16461.39462.28233.77616,0,.77616M58.31629,40.52579s-.11484-.04965-.27961-.04965h-.115c-.09921.04965-.16461-.06534-.26382-.18032-.115-.09931-.23001-.2143-.32938-.37895l-.06524-.11498q-.21438-.28225-.59336-.44688c-.06779,0-.11756,0-.18279-.04967q-.26398-.06532-.26398-.44427c0-.39462,0-.27961-.49399-.60892-.49383-.39721-.39462-.72651-.27961-1.05579.115-.28223-.16461-.94081.37899-.72651.44423.16465.55923.27963.6586.44429.06524.1176.06524.23258.115.33189.11756.39462.16461.5096.44678.55925h.21438c.115-.04965.27961-.11498.39462-.04965.04961,0,.09921.04965.09921.2143,0,.16463-.04961.21428-.09921.28223-.115.04705-.16477.16465,0,.44429v.04965c.16461.44427.26382.49393.37883.67425.04977.04965.115.09929.115.2143.28233.39721.16461.89114.16461.89114M58.59862,38.36717l.21422.6089.16477.16465.21422.09931-.16461.6272-.04961-.18293-.21438-.44427-.39717-.42859.23256-.44427ZM59.19182,41.08768c-.04961.04965-.16461.09929-.21422.16463-.115.04965-.16477,0-.16477,0,0,0-.16461-.28225,0-.44688.115-.06534.115-.115.16477-.115.11484-.04965.16461-.04965.16461-.04965,0,0,.16461.16465.04961.4469M54.67332,44.91101c.21438-.11498.44694-.7239.82577-.39462.44439.39462.27977.77355.609.77355.115,0,.21422,0,.37899-.04703.18279-.04965.34756-.04965.34756.16465.04961.3946-.16477.93818.16461,1.21781.09921.06795.16461.1176.26398.1176.16461.04967.27961,0,.39462.04967.04961.06532.09921.11498.09921.27961.16461.55927.23001,1.00615,0,1.00615-.04961,0-.09921,0-.09921.04967-.115,0-.23001.11498-.39462,0-.04977,0-.16477-.04967-.26398-.11762-.32938-.2143-.39717-.49391-.51218-.70821-.04977-.11498-.09937-.16465-.16477-.27963-.32922-.32928-.5932-.11498-.82321-.49393-.16461-.39723-.09921-.56186-.21422-.8415-.11756-.27961-.77616-.61153-.61155-.77616M58.03668,49.7431c-.04961,0-.21422.04965-.37883,0-.115,0-.16477-.06534-.27961-.11498-.04977,0-.115-.04967-.115-.11498-.21438-.16726-.33193-.33189-.5436-.4469-.04977-.04965-.16732-.04965-.23256-.04965-.26398.04965-.6586.23258-.87298-.16465-.27961-.49391-.04961-.39462-.32922-.77355-.28233-.33189-.23256-.49654-.23256-.49654,0,0,.56178-.34495.89116.09931.21422.32928.37883.56188.5436.77616,0,.06534.06524.115.115.115.11756.16463.39717.16463.66115.16463.115,0,.27961,0,.39462.06534,0,0,.04961,0,.09921.04965.16461.115.23001.3293.27961.49393.04977.1176.04977.23258.04977.28225,0,0,0,.04965-.04977.11498M58.76323,46.90761c0,.11498-.16461.60892-.16461.60892,0,0-.16461-.49393-.28233-.89116-.04705-.0967-.16461-.16463-.27961-.27963-.115-.09929-.27961-.2143-.37883-.32928-.16477-.11498-.27961-.2143-.27961-.27961,0-.16465,0-1.15511.21422-1.27009h.0654c.16461-.04967.32922.2143.37883.44427v.04965c.115.28225.44694.8415.66115.94081.23001.11498.0654.89116.0654,1.00615M48.29147,76.40455c.24309.27439.57757.59584,1.02196.96954-.02105-.02875-.03669-.06273-.04705-.09668-.37899-.49393-.44694-1.05581-.44694-1.05581,0,0,.44694.16465.77616.37895.16461.06534.32922.18293.39462.27963.26398.34756.38154,1.33541.38154,1.33541,0,0-.38154-.21428-.77616-.55925l-1.38515-1.05841.08103-.19338ZM40.27898,68.95125c.04961-.22997.16732-.61153.42859-.72651.34756-.16463,1.00617-.2143,1.05577-.2143l.16461.61153-.16461.04965-1.48437.39462h-.0654s0-.06532.0654-.11498M39.67014,67.73082l.16461.09929.21422.11498-.21422.27963-1.15515,1.45041-.44423-.39462,1.43476-1.54971ZM40.27898,74.06297l-.23001.2143s-.04961-.04965-.21422-.16465c-.16461-.16724-.37899-.39723-.6586-.56186-.56194-.44427-.66115-.94081-.66115-.94081,0,0,.33193.1176.82577.39723.16461.09931.32938.26394.49399.44427l.44423.42859c.04961.06534.04961.11498.04961.11498l-.04961.06795ZM41.76334,73.94538l-.04961.16724s-.44423-.23258-.88861-.49652c-.28217-.22999-.44678-.44429-.54615-.60892-.0654-.11498-.115-.18293-.115-.18293l.115.06795,1.48437.55925.115.04967-.115.44427ZM41.76334,70.99488l-.70821-.16463.70821-.27963.72655-.26394.04961.82321-.77616-.115ZM44.46826,79.22173c.11484-.44427.21422-1.05318.21422-1.05318,0,0,.50962.44427.77361.77355.11756.16465.28217.32928.49654.49393.27961.28225.60884.56188.60884.56188l-.60884-.115-.16461-.04965-.59592-.32928s-.67423.49393-1.10283.77355c-.23001.16465-.44694.2143-.39717.16465,0-.16465.23256-.39462.39717-.60892.16461-.23258.32922-.44688.37899-.61153M44.08927,76.3366l-.44694.37893-.27961-.49393.72655-.55925.37899-.33189.32922.39723-.70821.60892ZM44.08927,73.78072c-.56194.66117-1.22038.99048-1.22038.99048,0,0-.115-.26396,0-.61153.11484-.32928.44423-1.33543.49383-2.20829.04961-.8415-.04961-2.67086-.32922-3.06548-.27961-.37893-.77361-1.27009-1.22054-1.48439,0,0,0-.06532-.04961-.06532-.27961-.2143-.16461-.61153,0-.66119v-.06532c.16461-.04967,1.22038.34495,1.54977.55925.16461.1176.42859.33189.77616.77616.49383.67687.98782,1.73005.98782,3.23272,0,1.10285-.49399,1.99399-.98782,2.60291M46.95879,72.60995l.37883.44688-.37883.44429-.16732.27961s.26398-.44427.09937-.83888c-.16477-.37893-.26398-.77616-.26398-.77616l.33193.44427ZM45.95262,72.82424l.115-.0967.16461.37895-.27961.27961-.09937.115-.115-.49393.21438-.18293ZM45.95262,74.11262c.18551.10715.42078.24566.65589.37372l-1.15243-.59586v-.01045s.23256.11498.49654.23258M55.7291,57.90461c-.39462-.16465-.23001-.39723-.27961-.77618,0-.3946-.56178-.3946-.72655-.88853-.16461-.44688.115-1.17078.115-1.45302,0-.32928.115-.7239.49654-.16465.39462.56188.32938.94081.55923,1.10546.21438.18032.37899-.16465.42859.44427.115.56188-.04961.61153.16477,1.05579v.06534c.27961.49654.44423.16463.67679.61153,0,.04965.04961.16463.09937.27961.115.3293.06524.61153,0,.82582v.04705c-.09937.23258-.49654.28223-.49654.28223,0,0,.11756-.71082-.21438-.94081l-.06524-.04965c-.32938-.16465-.37899-.22997-.75797-.44427M53.89972,66.11576c.27977-.11498.39462-.2143.49399-.32928.0654-.04965.115-.04965.16461-.1176.23001-.16465.49399-.27963.67695-.27963.09921,0,.09921.39723,0,.72651-.06795.32928-.34756.49393-.44694.77355-.115.11498-.23001.16465-.39462.16465h-.21422c-.16477,0-.44439-.16465-.56194-.44427-.09666-.2143-.09666-.32928.28217-.49393M53.52089,63.28027l-.33193.78924-.23001.2143-.16461.16463.16461-.7239v-.04965l.56194-.39462ZM53.23856,65.38925l-.115.34758-.16461.09668-.26398.28225.09937-.56186.16461-.09931.27961-.06534ZM48.81943,66.28041s.11756-.72651-.16461-.89116c-.26398-.2143-.5932-.37893-.6586-.54358-.04961-.22997,0-.56186-.04961-.8415,0-.27963-.49399-.55927-.55923-.82321,0-.34756.55923-1.12113.60884-1.22042.0654-.115.32922,0,.44423.44427.04977.37893.16461.66117.44694.77616.09937.04967.21422.09931.26398.09931.16461.06534.34485.16463.34485.55925v1.45041c0,.22213.03397.41815.0445.57494.60628-.4704.46512-.91989.54886-1.29884.11484-.49652.16461-.67685.32922-.8415.11756-.2143.51218-.27963.44694-.82582-.04977-.49391-.115-.72388.06524-.88853.09937-.11498.87282-.2326.99054-.39723l.16461-.16465c.09937-.21428.27961-.44427.37899-.44427.115-.04965.49383,0,.49383.39462.0654.37893.23001,1.10546.23001,1.22044s-.0654.04965-.23001.16463c-.04961,0-.09921.04967-.21422.16465-.32938.33189-.6586,1.28576-.6586,1.28576-.115,0-.44694.04967-.56194.33189-.16461.32928-.37883.98786-.37883.98786,0,0-.115.23258-.27961.34756-.21438.09931-.32938.49393-.44694.16465l-.94859.12282c-.02361.0183-.05232.03397-.08885.04181-.115,0-.16477,0-.23001.04967h-.33193ZM52.30034,64.94498s-.04961.27961-.11484.39462c-.04977.04965-.04977.11498-.09937.11498-.115.04965-.28233.09931-.28233.09931,0,0,0-.37895.16732-.44429,0-.04965.04705-.04965.115-.04965l.21422-.11498ZM55.33448,69.1159c-.33193.27961-.38154-.27963-.77616-.32928h-.16461c-.21422-.06534,0,.09929-.09937.27961-.16461.09931-.39462.42859-.89116,0-.32922-.22997-.37883-.39462-.44423-.44427,0-.06795-.04961-.11498-.21422-.16463-.37899-.06795-.21438.26394-.6586.21428h-.115c-.49654-.1176-.54615-.77616-.54615-1.05579l-2.27361-1.17078c2.37282.95648,2.86681,1.45041,2.86681,1.45041h.06795c.09937,0,.44423-.11498.5436-.27963.115-.04965.23001-.11498.32922-.11498.16461,0,.27961.06534.44423.11498.21438.115.39733.55927.61155.65858.21438.06532.16477-.2143.27961-.37895l.09937-.11498c.23001-.04965.55923-.04965.84156.04965.37883.11498.37883.34497.42859.55927.115.23258,0,.44688-.32938.72651M55.77886,64.1688c-.32938.4469-.77632.51224-1.05593.61153-.09921.06534-.21422.16465-.32922.22999-.09937.16463-.26398.27961-.26398.27961l-.32922.04967s-.115-.55927.09921-.89116c.16477-.37893.23001-.49391.49399-.77355v-.04967c.27961-.27961.49399-.55925.6586-.72651.18295-.22997.61155-.44427.89116-.49391.115,0,.37883,0,.5436.04965h.18279s.04977.32928-.11756.65856c0,.06795-.06524.06795-.06524.11762-.16477.27961-.42859.49391-.70821.93818M61.89657,67.40152c.16477.04967.27977.04967.27977.09931,0,.06534,0,.11498-.04977.16465-.06524.11498-.16461.16463-.23001.16463-.16716.06534-.33177.06534-.43115.11498-.06524,0-.16461.06534-.16461.115-.16461.2143-.115.32928-.16461.44688,0,.04703-.0654.04703-.16461.11498-.27977.09931-.609-.11498-.93822-.11498h-.16461c-.39733.04703-.44694.32928-.72655.32928-.04977,0-.115,0-.16461-.04965-.21438-.06534-.49399-.27963-.5436-.39723,0-.11498-.11772-.55927-.39733-.60892h-.21422c-.0654.04965-.115.04965-.16461.11498-.23001.04965-.27961.11498-.39462.11498-.09937,0-.16477,0-.26398-.06534-.39717-.16463-.44694-.54358-.44694-.54358,0,0-.16461-.51222.71092-.23258.115,0,.22985.04965.39462.1176.16461.04967.32922.11498.37883.04967.27961-.04967.23256-.4469.44694-.4469.21422-.04965.32922.06534.49399.11498.04961,0,.16461.04967.27961.04967.27961.06795.5436.06795.77616.06795.09666,0,.16461-.06795.21422-.11762.115-.22997.27961-.49391.609-.27961.16461.11498.21422.16463.27961.27961.04961.11762.16461.16465.32922.28225.16732.11498.26398.11498.43115.11498M59.70144,64.4014h.33193c.26382,0,.65844-.1176.82321-.06795.115.06795.21422.06795.27961.11498.09921.04965.16461.1176,0,.33189v.06534c-.27961.37893-.88861.98784-.88861.98784,0,0-.11756.06795-.21422.06795-.23256.04965-.49654.16465-.61155.16465s-.27961-.06534-.44423-.115c-.16477-.04965-.32938-.1176-.44694,0-.16461.04967-.26143.16465-.49399.2143-.115.06534-.21422.06534-.37883.06534-.23001,0-.32938-.06534-.39462-.11498-.09937-.11498-.09937-.2143-.09937-.2143,0,0-.0654-.28225.09937-.44688.06524-.06534.115-.11498.22985-.11498h.16477c.09921.04965.26382.04965.37883.11498.23256,0,.39733,0,.49399-.11498.16716-.16465-.04705-.22999.39717-.55927l.04977-.04965c.37883-.28225.44423-.39723.72384-.32928M57.65785,62.01018c0,.04965.04961.11498.09921.11498.115.09931.23001.16465.27961.2143.39733.32928.66115.55925.77616.72651.115.16465.27961-.04965-.115.44427-.38154.49393-.54615.98784-.54615.98784h-.115c-.04961.06795-.21422.11762-.37883.18295-.0654,0-.16477.04965-.23001.04965-.04961,0-.09937,0-.16461.04965-.33193.06534-.59336.22999-.71092.39462,0,.04965-.06524.04965-.06524.11498-.09937,0-.16477-.11498-.16477-.11498,0,0-.09921-.55925.16477-.8415.23256-.26394.67679-.44427.77616-.70823v-.11498c.06524-.32928-.04977-.61153.06524-1.00613.09937-.37895,0-.72653.32938-.49393M58.48361,56.35488c.115.54358.32922.26394.27961.77355-.0654.4469-.44694.54621-.44694.66119-.04705.11498.04977.11498-.16461.27961,0,.04967-.06524.11498-.115.11498-.16461.04967-.27961,0-.32922-.22997-.04961-.2143.21422-.49654-.04961-.66117q-.0654-.06534-.115-.06534c-.16461-.09931-.21438-.16463-.27961-.2143-.09937-.11498-.09937-.22997-.04977-.49391,0-.06534,0-.115.04977-.16465.06524-.23258.27961-.18293.32922-.6272,0-.04967,0-.16465.0654-.16465.04961-.26394.16461-.2143.16461-.37893,0-.16465-.16461-.77616.09921-1.12113.0654,0,.115-.04965.115-.04965.23256-.2143.32938-.115.32938.27961,0,.49393.06795.61153.28217.72651.16461.16465.27961.09931.27961.49393,0,.44427-.56178.27963-.44423.8415M62.12658,30.81458c0-.06534.04977-.115.04977-.16465.04961-.11498.16461-.22997.27961-.27963.04961-.06534.16461-.06534.27961,0,.32922.16465.49654.44429.49654.98784,0,.61153.26127,1.00615.26127,1.1708.06795.16463-.26127.28223-.32922.61153-.04977.32926-.32938,1.10283-.32938,1.10283,0,0,0-.65856-.16461-1.05318-.04961-.09931-.16461-.2143-.21422-.26394-.115,0-.16477-.06795-.27961-.115-.115-.1176-.27977-.23258-.27977-.56186v-.27963c0-.61153.16477-1.05579.23001-1.15509M61.30082,33.3051c-.0654-.2143.04961-.27963.16461-.27963.04961,0,.16732.06534.16732.06534,0,0,.21422.32928.26382.60892v.09931c-.04961.27961-.21422.18032-.21422.18032l-.21693-.22999c-.115-.11498-.16461-.27963-.16461-.44427M61.35042,35.24944h-.21422l-.39462-.04967-.04977-.60892s-.11484-.51222.44439-.11498c.49654.37895.21422.77357.21422.77357M61.89657,35.64667c.0654,0,.16477,0,.27977.04965.11484,0,.16461.04965.27961.11498v.04967c.32922.27961.16461.6089.16461.83888,0,.09929-.04961.04965-.16461,0l-.27961-.27963-.115-.11498-.16477-.32928-.16716-.27963s.06795-.04965.16716-.04965M61.13621,21.53194c.16461.23258.26398.39723.32922.56186.04961.16465.04961.27963,0,.49393-.06524.22997-.23001.44427-.32922.67685-.115.2143-.27961.3293-.27961.115v-1.45041s-.0654-.89116.27961-.39723M58.03668,21.36729v-.04965c.16477-.11498.49399-.11498.82592.16463.06524,0,.115.04967.115.04967.27961.23258.32922.16463.32922.72651.04961.60892,0,1.00613,0,1.00613,0,0-.115-.1176-.32922-.28223-.21438-.16465-.5436-.39462-.61155-.55927-.04977-.09931-.21438-.44427-.32938-.72651-.04961-.16463-.04961-.26394,0-.32928M58.9776,24.64965s-.21438.3293-.77616.16465c-.04977,0-.115,0-.16477-.04965-.21422-.115-.32922-.27963-.37883-.4469-.115-.11498-.115-.22997-.16477-.32926-.06524-.06536.04977-.18032.16477-.27963.09921-.11498.21422-.16465.21422-.16465,0,0,.04961.09931.16461.26396.115.11496.27961.22997.56194.27961.42859.06534.37899.56186.37899.56186M60.03338,28.70559c-.16461,0-.33193-.06795-.33193-.06795,0,0-.50962-.16463-.609-.37893-.11484-.22997.04977-.55925.32938-.88855.21422-.28223.32922.27963.61155.72392.04961.09929.09666.16463.16461.27961.26398.26394.04961.33189-.16461.33189M61.13621,28.37369c-.23001-.22997-.55923-.55925-.77361-.95387-.16461-.28225-.27961-.44688-.32922-.61153-.16461-.27961-.16461-.49391-.23256-.82321-.09937-.44688-.16477-1.12113.23256-1.00613h.04961c.44423.22997.5436.22997.5436.8415,0,.54358.34501,1.15249.44423,1.31712h.0654c.09921,0,.26398-.26394.32922-.54358v-.32928c-.06524-.27963-.16461-.72651,0-.89114.04961-.06534.09937-.06534.21693,0,.115.04965.16461.04965.21422.09929.23001.18032.23001.44427.27977.72651.04961.115.04961.16465.11484.27963l.16477.44427v.39723c-.0654.09931-.115.2143-.27961.37895q0,.06532-.04977.11498c-.115.04965-.16461.16463-.23001.2143-.26382.34495-.38154.51222-.43115.55925l-.06524.04965-.26398-.26394ZM60.9062,31.64039c.0654-.1176.16461,0,.23001.16465.04961.11498.16461.39462.16461.60892,0,.27961-.0654.34756-.16461.34756-.115-.06795-.23001-.23258-.39462-.39723-.32938-.32928.115-.55925.16461-.7239M62.45596,39.47c-.115-.11498-.23001-.27963-.27961-.44427v-.16465c-.04977-.27961-.115-.49391-.27977-.56186-.04961-.04705-.09921-.04705-.21422-.04705h-.21693c-.115,0-.23001,0-.32922-.06795-.115,0-.16461-.09929-.16461-.16463,0-.2143.04961-.98784-.1804-1.10544-.21422-.04705-.70821.1176-.5932-.39462.09921-.42859.26398-.60892.5932-.49393.1804.06534.23001.11498.34501.16465.09921.06532.16461.16463.32922.3946.04961.04967.09937.115.16732.2143.09666.16465.16461.28225.26382.39723.115.16465.23001.2143.27977.32928l.27961.27963v.04967c.21422.32926.37883.61151.44423,1.00613.04961.44427.21422,1.00615-.0654.94081-.09921,0-.26382-.16724-.37883-.33189M61.46543,44.51639c-.115-.16465-.16461-.37895-.115-.54358.04977-.34758-.115-.28225-.21422-.39723-.0654-.04965-.115-.11498-.0654-.27963,0-.09929.0654-.16463.0654-.21428.09921-.27963.16461-.44429.32922-.72653l.04961-.04703c.11772-.23258.21438-.28225.38154-.34756.115-.04967.23001,0,.23001.06532,0,.115.04977.16465.04977.2143.11484.16465.27961.32928.27961.61153,0,.34497-.16477.34497-.27961.60892v.27963c-.04977.33189-.16477.72651-.27977,1.00613l-.09921.2143s-.23256-.2143-.33193-.44427M61.89657,53.12216c0-.04965.0654-.11498.0654-.11498l.21438-.2143c.11484-.04965.16461-.11498.27961-.16463l.21422-.115s-.04961.27963-.21422.55927c-.0654.11498-.16477.2143-.23001.28225l-.32938.32926c-.16716.16465-.26382.2143-.26382.2143,0,0,.04961-.49652.26382-.77616M61.13621,51.85207c.09921-.22997.26398-.27963.26398-.11498s.06524.49654,0,.77616c-.04977.16465-.16477.27963-.26398.44427-.0654.04967-.115.115-.16461.22999-.23001.2143-.115-.55925.04961-1.05318,0-.11498.04961-.23258.115-.28225M59.47144,48.57232c.115-.37895-.16461-1.05579,0-1.43474.23001-.34495.39733-1.05579.56194-.60892v.0967c.16461.61153.04961,1.12113.37883,1.33804.32938.22997.609.22997.49399.65856-.115.5096-.87282-.04965-.609.7239.32938.8415.39462.23258.44439.89116.115.72651-.04977.8415-.16461,1.12111-.16477.2143-.49399.37895-.44694.16465,0-.11498-.04705-.34497-.09666-.60892-.11772-.27961-.16461-.56186-.28233-.72651-.16461-.39462-.39462-.67423-.39462-.8415,0-.0967,0-.32928.115-.77355M63.39673,58.01959c.16461,0,.32922.04965.49383.16463.27977.16465.49399.37895.77361.26396.16732-.04967.33193-.32928.59592-.60892.18024-.16463.34485-.33189.60884-.33189.16461,0,.27961.06795.39462.06795.33193.09931.42859.32928.61155.49391.21422.27963.5436.16465.5932.49393v.11498c.0654.37895.16461.66117,0,.77618,0,0-.04961.04965-.09921.04965-.39462,0-.77361-.09931-.77361.06534,0,.16463.09666.32928-.33193.54358-.44423.18293-.60884-.32928-1.00346-.04967h-.04977c-.44678.32928-.54615.56188-.71076.56188s-.32922-.51222-.609-.72651c-.11484-.11498-.27961-.16465-.39717-.11498-.5436.22997-.70821.67685-1.03743.89114-.115.06534-.16477.11498-.27961.11498-.115.04967-.16477,0-.27977-.16463l-.16716-.16465c-.21438-.34756-.16461-.61153-.26398-.72651-.06524,0-.115-.04965-.23001,0h-.09921c-.34501.11498-.23001.27963-.67423.44427-.21438.11762-.33193.04967-.42859,0-.16461-.11498-.28233-.27961-.28233-.27961,0,0-.49383.11498-.44423-.11498,0-.27963,0-.72651.39462-.54358.09937,0,.21422.04965.33193.09929.26382.115.5436.27963.75782,0,.1804-.2143.23001-.44688.34501-.61151.04961-.09931.16461-.16465.26398-.16465l.06524.06534c.16732,0,.26398.09931.43115.26394.115.06795.23001.1176.27977.16465.11484,0,.16461-.04705.21422-.0967l.0654-.06795c.27961-.26394.44423-.9382.94077-.87286M63.44634,55.29909c-.21422.49393-.11756.87286-.54615.94081-.16461,0-.32922-.06795-.44423-.1176-.115-.04705-.16477-.04705-.27961,0-.04977.04965-.115.16724-.16477.44688-.115.60892.04977.65856-.115.7239h-.76037c-.16461,0-.23001,0-.55923.2143-.16477.1176-.37899.23258-.5436.33189-.39733.22997-.72655.34495-.72655.34495,0,0,.27961-.8415.72655-1.33541q0-.06534.04961-.11498c.32922-.3293.77361-.61153,1.05322-.82582.09921-.06534.16461-.11498.21422-.18032,0,0,.04977-.04967.115-.04967.09937-.04965.26398-.11498.43115-.16463.115-.04965.23001-.11498.27977-.16465.16461-.11498.27961-.22997.27961-.32928v-.16463c.04961-.39723.37883-.67687.77616-.56188.37883.16465.37883.44427.21422,1.00615M64.10494,51.40781c0,.04965-.09937.11498-.21438.16463l-.39717.115s.06795-.50962.28233-.7239c.04961-.04967.04961-.115.11484-.115.16477-.16724.37899-.28223.37899-.28223,0,0-.09921.72651-.16461.8415M65.93432,49.24916c.04961-.18293.16461-.39723.32922-.51222.09937-.11498.21438-.11498.33193.11498.16461.39723.09666.77618-.11756.77618-.115.04965-.16477.11498-.21438.16463-.115.16465-.16461.44429-.23001.67425-.09921.26394,0,.49654-.49383.49654-.09937,0-.21438-.04967-.27961-.04967-.33193-.06534-.59592-.18293-.59592-.18293l.09937-.77355s.28217-.16465.49654-.27963q.06524,0,.115-.04965c.16461-.04967.49383-.11498.55923-.37895M63.44634,48.57232c0-.2143.16461-.2143.44423-.32928.115-.04967.16477-.16465.27977-.32928.32922-.51222.37883-.61153.49383-.9565.04961-.26394.33193-.66117.59592-.61153.06524,0,.115.06534.18024.115.32938.28223.5436.16463.26398.67685-.26398.54358-.26398.94081-.26398,1.31974,0,.27963-.06524.27963-.18024.27963-.09937.06534-.26398.06534-.42859.16465-.39733.27963-.44694.44427-.56194.89114-.04961.16465-.21422.115-.37899.115-.16461,0-.32922.04965-.39717.27961-.26127.54358-.37899.89116-.70821,1.05579-.16461.11498-.27961.16465-.32922.2143-.16477.06534-.23001.06534-.27961,0,0-.09931-.04977-.65856,0-1.05579.04961-.27963.11484-.32928.27961-.44427.04961-.04965.115-.09931.21422-.16465.39462-.27961.77616-.8258.77616-1.22042M64.43416,43.52593c-.09921.2143-.26382.99046-.5436,1.50006-.06524.09931-.16461.21691-.22985.26394-.42859.39723-1.15515,1.23873-1.08975.72651.09921-.49391.09921-.72651.09921-1.15509,0-.44429.115-.67425.27961-1.12113.115-.49393.115-.65856.16461-1.21783.11772-.49654.11772-.61153.66131-.2143q.04961,0,.11484.04703c.49399.33191.6586.94081.5436,1.1708M64.92815,40.47615c-.5436.54358-.87282.77616-.87282.77616,0,0-.115.04965-.16477.09931-.11484.06534-.27961.11498-.27961,0,0-.16465-.11756-.77618.115-.99046.04977,0,.09937-.06534.16461-.06534.32938-.16465.82321-.37895.98798-.37895.21422,0,.61139,0,.04961.55927M66.42815,39.14072h-.16461c-.16461.04965-.32922.04965-.32922.04965,0,0-.0654-.44427.32922-.49391h.04961c.37899-.06534.32938.32928.115.44427M66.36291,38.08493s-.04977.04965-.09937.04965c-.16461,0-.44423,0-.60884.16465-.16477.1176-.27961.23258-.39462.33189-.09937.11498-.21438.22997-.26398.34495-.11756.2143-.89116.49393-1.10554.32928-.06524-.06532-.06524-.11498-.06524-.16463,0-.22999,0-.39462.06524-.55925.04977-.115.115-.16465.21438-.2143.27961-.2326.82321-.56188.82321-.56188l.33193-.60892.06524-.11498.5436-.49654.32938-.72388h.06524c.16461.04965.82577.27961.49654,1.00613-.33193.82321-.33193,1.10285-.39717,1.21783M49.47022,66.18893c.07305-.06011.08087-.1751.0705-.32406-.10719.08362-.23256.16726-.38936.25088l-.33193.16465.33193-.04967.31885-.04181ZM21.9646,68.36063c.16732.00261.3423.01306.54089.02875l-.49638-.0575-.0445.02875ZM34.75702,69.88944s.39462,0,.89116-.16465c.54344-.11498.09666-.6089-.11772-.6089-.16461,0-.82321-.16465-.82321-.16465,0,0-1.66461-1.66471-2.25781-2.11159h-.06795c-.09682-.11498-.26143-.16465-.44439-.22997-.42859-.16465-.98782-.32928-1.48437-.32928-.21422,0-.37883,0-.60884.06532-.5436.09931-1.27015.60892-1.69874.99048-.23001.16463-.32922.32928-.39462.39462-.04961.09929-.71076-.115-1.48437-.3293l-.99038-.34756c-.50181-.15941-.90424-.32667-1.07938-.40245-.2064-.22736-.41551-1.31976-.25617-1.54189.16461-.26394,1.22054-1.48439,1.43476-2.09328.23001-.67687.27961-2.11161.27961-2.11161,0,0-1.43476.99048-1.54977.49393-.04961-.27963-.42859-.9382-.70821-1.45041-.16461-.32928-.32922-.60892-.32922-.60892l-.82577,1.66471s-.34501-.61153-.77361-1.50006c-.16461-.26394-.27961-.49393-.39717-.66117-.26398-.39462-.49399-.44429-.49399-.11498-.04961.56186.16461,2.11159.39717,2.67084.04977.1176.04977.16465.09682.28225.11756.54358.23256,1.26748,0,1.15249h-.04705l-1.54977-.98786.0654,1.43474-.94093-.99046s-.115-1.50008-.06524-1.89731c.06524-.44427.49383-1.764.44423-2.71787-.04961-.94081-.82321-2.60552-.82321-2.60552l-.61155.88853-.21422.33189s-.32938-.49652-.44439-1.17078c-.11484-.26394-.32922-.66117-.60884-.94081-.38154-.37893-.82577-.65856-.94077-.37893-.04977.2143-.04977.60892-.09937,1.05579-.06524.82319-.06524,1.764-.06524,1.764,0,0-.26398-.09929-.61155-.26394-.16461-.11498-.37899-.27963-.49399-.51222-.26398-.37893-.04961-1.87901.115-2.20829,0-.11498.16461-.27961.37899-.51222.23256-.16465.44678-.37893.67679-.60892.37899-.32928.75797-.66117,1.04014-.89114.115-.09931.27961-.2143.32922-.32928.23001-.2143.609-.65856.93822-1.05579.23256-.27963.44694-.55927.49654-.77357.23001-.44688.115-1.50006.115-1.50006l-.61155.39462-.44423.26394.44423-1.27009c0-.04965.06795-.11498.06795-.16463.16461-.39462.16461-1.99399.16461-1.99399l-.23256.16463c-.32922.32928-1.03743.98784-1.26744,1.26748v.06795c-.33193.37893-1.04014.49393-1.04014.49393l.09937-1.82936s.77345-.67685.89116-1.61766l.04961-.115c.115-.87286,0-1.54971,0-1.54971v.06534l-1.04014.99046-.06524.11498-.61155.49393-.87298.8415s.115-.34497.115-.60892c0-.28225.70821-.72651.70821-.72651l.04977-.04965c.16461-.11498.39717-.39462.67679-.62722.21438-.16463.42859-.37893.5436-.49391.115-.16465.28233-.32928.49654-.49393.16461-.22997.39462-.49391.60884-.8415.32938-.60892.37899-2.20829.37899-2.20829,0,0-.5436.16465-.42859-.11498.09937-.33189-.16461-2.32588-.16461-2.32588l-.39462.42859c-.11756.06532-.16732.18032-.16732.18032-.27961.2143-.54344.54619-.87282.94081-.23001.27961-.51218.54356-.67679.77616l-.21438.32928-.77345-1.50006-.16477-.2143-.49383,2.43826c-.16732.82582.32922,2.22657.39462,2.55585.04961.32928-.27961,2.11159-.27961,2.11159l-.61155-.67685-.49399-.44427h-.39462s.16461.5096.55923,1.12111c.115.16465.21438.37895.32938.60892.16461.4469.21422.82582.21422.82582,0,0-.09921.95648-.21422,2.05933l-.16461,1.43472c-.115.84152,0,1.84764.16461,2.62121.115.71082.21422,1.22042.21422,1.22042l-.09921,1.59937-.115-.26394c-.32938-.5096-.98782-1.61504-1.43476-2.50621-.21422-.37895-.44423-.77355-.44423-.9382-.16461-.72651-.04977-1.45302.16461-2.67084.16461-1.27011-.04961-2.88515-.16461-3.3817-.115-.44427-.44439-1.54971-.6586-1.54971l-.04961.04965c-.115.2143-1.00617.65856-1.00617.65856,0,0-.09937-.82319-.04961-1.43211,0-.4469.82321-.61153,1.10538-.67687h.115v-.65856h-.115l-.71076-.16726s.33177-.49391.71076-.77355h.04961l1.05322-.77616c.37899-.39462.77616-.78924,1.10538-1.23614.16477-.21428.21438-.37893.32938-.54356.21422-.55927.115-.89116.115-.89116h-.115c-.21438-.04965-.55923-.11498-.44423-.55925.16461-.54358-.04977-2.16125-.04977-2.16125,0,0,.16461-.16465.37899-.49391.23001-.34497-.09937-1.22044-.09937-1.22044l-1.22038.2143-.49399.04965s0-.49393.21438-.65856c.0654-.04967.16461-.11498.27961-.2143.33193-.27963.99054-.8415,1.43476-1.33543.115-.16463.21422-.32928.27961-.44688.43115-.77357.71076-1.99399.71076-1.99399l-.99038.26394-.16461.06534s.04961-.44427.16461-.77355c0-.16465.04961-.34758.115-.39723.04961-.2143.59576-.44429,1.04014-.65856.06524-.06534.16461-.11498.22985-.11498.42859-.27963.49399-.84152.49399-.84152l-.72384.22999-1.10554.33189.39733-1.33543s.32922-.16726.70821-.33189c.27961-.16465.55923-.27963.77345-.37893.11756,0,.16461-.06536.21438-.115.23256-.06532.44678-.11498.67679-.22997.32938-.09931.70821-.2143,1.04014-.37895.16461-.06795.32922-.16463.44423-.23258.21438-.16463.5436-.60892.82321-.98784.23256-.34758.39733-.61153.39733-.61153,0,0-.16477.04965-.39733.04965-.21422.04967-.49383,0-.49383-.27961.04961-.54358.44423-1.99399-.04977-1.99399-.22985,0-.49383.21428-.72384.44427-.49654.44427-.94077,1.00615-.94077.89114.06524-.16463-.04977-.89114-.09937-1.38507-.06524-.34756-.06524-.56186-.06524-.56186,0,0-.32938.16465-.61155.32928-.16461.1176-.32938.23258-.37899.28225-.16461.04965-.37899.3946-.60884.7239l-.5436.66117-.61155-.89116s-.04961.11498-.32938.8415c-.27961.65858-.65844,1.87901-.44423,3.2641.27961,1.45039.16461,1.89468.16461,1.89468l-.44678.61153s.06795-1.22044-.04705-1.71438c-.04977-.23258-.21693-.28225-.33193-.28225-.16461,0-.32922.16726-.37899.33189-.115.39462.21438,1.00354.21438,1.00354l-.32938.71084-.44423-.82582s-.04961.04967-.16461.11498c-.21438.2143-.61155.54619-.71076.77618-.1804.37893-.724,2.37292-.724,3.04978,0,.65856.44423,1.94694.44423,1.94694l-.22985,1.05318s-.26398-.5096-.49399-1.38507c-.04961-.39462-.26398-.78924-.49654-1.12113-.32922-.49391-.60884-.88853-.60884-.88853l-.16477.39462c-.09921.44427-.32922,1.27009-.37883,1.9966-.04977.83888.27961,1.66471.37883,1.99397.0654.16465.115.22999.115.22999h-.115l-.87537.2143-.23001,1.17078-1.36936-.7239-.0654-.04965s0,.82321.0654,1.33543v.16463c.09921.54358.54615,1.54973.54615,1.54973,0,0,1.05322.11498-.54615.04965-1.71438-.04965-1.76398.22999-1.38515.7239.23256.33189.77616.8415,1.38515,1.17078.33193.2143.71076.37895.99038.37895.77361.1176,1.22054,0,1.22054,0,0,0,.09921.06795.26382.1176.27977.11498.67439.27963.77361.60892.16461.44427,0,1.94432,0,1.94432l-.77361-.49391-1.03998-.67425s-.115.39462.44678.95389c.21438.16724.42859.33189.5932.49652.39462.27963.724.55927.724.77355,0,.39725-.04961,1.1708-.04961,1.1708,0,0-.23001-.22999-.67439-.55927-.26382-.16463-.5932-.44688-.94077-.66117-.92243-.67423-.82321-.16463-.82321,0,0,.2143-.09921.71084.0654,1.54973.09921.82582.6586,1.94694.6586,1.94694,0,0,.04961.2143-.77361.09931-.21438-.04965-.44694,0-.66115,0-.724.11498-1.38515.39462-1.38515.39462,0,0,.16732.61153.61155.94081.49399.39462.70821.88855.70821.88855l-.98782.8415s.39462.44427,1.05322.54358c.04961.06795.09921.06795.09921.06795.77616.09668,1.71438.27961,2.32592.21428h.04961c.23001-.04965.49399-.04965.77361-.04965h.49654c.32922,0,.6586.04965.82321.16465.34501.11498.67679.65856.89116,1.17078.16461.26394.27961.54358.27961.54358l-.27961-.04965-1.48437-.27963.04961.55925s.82321.32928,1.43476.54358c.27961.1176.49399.23258.60884.28225.115.06534.27977.27963.49399.55925.21422.37895.49654.77618.49654.77618,0,0-.21438,0-.49654-.04967-.44423,0-1.05322,0-1.10283.2143v.06534c.04961.42859.82321,1.99399,1.10283,2.49053l.04961.16463h-.04961c-.21422-.04965-.72384-.11498-1.10283-.2143-.115,0-.21438-.06532-.28217-.11498-.26398-.1176-.93822-.49654-1.43221-.8415-.16732-.16465-.38154-.26394-.42859-.37895,0-.04965-.06795-.04965-.06795-.04965-.16461-.18293-.44423-.34756-.77361-.56186-.49654-.32928-1.10538-.67425-1.59937-.9382-.26382-.11762-.54344-.18293-.87537-.2326-.82321-.11498-1.82938,0-1.82938,0,0,0,.16461.39723.39462.77618.21693.32928.94077,1.28576.94077,1.28576,0,0-1.17078.2143-1.66461.32928-.5436.11498-1.86335,1.00615-1.36952,1.05579.5436.04967,1.04014.37895,1.48437.55927.37899.2143,1.22054.54619,1.22054.54619l-.67695.83888s.39733.28225,1.27015.44688h.23001c.77616.16465,1.53397.2143,2.47474-.11498h.115l.6586-.33189.49654-.32928c.55923-.39462.93822-.8415.93822-.8415,0,0,.39717-.04705.77616-.04705h.6586c.115,0,.27961.04705.44423.04705.44694.1176,1.10538.2143,1.43476.28223l.16461.04967s.115.22997-.16461.39462c-.16461.11498-.32938.16463-.609.2143-.21422.06532-.5436.16463-.82577.32928-.49399.18293-.93822.44688-1.10283.67685-.04961.11498-.04961.2143,0,.32928.04961,0,.115.04967.21422.115l.88861.16463c.44694.04965.99054.04965,1.43476.04965.32922,0,.66115,0,.94077-.04965h.21438c.39462-.04965.82321-.27963.98782-.39462.11756,0,.16461-.04965.16461-.04965h.51218c.32938,0,.70821.04965,1.04014.11498.0654,0,.0654.04965.115.04965.60884.22999.60884,1.10546.60884,1.10546h-.72384l-.38154.06534-.0654.94081h-1.26999c-.26398,0-.70821,0-.98782.04965-.37899,0-.6586.11498-.5436.16463.04961.06534.27961.22999.5436.44429l.98782.8415c.34756.27963.56178.49391.67679.60892.16461.2143.6586.44688,1.04014.56186.16461.09931.32922.16465.32922.16465,0,0-.16461,0-.32922.04965-.28217.04965-.66115.11498-.94077.11498h-.09937c-.23001.04967-.39462.04967-.67679,0-.16461,0-.37899-.11498-.5932-.27963-.115-.1176-.27977-.16463-.39462-.21428-.32938-.18293-.77616-.2326-1.15515-.34758-.55923-.04965-1.05577-.09931-1.43476-.09931h-.04961c-.27961,0-.67423.04967-1.05322.09931-.66115.06534-1.27015.27963-1.10538.61153.16461.39462.891,1.12113,1.10538,1.33543.115.06532.115.11498.115.11498l-.115.11498-.99054.94081s.21438.32928.82592.49393h.16461c.37899.11498.82321.11498,1.10283.11498h.21422s-.04961.2143-.21422.6089c-.04961.16465-.16461.28225-.27961.4469-.32922.65856-.16461,1.71436-.16461,1.71436,0,0,.16461-.2143.44423-.54358.21422-.28225.54615-.61153.71076-.72651l.724-.44427c.37899-.2326.82577-.49654,1.10538-.72651h.04977c.27961-.2143.72384-.77357.98782-1.22044.28217-.32928.44678-.60892.44678-.60892,0,0,.0654-.04965.23001-.16463.21438-.11498.5436-.28225,1.04014-.39723h.16461c.93822-.09931.724.06795.88861.23258.04961.04967.09921.16465.21422.2143.23256.22999.56194.44427.56194.44427l-.56194.56188-.44423.44427c-.5436.54358-.37899,1.71436-.09937,1.38507.04977-.11498.32938-.16463.5436-.2143.33193,0,.66115.04967.56194.2143-.16461.27963-.16461,1.54973.21422,1.22044.44439-.37895.70821-.66117,1.22054-.77616.21422-.04967.87282-.22999,1.53142-.44429.49654-.2143,1.05577-.44688,1.38499-.66117.44694-.34495.77616-.78924.94077-1.12113.07321-.09407.12282-.19338.15679-.27439l1.72235.60628.99038.39462.37899.11498s-.09937.37895-.09937.94081c0,.55927-.115.88855-.115.88855h-.16461c-.23256,0-.72655.1176-.99038.38154-.39462.39462-1.00617,1.00354-.93822,1.66471.09666.7239.26382,1.33543.26382,1.33543l-1.93115.89116-.04705.04703c-.28233.1176-.99054.67685-1.22054,1.68299-.21422,1.22044-.26382,2.37294-.26382,2.37294,0,0,.87282-.44429,1.48437-.82321.27961-.16465.49383-.32928.60884-.39462.32938-.28225,1.31976-1.05579,1.31976-1.05579l.724-.54358.92498-.79185.0654.06534c.32922.16463,1.31976.72651,1.59937.89114.27961.16465-.04961.49393-.04961.49393,0,0-.61155.16465-.89116.49393-.115.27961-.37899.56186-.6586.8415-.115.16463-.23256.27963-.32922.37893-.23272.22999-.39733.39723-.66115.56188-.23001.11498-.50962.16463-.77361.16463-.77616,0-1.17078.32928-1.17078.32928,0,0,1.22038.67687,1.94438.77357.09921.06795.21422.06795.26382.06795.23256-.06795.49399-.2326.72655-.33191.32922-.16463.5436-.3946.5436-.3946,0,0,.77616.3946,1.33539.77616.04961.06534.09937.06534.09937.11498.60884.44427.72384,1.22044.72384,1.22044,0,0,.66115-1.22044.54615-1.54973-.09921-.39723-1.03998-1.38507-1.03998-1.38507,0,0-.0654-.61153.21422-.8415.21422-.2143,1.27015-1.05579,1.27015-1.54973,0-.56186-.04977-1.33543-.04977-1.33543l.5436-.11498c.28233,0,.56194-.04965.77616-.1176.21438-.04703.49399-.16465.70821-.26133.18295-.11762.34756-.16726.44439-.28225.33177-.16465.56178-.32928.72639-.49393.26398-.34756,1.20475-1.40075,1.20475-1.40075,0,0,.27961.11498.88861.16463.32922.06534.61155-.16463.66115-.37893,0-.06795-.04961-.16465-.21422-.28225-.39733,0-1.17078-.04703-1.33555-1.05318-.16461-1.17078.44439-1.66732.44439-1.66732M15.56456,41.35162c-.0654.06534-.23001.16463-.32938.27961-.23001.22999-.51218.39462-.51218.39462,0,0,.11756-.39462.28217-.6089.0654-.115.115-.22999.23001-.32928.21438-.2326.49399-.4469.49399-.4469,0,0,.04961.4469-.16461.71084M15.16994,38.81144q0-.06534.06524-.11498c.21438-.39723.75797-.77618.75797-.77618,0,0-.04977,1.05579-.26398,1.59937-.115.28225-.27961.4469-.49399.61153-.16461.11498-.32922.22999-.51218.39462-.32922.37893.28217-1.33543.44694-1.71436M15.89378,21.08768c.16732-.2143.26398-.37895.38154-.49393.03924-.03136.05232-.06534.06013-.08887l.00526-.02873s-.00271.01306-.00526.02873l-.06013.31883-.16732.70823-.54344.56186s0-.61153.32922-1.00613M15.23518,22.53807c.42859-.11498.87282-.16463.87282-.16463l-.87282.55925-.06524.04967-.61155.04965h-.32938s.115-.09931.32938-.2143c.16461-.11498.34756-.16463.56178-.27963h.115ZM13.80042,20.59374c.26398-.38156.70821-.89116.70821-.89116,0,0,.04977.22999.04977.5096.06795.09931.06795.26396,0,.38156,0,.11498,0,.22997-.04977.27963-.16461.39462-.77345,1.00613-.77345,1.00613,0,0-.21438-.8415.06524-1.28576M12.41543,21.69657c.04961-.26394.115-.42857.115-.42857,0,0,.21422.8258.21422,1.31974,0,.39462-.21422.95648-.32922,1.28576l-.115.2143s-.09937-.82321-.09937-1.38507c0-.27963.09937-.65856.21438-1.00615M10.81605,28.25871l.16461-.16463c.21422-.44429.44694-.77357.44694-.77357,0,0-.06795.9382-.23272,1.26748-.04961.1176-.16461.28225-.21422.4469l-.44423.65856s0-.89116.27961-1.43474M10.98067,30.20566c.04961-.16465.16461-.34758.21422-.39723.28233-.44429,1.22054-.7239,1.22054-.7239l-.93822,1.38507c-.16461.22997-.33193.39462-.49654.55927-.44423.39721-.93822.56186-.93822.56186,0,0,.55923-.8415.93822-1.38507M9.26629,28.54096c.0654-.77618.61155-1.50269.61155-1.50269.04961.16465.115,1.27011.04961,1.71699,0,.04703,0,.16463-.04961.27963-.115.49391-.37899,1.27007-.37899,1.27007,0,0-.28217-.99046-.23256-1.764M9.87784,33.97935c.115-.115.21422-.27963.27961-.34497.16461-.2143.5436-.32928.82321-.37893.16461-.06534.33193-.06534.33193-.06534,0,0-.16732.22997-.33193.5096-.16461.2143-.37899.49654-.44423.66117-.115.16465-.37899.32928-.6586.49393-.33193.18032-.77616.34495-.77616.34495,0,0,.44423-.7239.77616-1.22042M9.82823,36.79914q.04961,0,.04961-.04965c.32922-.27963.82321-.16465.82321-.16465l-.77361,1.05581-.04961.04965c-.21438.16465-.77616.39462-.77616.39462,0,0,.44423-.88855.72655-1.28578M9.66346,38.69645c.04977-.06534.09937-.11498.21438-.16465.32922-.23258.82321-.44688,1.10283-.56186l.21422-.11498-.21422.32926c-.21422.34758-.55923.79185-.77361,1.00615-.04961.04967-.16461.16465-.32922.22999-.44694.33189-1.05577.66117-1.05577.66117,0,0,.50962-1.05579.8414-1.38507M7.66692,31.70572c.115.2143.23256.37893.28233.49393.04689.27961.11484,1.77969.11484,1.77969,0,0-.23256-.27963-.39717-.60892-.16461-.27963-.27961-.55927-.32922-.72651-.04977-.44427-.115-1.66471-.115-1.66471,0,0,.23001.37893.44423.72651M6.89331,39.14072c-.16461,0-1.10538.04965-1.59937-.11498-.32922-.04967-.66115-.32928-.87537-.55927l-.27961-.28225h.27961c.33193-.04965.99038-.09929,1.31976-.04965.44423.04965,1.05577.77616,1.15499.94081l.0654.06534h-.0654ZM6.89331,37.57532c-.21422-.16465-.54344-.37895-.71076-.61153-.49399-.49393-.82321-1.15249-.82321-1.15249,0,0,.94077.54358,1.20475.82321.115.06534.23001.23258.32922.39723.27977.37893.609.88853.609.88853,0,0-.27961-.11498-.609-.34495M7.66692,36.7495c-.27961-.27963-.5436-.55925-.6586-.77355-.04961,0-.04961-.06534-.115-.11498-.21422-.37895-.32922-.89116-.32922-.89116,0,0,.16461.06534.32922.16465.16477.06532.32938.16463.49399.39721.115.115.1804.2143.27961.37895.28233.55925.39717,1.23612.39717,1.23612l-.39717-.39723ZM6.89331,50.23703c-.32922,0-.87537.06532-1.20475,0-.49383-.115-.88845-.44429-.88845-.44429,0,0,.77361-.2143,1.15243-.11498.23001.06534.61155.22999.94077.34497l.39462.09929-.39462.115ZM7.66692,49.18123c-.16461,0-.44423.06793-.77361.06793-.21422,0-.42859-.06793-.66115-.18293-.44423-.2143-1.59937-1.05579-1.59937-1.05579,0,0,1.15515-.2143,1.66732-.04703.16461.04703.37899.16465.5932.32928.32938.22997.67439.55925.77361.7239.06795.11498.06795.16465,0,.16465M7.66692,47.79614c-.21422-.16463-.49383-.44427-.70821-.7239l-.0654-.04965c-.42859-.72651-.75782-2.39122-.75782-2.39122,0,0,.37899.32928.75782.72651.23001.2143.39462.44427.49399.65856.115.11498.1804.32928.27961.56188l.49654,1.54973c-.04961,0-.21422-.11762-.49654-.33191M8.77246,47.02259s-.5436-.94081-.609-1.28576v-.49393c0-.38154.0654-.82582.0654-.82582,0,0,.70821.77618.75782,1.22044.0654.49391-.21422,1.38507-.21422,1.38507M9.87784,48.35802c0,.16463-.04961.2143-.04961.2143,0,0-.115-1.66471-.115-1.99399,0-.33189.115-1.33543.115-1.33543l.04961.16465c.115.32928.27961,1.05318.32922,1.28576.04977.2143-.21422,1.22044-.32922,1.66471M4.41857,55.51338c.38154.04965,1.10538.16463,1.26999.27963.26398.2143.99054,1.22042.99054,1.22042,0,0-.94077.11498-1.38515-.16463-.32922-.16465-.66115-.60892-.87537-.94081-.16461-.22999-.23001-.39462-.23001-.39462h.23001ZM2.8192,57.95425s.66115-.56186,1.43476-.49654h.16461c.71076.11762,1.59937.49654,1.59937.49654,0,0-.82321.49393-1.59937.49393-.82321-.04967-1.59937-.49393-1.59937-.49393M8.16346,58.62851c-.04961.09931-.26398.26394-.49654.42859-.21422.18293-.49383.34756-.77361.51222-.09921.11498-.26382.16463-.42859.2143-.891.3946-1.66461-.09931-1.66461-.09931,0,0,.39462-.6272,1.21783-.95648.28217-.09931.54615-.09931.87537-.16465h1.33555l-.0654.06534ZM14.39379,49.18123l-.04977-.82321.21438-.56188.23256-.49391s.04961.54358,0,.94081c-.06795.21428-.115.44427-.23256.65856-.04977.16463-.16461.27963-.16461.27963M17.09854,49.62811l-.82321,1.00615c-.11756.04703-.16732.16463-.21422.21428-.16732.115-.49654.39462-.82592.60892-.27961.22999-.51218.44429-.60884.56188q0,.04703-.06795.04703v-.04703c.06795-.2326.23256-.61153.28217-.89116,0-.16463.16461-.32928.39462-.44688.32938-.27963.75797-.49393,1.04014-.7239.44423-.37895.82321-.32928.82321-.32928M15.77878,48.19337c.115-.22997.28233-.39723.49654-.56186.27961-.27963.60884-.44427.60884-.44427,0,0-.27961,1.17078-.54344,1.54971,0,0-.0654.06534-.0654.11498-.28217.27963-.82577.72651-1.04014.94081l-.115.115.115-.39462c.09937-.33189.32938-.94081.5436-1.31976M13.57057,39.86723c0-.51222.16461-1.00615.16461-.67687,0,.39723.16461,1.22044.16461,1.50006,0,.3293-.16461.39725-.16461.39725,0,0-.16461-.39725-.16461-.89116-.04977-.06534-.04977-.11498-.04977-.16465,0-.06532,0-.11498.04977-.16463M13.57057,45.63752c.22985-.27963.72384-.72651.891-.89116.04705,0,.09682-.06532.09682-.11498.28217-.16463.56178-.39462.67679-.44427-.06524.16463-.39462.60892-.51218.83888,0,.04965-.04705.04965-.16461.09931-.21438.23258-.75797.44688-.98782.61153-.09937,0-.16477.06532-.16477.06532l.16477-.16463ZM13.12619,48.45731c.0654-.77616.23001-1.27007.44439-1.54971.22985-.37895.44423-.56188.44423-.56188,0,0,0,.84152-.16461,1.12113-.16477.32928-.16477,2.39122-.115,3.54633.06524.7239-.04977,1.33543-.16461,1.77969-.09937.32928-.16477.56188-.16477.56188,0,0-.21422-1.12113-.21422-1.50269,0-.44427-.16461-1.73005-.0654-3.39476M13.57057,60.67475c-.21438.06534-.37899.11498-.49399.16465-.16461.06532-.44694.06532-.66115,0-.32938,0-.6586-.04967-.6586-.04967,0,0,.32922-.32928.6586-.56186.115-.11498.27961-.16465.37899-.16465.23256,0,.51218,0,.77616.04967.39462.06532.77345.18293.77345.18293l-.77345.37893ZM13.57057,58.72782c-.44439-.2143-.87553-.49393-1.10554-.77357l-.04961-.04965c-.55923-.67687-.98782-1.82936-.98782-1.82936l.98782.49393c.32922.16465.77616.39462.99038.60892l.16477.16463c.44423.61153.93806,1.83197.93806,1.83197,0,0-.44423-.16465-.93806-.44688M9.92744,66.16541s.609,0,1.05322-.04965c.16461,0,.33193-.04965.44694-.04965.21422-.115.70821.2143.98782.37893l.115.11498s-.0654,0-.115.04967c-.27961.06532-.724.22997-1.31976.22997h-.115c-.77361-.06534-1.05322-.67425-1.05322-.67425M11.59221,68.17509c-.23256.04965-.44694.09931-.61155.09931-.49399,0-.82321-.09931-.82321-.09931,0,0,.37899-.22999.82321-.39462.16461-.11498.37899-.2143.54615-.27963.23001-.09931.609-.09931.88861-.04965.21422,0,.44694.04965.44694.04965,0,0-.16732.16465-.44694.32928-.21438.11498-.49399.27963-.82321.34497M13.57057,68.67161c-.09937.16465-.21438.27963-.32938.39462-.21422.2143-.54615.37895-.82577.49393s-.49399.2143-.49399.2143l.49399-.65856c.115-.22999.27961-.44429.32922-.49393.11772-.11498.49654-.39723.82592-.61153l.32922-.22997s-.09937.44427-.32922.89114M17.54276,57.83927c.16461-.54619.39733-1.15511.39733-1.15511,0,0,.49383,1.15511.42859,1.50006-.04977.3293-.42859,1.76402-.42859,1.76402,0,0-.28233-.37893-.39733-.82321-.04961-.16463-.115-.39721-.115-.56186s.0654-.44427.115-.7239M15.94339,55.29909s.16461.16465.33193.42859c.16461.27963.32922.67685.39462.89114.04961.55927-.0654,1.50008-.0654,1.50008,0,0-.16461-.2143-.32922-.49393-.16732-.28225-.33193-.61153-.38154-.8415-.115-.42859.04961-1.48439.04961-1.48439M16.27532,60.11289c-.21422-.16465-.44694-.37895-.54615-.60892-.16461-.2143-.32938-.54358-.49399-.94081-.27961-.54358-.51218-1.10546-.51218-1.10546l.51218.49654c.32938.32928.70821.77357.99054,1.05579h.04961c.55923.60892.88861,1.77969.88861,1.77969,0,0-.49399-.27961-.88861-.67685M16.27532,64.89532c-.28217-.04965-.54615-.16463-.66115-.21428-.16461-.06534-.27961-.34758-.37899-.51224-.06524-.09929-.06524-.16463-.06524-.16463h.06524c.21438,0,.82592.11498.99054.22997h.04961c.23001.09931.39462.77618.39462.77618l-.39462-.115ZM17.21354,63.55991c-.49399-.16465-.77361-.4469-.77361-.4469,0,0,.49399-.44427,1.05322-.27961h.04961c.56194.23258,1.10554.79183,1.10554.79183,0,0-.609.04967-1.10554,0-.115,0-.21422,0-.32922-.06532M21.63267,69.49483c-.16461.11498-.32922.22997-.56178.27963-.70821.23258-1.48182.23258-1.48182.23258l1.48182-1.05579.23256-.16463.66115-.42598c-.3423-.00784-.62463.01828-.89371.0967-.6586.16463-1.03759.37893-1.36681.49391-.49399.04967-1.59937.11498-1.59937.11498,0,0,.87282-1.00613,1.43476-1.00613.49383,0,1.36665.11498,1.36665.11498l.16477.04965.93822.10715.16716-.10715.32922.16465c-.54344-.37895-1.03743-.65856-1.4346-.88855-.93822-.37893-1.48182-.37893-1.97836-.37893-.6586,0-1.48182-.67687-1.48182-.67687,0,0,1.25181-.09931,1.59937-.04965.32938.04965,1.48182.72651,1.48182.72651l.37899.27961,1.4346.98786c-.60884-.82321-1.03743-1.43474-1.4346-1.82936-.70821-.72651-1.15259-.89114-1.64643-1.10544-.77616-.34497-.89116-.83888-.89116-.83888,0,0,1.17078,0,1.5.27961.32938.27963.82321,1.1708.82321,1.1708l.21438.2143,1.4346,2.10897c-.32922-2.38861-1.10283-3.21443-1.20204-3.37907-.0654-.115-.16461-.32928-.23256-.60892l-.37899-.89116s.16461.11498.37899.2143c.39717.27963,1.05577.77355,1.10538,1.17078.115.49393.39717,1.22044.23001,1.1708l.09921,2.32327s-.21422.61153-.87282,1.10544M23.39665,61.6809l.27961.44427-.27961.27963-.22985.2143-.04977-1.45041.27961.51222ZM23.39665,64.73069c-.115.2143-.22985.37893-.22985.37893,0,0-.16477-1.15509.16461-1.59937h.06524c.37899-.44427,1.64914-1.22042,1.64914-1.22042,0,0-.44439.94081-.77616,1.22042l-.87298,1.22044ZM22.6232,77.83666c-.38154.33189-.77616.54619-.77616.54619,0,0,.115-.99046.39462-1.33543.09921-.09931.21422-.2143.38154-.26394.32922-.23258.77345-.39723.77345-.39723,0,0-.06524.56186-.39462,1.05579-.01292.02092-.03126.04181-.04705.06011.41823-.34497.73963-.6455.97746-.90161l.05232.21169-1.36155,1.02443ZM25.42988,73.92707l.01053.0183s-.00271-.00522-.01053-.0183l-.15408-.26133-.39462-.44427.39462-.44427.37883-.49654s-.16461.44688-.32922.82582c-.14372.34495.05216.72912.10448.82058M26.38118,73.61609l-.115-.06534-.23256-.27963.11756-.37893.115.11498.21438.16463-.09937.44429ZM31.93711,69.1159c.0654.04965.0654.11498.0654.11498h-.0654l-1.48437-.39462-.16461-.04965.16461-.61153c.04961,0,.77616.04965,1.10554.2143.21422.1176.32922.49652.37883.72651M31.83263,69.75877l-.23256-.1019c.02616.00522.04961.01306.07321.01828.05216.02875.10974.05489.15935.08362M28.52415,80.55716c.04961.09931-.115.04965-.37899-.11498-.44423-.27963-1.10538-.77357-1.10538-.77357l-.609.3293-.16461.04965-.61155.11498s.33193-.27963.61155-.56186c.21438-.16465.37899-.3293.49399-.49393.27961-.32928.82577-.77355.82577-.77355,0,0,.04705.6089.16461.98784.0654.23258.23001.44688.39462.67687.21438.21428.37899.44427.37899.55925M28.63915,76.88018l-.49399-.37895-.67679-.60892.28217-.3946.39462.32928.70821.55925-.21422.49393ZM29.34991,74.93583s-.61155-.32928-1.20475-.99046c-.51218-.60892-.94077-1.50008-.94077-2.60291,0-1.50006.49654-2.55585.94077-3.23272.32938-.44427.5932-.70823.75782-.77355.32938-.2143,1.38515-.61153,1.54977-.56188.16461.11498.32938.51222,0,.72651l-.04961.06534c-.44423.2143-.93822,1.10544-1.21783,1.50006-.28233.37895-.38154,2.20829-.33193,3.04978.04961.89116.37899,1.82936.49654,2.2109.115.34497,0,.60892,0,.60892M29.67929,71.27452l.06524-.82321.70821.27963.72655.26394-.72655.115-.77345.16463ZM31.39351,73.71539c-.44423.34758-.89116.56188-.89116.56188l-.04961-.2143-.115-.44688h.115l1.48437-.60892h.115s-.04961.04965-.115.16463c-.04961.16465-.21422.37895-.5436.54358M33.10788,73.66574c-.32922.2143-.55923.44688-.72639.56188-.09682.16463-.21438.21428-.21438.21428l-.23001-.21428-.04961-.06795.04961-.0967.44439-.44688c.16716-.16465.33177-.34497.49654-.44429.49383-.27961.83884-.3946.83884-.3946,0,0-.115.49391-.609.88853M33.55227,69.84241l-1.17078-1.45302-.21438-.27963.21438-.09931.16716-.11498,1.43221,1.54973-.42859.39723ZM22.95498,77.50215c-.10448.08885-.21422.17771-.33177.26917-.21693.22999-.49654.39723-.77616.61153l.77616-.54619c.09921-.09931.23256-.20124.33177-.33451M49.59559,77.65633l.77616.55925-.77616-.6089c-.09937-.07842-.19077-.15681-.28217-.2326.07577.11498.20369.20385.28217.28225" style=" stroke-width:0px;"/></g></svg>