<svg xmlns="http://www.w3.org/2000/svg" viewBox="0 0 67.23 82.44"><path d="M52.14,17.71H18V55.46c0,2.28,2.42,4,4.07,4h9.61a4.39,4.39,0,0,1,3.2,2.07A4.25,4.25,0,0,1,38,59.45h9.67c1.31,0,4.41-2.11,4.51-4,.07-2.22,0-37.75,0-37.75M34.39,59.17c0,.17-1.55-.89-2.54-.89H22.7A3.5,3.5,0,0,1,19.1,55V18.93H34.39V59.17Z" style="fill-rule:evenodd"/><path d="M50.19,7.17l.09-1,2.09-2-1-.51-.4.56-.61-.28.44-.61-1-.44-.19.65L49,3.33l.1-.72-.94-.29V5l-.75,1.1c-.88-.3-1.94-.63-3.16-.94l0-1.09,1.54-2.4-1-.32-.23.6-.66-.11.28-.66L43,.94l0,.68-.66-.07L42.27.84l-1-.12.56,2.61-.47,1.2A41.21,41.21,0,0,0,36.3,4l-.36-1.14L37,.16l-1-.11-.17.67h-.61L35.28,0,34.17.05l0,.67-.61.05L33.45.05l-1,.16,1,2.46L33.29,4a37.41,37.41,0,0,0-4.67.48L28,3.38,28.53.61l-1.1.11.06.67-.65.16V.84l-1.11.22.21.65-.61.17-.28-.61-1,.35,1.6,2.16V5c-1.32.31-2.49.65-3.46,1l-.78-1,.05-2.88-1.06.35.12.65-.61.22-.1-.71-1.06.45.33.61L18.56,4l-.45-.61-.89.51L19.1,5.77,19.38,7l-.16.07c-.56.28.1.77.1.77s.86-.38,2.35-.88L23,9.73l-.44.14h-.12l-1.06-2L21,8.05l.37,2.21-.4.15L20.26,7.5l-.66.26.75,2.92-.09,0c-.55.28.11.77.11.77l.3-.12.25,2.4-.1.05c-.33.16-.35.33-.32.46a.39.39,0,0,0,.25.38,20.14,20.14,0,0,0,6.91,2,54.56,54.56,0,0,0,9.05.23A70.4,70.4,0,0,0,45.48,16,12.74,12.74,0,0,0,49,14.61a.73.73,0,0,0,.11-.47c0-.13,0-.27-.06-.32l-.32-.14.32-2.29.21.1s.57-.56-.05-.77l-.11-.05L50,7.88h0l.3.13s.54-.6,0-.83M48.78,5.44l.89.4.61-.61L48.9,4.71l0-.65,1.77.77-1,1-.39,1-1.05-.41Zm-2.64,8.49a3.39,3.39,0,0,1,0,.47l-.38-.11a3.25,3.25,0,0,0-.34-1.23l.56.16a1.91,1.91,0,0,1,.18.71M30.92,12.87c-.26-.35-.39-.8-.69-1l1-.11a.61.61,0,0,1,.28.21c.26.26.28.6.48.87l-1.08.06m-7.68.53.56-.17c.32.14.5.48.76.79l-.47.16a2.72,2.72,0,0,0-.85-.78m4.53-4,.09,2.15-.53.09a31.5,31.5,0,0,0-4,1.16l-.61-2.15a38.83,38.83,0,0,1,5-1.25m.33-4,.83,2.91-.56.1-.78-2.22-.33.1V8.63l-.38.08-.32-3.05,1.54-.29m6.73-.59h.62l.37,3h-.61l-.38-2.27-.39.05-.33,2.28h-.38l.21-3.1h.89m8.49,1-.27,2.94-.53-.1h0l.1-2.28h-.38l-.78,2.09L41,8.35l.8-2.88,1.5.31m-7.74,5.16-.24-2.21a40.31,40.31,0,0,1,6.23.55l-.69,2.13a40,40,0,0,0-5.3-.47m-6.22.37L28.73,9.2a38.41,38.41,0,0,1,5.64-.48l-.27,2.22c-1.61,0-3.27.19-4.74.37m11-3.05C39.2,8.1,37.94,8,36.58,7.92l-.37-3.1a38.88,38.88,0,0,1,5,.53l-.81,2.91Zm-7.29-.34c-1.19.06-2.32.17-3.39.31l-.91-3a38.28,38.28,0,0,1,4.46-.44Zm-7.17,5c.23.15.26.39.4.59l-.74.19c-.24-.31-.42-.66-.75-.79l.53-.14a1,1,0,0,1,.56.15M26.55,14l.55-.1V16l-.57-.13h0Zm.8-.7c-.15-.21-.22-.48-.47-.64a.77.77,0,0,0-.43-.15l1-.21a2.24,2.24,0,0,1,.54.89l-.11,0-.52.09M29,13.05a1.69,1.69,0,0,0-.65-.93l.91-.15a9.28,9.28,0,0,1,.63,1l-.89.1m4.1-.26c-.26-.23-.25-.61-.54-.9a.92.92,0,0,0-.39-.24l1.12-.07a.39.39,0,0,1,.1.08c.42.34.45.83.78,1.14H33.11m2,0a4.91,4.91,0,0,0-.64-1,.92.92,0,0,0-.6-.21l-.15,0,1.24,0H35c.42.38.51.91,1,1.32l-.94,0m1.81.07c-.41-.48-.54-1-1.09-1.35l1.21,0c.33.37.35.94.7,1.36l-.82,0m1.76.13c-.32-.43-.31-1-.76-1.38l.88.09c.41.45.51,1,.92,1.39l-1-.1m2,.22c-.37-.43-.45-.95-.86-1.39l.84.12a5.61,5.61,0,0,1,.72,1.37l-.7-.1m1.68.26a9.89,9.89,0,0,0-.77-1.37l1.19.24a4.38,4.38,0,0,1,.35,1.27l-.77-.14m1.75.35a2.9,2.9,0,0,0-.42-1.27l.76.19A3.29,3.29,0,0,1,44.74,14l-.66-.16m-1.73-2.18.18-2.22a36.37,36.37,0,0,1,4.38,1.12l-.63,2.14a31.7,31.7,0,0,0-3.93-1m1.42-2.79L44,5.94c1.22.29,2.3.61,3.2.91l-1.3,2.61c-.62-.19-1.33-.39-2.11-.57M42.55,3.61l.94.22L44,3.12,42.5,2.89l-.07-.61,1.88.39-.82,1.16-.15,1.1L42.2,4.69ZM34.06,2.06l-.22-.61h1.93l-.56,1.32L35.27,4H34.1l.17-1.17h.94l.33-.83-1.48.12Zm-6.47,0-.1.56-1.43.38-.33-.49Zm-1.2,1.62.94-.24.32,1.13-1.16.24ZM19.83,5.61l.92-.33V4.43L19.38,5,19,4.55l1.83-.72-.07,1.45.43,1.07-1,.38-.31-1.12Zm2.56,1.15c1-.31,2.18-.65,3.51-1l.32,3.05c-.95.21-1.82.44-2.57.66Zm-1.23,4.41.53-.19.41,2.28-.64.27-.3-2.36Zm1.08,2.58.09,0a3.33,3.33,0,0,1,.82.85l-.07,0a.94.94,0,0,0-.28.22c-.19-.11-.73-.51-.56-1.08m3.09,1.4a1.31,1.31,0,0,1,.78-.94v1.55c-.56-.17-.86-.35-.78-.61m2.16.94h0V13.83l.5-.07v2.43l-.5-.1m.83.17V13.71l.49-.06v2.69l-.44-.07h-.05m14.79-.38a54,54,0,0,1-6.52.66c-.93,0-5.18.05-7.45-.17V13.61l.73-.08v2.23h.33V13.5l.71-.05v1.7h.28V13.43l.66,0v1.15h.21V13.38l1,0v1.27h.38V13.33h.82v.94h.33v-.94h.33c8.09,0,11.32,1.62,11.67,1.81a15.33,15.33,0,0,1-3.49.75m4-1.1h0c0-.2,0-.39,0-.56a1.45,1.45,0,0,0-.17-.65c.37.12.69.24,1,.35a5.79,5.79,0,0,1-.77.87m1-1.33-.7-.29.33-2.26.67.26Zm.23-3.07-.51-.21.53-2.12-.38-.17L46.93,9.8l-.43-.14,1.34-2.59,1.42.52-.83,2.79Z" style="fill-rule:evenodd"/><path d="M66.32,39.36c1.45.07.93-2,.12-2.28.11-.55-.34-2.36-1.32-1.88-1.24.44-3.13,4.58-2.7,1.15.82-1.41,2.84-4.3.65-5.49-.25-.58-1-1.73-1.71-1.27a.49.49,0,0,1-.44-.67c.81-1.16,1.57-2.93.39-4.16-1.77-.25-1.29-.33-.39-1.66.45-.93-.71-3.13-1.6-2.23-.51,1.16-1.21-.27-1.77-.66-1.35-.23-1.94,1.36-1.32,2.44-.48.57-1.09,1.14-.33,1.88,4.39,2.51-.31,2.39,2.1,4.78,3,.75,2.16.89.72,3.05,0,.5.77,1,.33,1.39-2.17-2.81-2.25,1.08-.61,2.11.12.5-.48,1.42.45,1.55.4.43.15,1.57,1.15,1.45.5.58.61,1.49,1.27,2,.21.66-1,0-1.32.28-2.5,2.17,1.23,4.51.33,6.71-1.35-1-1.18-3.92-2-5.49.23-1,.82-2.27.33-3.4-1.06-2.79-1.66-1-3.65-3.16-1.83-.59-1.84,2.62-.82,3.06.15,1-2.17,1.19-.89,2.71a15.08,15.08,0,0,0,2.09,1.56,2.89,2.89,0,0,1,2.49,1c.3.49.72,1.74,0,1.22-.4-.48-.66-1.88-1.6-1.43-.79,1.61-2-1.18-3,.16-.58.47-.21,1.52,0,1.83-.54,1.49-.6,2.55.84,3.61,1.52-.08,2.88,1.2,4,2.16.51,2.7-1,.13-1.49-.89a0,0,0,0,1-.05,0c-2.13-1-2.77.21-1.17,1.9.44.17,1.75-.42,1.5.49-1.74,0-.49,2.31-1.5,1.88-1.69-3.91-3.66.7-2.09,1.95.35-.13.58,2.32,1.17,1.83.16.07.54.11.59.44.62,2.29-.43,2.16-1.81,3.33-1,1.07-.91-4.59-2.92-1.59-1.12.37-1.16,1.28-1.5,2.11.07-.07-.42-.76-.77-.8-.47-.44-.54-1.49-1.54-1-.85,1.11-1.1,1.78-.49,2.89.15,2.3,2.78,1.95-1.17,3.1-1.87,1-2-.76-3.58-1-2.4-.75-4,2.63-5.69,2.78-1.12.54.64.85.78.77,1.07.79.18,2.78-1.11,3,.08.62,1.55.26,1.55.21.78,1.16,2.76,2.78,4.42,2.67-.76,1.46,1.45,2.6,1.42,3.71-.78.43-1.32,2.27-.5,3-.31-.46,1.88-2.17,2.16-2.11.67,1.22,3.05.31,3.48-.11-1.65,0-3.25-2-4.47-2.77-.65-.66,1.28-1.06,1.6-1.45A28.17,28.17,0,0,0,50,79.44c.33-1.88-1.17-4.63-3.43-5,.61-1.06-.26-3.57-1.88-3.38,0,.09-.15-1.94-.21-1.83.84-.27,2.39-.89,3.24-1.17v0c1.84-.6,2.09,1.32,3.28,1.86.74-.85,1.2.42,2.31.33.33,0-.1-.38.44-.73s.4.45.4.45c2.43-1.33,1.24-2.43,3.63,0,.59-.53,1.3-.33,2-.33.44-.7,1.11-.69,1.55-1.39,1.19-1.29-1.09-1.61-.89-2.67,1.15-1.41-.22-2.33-1.27-2.32,1.51-.75-.24-2-1.32-1.83-.6.06-1.91.15-1.32-.61.54-.5,2,.28,2.26.44,1.52-1.14,2,1.86,3.53-.56.34-.45.51.83.89.85,1.2-.24.13-.91,1.93-.4.74,0,.55-.87,1.2-1.06s.5-.21.66-.44c.39-1.25-.9-2.27-1.86-2.94-.59-.29-.68.18-1,.5-1.22,1.22-.72-.76-2.8.44.53-.35.17-1.24,1.11-.84.73-.61.63-1.61.82-2.77.11-.56.61-.21.87-.21,2.54-.33-1-1.8-.21-2.34,1.46,0,2.07-1.36,2.32-2.66.17-.81-1.29-.4-1.1-1,1-2.52-2.14-2.79-2.65-.45-1,1.23-1,.5-.67-.44.82-1,3-3.17,2-4.62,5.16-.54.17-2.62,2.54-2.89m0-1.22c.79.38-.5,1.1-.26-.05a.71.71,0,0,1,.26.05M62.68,33c.5,0,.71-1.14.61.06-.24.94-1.07.54-.61-.06M57,42.52c-.86.33-1.39-.76-1.67-.82-.7.7-1.79-1.47-.66-1.34,1-.17,1.1.33,1.44,1,.58-.05,1.46.9.89,1.17m.16-2c-.84.08-1-1.09-1.83-1.22-.54-.28.06-.77-.76-1.06-1-1.06.33-2.75.88-1,.07,1,1,.11,1.15.72-.6.74.88,1.89.56,2.56m.28-2.16c.1.28.23.81.6.87l-.17.63a2.15,2.15,0,0,0-.66-1.06Zm.6,2.72c-.07.06-.33.25-.38.16-.34-.31.61-1.1.38-.16m-4.52,3.82c.63-1.06,1.06.13,1.43.38.2.06.72-.27.73.12-.08.7,0,1.47.82,1.38.22.48.41,1.35,0,1.34-.7.24-1.09-.66-1.33-1.11-1-.31-1.12-1.53-1.65-2.11m3.36,4.83c-.53.19-.92-.42-1.32-.67s-.81.31-1.1-.22c-.35-.76-1.06-1.91.33-1.17.31,1.4,2.31.62,2.09,2.06m.73-2.83a4.46,4.46,0,0,1-.17.61c0-.48-.79-1.45-1.22-1.78-.21-2.87,1.64.21,1.39,1.17M47.15,76.4a8.21,8.21,0,0,0,1,1,3.13,3.13,0,0,1-.5-1.15c.73,0,1.74,1.44,1.56,2-.23-.1-1.81-1.37-2.17-1.62Zm-8-7.45c-.06-.73,1.16-1,1.49-.94l.16.61c-.12,0-1.56.45-1.71.45a.17.17,0,0,1,.06-.12m-.61-1.22.38.22c-.11.16-1.21,1.53-1.37,1.73l-.44-.4,1.43-1.55Zm.61,6.33-.23.22c-.32-.22-1.68-1.44-1.53-1.67C37.61,72.64,39.2,73.55,39.13,74.06ZM40.62,74l0,.16c-.19,0-1.49-.87-1.55-1.29.13.1,1.57.6,1.71.68Zm0-3-.71-.16c.35-.14,1.07-.42,1.43-.54l0,.82L40.62,71Zm2.7,8.23c.12-.44.22-1,.22-1,.26.21,1.54,1.6,1.88,1.83a3.07,3.07,0,0,1-1.37-.5c.05-.06-1.28,1-1.5.94.05-.32.7-.88.77-1.22m-.38-2.88-.44.38-.28-.5a13.77,13.77,0,0,0,1.1-.89l.33.4-.71.61Zm0-2.56a4.35,4.35,0,0,1-1.22,1c.32-2,1.29-5.94-1-7.37-.25-.18-.3-.65-.05-.72v-.07c3,.14,4.39,5,2.32,7.17m2.87-1.17.38.45a3.76,3.76,0,0,0-.54.72c.31-.06-.1-1.56-.17-1.61Zm-1,.21.11-.09.17.38a4.64,4.64,0,0,0-.38.39c-.06-.21-.2-.57.1-.68Zm0,1.29.65.38s-1.17-.59-1.15-.61.23.12.5.23M54.58,57.9c-.44-.55-.26-1.06-1-1.66,0-.5-.06-2.55.61-1.62.64,1.33,1,1.22,1.15,2.61.58.49,1.47,1.82.28,2.11.24-.53-.41-1.21-1-1.44m-1.83,8.22c1.59-1.57,1.9.26.5.93-.41.14-1.32-.64-.5-.93m-.37-2.84a2.51,2.51,0,0,1-.73,1.17A1.32,1.32,0,0,1,52.38,63.28Zm-.29,2.11c0,.32-.35.5-.54.73C51.57,65.78,51.66,65.37,52.09,65.39Zm-4.42.89c.31-.48-.52-1.2-.82-1.43,0-1-1-2,0-2.89.49-.21.47,1.44,1.16,1.32.69.28.18,2,.39,2.58.83-.65.33-1.62.87-2.14.61-.18.29-1.4.52-1.71.78.09,1.7-1.77,2-.61.64,1.23-.73,1.94-.87,2.83-.93,0-.87,2.23-1.67,1.84-.43,0-1.19.22-1.6.21Zm3.48-1.34c0,.2-.25.65-.49.61,0,0,0-.38.17-.44C50.84,65.05,51.1,65,51.15,64.94Zm3,4.18c-.35.3-.48-.46-.94-.33-.16.76-1,.46-1.44-.17-.26-.47-.56.16-1,0s-.55-.77-.55-1L48,66.45c3.71,1.65,2.07,1.36,4.25,1.17.33.23.68,1.15.89.28.69-.59,2.09.49,1,1.22m.44-5a8.14,8.14,0,0,1-2,1.17c-.14-1.29,1.43-3.28,2.87-2.89.13.56-.47,1.12-.89,1.72m6.12,3.23c.87.27-.47.49-.59.66s0,.42-.33.56a4.23,4.23,0,0,0-2,.17c-.68-.15-.39-.74-.94-1-.53.24-1.45.28-1.48-.38-.33-.6,1.18,0,1.48-.06.36-.3.46-.66.94-.34,2,.47.78-1,2.92.4m-2.19-3c2.28-.43,1.41.89.33,1.5-.59.35-1-.09-1.5,0-.3.17-1,.44-1.27.17-.58-1.12.84-.5,1.27-.78,0-.24.81-1.12,1.17-.94M56.51,62c1.62,1.23,1.19,1.11.5,2.49-.46.19-1.47.3-1.67.79-.72-.37.47-1.35.78-1.66.08-.31-.13-1.89.39-1.62m.83-5.66c.69.61-.45,2.45-.78,1.6.14-1.31-1.17-.54-.05-2.39.38-.44-.2-1.1.38-1.55s.18,1.07.61,1c.77.45-.2.76-.16,1.33M61,30.81c1.49-1.9,1.35,2.88.71,3.43.16-1.19-1.64-2-.71-3.43m-.82,2.5c0-.7.62,0,.59.49s-.62-.27-.59-.49m0,1.94a4,4,0,0,1-.6,0c-.44-1.58,1-.57.6,0m.55.4c1.44.21.68,2.1-.17.05a.32.32,0,0,1,.17-.05M60,21.53c.65.44.2,2-.28,1.85.11-.25-.29-2.42.28-1.85m-3.1-.16c1-.72,1.54,1.39,1.27,1.89-.52-.42-1.39-1.06-1.27-1.89m.94,3.28c-.37.71-2.28-.56-1.1-1.11,0,.41,1.34.64,1.1,1.11m1.06,4.06c-1.56.21-.75-2.58,0-.62.13.26.52.65,0,.62m1.1-.34c-.68-.56-2.12-3-1.05-3.39.84,0,.61,3.39,1.38,1.61-.5-3.2,2.27.58-.07,2.05Zm-.23,3.27c.27-.21.6,1.11.23,1.12-.42-.24-.66-.83-.23-1.12m1.55,7.83c-.38-.24-.2-1-.56-1.17s-.84.09-.92-.28c.29-1.37-.66-.78-.78-1.5.69-2.42,4.12,4.44,2.26,2.95m-1,5.05c-.24-.86-.62-1.42,0-2.21,1.34-1.31.72,2,.28,2.65a1.56,1.56,0,0,1-.33-.44m.43,8.6a1.72,1.72,0,0,1,.77-.61c0,.34-.72,1.23-1,1.39a1.87,1.87,0,0,1,.26-.78M60,51.85c.57-.66.23,1.12-.16,1.34s0-1.06.16-1.34m-1.66-3.28c-.11-.41.11-2.75.56-1.94-.09,1.23.73,1.22.87,2-1.22.68-.38.69-.16,1.62.06,3.21-1.64-.59-1.27-1.67M62.25,58c1.54,1.12,1.5-.62,2.87-.45,1.12.61,2.1,2,.33,2,0,1-1.44,0-2.1,1.06-1.12-2.24-1.77,1-2.77-.17-.26-1.78-1.27.51-2-.56-.81.23-.46-1.15.28-.56s.84-.61,1.36-.78c1.2,1.13,1-.31,2-.54m0-2.72c-.09,1.6-1.2.22-1.43,1.27,0,1.08-.23.63-.88.72-.36,0-1.58.9-1.83.89.14-1,1.78-2.48,2.87-2.83.28-1,1.64-1.78,1.27-.05M63,51.41c0,.14-.48.23-.61.28-.1-.19.49-1.11.77-1.12a6.6,6.6,0,0,1-.16.84m1.83-2.16c.41-1.34,1.24.3.33.54-.16.94-.71,1.48-1.6.94-.17-1,.76-.88,1.27-1.48m-2.49-.68c.89-.39,1-1.92,1.81-2.22.32.27.8.25.45.79-.28,2.24-.86,1.13-1.44,2.65-.92.07-1,1.4-1.81,1.67-1.29-.45,1-2.11,1-2.89m1-5c.08.47-1.48,3.13-1.86,2.49.07-1.52.75-6.17,1.86-2.49m.49-3.05c-1.1,1.23-1.67,1.12-1.2-.12.44-.21,2.13-1,1.2.12m1.5-1.34c-.11,0-.49.07-.49,0-.29-.48,1.15-.76.49,0m-.06-1.06c-.78-.1-2.73,2.58-2.48.5a7.31,7.31,0,0,0,2.31-2.72c1.11-.19.22,2.11.17,2.22M48.32,66.19c.08-.06.09-.18.08-.33a3.47,3.47,0,0,1-.73.42Zm-27.5,2.17.54,0S20.83,68.31,20.82,68.36Zm12.79,1.53c1.33,0,1.52-.83,0-.94-.59-.62-2.72-2.92-4.25-2.67-3.28.8-2.12,2.33-6.26.37-1.13-1.63,2.11-4,1.46-5.75-1.48,1.46-1.89-.33-2.59-1.56L21.1,61c0,.29-1.34-3.22-1.67-2.27-.47,1.66,2.39,5.83-1.1,3.12l.06,1.43c-2.28-1.51.46-6.26-1.38-8.21-.16.23-.69,1-.83,1.22C15,53,13.75,53,14,56.62,9.49,54,18,51.16,17,48c-.25.17-.8.52-1.06.66a8.31,8.31,0,0,0,.68-3.43c-.78.5-1.72,2-2.54,2-.33-1.35,1.55-3.65,1-5.11-.63.82-1.86,1.73-2.59,2.5.61-2,4.22-3.52,3.58-6-.76.48-.37-2.38-.6-2.44a22.91,22.91,0,0,0-2.32,2.66A17.44,17.44,0,0,0,12.26,37c-.93,2.18.18,5.2-.38,7.11-.39-.36-.88-1.25-1.5-1.12,1.18,1.61,1.18,3.7.72,6-.22,1.82.62,3.8.28,5.44-.4-.86-1.61-2.61-2-3.71-.25-1.7,1.26-9.06-1.71-6.9-.19-.49-.13-2.34,1.17-2.1v-.66A6.81,6.81,0,0,1,8,41c.81-1.11,3.66-2.5,3.36-4.22-1,.2-.31-2.59-.6-2.72.43-.09.52-1.6.28-1.72-.35.07-1.39.26-1.72.27.43-1.12,3.18-3.23,2.92-4.65-.12,0-1.07.27-1.15.33-.36-1.32,1.9-1.76,2-2.79-.43.14-1.39.44-1.83.56.31-2.79,4.61-1.88,5.47-4.6-.13,0-.92.23-.89-.23.78-5.26-2.11,2.15-1.88-2.6a5.4,5.4,0,0,0-2.14,2l-.61-.89c-1.25,1.16-.17,5.61-1.06,6.61-.07,0,.3-2-.37-2s-.26,1.29-.17,1.33l-.33.71-.44-.82c-2.26,1.37-1.1,5.07-1.39,6.94-.1-.31-1.08-3.08-1.6-3.4-.57,1.13-.73,3.61,0,4.62-.89-.09-1.18.62-1.22,1.38-.06,0-1.4-.71-1.43-.77a7.2,7.2,0,0,0,.61,3s1.05.12-.55,0c-4.22-.22,1.24,3,2.21,2.27,1.32,0,1.17,2.12,1,2.68L4.71,41.19c0,.93,2.48,2.18,1.71,3.39-3.25-3.25-2.74.1-1.71,2.28,0,.13-2.84.19-2.82.49-.17.16,1.42,1.77,1.32,1.83l-1,.84c1.86,1.82,6.07-.67,6.79,2.66l-1.76-.33c-.06,1.07,2.79,1.14,3.08,2.72-2.72-.6-1,1.54-.45,2.88-2.8-.16-5.38-4.25-8.44-3.33a11.62,11.62,0,0,0,1.34,2.06c-3.57.58-3.73,1.35-.33,2.49L1.77,60c4.85,2.26,5-2.56,9.66-.84-.12.88-4.81,1.63-1.59,2.23,1.86.71,5.58-1.89,6,.82a5.76,5.76,0,0,0-1.1.07l-.07.94c-.66.07-2.4-.17-2.8.21,1.1.82,2.25,2.21,3.58,2.63-1.37.66-10.77-2.81-6.73,1.27.41.12-1,1-1,1.17.12.43,1.81.69,2.31.61-.25.41-1,2.55-.66,2.77a8.92,8.92,0,0,1,3-2.44c1.18-1.58,2.86-3.62,4.53-1.5-.6.3-2,2.4-1.11,2.39.08-.23,1.25-.33,1.11,0-.46,2,.5.81,1.43.44,1.25-.25,3.58-1.06,4-2.5.83.26,2.27.85,3.09,1.12,0-.11-.15,1.92-.21,1.82-1.69-.22-2.47,2.38-1.83,3.39a4.59,4.59,0,0,0-3.47,5A26.16,26.16,0,0,0,25.06,76c.32.4,2.25.81,1.61,1.45-1.26.8-2.76,2.78-4.48,2.77.42.41,2.84,1.29,3.47.12.3-.07,2.47,1.64,2.16,2.11.82-.69.31-2.54-.49-2.94,0-1,2.17-2.47,1.43-3.72a5.92,5.92,0,0,0,4.41-2.67c0,.14,2.25.34,1.33-.5-1.43.54-1.58-2.62-.89-2.72M14.42,41.35c-.15.12-.8.69-.84.68a3,3,0,0,1,1-1.39,1.11,1.11,0,0,1-.16.71M14,38.81a2.77,2.77,0,0,1,.83-.89c.44,1.29-2.36,4.44-.83.89m.73-17.72c.18-.28.34-.4.45-.61a2.28,2.28,0,0,1-.78,1.61,1.76,1.76,0,0,1,.33-1m-.66,1.45a6.38,6.38,0,0,1,.87-.17,2.58,2.58,0,0,1-1.88.66A2.72,2.72,0,0,1,14.09,22.54Zm-1.44-1.95c.27-.38.71-.89.71-.89.37.59-.37,2-.77,2.18a2.13,2.13,0,0,1,.06-1.29M11.27,21.7a2.8,2.8,0,0,1,.11-.43,3.75,3.75,0,0,1-.23,2.82,5.41,5.41,0,0,1,.12-2.39m-1.6,6.56a8.42,8.42,0,0,0,.61-.94,4.21,4.21,0,0,1-.89,2.37,3.8,3.8,0,0,1,.28-1.43m.17,1.95c.08-.63,1.31-1.13,1.43-1.13-.42.72-1.63,2.45-2.37,2.51,0,0,.56-.84.94-1.38M8.12,28.54A3.41,3.41,0,0,1,8.73,27a6.64,6.64,0,0,1-.38,3.26,6.35,6.35,0,0,1-.23-1.76M8.73,34a1.78,1.78,0,0,1,1.44-.79c-.36.72-1.37,1.89-2.21,2,0,0,.44-.72.77-1.22M8.68,36.8a1.08,1.08,0,0,1,.88-.22c-.25.45-1.13,1.5-1.6,1.5a14.08,14.08,0,0,1,.72-1.28m-.16,1.9a7.27,7.27,0,0,1,1.53-.85,5.47,5.47,0,0,1-2.37,2.23,7.56,7.56,0,0,1,.84-1.38m-2-7c.44.42.35,2,.4,2.27-.64-.46-.91-2.5-.84-3l.44.73m-.77,7.43c-.7.11-2.26-.09-2.76-1,1-.21,2.36,0,2.82,1Zm0-1.56a5.48,5.48,0,0,1-1.54-1.77,5.65,5.65,0,0,1,2.15,2.11,3.3,3.3,0,0,1-.61-.34m.77-.83A3.48,3.48,0,0,1,5.42,35c.77,0,1.56,1.8,1.5,2.18ZM5.75,50.24a2.92,2.92,0,0,1-2.1-.45c.53-.33,1.79.08,2.49.33Zm.77-1.06c-.86.44-2.64-.82-3-1.17.57-.36,3,.15,3,1.17m0-1.38C5.62,47.43,5,44.89,5,44.63a6.11,6.11,0,0,1,2,3.5,2.11,2.11,0,0,1-.5-.33M7.63,47a3.65,3.65,0,0,1-.55-2.6c.59.17,1,2.24.55,2.6m1.1,1.34a.31.31,0,0,1-.05.21,16.84,16.84,0,0,1,0-3.33,4.06,4.06,0,0,1,.05,3.12M3.27,55.51A2.67,2.67,0,0,1,5.53,57c-.71.34-2.27-.58-2.49-1.5ZM1.67,58c.14-.68,3-.36,3.2,0-.11.54-3.11.48-3.2,0M7,58.63c-.49.81-2.89,1.73-3.37,1,.18-.77,2.48-1.34,3.43-1.12Zm6.23-9.45a2.78,2.78,0,0,1,.4-1.88,2.94,2.94,0,0,1-.4,1.88m2.7.45a14,14,0,0,1-2.54,2.44c0-1.14,1.65-2.33,2.54-2.44m-1.32-1.44a3.27,3.27,0,0,1,1.11-1A4.45,4.45,0,0,1,14,49.91a8.31,8.31,0,0,1,.66-1.72m-2.2-8.32c.05-2.09.53,1.06.16,1.22,0,0-.3-.94-.16-1.22m0,5.77a7,7,0,0,1,1.66-1.45,3.23,3.23,0,0,1-1.83,1.61ZM12,48.46a3,3,0,0,1,.89-2.11c-.47,1.54,0,5.1-.61,7A20.41,20.41,0,0,1,12,48.46m.45,12.21a3.29,3.29,0,0,1-1.82.12c.34-.74,2-.86,2.59-.49Zm0-1.94c-1-.23-2.09-2.3-2.15-2.65a4.91,4.91,0,0,1,3.08,3.09,6.75,6.75,0,0,1-.93-.44M8.78,66.17c.58,0,2-.38,2.6.39-.44.39-2.59.31-2.6-.39m1.67,2a3.24,3.24,0,0,1-1.44,0c.5-.34,2-1,2.71-.68a3.37,3.37,0,0,1-1.27.68m2,.49c-.28.56-1.21.92-1.65,1.1a5.52,5.52,0,0,1,2-2,4.61,4.61,0,0,1-.32.89m4-10.83c.16-.55.39-1.16.39-1.16.56.51.31,2.74,0,3.27a2.55,2.55,0,0,1-.39-2.11M14.8,55.3c.71.43.85,2.4.66,2.82a3.44,3.44,0,0,1-.66-2.82m.33,4.81c-.66-.39-1.32-2.18-1.55-2.65C14.41,58.13,16,60,16,60.79a4.47,4.47,0,0,1-.89-.68m0,4.79A1.19,1.19,0,0,1,14,64c.65-.07,1.53.38,1.5,1Zm.94-1.34a2,2,0,0,1-.78-.45c.24-.71,2.2.17,2.21.52a5,5,0,0,1-1.43-.07m4.42,5.93a4.47,4.47,0,0,1-2,.52c.58-.41,1.79-1.3,2.38-1.65-1.23,0-2.91.88-3.86.71.71-1.41,3.29-.9,4.4-.68-1.37-1.4-3.85-1-4.89-1.94,1.71-.52,3.62,1,4.89,1.94-.91-1.94-3.09-2.66-4-3.77,1.95-.36,3,2.6,4,3.77-.7-3.68-1.15-2.73-1.81-4.88.9.25,2,1.92,1.71,2.56-.1,1.22.66,2.41-.77,3.42m1.76-7.81.28.45-.51.49L22,61.17l.28.51Zm0,3.05a2.76,2.76,0,0,1-.23.38c-.64-.91,1.27-2.7,1.88-2.82A19.11,19.11,0,0,1,22.25,64.73Zm-.77,13.11a4.61,4.61,0,0,1-.78.54c-.19-.55.85-2,1.55-2a2.66,2.66,0,0,1-.44,1.11,9.3,9.3,0,0,0,1-.9C23.1,76.84,21.54,77.71,21.48,77.84Zm2.8-3.91v0a3.5,3.5,0,0,0-.55-.73c.2-.22.59-.69.77-.94-.08.1-.59,1.44-.23,1.65m1-.31a.49.49,0,0,1-.23-.73.53.53,0,0,1,.23.73Zm5.55-4.5a.15.15,0,0,1,.07.11c-.16,0-1.59-.41-1.72-.44l.17-.61c.35,0,1.54.16,1.48.94m-.1.64-.24-.1a.72.72,0,0,1,.24.1m-3.31,10.8c-1.88-.75-.66-1.1-2.87-.4.34-.24,1.65-1.64,1.93-1.83-.15.52.62,1.78.94,2.23m.11-3.68c-.3-.21-.9-.74-1.17-1l.28-.39,1.11.89Zm.71-1.94c-4.82-2,0-10.47,1.11-7.44C27,69,27.85,72.83,28.2,74.94m.33-3.67.07-.82c.35.15,1.07.42,1.43.54-.37.05-1.13.2-1.5.28Zm1.72,2.45a6.44,6.44,0,0,1-.89.56c0-.14-.13-.52-.17-.66.15,0,1.57-.66,1.72-.61-.17.2-.23.51-.66.71m1.71,0a8.12,8.12,0,0,0-.94.77c-.85-.51,1.34-1.62,1.55-1.66a1.76,1.76,0,0,1-.61.89m.45-3.83c-.16-.2-1.27-1.56-1.39-1.73a1.76,1.76,0,0,0,.38-.21l1.44,1.55-.43.39ZM21.81,77.5a11,11,0,0,1-1.11.88,5.59,5.59,0,0,0,1.11-.88m26.64.16.78.56c-.22-.18-.86-.67-1.06-.85a1.55,1.55,0,0,0,.28.29"/></svg>