<svg xmlns="http://www.w3.org/2000/svg" viewBox="0 0 34.85 43.84"><path d="M21.07,3.86A11.23,11.23,0,0,0,17.38,6.4l.08.08-.1-.06,0,0C12.3,1.77,7-1.38,5,.61-2.59,8.2-.21,36.09,3.43,42.47l.09.26s0,.06,0,.06a1.92,1.92,0,0,0,1.27.83l1,.11c.77.05,1.77.11,2.43.11,9,0,20.82-3.43,25.78-10C37.8,28.93,26.82,1.55,21.07,3.86Zm3.15,19.88a1.65,1.65,0,1,1,1.22-2A1.65,1.65,0,0,1,24.22,23.74ZM5,43.62l.17,0Z" style="opacity:0.5"/><path d="M17.32,6.4C8.49,14.85,1.7,38,3.52,42.73c0,0,0,.06,0,.06a1.92,1.92,0,0,0,1.27.83H5a1.53,1.53,0,0,0,.72-.17c8.78-2.59,20.76-11.32,23-20.32C29.47,19.88,23.56,12,17.32,6.4Zm6.9,17.34a1.65,1.65,0,1,1,1.22-2A1.65,1.65,0,0,1,24.22,23.74Z"/></svg>