<svg xmlns="http://www.w3.org/2000/svg" viewBox="0 0 86.23 37.85"><path d="M52.78,17.47a2.94,2.94,0,0,0-3.2-3H45.83v9.74h1.88v-3.9H49.1L51,24.22H53.2L51,20A2.53,2.53,0,0,0,52.78,17.47Zm-3.27,1.25h-1.8V16.15h1.8a1.3,1.3,0,0,1,1.39,1.32,1.28,1.28,0,0,1-1.39,1.25Zm4.94,5.5h6.4V22.48H56.33V20.11h3.89V18.44H56.33V16.15h4.52V14.48h-6.4v9.74Zm7.79-8.07h2.5v8.07h1.88V16.15h2.57V14.48H62.24Zm13.42,4.66a1.68,1.68,0,1,1-3.34,0V14.48H70.38v6.4A3.38,3.38,0,0,0,74,24.29a3.32,3.32,0,0,0,3.55-3.41v-6.4H75.66v6.33ZM84.08,20a2.56,2.56,0,0,0,1.73-2.51,2.92,2.92,0,0,0-3.13-3H78.86v9.74h1.88v-3.9h1.39L84,24.22h2.22L84.08,20Zm-1.53-1.26H80.74V16.15h1.81a1.3,1.3,0,0,1,1.39,1.32,1.28,1.28,0,0,1-1.39,1.25Z"/><path d="M49.1,1.47H45.76v9.74H49.1a3.7,3.7,0,0,0,2.5-.9c1-1.05,1-2.72,1-4.11s0-2.85-1-3.82a3.35,3.35,0,0,0-2.5-.91Zm1.73,8.07a2.3,2.3,0,0,1-1.87.77H46.8V2.38H49a2.52,2.52,0,0,1,1.87.69c.7.7.7,1.95.7,3.13S51.53,8.85,50.83,9.54Zm6.61-8.07h-.9l-3.62,9.74H54L54.87,9h4.24l.76,2.22H61ZM55.15,8.08,57,2.93l1.81,5.15ZM68.5,1.47h0V9.26L63.28,1.47h-1v9.74h1V3.42l5.22,7.79h1V1.47Zm8.2,5.15c-.34-.42-.83-.55-1.73-.69l-1-.21a2.94,2.94,0,0,1-1.32-.49,1.39,1.39,0,0,1-.49-1.11c0-1.12.77-1.81,2.09-1.81a3.11,3.11,0,0,1,2.29.83l.63-.69A3.86,3.86,0,0,0,74.2,1.4c-1.88,0-3.06,1.05-3.06,2.72a2.27,2.27,0,0,0,.7,1.81,3.36,3.36,0,0,0,1.8.76l1.12.21a2,2,0,0,1,1.32.42,1.68,1.68,0,0,1,.41,1.25c0,1.11-.83,1.81-2.29,1.81a3.27,3.27,0,0,1-2.64-1.12l-.7.77a4.28,4.28,0,0,0,3.34,1.25c2,0,3.34-1,3.34-2.78a2.28,2.28,0,0,0-.84-1.88Zm9.46,4.59-3.48-6,3.06-3.76H84.49L79.9,7V1.47h-1v9.74h1V8.5L82,6l3,5.21Z"/><path d="M49,31.45l-1-.14a2.66,2.66,0,0,1-1.18-.48,1.38,1.38,0,0,1-.35-1,1.6,1.6,0,0,1,1.81-1.6,2.53,2.53,0,0,1,2,.77h.07l.69-.63L51,28.32a3.57,3.57,0,0,0-2.64-1c-1.81,0-2.92,1-2.92,2.57a2,2,0,0,0,.7,1.67,3.62,3.62,0,0,0,1.66.7l1,.14a1.94,1.94,0,0,1,1.11.41,1.32,1.32,0,0,1,.42,1c0,1-.77,1.6-2.09,1.6a3.23,3.23,0,0,1-2.36-.91v-.07l-.77.7.07.07a4,4,0,0,0,3.06,1.18c1.88,0,3.13-1,3.13-2.57a2.33,2.33,0,0,0-.76-1.81A3.13,3.13,0,0,0,49,31.45Zm7.72-4h0l-2,4.17-2-4.17H51.46l2.71,5.29v3.68h1V32.71l2.64-5.29Zm4.79,4-1-.14a2.61,2.61,0,0,1-1.18-.48,1.14,1.14,0,0,1-.35-1,1.6,1.6,0,0,1,1.81-1.6,2.59,2.59,0,0,1,2,.77h.07l.63-.63v-.07a3.74,3.74,0,0,0-2.71-1c-1.74,0-2.85,1-2.85,2.57a2.06,2.06,0,0,0,.69,1.67,3.13,3.13,0,0,0,1.6.7l1.05.14a2,2,0,0,1,1.18.41,1.57,1.57,0,0,1,.34,1c0,1-.69,1.6-2,1.6a3.16,3.16,0,0,1-2.37-.91l-.07-.07-.69.7.07.07a3.85,3.85,0,0,0,3.06,1.18c1.88,0,3.06-1,3.06-2.57a2.26,2.26,0,0,0-.7-1.81,3.06,3.06,0,0,0-1.67-.63Zm3-4h0v1H67v8h1v-8h2.57v-1Zm7.31,0h0v9H77.4v-1H72.81V32.36H76.7v-1H72.81v-3H77.4v-1Zm13.28,0h0l-2.78,6.19-2.85-6.19h-1v9h1V29.78L81.78,35h.9L85,29.78v6.61h1v-9Z"/><path d="M20.52,0a9.73,9.73,0,0,0-10.09,10.3,9.73,9.73,0,0,0,9.11,9.32A9.73,9.73,0,0,0,29.62,9.33,9.82,9.82,0,0,0,20.52,0Zm4,10.37-.07.35-.35.27-.07.28.07.49-.14.28-.42.21-.21.21V13l-.27.21H22.6l-.21.21-.14.42-.35.21-.41-.14-.28.07-.35.41h-.28l-.41-.21h-.28l-.42.21h-.35L18.84,14l-.27-.07-.49.14-.28-.21-.21-.42-.21-.21H16.9L16.69,13l-.07-.55-.14-.21L16,12.05l-.14-.28.14-.49L15.92,11l-.41-.27v-.35l.2-.42V9.68l-.2-.41V8.92l.41-.35L16,8.36l-.14-.49L16,7.53l.49-.14.14-.28.07-.49.21-.21.48-.07.21-.13.21-.49.28-.14.49.14.27-.07.28-.42.35-.07.42.28h.28l.41-.28.28.07.35.42.28.07.41-.14.35.14.14.49.21.13.49.07.27.21v.49l.21.28.42.14.14.34-.07.49.07.21.35.35.07.35-.28.41V10Z"/><path d="M38.46,22.9a9.52,9.52,0,0,0-13.29-3.27A9.93,9.93,0,0,0,22,33.12a9.47,9.47,0,0,0,13.22,3.27,10,10,0,0,0,3.2-13.49Zm-3.13,6.26a3.67,3.67,0,0,1-2.65.56,1.92,1.92,0,0,0,.42-2.16,10.53,10.53,0,0,0-.63-1l-.07-.07c-.06-.14-.2-.35-.41-.77a1.89,1.89,0,0,0-2.09-.63A4.09,4.09,0,0,1,31.64,23a3.68,3.68,0,0,1,5.15,1A3.9,3.9,0,0,1,35.33,29.16Z"/><path d="M9.67,18.17a9.84,9.84,0,0,0,0,19.68,9.84,9.84,0,0,0,0-19.68Zm0,12.94A2.8,2.8,0,0,1,7.3,29.85l-.14-.13L7,29.44a2.45,2.45,0,0,1-.35-1.39,3,3,0,0,1,3-3.13A2.89,2.89,0,0,1,12,26.17l.14.14.14.21a3.48,3.48,0,0,1,.34,1.53A3,3,0,0,1,9.66,31.11Z"/></svg>