<?xml version="1.0" encoding="UTF-8"?><svg id="b" xmlns="http://www.w3.org/2000/svg" viewBox="0 0 142.24232 90.65103"><g id="c"><path d="M75.37719,75.65269c.03661-.3894.12808-.77355.19859-1.16033-.02871-.14896-.05487-.29792-.08358-.44688.01826-.10192.07058-.21691.04442-.30577-.05487-.18032-.15161-.34495-.23264-.51483-.19332.10976-.4782.1751-.55923.33973-.1359.27441.07577.44429.36328.48348-.13327.08101-.27443.15157-.39725.24566-.15153.1176-.29006.2535-.43123.38154.06013.21952.1229.44165.18559.66117.0209.4704.03916.94081.06269,1.48961.39462-.21169.82066,0,1.01925-.41551-.36064-.18293-.1934-.50177-.16987-.75788" style=" stroke-width:0px;"/><path d="M43.17282,76.63428c-.14372-.14635-.29006-.29269-.43378-.43904-.44957-.53574-.03397-1.06887.04961-1.58892.01308-.08885.43641-.13066.67423-.15418.44694-.04181.95393.12804,1.24918-.39201-.09666-.49654-.47557-.39984-.81532-.39462-.32667.00784-.65334.00261-.98001.00261-.32149-.48346.15679-.91728.09148-1.38507.16987-.02353.33967-.04703.50699-.07317.14635-.0392.31359-.06011.49128-.06795.15679.28225.31622.56449.47565.84674.54097-.29269.27961-.8781.4782-1.29623-.25609-.08101-.50954-.21952-.77089-.22997-.78142-.02875-1.5654-.01569-2.34682-.00524-.18814.00261-.37372.06795-.42859.07842.06277.52527.18032.95387.14635,1.36938-.06795.84674-.23519,1.68562-.31885,2.53235-.03653.37109-.0784.69254-.43641.90683-.23256.1359-.24564.32667-.01045.49916.63244-.03659,1.26489-.07056,1.89733-.11498.16198-.01047.32141-.06273.48083-.09409" style=" stroke-width:0px;"/><path d="M78.606,76.8219c.53052-.03659,1.07148-.02351,1.59156-.1176,1.34584-.24566,2.15597-1.03488,2.29976-2.43564-.07058-.49393-.13853-.98784-.20911-1.48178-.11237-.80752-.68731-1.22567-1.39289-1.28054-1.16823-.09148-2.34945-.02614-3.5751-.02614.58802,1.04796.25872,4.10035-.4652,5.08036.57494.08623,1.16296.1751,1.75098.26133M78.82029,74.67111c.0784-.72651.12808-1.45825.25346-2.17692.02879-.16202.29533-.35281.4861-.40507.22219-.06011.48346.01567.72918.03136.51481.12543.58276.62198.71339.99307.33456.94864.06532,1.85287-.56186,2.58199-.24038.28486-.73692.38678-1.1368.4861-.31622.0784-.53833-.06795-.48873-.48087.04187-.33973.00526-.68731.00526-1.02965" style=" stroke-width:0px;"/><path d="M73.16212,76.38339c-.41033-.27963-.30314-.47824.09929-.63242.48346-.18293.85982-.44951.8154-1.04273-.13072-.14635-.23782-.37895-.39462-.41815-.62463-.15418-1.08193.06011-1.35636.55666-.40243.73435-.33185,1.42427.20385,2.00705.53578-.02614,1.06622-.0575,1.47392-.47563-.27961.00261-.56186.00261-.84148.00522" style=" stroke-width:0px;"/><path d="M61.53529,76.37294c.12808-1.05318.27443-2.10114.42859-3.1491.08885-.62198.10192-1.29099.8075-1.6046-.6716-.28747-1.33539-.20646-2.0802-.02092,1.2152.98525.32667,1.99923.33975,3.15956-.84411-.87288-1.372-1.70915-1.84501-2.58985-.16469-.30575-.27443-.69515-.71874-.70298-.51999-.01047-1.04006.00522-1.615.01306.21948.40768.54878.73174.49391.96172-.33975,1.40597.0209,2.96092-.96174,4.23362.50962,0,.93295.02092,1.35636-.00522.50173-.03136.20385-.27439.10192-.45733-.06795-.10976-.20122-.22476-.1934-.32667.06269-.80232.13853-1.60462.24046-2.40169.03397-.25088.18814-.38415.3998-.09929.69776.98523,1.38244,1.98352,2.10373,2.95047.17514.2378.47565.38154.7161.56711.27698-.06795.39199-.24305.42596-.52791" style=" stroke-width:0px;"/><path d="M85.29985,76.80232c1.17341.13068,1.2727.06534,1.68558-1.03751-.24038-.30837-.43378-.18816-.67423.03397-.50173.45734-1.06359.58278-1.66732.17771-.00518-.17771-.02608-.35803-.01308-.53574.08103-1.0793.1359-1.12636,1.21002-1.01921.47302.04705.87808.00786.94603-.588-.46257-.33712-.94866-.15418-1.43476-.07056-.47302.0784-.49391.02614-.33712-.61675.01045-.10715.01834-.2143.02879-.32145.07577-.69254.07577-.69515.73955-.72127.10456-.00524.21167.02351.31885.03659.15416.277.31096.55403.46512.83366.15424-.42859.30841-.85458.46002-1.28317-.04442-.05226-.08366-.14635-.1359-.15418-1.16559-.16204-2.32592-.07579-3.57773.01828.57494.50177.42859,1.05318.32667,1.61767-.13064.73435-.23256,1.47916-.30833,2.22396-.03661.37634-.11764.69515-.43649.93036-.20903.15157-.25609.33451-.013.51222.66634-.04181,1.33276-.09148,1.99917-.12282.13853-.00524.27706.07056.41815.08623" style=" stroke-width:0px;"/><path d="M54.5655,74.30708c-.00526-.08101-.02879-.22736-.01053-.23258.65079-.19077.92777-.69254,1.09764-1.28837-.06013-.20124-.14372-.39723-.18032-.60108-.0784-.4129-.36328-.66117-.7291-.68731-1.0872-.07579-2.17958-.08362-3.32946.00522.66123,1.06363.39725,3.79982-.45212,5.2032.66387,0,1.29623.00522,1.92612-.00263.43115-.00522.33185-.25086.21422-.49914-.10711-.06795-.31096-.14112-.30833-.20385.0209-.44949.08103-.89639.14635-1.34326.00263-.00784.23256.01567.35538.02353.23264.56447.44949,1.13158.70039,1.6856.06532.14112.23001.32928.3502.33189.51226.00522,1.0218-.04965,1.74309-.09407-.91724-.65073-1.30668-1.42429-1.52353-2.29715M53.64817,73.71124c-.33712.25088-.56968.08885-.57494-.36326-.00263-.28225-.01571-.57755.06013-.8415.06005-.20124.24827-.50699.38417-.5096.19332-.00261.42596.20122.57231.3737.09666.1176.07313.33451.13064.65856-.15153.18555-.31885.49132-.57231.68209" style=" stroke-width:0px;"/><path d="M50.72131,74.03843c.01826-.28486.00255-.57233.00518-.85719-.12545-.21169-.30051-.40507-.36064-.63242-.1359-.5096-.49654-.76049-.93295-.95387-1.64379-.72651-3.40259-.15681-4.3042,1.3903-.01045.06011-.03397.12021-.06532.17249-.07058.30314-.13853.60367-.20911.90683v.39723c-.03134,1.04794.43123,1.764,1.42168,2.12987.12545.04705.23264.14112.34756.2143.43123.01308.86245.05228,1.28841.02875,1.66469-.08885,2.69702-1.12113,2.80939-2.79629M46.61569,75.6378c-.58276-1.04012-.38936-2.64211.43641-3.38168.35283-.31883.78142-.48085,1.2727-.32406.20911.1751.49918.31098.61155.53313.42078.82842.43123,1.7248.16724,2.59505-.16724.55664-.5357,1.0349-1.16296,1.13158-.52789.08364-1.07667.09148-1.32494-.55403" style=" stroke-width:0px;"/><path d="M65.817,76.83575c1.42695-.09148,2.339-.87808,2.64478-2.29191.08095-.37372.10448-.7631.15416-1.14727-.09148-.18816-.20911-.36848-.26917-.56709-.23001-.76573-.76053-1.18647-1.50789-1.37202-2.04368-.5096-3.8469.3737-4.20491,2.75709-.14372.96693.44686,1.93388,1.3511,2.352.18814.08625.37109.18032.55923.2718.42341,0,.84937.02353,1.2727-.00261M64.14187,75.09787c-.10974-.83366.01045-1.59676.45475-2.3468.3502-.58539.76308-.89898,1.44258-.84672.46775.08362.71339.36848.88853.81275.31096.7814.2639,1.53667.00782,2.30238-.26654.8023-.74745,1.20214-1.45039,1.20998-.76571.00784-1.16823-.42859-1.34328-1.13158" style=" stroke-width:0px;"/><path d="M71.55828,75.84607c.11237-.81013.23256-1.62029.3502-2.43303-.3502-.42859-.76571-.19338-1.23354-.16465.11764.27963.33712.58541.26662.68209-.1359.1934-.43386.2718-.66905.3894-.52007.26133-1.04533,1.48961-.86764,2.0541.09674.31098.27706.51744.63508.35801.29788-.13327.53833-.48869.91987-.04181.0784.09148.60373-.19599.92514-.30837-.37372-.01569-.36064-.27963-.32667-.53574" style=" stroke-width:0px;"/><path d="M37.7433,73.82465c.04179-.29008.0784-.61675-.33712-.6063-.38154.01047-.55668.26133-.44686.65073.03653.13329.10448.25872.15679.38678-.50962.1359-.48873.13066-.38154.46518.05487.17771.04697.38154.03916.57494-.01826.47824-.05224.95909-.0784,1.43994.6716.0183,1.07667-.08101.89898-.79446-.03397-.13849.10192-.33189.18032-.48869.21956-.42598.10192-.8206-.09403-1.21261.0209-.13849.04179-.277.06269-.41551" style=" stroke-width:0px;"/><path d="M112.27702,75.47369c.11237-1.01921.29269-2.03319.38936-3.05501.04187-.46257.44957-.49654.66905-.74482-.76045-.43121-1.53405-.19338-2.49572-.11237,1.02443.87808.32667,1.77708.26654,2.60552-.0575.83627.05487,1.80844-.92514,2.51143.86245,0,1.52879.02353,2.19258-.01045.43904-.02092.30577-.24827.09937-.45473-.37636-.16202-.22474-.4913-.19603-.73957" style=" stroke-width:0px;"/><path d="M108.52734,74.31519c.02353-.09931.01826-.25872.0784-.28747.37636-.19599.74745-.38417.87808-.83627-.01308-.28747-.03134-.57233-.03916-.8598-.01571-.52527-.34238-.82582-.80758-.84672-1.06096-.04442-2.12726-.01306-3.3242-.01306.21956.34234.45738.53833.45212.72651-.03916,1.51834.06013,3.06807-.85192,4.50803.70821,0,1.37463.02875,2.03578-.01047.35801-.02351.20122-.28484.11764-.47824-.09148-.03659-.26917-.0784-.26662-.10976.02353-.5488.06795-1.09238.12545-1.63857.00263-.02875.20122-.08623.23782-.05226.06532.05748.0784.17771.11237.27178.2718.61936.42078,1.36418.865,1.81367.28751.29008,1.01398.14635,1.5445.18555.04442.00261.09674-.08362.20648-.18555-.72655-.55664-1.1577-1.30668-1.36418-2.18737M107.82958,73.55732c-.15943.14635-.43641.15941-.66379.23258-.04179-.19861-.10456-.3946-.11764-.59584-.013-.20907.01571-.42337.03397-.63242.02616-.29008.08629-.64028.44431-.57233.22211.0392.4077.32406.58276.52266.05487.06534.02616.20385.05232.47824-.06277.11237-.14635.39723-.33193.56711" style=" stroke-width:0px;"/><path d="M115.45614,72.11893c-.14108-.48085-.65597-.79446-1.17604-.6455-.25609.07317-.47302.28486-.70558.43382-.01308.06273-.03134.12021-.05487.17771.01571.21169-.01045.43643.05224.63242.15943.48087.84156.79446,1.30149.62983.45467-.16465.72647-.73959.58276-1.22828" style=" stroke-width:0px;"/><path d="M93.46969,76.20359c-.06795-.14374-.20648-.29269-.19077-.42598.12019-1.12113.29006-2.23441.3998-3.35554.04187-.44951.44694-.49654.66642-.74482-.76045-.43643-1.53661-.19599-2.50098-.1176.55668.42859.55931.85719.47828,1.3302-.14372.84411-.26398,1.69605-.35283,2.54802-.04179.41029-.07058.78138-.48865,1.00615-.0445.02351.03653.277.05742.42335.72129-.07579,1.44521-.14896,2.1665-.22474l-.23519-.43904" style=" stroke-width:0px;"/><path d="M91.05763,75.12375c-.14635-.71084-.61936-1.16817-1.20212-1.53665-.12282-.07579-.24827-.14896-.35801-.23782-.34764-.28486-.44431-.74741-.22738-1.03488.22993-.30055.97211-.311,1.25181.00261.15935.18032.2848.39199.43904.61153.60892-.95389.46512-1.33282-.45738-1.57064-.59584-.15418-1.14725-.0392-1.68558.15681-1.18386.43904-1.39815,1.89207-.41033,2.67867.27961.22476.65334.37111.84674.65073.21956.31883.66115.6455.36846,1.13158-.18814.30839-1.12636.35803-1.51053.10715-.08621-.05487-.14635-.15418-.20903-.24303-.40243-.57494-.45994.0392-.65071.18816-.01571.12804-.03397.25872-.04969.3894.21956.13849.43641.277.65334.4129.35801.00522.71347.01567,1.07148.01045,1.35373-.0209,1.79541-.37893,2.12989-1.71697" style=" stroke-width:0px;"/><path d="M39.32154,73.62134c-.04705-.5488-.44167-.47824-.78924-.4129-.42596.07579-.15416.35279-.14635.5697.01308.31622-.03661.63506-.06795.95128-.06532.65595-.1359,1.3119-.21948,2.12987.4991-.18555.84411-.31359,1.18904-.44427-.0784-.20646-.23001-.41815-.21693-.61936.05232-.72651.16206-1.45041.2509-2.17431" style=" stroke-width:0px;"/><path d="M98.01195,76.67661c1.61245-.49652,2.13252-1.7013,2.12207-3.25361-.06532-.12545-.16724-.24305-.18814-.37372-.18032-1.19692-.92251-1.59413-2.16387-1.59676-.75263-.00261-1.50526-.00784-2.25797.00524-.22211.00522-.44423.07317-.56449.09407.10456.44688.26662.80491.2509,1.15249-.04705.9617-.13853,1.92604-.28225,2.87991-.04179.28486-.3293.52529-.45467.81015-.04969.11498.03397.29008.05742.43643.48873-.02875.97746-.06534,1.4661-.08625.67168-.02875,1.34328-.04703,2.01489-.06795M96.56419,73.0336c.13064-.97478.16461-.96956,1.21257-.91728.21174.16463.49918.28747.622.50177.31359.54619.32667,1.16817.22211,1.77708-.16987.98001-.74218,1.69866-1.46602,1.77445-.28225.02875-.5802-.12021-.8729-.18816.09148-.98262.14898-1.97046.28225-2.94786" style=" stroke-width:0px;"/><path d="M101.53561,76.64891c.41815.03136.83366.11498,1.24918.1751.10456-.00261.20911-.00522.31359-.00522q1.06367-.01047,1.40079-1.0349c-.18295-.29531-.42859-.27963-.60365-.04181-.46002.61675-1.01143.53052-1.60464.27702-.31622-.49132.0784-.94864.09411-1.42429.00255-.09407.3998-.22474.61936-.24303.27961-.02092.56968.10454.84148.06795.15943-.02092.29006-.23782.43123-.36587-.1359-.13068-.26662-.36589-.41033-.37372-.37636-.02351-.76045.04967-1.13943.08625-.4077-.46257-.2143-.9957-.04705-1.43735.06013-.16202.6011-.14374.92251-.20907l.45738.8598c.13327-.22474.28488-.43643.39199-.67164.09674-.21167.14116-.44688.20911-.67162-.77879-.24566-2.85118-.25872-3.88087.00261.57231.34495.48873.85719.43641,1.34065-.08103.7448-.17769,1.49484-.33185,2.22657-.10192.48087-.31885.93559-.49391,1.43735.3632,0,.75526-.02353,1.14462.00522" style=" stroke-width:0px;"/><path d="M142.03056,68.95336c-.20385-2.43303-.45994-4.86084-.69776-7.29126-.26654-2.71265-.52789-5.42793-.81013-8.14059-.18032-1.7248-.59057-3.34509-2.26579-4.28068-.36064-.20122-.25346-.44165-.128-.7239.50699-1.13941.50436-2.31282.06795-3.45746-.27969-.73174-.67687-1.41905-1.02706-2.12467-.55668-1.12374-1.12636-2.24224-1.67259-3.37121-.69776-1.44258-1.37718-2.89299-2.06449-4.34079-.23001-.48348-.49654-.9565-.67431-1.45825-.45731-1.28578-1.01135-2.51145-1.72474-3.68745-.56449-.93036-1.37463-1.3119-2.32856-1.55495-.2718-.06795-.56186-.05748-.85719-.08623.27969-.90683.23001-1.75878-.19077-2.55324-.36583-.69254-.78397-1.34588-1.39552-1.88162-1.20738-1.06363-2.35727-2.19262-3.5306-3.29806-.12808-.12021-.24046-.26133-.36591-.38678-.99827-1.01659-1.97828-2.05408-3.00271-3.04456-1.31194-1.26746-2.66041-2.49837-3.99061-3.74493-.0784-.07317-.15943-.14896-.21956-.23519-.93295-1.39293-2.34937-1.80061-3.90169-1.86856-.45212-.01828-1.01925.31361-1.33547.1359-.27172-.15679-.26127-.80752-.38154-1.23873-.01826-.06795-.05224-.13329-.09403-.1934-.72918-1.07408-1.51842-2.06716-2.80157-2.5454-1.53397-.5697-3.07592-1.10544-4.57337-1.80059-2.09328-.97478-4.35907-1.56278-6.46544-2.55587-1.03225-.48608-2.17168-.7448-3.25361-1.13158-1.86854-.66901-3.64297-.56186-5.35998.66903-.60628-1.45825-1.69611-2.29976-3.1674-2.67608-.02616-.00522-.04179-.05489-.06269-.08625h-12.0894c-1.36681.18032-2.73354.18032-4.10035,0h-.43123c-.1934.06273-.38417.1751-.57757.17771-1.75353.03136-3.12553.703-3.9174,2.33113-.19859.41029-.38672.27178-.66379.09668-1.52361-.95387-3.14906-1.15249-4.83991-.54097-.90687.32928-1.77188.76573-2.67086,1.12113-2.81984,1.11591-5.64749,2.22135-8.47514,3.32158-1.10283.43119-2.21874.82844-3.3242,1.25962-.32922.12806-.71866.24827-.94077.49654-.93295,1.04273-2.21874,1.89207-2.04368,3.55678-.16987-.01306-.24301-.00784-.31096-.02351-.10456-.02875-.20122-.08625-.30577-.10456-1.65161-.27178-3.14906.04183-4.40876,1.19694-.65589.60367-1.28052,1.23873-1.92341,1.85809-.18032.17247-.37891.33189-.5566.5096-1.06104,1.05057-2.04368,2.20045-3.19619,3.13863-1.39807,1.13943-2.5454,2.51406-3.86253,3.72143-.3632.33451-.62192.80752-1.02443,1.06885-1.66732,1.08716-2.32584,2.63949-2.25008,4.58906-.20648.06271-.41551.10976-.6141.18555-1.13943.43382-1.97836,1.14203-2.62125,2.24226-.79442,1.36155-1.20738,2.89036-2.09328,4.21273-.61155.90945-.96174,1.99136-1.43476,2.99489-1.10283,2.33111-2.16905,4.68052-3.32938,6.98028-.74482,1.47392-.81013,2.86422.05224,4.28851.19077.31359.28751.55664-.22993.8023-1.3511.63765-1.96002,1.82673-2.10381,3.27453-.17769,1.81889-.38672,3.63517-.51218,5.45929-.13327,1.96524-.18814,3.93833-.27698,5.90619-.09148.99831-.18032,1.99399-.2718,2.98967-.09411.703-.20648,1.40338-.27961,2.10636-.07058.67425-.10456,1.35373-.14635,2.03058-.08366,1.29101-.07585,1.35373.20903,2.02535.30314-.29008.2143-.66379.23256-1.00615.07585-1.42166.1438-2.84332.2143-4.26498-.10448-.09931-.10448-.22474-.09148-.35281.03142.1176.06277.23521.09148.35281.12808-1.15772.25617-2.31282.38154-3.46793.03924-.3554.07058-.71082.11764-1.06363.115-.84672.26135-1.69083.35283-2.54018.06269-.56972.04179-1.14725.08095-1.72219.12027-1.85809.26662-3.71359.37117-5.57429.04179-.71868.00518-1.43211.79969-1.81367.10711-.04965.19859-.22474.21948-.35542.13327-.8415.64815-1.28576,1.4295-1.55232.60373-.20385.74482-.61153.4861-1.17863-.10192-.22213-.3293-.38678-.43386-.60892-.17769-.38415-.45994-.81275-.41807-1.18906.09403-.80493.09929-1.63335.51481-2.39647.29788-.55141.40243-1.20475.62981-1.80059.08366-.21691.25346-.41029.41288-.59061.72129-.81015,1.25444-1.77708,2.05412-2.52451.09148-.08623.09411-.26394.14108-.39984.32667-.96434.90951-1.8372,1.02451-2.87991.02871-.24305.09929-.4861.17506-.71868.04179-.12545.14635-.33451.21167-.32928.90161.06011.71084-.72651.90943-1.18125.15424-.35279.09148-.83103.30577-1.12113.77361-1.04794,1.32239-2.18476,1.69085-3.42871.05232-.17249.34756-.35803.54623-.38154.48083-.0575.97474-.01308,1.46084-.02353,1.25444-.03136,1.57066-.45473,1.24399-1.67255-.22474-.8415-.16732-1.58892.60365-2.16387.14635-.10976.18814-.36848.27443-.55925.18032-.40245.42333-.71084.865-.89377.38936-.16202.76045-.41815,1.06359-.71084.69258-.6664,1.34065-1.37985,2.00189-2.07761.58539-.61414,1.13154-1.2727,1.75353-1.84501.93822-.8598,2.02797-1.57848,2.85899-2.52712.42859-.49132.97219-.79185,1.40079-1.25703.78142-.85194,1.62027-1.65685,2.45919-2.45654.13845-.13329.38936-.16726.59584-.20646.38672-.07056.78134-.15418,1.17078-.15418.5932,0,1.20994-.0392,1.73264.34756-.06013.43121-.23001.33712-.46783.1176-.04961-.04703-.21167.02875-.32141.04705.03661.09146.04969.22474.11764.26656.44686.27441.90416.32406,1.35365-.01045.5227-.68731.34238-1.50791.42604-2.27885.07577-.6847.30051-1.176,1.02961-1.45825,1.52097-.58539,2.99489-1.29101,4.50024-1.91821,1.25699-.52527,2.60291-.88592,3.7815-1.54973.97738-.5488,1.95738-.99307,3.02105-1.30929.82058-.24305,1.615-.58016,2.41995-.8807.72392-.27441,1.43476-.60369,2.17431-.82844,1.20475-.36587,2.3154-.29269,3.14387.84411.18551.25611.45212.46518.71602.65073.49654.34497.9434.27963,1.31712-.20383.16987-.22213.32667-.49393.36854-.76049.14108-.88855.73174-1.36418,1.46084-1.74311.4077-.21169.86764-.36587,1.20212-.66119.55405-.48869.76571.45996,1.22828.22215.08366-.04183.21167.00261.32149.00261,4.09772-.00524,8.19808-.01047,12.2958-.02614.24046,0,.50436-.03136.71866-.13329.90424-.42598,1.19167-.41551,2.10636.10715.2143.12284.47565.15941.71347.23782,1.04269.33973,1.8947.83627,2.04105,2.08284.04705.40507.18032.87025.71084.98001.5566.11237.98256-.11237,1.32494-.5305.115-.13851.25609-.2718.32141-.43121.28488-.71084.93303-.90161,1.56021-.98001,1.13154-.14112,2.22918.21169,3.17522.75265.82321.47038,1.66995.78922,2.55067,1.06363,1.30141.40507,2.72828.51222,3.71355,1.63596.04442.05226.12282.0784.18814.1019,1.36155.44429,2.71528.90683,4.08472,1.31976.58013.17771,1.19167.2143,1.58366.79446.12019.1751.43641.23258.67423.30314,1.79541.52791,2.56893,1.47916,2.65259,3.27977.00782.14372-.01045.30053.04179.42857.31359.76832.82058,1.30929,1.77969.59324.85719-.64028,1.88162-.62198,2.76497.01828.60102.43643,1.21775.84933,1.81885,1.28315.23001.16726.57757.34497.61936.56449.14635.76832.76308,1.09238,1.26489,1.52881.75526.65856,1.55495,1.26748,2.26579,1.96785.86764.85196,1.63335,1.80322,2.49835,2.6578,1.11591,1.10544,2.29976,2.14295,3.42612,3.23794.5357.52266,1.07148,1.06624,1.4791,1.68822.27969.42598.35546.99309.48873,1.5053.115.43382-.26398.60106-.49654.86241-.30577.34756-.28488.72651.06795,1.04794.33975.311.67423.65597,1.21002.51485.44167,0,.88327-.00261,1.32494-.00261.51744.16985.99827.3554,1.23354.93295,1.07667,2.60813,2.40951,5.09605,3.67958,7.61271.72392,1.43735,1.47918,2.86163,2.19784,4.30157.37891.76573.71084,1.55758,1.06359,2.33896.32412.71606.29796,1.4687.21174,2.22396-.07321.62722-.60636.81015-1.01925,1.14727-.27961.22736-.4652.74741-.44167,1.12113.03142.49652.55668.4521.94866.47302.03661.00261.07313.00261.10974.00261.852-.00784,1.34592.43643,1.7379,1.176.79705,1.50791,1.10809,3.12296,1.06885,4.78244-.04961,2.09069.24046,4.1291.64026,6.16491.04969.24566.1934.53313.115.72912-.20903.52527-.00263.99046.07321,1.47916.18024,1.16817.2848,2.35463.5566,3.50189.18295.77879-.15416,1.49222-.07577,2.21612.13327,1.18908.01571,2.35725.00263,3.53849-.01571,1.40075-.27961,2.68653-1.04796,3.84425-.82584,1.24918-1.89733,2.23963-3.36343,2.66822-.64544.18816-1.34328.25611-2.02007.26656-1.88951.03136-3.77632.15681-5.67101.06273-1.57848-.07579-3.16214.00522-4.74324-.03136-2.47482-.05487-4.94709-.19338-7.42192-.22736-6.46544-.08362-12.93087-.15418-19.39631-.17771-3.26669-.01045-6.53339.08887-9.80008.14896-2.72836.04967-5.45927.10976-8.18763.18293-3.12298.08364-6.24596.16726-9.36893.29008-2.79623.10976-5.58735.27441-8.38095.4077-2.64996.12804-5.30255.26133-7.95252.36587-2.9086.11498-5.81728.20122-8.72333.29792-.38154,0-.76571-.03659-1.1368.01567-.15161.02353-.27961.23521-.41815.36064-.6795.05489-1.35892.0967-2.03841.16987-.99572.10454-2.00707.311-2.80412-.56188-2.0306-.95909-4.06119-1.9208-6.09434-2.87207-.35283-.16463-.74218-.25611-1.08975-.43121-1.23091-.62198-2.59246-.89375-3.8469-1.47131-.65597-.30314-1.47129-.30053-2.21874-.35803-2.66304-.20907-5.29466.26656-7.93936.42859-.10456.00784-.23256.01828-.30841.07579-.54097.42337-1.20475.40768-1.8293.51222-2.61862.44427-5.23979.86502-7.85577,1.31712-.37636.06534-.7291.26133-1.09238.39462-.84148-.03659-1.76661.34758-2.80676,1.25181,1.08975-.30055,1.95738-.54097,2.82502-.77879.50181.02875.93303-.05487,1.41905-.29531.60373-.29792,1.34065-.49916,2.0672-.25088.44686-.40768,1.01135-.3737,1.51834-.277.48346.09146.82584-.35803,1.32239-.1751.85974.31359,1.66469-.15157,2.49053-.29269.43641-.07317.91461-.38678,1.28052-.27963.97219.28486,1.90251.02353,2.80412-.12543,1.29097-.2143,2.62117,0,3.88606-.42076.08366-.02875.19859.03659.29796.04703.99301.11237,1.98091.29269,2.97655.31361,1.51842.03397,2.87207.61675,4.16575,1.26748.98256.49391,1.96002.98001,2.987,1.36938,1.24136.47302,2.58201.76573,3.54639,1.91037-2.52451.2143-5.02294.41029-7.51866.6455-1.75098.16202-3.49407.38154-5.24242.56972-1.19949.12804-2.37808.36326-3.52015.75788-.68213.13849-1.36418.277-2.04623.4129.01563.08623.02871.17249.04442.25872.73174-.12282,1.46602-.24305,2.20039-.36587.10456.02092.23264-.02875.35546-.0575l.10974-.01828c1.28315-.13068,2.58464-.16204,3.84427-.41553,1.1943-.24303,2.38861-.40768,3.60118-.4913,1.39552-.09409,2.78586-.2535,4.18138-.34497,1.82675-.12021,3.65605-.19599,5.4828-.29531.44686-.02614.82058.09409,1.19694.36587,1.12109.80491,2.26316,1.58631,3.42612,2.3285.62981.40247,1.18386.84413,1.51571,1.57586-.24301.14112-.47302.36064-.73692.4129-1.21783.24044-2.4383.49916-3.66921.62981-1.59674.16987-3.20393.22476-4.80856.3293-.03397,0-.07313.00261-.10192.01828-1.21257.65334-2.57156.39201-3.85208.61675-.45467.08101-.95911.30314-1.36155.18816-.86764-.25088-1.69866-.04442-2.54804-.03659-4.59163.04442-9.1859.20646-13.77498-.0784-1.07148-.06795-2.15597-.14112-3.19874-.37893-1.06367-.24305-2.10636-.63244-3.1099-1.06365-.78397-.33451-1.53142-.78138-2.22655-1.27531-.57494-.40768-1.00354-1.02443-1.58111-1.42689-1.04014-.71868-1.71693-1.78492-2.67086-2.57938-.1359-.11237-.24038-.26917-.33185-.42337-.23264-.39201-.2143-.75002.18032-1.03488.28225-.20385.56186-.40245,1.01917-.73174-.87027-.03397-1.31186.48346-1.87899.61936v1.29621c.45475.50438.99309.95389,1.34592,1.52359.77353,1.2492,1.95738,2.09069,3.0445,2.97661,1.14725.93559,2.49317,1.68824,3.85998,2.27624,1.16815.50438,2.46956.83366,3.73708.9382,2.46438.20385,4.94709.26917,7.42192.25611,4.34863-.02353,8.69725-.13329,13.04324-.23782,1.18123-.02873,2.37816-.0784,3.53586-.29269,1.24399-.22997,2.4879-.36064,3.73971-.32928,1.74572.04705,3.39741-.22997,4.96017-1.05318,1.24918-.66117,1.43731-1.74572.33449-2.62903-1.05577-.84674-2.16905-1.61506-3.25625-2.41997-.15416-.11498-.30051-.2378-.48346-.38415.15679-.07842.21693-.13329.27961-.13851,3.76324-.23521,7.52384-.48871,11.28971-.68993,2.4383-.13068,4.88178-.16726,7.32262-.29008.79969-.0392,1.59156-.29794,2.39124-.32406,3.1595-.11237,6.32172-.16726,9.48386-.25088,4.94183-.13329,9.88629-.28747,14.83075-.40507,2.08547-.04967,4.17094-.02092,6.2564-.0392,1.69085-.01308,3.37907-.03397,5.06991-.06534,1.50526-.02875,3.01579-.1359,4.52105-.10192,3.01587.06795,6.02639.23258,9.04226.31361,3.88079.1019,7.75903.19077,11.63983.2378,3.77632.04705,7.55263.08625,11.32895.02875,2.71002-.04181,4.97317-1.05579,6.31383-3.57245.78397-1.47655,1.19167-3.08115,1.18912-4.75108-.00263-1.43474-.09148-2.87207-.21174-4.30159M8.39674,76.0068c-.09148-.7056-.17514-1.36155-.25872-2.01489-.44694.76571-.36328,1.20736.25872,2.01489M35.38221,66.47852h.01308c0-.00261-.00263-.00522-.00526-.00784l-.00782.00784Z" style=" stroke-width:0px;"/><path d="M61.70541,15.71306c-.04705-.01567-.07577-.04442-.11764-.06273.19085-.21952.08629-.5096.02098-.7239-.68995-2.23702-.99309-4.58643-2.01497-6.72154-.88327-1.12636-1.35892-1.30145-2.67341-.80752-1.42695.53313-2.82765,1.14464-4.24407,1.71436-2.11163.84935-4.2337,1.68038-6.34262,2.54279-1.19175.48871-1.53405,1.39293-.94603,2.50621.78134,1.48178,1.58629,2.9531,2.39906,4.4218.44949.80752.93295,1.59415,1.40334,2.39122.39199.7631.73955,1.55234,1.18649,2.28146.53307.87025.8859,1.89207,1.86591,2.42258,1.10809.63504,2.19258.3737,3.24317-.1359,1.48963-.71868,3.01579-1.33282,4.58908-1.84242.72129-.23519,1.40334-.53313,2.00181-1.01659.71602-.57755,1.08975-1.29884.91469-2.22657-.30314-1.61245-.77097-3.18307-1.28578-4.74324" style=" stroke-width:0px;"/><path d="M80.30051,4.99072c-3.73971.00784-7.48205.00261-11.22176.00522-.17769,0-.36064-.01306-.53833.01045-.92514.11762-1.40079.61936-1.46347,1.55495-.01308.2143-.01045.43121.01308.6455.26654,2.31544.53307,4.63348.81013,6.94892.15943,1.31712.41025,2.62903.48346,3.94876.06795,1.1943.61673,2.01229,1.55495,2.64472.50699.24566,1.03751.30839,1.602.33975,2.51398.12804,5.02804.03395,7.54474.03657,1.18123.00263,1.70911-.72651,2.08284-1.67516.33975-.86762.33193-1.8032.45731-2.70481.29269-2.12989.48346-4.27023.75526-6.40273.17251-1.34063.70821-2.74923-.08885-4.08989-.29006-1.01137-1.04796-1.26487-1.99136-1.26225" style=" stroke-width:0px;"/><path d="M44.03552,24.30185c-.91732-1.23873-1.87117-2.4487-2.78841-3.68745-.70302-.94603-1.35118-1.92865-2.05939-2.86946-.57231-.76049-2.03052-.71604-2.69175.03659-.25609.29008-.51481.58278-.80224.84152-.53052.48346-1.10546.92251-1.6229,1.41905-1.23618,1.18123-2.44611,2.38859-3.67702,3.57767-.79705.76571-1.63071,1.49484-2.41214,2.27624-.72647.72651-.67942,1.79537.09411,2.47745.85456.75526,1.72482,1.49222,2.60809,2.2109,1.46874,1.19953,2.95574,2.37816,4.43492,3.56461.05487.04444.10974.09148.16461.1359.83103.67425,1.66206,1.34588,2.49317,2.02013.56968.27178,1.09493.97478,1.78225.19599.05495-.12021.0784-.22474.0784-.32145.1934-.10715.3868-.21169.57757-.31883.04442.04183.08366.08625.1359.12806.50181.18032.81803-.14635,1.12117-.44427,1.54705-1.52881,3.22482-2.91913,4.73535-4.49236,1.08975-1.1368,1.17867-1.78231.38944-3.19352-.852-1.18647-1.69348-2.38339-2.56112-3.55678" style=" stroke-width:0px;"/><path d="M104.09537,12.52268c-.26135-.24044-.48346-.55664-.78924-.7056-1.05314-.51224-2.12463-.9957-3.20919-1.42952-1.06622-.42598-2.17168-.75526-3.24053-1.17339-.72655-.28486-1.40342-.68731-2.12734-.96956-1.00346-.39201-2.01225-.78399-3.04976-1.06102-.85719-.22736-1.65943.31622-1.89725,1.176-.35809,1.3119-.68213,2.63427-1.02188,3.94878l-1.30923,4.96538c-.24309.87808-.48346,1.75355-.72655,2.63164-.27961,1.01921.0784,1.79539.90687,2.4043.18032.13327.31096.33451.46512.50438.07585.19077.25872.23258.42341.29269,2.04623.75002,4.10554,1.46086,6.08126,2.39383.58539.27439,1.22046.4338,1.8868.52527.75271.10454,1.26489-.1176,1.69874-.66117,1.03488-1.30145,1.79796-2.75448,2.36763-4.30943-.013-.02353-.01826-.04442-.03134-.06795.35801-.04965.49654-.42859.66905-.72912,1.01135-1.77969,1.97565-3.5803,2.94784-5.38089.44949-.83105.52525-1.58109-.04442-2.35463" style=" stroke-width:0px;"/><path d="M27.92153,56.43043c-.76834-.33451-1.59411-.56711-2.41995-.73696-3.18566-.65595-6.37922-1.28317-9.57797-1.89731-1.22565-.23519-2.01489.38417-2.14297,1.62551-.2064,2.03058-.40762,4.06377-.59584,6.09434-.16198,1.74833-.28743,3.49929-.45731,5.24762-.09411.95648.18032,1.68822,1.08712,2.11681,1.05322.60369,2.19784.30575,3.3033.30053,3.26669-.01306,6.5282-.11498,9.78963-.34234,1.01398-.07056,1.53405-.55141,1.86072-1.38246.22211-.56449.39725-1.17078.3998-1.76925.0079-2.06194.37899-4.09252.46002-6.15183.0339-.80493.00255-1.47655-.47565-2.11422-.40507-.33712-.76571-.78922-1.23091-.99046" style=" stroke-width:0px;"/><path d="M33.53791,40.14035c-.37109-.26394-.87027-.39201-1.16559-.71606-.54615-.59845-1.24391-.89375-1.93386-1.23089-1.21783-.8023-2.43822-1.6046-3.65605-2.40951-.74218-.49132-1.47655-.99568-2.22663-1.47655-.30051-.19077-.62192-.36326-.95648-.48869-.865-.32928-1.6229-.02092-2.0436.82844-.47828.96432-.93559,1.9391-1.4086,2.90605-.97738,1.99399-1.96002,3.98537-2.93484,5.98197-.28225.58016-.54097,1.17078-.80224,1.75878-.45212,1.01137-.26662,1.70391.62192,2.33633.14635.10454.30059.1934.45212.29269,2.17431,1.02445,4.45581,1.74835,6.76858,2.38077.1438.0392.30059.10454.44167.04442.01308.03397.03134.06011.04442.09409,1.33284.3737,2.5454,1.07669,3.8965,1.41905,1.74572.44427,2.49317.24305,3.33201-1.3694,1.12636-2.16385,2.21355-4.35124,3.16222-6.60395.39462-.93295.41551-1.8032-.20385-2.63947-.45994-.37111-.90687-.76573-1.38771-1.10807" style=" stroke-width:0px;"/><path d="M124.96169,50.33034c.00263-.02875.01308-.05226.01826-.08101.23782.1359.51744.02875.7945-.04442,2.28932-.59586,4.461-1.52097,6.68755-2.29715.70302-.24566.97482-.81536.91732-1.52881-.03661-.45996-.15679-.90422-.36064-1.33282-1.05059-2.22918-2.13515-4.44531-3.21182-6.66404-.55923-1.15511-.98264-2.38861-1.79541-3.41304-.70295-1.29623-1.52879-1.66732-2.66041-1.17078-.32667.1411-.635.33451-.93295.5305-.73955.4861-1.46866.99046-2.20566,1.48178-1.08712.73174-2.17694,1.45825-3.26669,2.18737-1.32494.82582-2.67349,1.62029-3.96709,2.49576-.81532.5488-1.0218,1.64902-.58802,2.61335.3502.7814.737,1.54711,1.10291,2.32066.58013,1.22828,1.15507,2.45656,1.73782,3.68221.46257.97217.95393,1.92082,1.92867,2.49837.53052.30577,1.0872.37372,1.68822.2326,1.43476-.33191,2.80412-.83627,4.11343-1.51053" style=" stroke-width:0px;"/><path d="M121.75848,26.33662c-.91987-.88853-1.83456-1.78753-2.76497-2.66561-1.70648-1.61767-3.42604-3.21966-5.1326-4.83472-.36064-.33973-.70821-.69515-1.04014-1.06102-.64026-.70821-2.05141-.78924-2.60809-.09931-.60628.75004-1.16815,1.53667-1.73527,2.31544-.81277,1.12374-1.59674,2.27101-2.42258,3.38692-.91469,1.23348-1.89207,2.42256-2.78841,3.67176-.99572,1.38507-.96701,2.80412.48346,3.93831,1.23346.96172,2.32848,2.10375,3.48099,3.16738.10448.0967.20122.20385.29006.31622.65597.81799,1.44521,1.47133,2.37816,1.94957,1.03225.66901,1.65687.6664,2.85118-.30577,2.99489-2.43303,5.93492-4.93401,8.90365-7.39839.76316-.63506.7579-1.35373.10456-2.38077" style=" stroke-width:0px;"/><path d="M136.2148,58.64655c-.13064-1.28315.04179-2.62641-.66115-3.81288-.57231-.95648-1.38507-1.29362-2.46446-.96434-.16979.05228-.35275.06273-.52789.09931-3.62471.77093-7.31218,1.25964-10.86893,2.35202-.8284.2535-1.42687.71345-1.6229,1.54711-.10448.44165-.05224.93034-.01045,1.39291.19077,2.21351.41815,4.42441.60373,6.63792.10192,1.22828.54615,2.20043,1.75353,2.69698.3868.35281.88335.35803,1.35373.36587,3.81029.06795,7.61532.26394,11.42553.30577,1.04277.01045,1.85817-.8389,1.79804-1.88423-.16987-2.92174-.48083-5.82779-.77879-8.73645" style=" stroke-width:0px;"/><path d="M106.21529,55.70497h0v-.00261.00261ZM86.0977,45.46846c-1.15507.63242-1.60464,1.8372-2.44348,2.99489,1.56013-.05748,2.78323-.39199,3.82329-1.21259.34501-.27178.64289-.66117.83111-1.06102.3632-.77093-.09148-1.36418-.92251-1.21261-.44431.08364-.88861.2718-1.28841.49132M116.39428,57.87145c-.47038-3.26147-1.39552-6.41579-2.66559-9.45251-.6011-1.43733-1.17078-2.91911-2.21092-4.13694-.2064-.37109-.38417-.7631-.62718-1.10544-1.24654-1.76141-2.49053-3.52541-3.77895-5.25546-.50436-.67687-1.12891-1.26748-1.70122-1.89468-.55149-.6063-1.04796-1.27531-1.66732-1.80322-2.00707-1.70913-4.05075-3.38429-6.25903-4.82948-1.30668-.85719-2.67867-1.64641-4.10035-2.2893-1.97828-.89377-3.98798-1.75355-6.05774-2.386-3.26932-.99829-6.64576-1.50006-10.06661-1.63335-2.69702-.10715-5.39922-.12543-8.07007.25872-2.78323.40245-5.57427.75788-8.20071,1.93128-1.94694.86762-4.04548,1.34849-5.88005,2.53494-1.28052.82582-2.67349,1.45564-3.94619,2.33896-2.06194,1.4295-4.04022,2.9348-5.77549,4.74322-1.11328,1.16296-2.25534,2.30499-3.27977,3.54372-1.80059,2.18476-3.35291,4.55509-4.58119,7.10833-.85192,1.76925-1.64906,3.5803-2.2815,5.43839-.865,2.5454-1.48174,5.17443-1.7143,7.86096-.18032,2.10897-.21956,4.23103-.27969,6.34523-.02345.83366.36328,1.51575,1.00354,2.05933.26398.22213.47828.50177.71347.75526,1.36155.87025,2.90086.99307,4.44273.99046,22.56626-.05748,45.12997-.00522,67.69631-.02353,1.23346-.00261,2.46964.02875,3.7031-.03395.37372-.0183.77616.01828.80232-.49654h.01045c.10974.25611.36064.40768.58276.41813,2.26579.11498,4.44273-1.39813,4.59427-3.49666.18295-2.50359-.04961-5.01241-.40507-7.48987M70.35225,41.06235c-.53833.37893-1.03751.82058-1.74835.95648-1.0872.20646-2.28669-.52791-2.7806-1.53665-.42596-.87025-.01571-2.09069.92769-2.7205.43386-.28747.96438-.43643,1.45047-.64811.51218-.28225,1.0218-.28225,1.53405,0,.86764.22213,1.50263.71343,1.65679,1.62812.16206.97738-.25872,1.76923-1.04006,2.32066M58.0433,52.90868c-.93295,1.26487-2.18476,2.13773-3.27188,3.19613-.622.60369-1.52879.91989-2.32066,1.33804-2.28932,1.20214-4.72498,1.81106-7.31218,1.65685-1.10546-.06532-2.21874-.20383-3.30067-.43643-.91206-.19338-1.65687-.79444-2.33892-1.41119-.23782-.21169-.39462-.60369-.43386-.93297-.10448-.90422.52533-1.42427,1.4165-1.17863.48083.13068.97474.30316,1.38763.56972,1.11072.71868,2.37553.77879,3.60381.79446,2.65259.03136,4.94191-1.12374,6.9359-2.72311,1.4661-1.176,2.66296-2.69436,3.62471-4.33032.70558-1.19953,1.41379-2.4252,1.70911-3.80766.13072-.62198.17251-1.28578.115-1.91559-.03661-.39984-.24046-.87547-.53052-1.1368-.62463-.56711-1.36936-.96956-2.21092-1.19692-.91461-.24827-1.52879.12021-1.99654.82842-.29533.4469-.56976.92253-.76053,1.41907-1.03488,2.66561-2.0436,5.3443-3.06021,8.01514-.12545.33452-.24309.67425-.39462.99831-.62463,1.34065-1.69611,1.9783-3.16214,1.94696-1.09764-.02092-1.51053-.55927-1.18912-1.60984.24827-.82319.54878-1.63335.88072-2.4252,1.18386-2.84071,2.39124-5.67097,3.59336-8.50385.24046-.57233.14108-.73435-.51226-.82582-.4207-.06271-.85456-.10715-1.25699-.2378-.41033-.13329-.84937-.36326-.8154-.87808.02879-.49393.13327-1.02967.62463-1.29623.33975-.18293.73174-.28486,1.10809-.37895.24038-.05748.51744-.09146.75-.03397,1.39815.33975,2.2945-.41813,3.09945-1.37985.76308-.90945,1.77443-1.00352,2.83028-.81797.64544.11237.90153.55664.77089,1.19169-.0784.37893-.22474.73957-.3423,1.11066.97211.11762,1.92341.12284,2.80668.37111,1.23873.35279,2.3599,1.0009,3.19093,2.02533.49128.60369.60628,1.36418.67423,2.11944.12808,1.38769-.19077,2.71004-.63244,4.00365-.24301.70823-.49654,1.42689-.85974,2.07761-.72918,1.30929-1.52097,2.57677-2.42003,3.7946M60.84487,53.68745c.04442-.20644.10456-.41551.18814-.6089,1.01661-2.35986,2.04368-4.71711,3.06284-7.07696.41551-.95911,1.14725-1.5262,2.14815-1.76663.45475-.2718.91469-.24827,1.37726-.02353.60373.42337.71084.63506.52007,1.1943-.16206.47302-.3502.93559-.55141,1.3903-.96693,2.18739-1.93912,4.36954-2.91386,6.54908-.44694.99829-1.82938,1.78492-2.88252,1.65949-.81803-.09931-1.11591-.50699-.94866-1.31714M91.4603,59.30878c-.21167.19077-.46257.33712-.69258.50699-1.66987,1.22044-3.56984,1.87901-5.56383,2.34419-2.39379.55664-4.81375.74218-7.26512.6455-2.04105-.08103-3.98272-.55405-5.87742-1.30407-.47038-.18555-1.11328-.30055-1.54969-.12545-1.28578.51222-2.64733.62198-3.96972.73174-1.17078.09931-2.40169-.17247-3.53586-.63765-.19859-.08101-.39199-.17249-.59065-.26133-1.24654-1.3459-.95122-2.8172.72655-3.59075.92777-.42859,1.91559-.59063,2.92431-.62198.71866-.02092,1.43739-.00263,2.15605-.00524.84148-.00522.84148-.00784,1.01135-.75788.20122-.87025.37636-1.75094.61155-2.61335.28225-1.03227.56449-2.07239.93814-3.0759.77624-2.07763,1.67259-4.09513,2.73625-6.05253,1.06359-1.9574,2.25789-3.82594,3.73445-5.46976,1.21257-1.34849,2.52714-2.64733,4.20491-3.44963,1.50008-.71604,2.92431-1.66993,4.65177-1.77969,1.10801-.07056,2.22392-.12543,3.32938-.06795.67423.03659,1.33547.27963,1.60464,1.05579.36583,1.04535-.21167,2.10375-1.359,2.33113-.66379.13066-1.3511.19861-2.02797.21691-1.46866.04181-2.89552.34495-4.07419,1.18645-1.23873.88594-2.38335,1.92865-3.29285,3.18046-.12537.1751-.24038.35803-.37628.52266-1.59156,1.94173-2.48009,4.25978-3.39478,6.54385-.79705,1.98875-1.43731,4.04024-2.13507,6.07082-.25609.74218-.45994,1.50528-.7161,2.24749-.14108.40768.03142.59061.37899.73435,3.09945,1.28315,6.34517,1.68824,9.65892,1.51314,1.2022-.06534,2.41214-.37109,3.57247-.71606.80232-.23782,1.51053-.77093,2.28932-1.10022.55405-.23521,1.16033-.35542,1.74309-.52529,1.06622.77618,1.11328,1.43996.14898,2.32327M92.1607,47.33439c-.83892,1.01137-1.64379,2.08286-2.96355,2.54804-.54097.19077-1.05577.47038-1.60719.60628-1.3381.33451-2.61335.899-3.99588,1.06363-.16461.0183-.32141.07581-.53052.12545.15679.4704.39988.73957.83111.82321,1.07141.57231,2.21084.41029,3.34246.30053.39199-.0392.78134-.08623,1.17078-.12545.59057-.06009,1.02706.21691,1.39552.64289-.03134,1.33543-.29006,1.70913-1.55758,2.04627-.61673.16463-1.25962.22736-1.88943.33712-.43904.4129-1.08712.01567-1.53669.39201-1.6359-.09931-3.17258-.49916-4.50797-1.5053-1.35373-1.53403-1.79277-3.27453-1.23873-5.2633.50173-1.78753,1.37718-3.31895,2.63162-4.71188,1.11064-1.2335,2.47219-1.9783,3.88079-2.76231,1.24925-.69515,2.53759-.81013,3.80766-.55925,1.54195.30314,2.80676,1.176,3.42094,2.74401.00263.39723.01826.79185.00263,1.18647-.02616.7631-.16987,1.5262-.65597,2.11159M98.6235,55.72325c-2.02015.8598-3.47836.05489-4.94973-1.10544-.88853-1.47133-1.0009-3.04717-.54878-4.66746.56713-2.03841,1.62027-3.7763,3.08637-5.32861,1.13943-1.20738,2.44874-2.05933,3.95401-2.68392.44949-.18557.8729-.42859,1.30931-.64289.42859-.02092.86237-.0183,1.28841-.06795,1.34584-.15679,2.28924.60892,3.17258,1.42689.75526.703.84929,1.70391.90943,2.67608.09411,1.43735-.3423,2.778-.96166,4.02457-.68213,1.37202-1.61508,2.57416-2.71791,3.68482-1.30931,1.31714-2.88779,1.98093-4.54203,2.68392M105.68741,56.56999c-.89116.02351-1.44258-.53574-1.46347-1.47916-.01834-.72912.57494-1.29884,1.37981-1.3302.77616-.02873,1.44784.54097,1.47392,1.2492.03142.91728-.51999,1.53665-1.39026,1.56017M105.15689,54.22581c-.43123.1359-.60628.62198-.47038,1.14988.13845.53835.60102.95648,1.0218.87547.27961-.05228.55141-.1751.4861-.55925-.10974-.06795-.24046-.12284-.31359-.21954-.29269-.39721-.45475-.03134-.66123.09931-.03397-.05226-.08885-.10192-.0914-.15679-.06013-1.01137-.04969-1.07671,1.03225-.9774.01826.41029.03661.82321.05487,1.23612.58802-.50177.58802-.69254.00782-1.29362-.30577-.3737-.70558-.26656-1.06622-.15418M100.76384,45.65401c-.29269.12282-.6141.27178-.81795.50177-.58539.6664-1.20738,1.33018-1.64906,2.09067s-.77879,1.60723-.73174,2.54018c.04442.88594.48083,1.24136,1.3302,1.01398.30314-.08101.63244-.21952.84929-.43382.55668-.55141,1.10291-1.12374,1.57066-1.75094.63244-.84411.9513-1.82934,1.02969-2.56632-.00263-1.43733-.55405-1.8215-1.58111-1.39552" style=" stroke-width:0px;"/></g></svg>