<?xml version="1.0" encoding="UTF-8"?><svg id="b" xmlns="http://www.w3.org/2000/svg" viewBox="0 0 168.911 41.40079"><g id="c"><path d="M14.98755,19.62368c4.37223-8.92459,10.63111-12.96485,13.2132-13.19745,2.16897-.19859-5.9271,11.17734-13.2132,13.19745M17.70283,35.8683c-4.62042,0-4.80338-10.39855-3.77632-13.06418,5.23197,2.99753,6.80518,13.08248,3.77632,13.06418M36.66273,20.1542l-19.7544.115c6.1938-.42859,18.99387-15.58347,10.82985-15.61481-3.76068,0-8.95868,5.03331-11.9901,9.95165-1.17604,1.87117-2.15334,3.67698-2.89823,5.54815h-7.20236l.03126.33189c3.19619,0,5.28429.29792,6.65892,1.35632-.71347,2.11944-1.16041,5.53248-.97746,8.26343.31359,4.78504,3.39478,7.65189,6.17801,7.65189,2.76489,0,4.02196-2.237,3.99053-5.18488-.03397-2.66563-2.18731-8.42808-6.5412-11.11198l19.37286.71343,2.30232-2.02011ZM2.03578,20.70039C2.03578,10.38288,10.59713,2.00444,21.11324,2.00444s19.07761,8.37844,19.07761,18.69596-8.56135,18.69596-19.07761,18.69596S2.03578,31.01791,2.03578,20.70039M0,20.70039c0,11.4099,9.47341,20.70039,21.11324,20.70039,11.64254,0,21.1134-9.2905,21.1134-20.70039S32.75577,0,21.11324,0C9.47341,0,0,9.2905,0,20.70039" style=" fill-rule:evenodd; stroke-width:0px;"/><path d="M48.18978,15.35218v5.39654h-3.14658v3.2458h3.14658v17.28995h4.02451v-17.28995h5.31555v-3.2458h-5.23452v-5.39654c0-1.22569.13319-2.60031,1.07667-3.32942.51489-.41292,1.55758-.39725,2.73362.03397l.49654.19859v-3.29544l-.26669-.08362c-1.29089-.36324-2.51653-.59584-3.26143-.59584-3.55939,0-4.88425,1.92082-4.88425,7.07176M164.35597,15.56644c0,1.25966,1.01127,2.28669,2.26834,2.28669,1.25962,0,2.28669-1.02702,2.28669-2.28669,0-1.25699-1.02706-2.28405-2.28669-2.28405-1.25707,0-2.26834,1.02706-2.26834,2.28405M164.66956,41.28447h4.00632v-20.53311h-4.00632v20.53311ZM146.04159,26.33085c-.11772,4.02459,3.84155,5.20059,6.83916,5.72848l.22985.03397c2.45146.43123,4.98633.87808,4.98633,3.16218,0,1.39289-1.45821,2.86685-4.13951,2.86685-2.35208,0-3.84171-1.01139-5.15094-3.46273l-.16461-.31359-2.94784,1.47392.115.31363c1.29089,3.44438,4.12372,5.26591,8.198,5.26591,5.23197,0,8.24521-2.25271,8.24521-6.17537,0-4.22317-3.26159-5.23452-7.18672-6.0447-2.83028-.58016-4.68582-1.09238-4.68582-2.96351,0-1.35896,1.22565-2.05412,3.65876-2.05412,2.28669,0,3.74234,1.24136,4.93657,2.25271l.27961.24827,2.46964-2.40165-.2509-.26658c-2.18476-2.26838-4.71709-3.41041-7.54992-3.41041-4.48708,0-7.86622,2.46701-7.88185,5.74674M110.68554,23.5816c-.66131-1.02702-2.38351-2.99749-5.71288-2.99749-2.61591,0-4.17349,1.20998-4.91838,1.98873l-.38154-1.82412h-3.90695v20.53574h4.0403v-11.6425c0-3.07852,1.67259-5.16657,4.25452-5.31555.89643-.04965,1.59156.18295,2.13771.69517.8599.82844,1.32502,2.41732,1.32502,4.63869v11.6242h4.0403l-.03397-11.8568c0-4.80334,3.62734-4.85299,3.66131-4.85299,3.42604,0,3.70821,2.50098,3.724,5.06728l.03397,11.6425h4.00888v-11.70782c0-4.1892-.76308-8.99254-6.67455-8.99254-3.26143,0-4.93401,1.95475-5.59772,2.99749M68.12698,20.58411c-1.359,0-2.81449.89375-3.2954,1.34065-.29796.26654-.56194.56445-.77887.8284-.04961-.62981-.11484-1.37459-.18024-1.70389l-.06795-.30055h-3.82592v20.53574h4.00888v-10.68075c0-2.28669.49654-3.79199,1.60719-4.887.66115-.66115,1.52105-1.02443,2.41732-1.00876.7449,0,2.16913.39725,2.87989,1.09238l.62989.64552v-4.94969l-.18295-.1176c-.87808-.49654-2.10118-.81017-3.21182-.79446M82.06928,37.80611c-3.32683,0-6.02647-2.99753-6.02647-6.69018,0-3.62734,2.66567-6.55691,5.96108-6.55691,3.49415,0,5.76249,2.55063,5.76249,6.52553,0,3.17785-2.33374,6.72156-5.69709,6.72156M88.39611,20.74872l-.21422,2.84859c-1.01143-1.10809-3.27977-3.0132-7.1057-3.0132-4.18928,0-9.04226,4.52109-9.04226,10.34886,0,5.99505,4.80338,10.4665,9.11021,10.4665,3.92258,0,6.12569-2.18476,7.15275-3.60903v3.49403h4.00632v-20.53574h-3.90711ZM128.75157,28.94684c.18295-2.11944,1.98873-4.80334,5.73107-4.80334,2.99761,0,5.25032,2.4696,5.48032,4.81901l-11.21139-.01567ZM143.83849,31.79539c0-2.60027-.44694-6.12832-2.5009-8.29741-1.85554-1.92082-4.23889-2.94784-6.87313-2.91386-2.6971.01567-5.16673,1.01135-6.92019,2.81457-1.60719,1.6229-2.69965,4.67007-2.68402,7.40361.04977,5.13264,3.44454,10.59717,9.63818,10.59717,4.57066,0,7.5185-1.77188,9.00813-5.43056l.13335-.33189-3.06284-1.37463-.16732.31622c-1.12628,2.34941-3.09682,3.54372-5.82773,3.54372-4.35644,0-5.68146-4.47145-5.89568-5.94541l15.15216-.01826v-.36328Z" style=" fill-rule:evenodd; stroke-width:0px;"/></g></svg>