<svg xmlns="http://www.w3.org/2000/svg" viewBox="0 0 133.1 84.88"><path d="M63,79.09c-.16.68-.3,1.38-.5,2A4,4,0,0,1,60,84c-1.83.61-2.59-.07-2.55-1.68,0-1.4,0-2.79,0-4.18,0-.77.25-.91,1-.63A2.86,2.86,0,0,1,60,79.47c.1.27.16.55.24.83l.14,0v-6a2.15,2.15,0,0,0-.38.87,2.14,2.14,0,0,1-1.67,1.73c-.58.12-.83,0-.83-.63,0-1.45,0-2.89,0-4.34,0-.51.22-.65.72-.63A3.49,3.49,0,0,1,61.83,74c.17.53.32,1,.48,1.58l.2,0a4.81,4.81,0,0,0,.07-.64c0-1,0-1.91,0-2.86,0-.72-.3-1-1-1-2-.18-3.95-.39-5.92-.6-.69-.08-1.37-.22-2.06-.3a1.28,1.28,0,0,0-.49.13c0,.11,0,.28.11.33,1,.71,1,1.76,1,2.8,0,2.29,0,4.59,0,6.89a7.69,7.69,0,0,1-.29,2,1.23,1.23,0,0,1-1.69.88,2.25,2.25,0,0,1-1.62-2.37c-.05-3,0-5.93,0-8.9a1.64,1.64,0,0,1,.82-1.49,3.1,3.1,0,0,0,.46-.35,3.2,3.2,0,0,0-.61-.37c-1-.28-1.94-.52-2.9-.8s-.88-.27-1.11.58c-.6,2.19-1.18,4.38-1.77,6.57-.1.35-.23.7-.34,1H45c-.07-.31-.16-.62-.23-.93-.62-2.87-1.26-5.74-1.86-8.61A1.38,1.38,0,0,0,42,66.39c-1.17-.48-2.32-1-3.47-1.52a6.54,6.54,0,0,0-.75-.24c0,.29.06.48.19.55a2.67,2.67,0,0,1,1.19,2.6c0,2.11,0,4.23,0,6.35,0,1,0,2,0,3a1.24,1.24,0,0,1-1.68,1.25,2.34,2.34,0,0,1-2-2.09c-.57-3.64-.22-7.31-.28-11,0-.54.35-.83.89-.89l.58-.06a1.4,1.4,0,0,0-.68-.61c-1-.46-2.1-.87-3.12-1.37-.6-.3-.85-.21-1,.45-.39,1.58-.83,3.14-1.26,4.7-.25.9-.52,1.8-.78,2.7a1.57,1.57,0,0,1-.39-.74c-.7-3-1.39-5.92-2.12-8.87a1.59,1.59,0,0,0-.71-1c-1.45-.67-2.94-1.24-4.42-1.84a3.06,3.06,0,0,0-.6-.13l-.07.2a7.82,7.82,0,0,0,.68.43,2.88,2.88,0,0,1,1.64,2.75c0,2.25,0,4.49.06,6.73,0,1,0,2,0,3a1,1,0,0,1-1.59.88,2.33,2.33,0,0,1-.89-.9,4.74,4.74,0,0,1-.46-1.39c-.72-3.58-1.42-7.17-2.14-10.76-.54-2.63.05-2-2.63-2.77-.79-.23-1-.06-.84.77a2.71,2.71,0,0,1,0,1.06c-1,3.23-2,6.46-3,9.67a2.53,2.53,0,0,1-1.07,1.11c-.34.22-.73.07-.7-.46.1-1.64.19-3.29.33-4.93a.89.89,0,0,1,1-.83l.86,0v-.34l-7.26-.8-.06.27c.25.08.5.18.75.25a1.24,1.24,0,0,1,1,1.12,33.62,33.62,0,0,1-.11,4.6,1.55,1.55,0,0,1-1.8,1.43,1.72,1.72,0,0,1-1.39-1.87V60.46c0-1.55,0-3.1,0-4.65a1.5,1.5,0,0,1,2.19-1.53,3.14,3.14,0,0,1,1.46,1.08c.75,1.17,1.33,2.43,2,3.66.11.21.17.44.26.66l.21,0V54.57c-1.3.87-1.31.87-2.68,0l-.12-.09a3,3,0,0,0-2.94-.35A5.82,5.82,0,0,0,.41,58.24a12.32,12.32,0,0,0,0,6.35,6.14,6.14,0,0,0,3.41,4.09,3.1,3.1,0,0,0,3.3-.18,10.73,10.73,0,0,1,1.13-.66c.77-.37,1.08-.25,1.54.47.14.23.34.54.55.58,1.14.19,2.29.32,3.44.46,0,0,.1-.08.23-.19-1-.56-1-1.47-.83-2.42a12.63,12.63,0,0,1,.48-1.7c.06-.17.34-.38.48-.35a21.31,21.31,0,0,1,2.32.59.67.67,0,0,1,.36.44,17.35,17.35,0,0,1,.44,2.35c.07.79-.34,1.18-1.14,1.26-.28,0-.57,0-1,.07l11.27,4.32s0-.1,0-.13a1.62,1.62,0,0,0-.31-.33,4.31,4.31,0,0,1-1.59-3.32c-.13-2.21-.13-4.43-.17-6.65a3.55,3.55,0,0,1,.06-.56,1,1,0,0,1,.34.54q.78,3,1.54,6c.39,1.53.8,3,1.15,4.58.17.74.77.87,1.34.94.14,0,.44-.53.53-.86.83-2.89,1.62-5.8,2.43-8.71.07-.23.16-.45.24-.67a.82.82,0,0,1,.2.55q0,4.25,0,8.49a2.48,2.48,0,0,1,0,.47c-.18,1-.64,1.3-1.64,1.07-.19-.05-.38-.08-.57-.12l-.09.27A85.91,85.91,0,0,0,42,80.57a1,1,0,0,0-.45-.54,3,3,0,0,1-1.71-2.68c-.13-3-.12-5.93-.16-8.89,0,0,0-.08.15-.23.1.3.19.53.25.76.41,1.6.81,3.19,1.21,4.79.56,2.25,1.14,4.49,1.67,6.75.17.7.73.77,1.23.85s.5-.49.59-.82c.77-2.86,1.53-5.73,2.29-8.59a4.41,4.41,0,0,1,.23-.56l.22.06c-.05,1.12-.14,2.25-.14,3.37,0,1.57.1,3.14.08,4.71a2.79,2.79,0,0,1-.4,1.52c-.18.26-.77.24-1.17.36a1.39,1.39,0,0,0-.31.18c.08.11.13.26.24.32a1.7,1.7,0,0,0,.51.17c2.93.7,5.84,1.52,8.8,2.06,2.27.42,4.6.49,6.91.7.47,0,.79-.1.84-.65.13-1.52.3-3,.44-4.54a2.87,2.87,0,0,0-.07-.58ZM16,64.69a8.1,8.1,0,0,0-1.2-.3c-.64-.09-.8-.39-.61-1,.38-1.27.73-2.56,1.1-3.85a6.07,6.07,0,0,1,.24-.59h.16c.17.88.35,1.77.52,2.66s.26,1.67.43,2.5C16.73,64.73,16.5,64.86,16,64.69ZM83.7,61.3c1.33-.79,2-2.13,2.72-3.39a5.64,5.64,0,0,1,1.87-2.06,16,16,0,0,0,3.41-2.29,23.92,23.92,0,0,0,6-8.64c1.21-3.15,1.13-6.07-1.71-8.42a1.42,1.42,0,0,1-.47-1.61A8.34,8.34,0,0,0,95,29.16l-.14-.36A4.48,4.48,0,0,1,95,24.92,24,24,0,0,0,96.69,21a8.62,8.62,0,0,0-.94-7.63,33.47,33.47,0,0,0-3.52-4.2A7.53,7.53,0,0,0,87,6.6,6.8,6.8,0,0,1,83.11,5c-1.12-.89-2.2-1.84-3.36-2.67A16,16,0,0,0,74.64,0a2.42,2.42,0,0,0-.76,0c-1.81.06-3.61.14-5.42.18-2,0-4,0-5.95,0A8,8,0,0,0,61,.57L61,1a9.7,9.7,0,0,0,2.64.28c1.83-.3,3.6.17,5.4.08a2.72,2.72,0,0,1,.69.09c.4.09.53.27.25.65a1.37,1.37,0,0,1-1.22.66,10.39,10.39,0,0,0-2.37.14c-.94.2-1.82.62-2.75.87-1.51.4-3.05.71-4.56,1.12a7.65,7.65,0,0,0-3.5,1.7c-1.22,1.17-2.74,2-3.65,3.52s-1.74,2.69-2.44,4.12a38.76,38.76,0,0,1-7,9.41,14.55,14.55,0,0,0-3.76,5.58c-.26.86-.53,1.72-.72,2.59a8.93,8.93,0,0,0,1.82,8.06,4.67,4.67,0,0,1,.48.6c.27.43.17.72-.35.84a1.69,1.69,0,0,1-2-.81c-.08-.13-.16-.3-.28-.36a1.48,1.48,0,0,1-1-1.52c0-1.17-.39-2.32-.51-3.48a10.3,10.3,0,0,1,1.46-6.45,2.22,2.22,0,0,0,.29-1.57,1,1,0,0,1,.13-1c.36-.46.71-.93,1.07-1.4a11,11,0,0,0-3.2,4.26l.92-.35-1,2.5-.23,0-.1-1.35a7,7,0,0,0-.51.8,4.88,4.88,0,0,0,.11,4.28c.05.08.1.22.07.28-.51.7-.15,1.46,0,2.08a27,27,0,0,0,1.63,4.25A5.33,5.33,0,0,0,38.41,43c.75.61.84.53,1-.42,0-.06.09-.11.22-.28.47.76.92,1.47,1.33,2.19a.75.75,0,0,1-.27,1.17c-.56.36-.52.85,0,1.23a2.38,2.38,0,0,0,.55.28c1.37.56,2.08,1.79,2.87,2.91a1.35,1.35,0,0,1,.15,1,12.44,12.44,0,0,1-1,2.17.84.84,0,0,1-.78.25c-.43-.19-.53,0-.67.32a6.65,6.65,0,0,0-.07,4.25,1.78,1.78,0,0,0,1,1c1.87.68,3.76,1.33,5.68,1.87,1.38.4,2.82.61,4.23.91.81.18,1.63.37,2.44.59,1.54.42,2.43,1.68,3.43,2.76a3.4,3.4,0,0,0,4,1c.51-.19,1-.43,1.49-.64a5.29,5.29,0,0,1,3.85-.25A10.43,10.43,0,0,0,75,65.16c2.36-.89,4.67-1.94,7-2.94A15.47,15.47,0,0,0,83.7,61.3ZM80.12,29.66a2.6,2.6,0,0,1,3-.29c.22.12.32.47.37.81-.78-.54-1.59-1-2.41-.47a10.81,10.81,0,0,0-1.62,1.8A1.74,1.74,0,0,1,80.12,29.66Zm-1.4,6.28c.21,1.22.21,1.22,1.22.58v1.26c-.87-.59-1-.5-1.3.72-.46-.27-.66,0-.72.4-.08.59-.41.55-1,.36.91-.5.85-1.31.79-2s.28-1.55-.71-2a3.12,3.12,0,0,1,.61-.11c.79,0,1.59,0,2.39,0s.81.13.75.82c-.69-.13-1.39-.29-2.1-.36-.2,0-.43.2-.64.32Zm-1,10.79a2.16,2.16,0,0,1,1.18.59c-.88.07-1.24.62-1.69,1.18-.25.32-.85.36-1.45.58,0-.4-.11-1,0-1.06a4.37,4.37,0,0,1,1.39-.14C77.35,47.6,76.88,46.75,77.77,46.73ZM76.09,29.5c.52.7,1,1.4,1.59,2.09a3.06,3.06,0,0,0,.45.41c.08-.78.18-1.47.22-2.17,0-.09-.21-.23-.35-.28a4.11,4.11,0,0,0-.61-.12v-.24l1.92-.11c-1,1.22-.54,2.5-.74,3.67a6.48,6.48,0,0,0-.06.77l-.23,0,.06-1c-.5.48-.8.3-1.08-.12s-.75-1-1.15-1.55a1.39,1.39,0,0,0-.43-.25,2.18,2.18,0,0,0-.14.48c0,.25.07.52,0,.77-.07.59-.06,1.12.68,1.37l-.1.15h-1.7c.79-.58.59-1.36.58-2.08s-.19-1.35.87-1.51l-.18-.19-1.42-.18A1.26,1.26,0,0,1,76.09,29.5ZM74.91,36c.13-.49.31-.88.87-.92a1,1,0,0,1,.56.15c.06,0,0,.34-.09.47-.36.54-.74,1.06-1.14,1.64.77.12.89.91,1.16,1.62s-.1.65-.44.5a4.43,4.43,0,0,1-1-.78l.14-.13h.71c-.19-.27-.31-.67-.56-.77a3,3,0,0,0-1.12,0l.16,1.57H72.1c1.39-.84.45-2.07.91-3.11l.24,1.35h.18l.17-.69C74.3,37.16,74.65,37,74.91,36Zm-1.2-6.67a3.77,3.77,0,0,0,0,4.06h-2.2l-.2-.12c1-.41,1-1.17.84-1.93s.25-1.56-.69-2A2.38,2.38,0,0,1,73.71,29.34ZM69.15,50.6a7.89,7.89,0,0,1-1.05.84c-.38-.36-1,.09-1.12-.61,0-.14-.58.33-.57-.21a.92.92,0,0,1,.34-.69.8.8,0,0,1,.74.13c.4.4.66.49,1-.05.08-.13.48-.06.73-.08C69.21,50.16,69.27,50.47,69.15,50.6Zm-.53-12c-.05-.07.07-.26.11-.39.12.09.31.16.34.28a.75.75,0,0,0,1,.56c.63-.13.76-.58.3-1a11.32,11.32,0,0,0-1-.81c-.44-.33-.89-.67-.69-1.32A1.23,1.23,0,0,1,70,35c1,0,1.34.2,1.31,1.07l-.23.2c-.12-.19-.2-.52-.35-.56a3.47,3.47,0,0,0-1,0c.08.26.09.6.26.76s.76.4,1,.7a2.52,2.52,0,0,1,.65,1.29c0,.54-.48.83-1,.9a3.11,3.11,0,0,1-1.36,0C69,39.32,68.82,38.91,68.62,38.61Zm.21-15.51c0-.55,0-1.1,0-1.65h.21l.35,1.2.82-1c0,.74,0,1.38,0,2s-.2,1.63,1.09,1.75l-.17.21H68l-.19-.15C69.17,25,68.81,24,68.83,23.1Zm-.75,7,.23,1.29h.21l.13-1h.11a9,9,0,0,0,0,1.27c.07.42.11,1,.39,1.21.45.33.9,0,1.26-.43a3.84,3.84,0,0,1,.64-.45c-.09,1.18-.36,1.46-1.34,1.42-.81,0-1.61-.12-2.65-.19C68.42,32.44,67.62,31.21,68.08,30.11Zm-3.4-4.93c.89-.4,1-.56.82-1.53-.12-.73-.19-1.47-.24-2.21,0-.52.27-.72.78-.7s.59.3.59.71c0,.9,0,1.8,0,2.7,0,.48-.12.85-.72.89-.23,0-.44.26-.67.35a7.84,7.84,0,0,1-.79.23l-.07-.19A2.6,2.6,0,0,1,64.68,25.18ZM63.29,33c.67-.35.66-1,.7-1.6,0-.45,0-.92.65-1.2,0,.74.07,1.4.14,2.05,0,.26.12.69.26.72a2.21,2.21,0,0,0,.93-.15c.07,0,.12-.1.18-.14l.76-.4c0,.09.12.21.09.26-.19.31-.34.71-.63.87a2.3,2.3,0,0,1-1.06.09c-.61,0-1.23,0-1.85,0a.4.4,0,0,1-.3-.18C63.12,33.23,63.21,33,63.29,33Zm-.45,5.5c.17.21.46.48.67.45a.83.83,0,0,0,.59-.57,11.88,11.88,0,0,0,0-2.31c0-.28-.34-.53-.58-.89H65.2l-.71.53c.61.79.89.93,1.19.46.27.76,1.25,1.06,1,2.06,0,.1.25.27.38.4.11-.13.3-.26.3-.38A13.67,13.67,0,0,0,67.18,36c-.05-.29-.43-.51-.76-.87h2c-1.11,1-.55,2.18-.73,3.24a6.18,6.18,0,0,1-.27.83,3.56,3.56,0,0,1-.75-.48c-.51-.58-1-1.22-1.45-1.81a1.89,1.89,0,0,0-.55-.34c-.07.23-.24.5-.18.69.2.64-.27,1.52.61,2H61.55l.07-1.25a4.12,4.12,0,0,0-1.16,0c-.16,0-.24.45-.31.71a3.15,3.15,0,0,0,.49.22c-.29.47-.57.53-1.34.32.43-1.21.87-2.41,1.29-3.63.23-.66.45-.74,1.23-.31-.24,0-.42,0-.53.12s-.08.37-.06.38c1,.29,1.07,1.14,1.29,1.93A1.94,1.94,0,0,0,62.84,38.49Zm-.18,3.26a1.51,1.51,0,0,0-.62-.13,3.09,3.09,0,0,0-.6.08l-.08-.27c.46-.17.92-.34,1.38-.46a1.56,1.56,0,0,1,.27.65c.07.74.1,1.48.15,2.34l-1.49.25L61.52,44c.56-.33.2-1.17,1-1.43C62.65,42.54,62.67,42,62.66,41.75Zm-.58-12.64s.16.31.12.35c-.72.72-.42,1.66-.56,2.5a10.21,10.21,0,0,0-.1,1l.75.19v.14H60c.95-.51.68-1.34.63-2.07s.4-1.55-.86-2A4.7,4.7,0,0,1,62.08,29.11Zm-5.44,1.24.56.65c.23-.29.57-.56.65-.88.13-.58.27-1.07,1-1.07.4,0,.58.15.47.63-.22,1.09-1,1.43-1.94,1.72C56.87,31.56,56.61,31.16,56.64,30.35ZM52,32.63a4.16,4.16,0,0,0,1.41.26c.6-.13.63-.52.13-.92-.26-.21-.57-.35-.82-.57a1.39,1.39,0,0,1-.44-.79,10.53,10.53,0,0,1,1.68.51,1.39,1.39,0,0,1,.84,1.44c-.08.67-.66.81-1.2.87a2.85,2.85,0,0,1-1.13-.08C52.11,33.23,51.89,32.91,52,32.63ZM49.68,18.92a7.33,7.33,0,0,1-2,2.4,4,4,0,0,1-.57.32L47,21.43c.25-.32.51-.63.74-.95.39-.53.77-1.07,1.15-1.61.11-.15.18-.36.32-.42a2.28,2.28,0,0,1,.65-.07A2.37,2.37,0,0,1,49.68,18.92Zm5.25,35.91a.48.48,0,0,1-.4.21c-1.46-.18-3.62-2.43-3.78-3.91a1.47,1.47,0,0,1,.08-.4c.14.06.26.07.31.14a8.62,8.62,0,0,0,3.25,2.41C55.1,53.57,55.23,54.13,54.93,54.83Zm1.69-15.48c-.78,0-1.55-.1-2.31-.15.83-1,.76-3.21-.21-3.94,1.39-.54,3.8-.23,4.44.52-.63-.09-1.28-.2-1.93-.28-.49-.06-.78,0-.73.67s-.06,1.33-.06,2,.21.94,1,.77a9.48,9.48,0,0,0,1.29-.5c.19.49,0,.77-.45.85A4.76,4.76,0,0,1,56.62,39.35Zm4,17.74c-.06.17-.45.23-.7.34A2.66,2.66,0,0,1,57.38,56c-.09-.19-.21-.5-.13-.62a.91.91,0,0,1,.65-.28,3.13,3.13,0,0,1,2.47,1.2A1.05,1.05,0,0,1,60.58,57.09Zm14.16,5.5c-1,.27-2.06.44-3.09.63-.76.14-1.52.26-2.16.36a8.45,8.45,0,0,1-1.28-.13,2.44,2.44,0,0,1-.62-.36,4.18,4.18,0,0,1,.54-.57,1.39,1.39,0,0,1,.66-.21c1.12-.09,2.25-.15,3.38-.23.81-.06,1.62-.16,2.44-.21a7.23,7.23,0,0,1,.93,0C75.28,62.14,75.05,62.51,74.74,62.59Zm-5-8.82A11.65,11.65,0,0,1,63,53.08c-2-.94-4.33-1.32-6-3l.12-.21c.53.23,1.07.45,1.59.71a18.45,18.45,0,0,0,6.66,1.89,20.81,20.81,0,0,0,10-1.32,26.68,26.68,0,0,0,4.63-2.89,16.09,16.09,0,0,0,4.74-5.34,22.14,22.14,0,0,0,1.31-2.79,17.55,17.55,0,0,0,1-3,9.91,9.91,0,0,0,.17-3,72.85,72.85,0,0,1-.45-9.11,44.64,44.64,0,0,0-.79-7.43c-.09-.6-.7-1.11-1-1.72a11.28,11.28,0,0,0-2.92-3.52c-.58-.54-1.25-1.06-.7-2a1.46,1.46,0,0,0,0-.69c0-.44,0-.84.56-.91a.88.88,0,0,1,1,.69c0,.06.08.12.13.16l1.08.89c.63-.48,1-.4,1.44.58s.78,1.9,1.18,2.84c.22.52.46,1,.72,1.6a1.31,1.31,0,0,0-.45.26.53.53,0,0,0-.14.46c.24.76.53,1.5.79,2.25a5.57,5.57,0,0,0,.35,1c1,1.68.74,3.5.64,5.29s-.46,3.3-.55,5a15.89,15.89,0,0,0,.29,3.14c.16,1.1.45,2.17.59,3.27.39,3.15.6,6.29-1.2,9.16a1.07,1.07,0,0,1-.16.25,4.9,4.9,0,0,1-.48.31,1.3,1.3,0,0,1-.15-.56c.11-.71.3-1.41.42-2.12.16-1,.3-1.94.4-2.91a2.61,2.61,0,0,0-.19-.84l-.29,0c-.4,1.65-.71,3.32-1.22,4.94a13.07,13.07,0,0,1-1.34,2.49,9,9,0,0,0-.7,1c-.39,1-1.39,1.28-2,1.95,0,0,0,0-.06,0-.83-.48-1.1.52-1.7.66l-.17-.14,1.65-2-.13-.18A19.25,19.25,0,0,1,76.25,52,22.46,22.46,0,0,1,69.71,53.77ZM86.28,49.1c-.07.18-.08.41-.21.53-.6.63-1.21,1.25-1.86,1.82a.69.69,0,0,1-.66.07.83.83,0,0,1-.19-.68,7.41,7.41,0,0,1,2.75-2.92l-.37,1.14Zm-9,5.84a2.43,2.43,0,0,1,.26-.29c1.39-1.18,2.77-2.37,4.17-3.53a5.05,5.05,0,0,1,1-.49,4.09,4.09,0,0,1,0,1.3,1.94,1.94,0,0,1-.71.88c-.83.67-1.69,1.3-2.53,1.94l-.18-.19L81,52.85l-.16-.2-3.51,2.47Zm1,6.19a2.61,2.61,0,0,1-.79,0l-.08-.21a5.23,5.23,0,0,1,1-.55,13.66,13.66,0,0,0,6.13-4,7.69,7.69,0,0,0,1.16-1.71c.48-.91.7-1.07,1.76-.95a2.9,2.9,0,0,1,1.08.27c-.37.29-.77.56-1.12.89-1.19,1.1-2.31,2.27-3.54,3.32A13.75,13.75,0,0,1,81.29,60,24.55,24.55,0,0,1,78.27,61.13ZM73.06,80.35a5.76,5.76,0,0,1-2.6,3.6c-1.15.69-2,.31-2-1,0-3.09,0-6.19,0-9.28a2.1,2.1,0,0,1,1.6-2.19,5.86,5.86,0,0,0,.62-.3l0-.24c-.29,0-.58,0-.87,0-.44,0-.87.09-1.31.1-1.41.06-2.83.1-4.25.17a1.91,1.91,0,0,0-.53.2,1.74,1.74,0,0,0,.4.37,1.88,1.88,0,0,1,1.21,1.74q0,4.63,0,9.28a1.56,1.56,0,0,1-1.19,1.53,3,3,0,0,0-.57.32,2.25,2.25,0,0,0,.68.22c1.42,0,2.84,0,4.26,0s2.57-.17,3.84-.33c.34,0,.9-.28.93-.49.27-1.89.43-3.79.63-5.69l-.31,0C73.4,79,73.24,79.67,73.06,80.35ZM53.91,5.47l-.11.75A2.69,2.69,0,0,0,54.46,6c.35-.27.9-.48.31-1.11-.17-.18,0-.7,0-1.06a4,4,0,0,1,.27-.68l-.17-.07L50.25,9.26l.23.16C51.94,8.47,52.31,6.54,53.91,5.47Zm2.71-1.16c.47-.28,1-.56,1.5-.9s.92-1,1.73-1c.17,0,.36-.21.54-.33a1.94,1.94,0,0,0-.63-.28,4,4,0,0,0-3.51,1.95.44.44,0,0,0-.08.34C56.21,4.18,56.37,4.2,56.62,4.31Zm47.54,55c-.08,0-.11.2-.16.31a1.55,1.55,0,0,0,.47.08c1.44-.19,1.88.17,1.89,1.62,0,1.7,0,3.4,0,5.11v2.68l-.24,0c-.11-.25-.24-.5-.34-.75-1.07-2.55-2.13-5.09-3.18-7.64-.16-.4-.3-.71-.83-.46-1.3.63-2.62,1.21-3.92,1.84-.17.08-.25.32-.37.48a1.79,1.79,0,0,0,.56,0c1.21-.22,1.63.07,1.65,1.32,0,3.09.09,6.19,0,9.28a4.84,4.84,0,0,1-.68,2.16,1.44,1.44,0,0,1-1.15.68c-.36-.07-.74-.62-.89-1a23,23,0,0,1-.66-2.54q-.94-3.9-1.86-7.81c-.13-.54-.31-.87-.94-.58a11.46,11.46,0,0,1-1.37.54c-.53.15-.68.43-.55,1a2.68,2.68,0,0,1,0,1.13c-.47,2.58-.9,5.18-1.48,7.74-.45,2-.36,4.21-2,5.82-.07.06,0,.23-.06.35.14,0,.31.09.42.05,1-.37,2-.74,3-1.14.13-.06.2-.26.29-.39A1.19,1.19,0,0,0,91.4,79c-.91-.12-1.29-.51-1.2-1.42a19.36,19.36,0,0,1,.38-2.28,1,1,0,0,1,.4-.6,16.38,16.38,0,0,1,1.93-.81c.13,0,.48.1.51.22.39,1.42.86,2.87-.41,4.13-.13.13-.13.39-.19.59a1.52,1.52,0,0,0,.57,0q4.41-2,8.81-4a7.93,7.93,0,0,0,.84-.52,2.89,2.89,0,0,0-.62-.13c-1.58.11-2-.13-2-1.65-.09-2.52-.1-5-.13-7.58a5.13,5.13,0,0,1,.12-.77,19,19,0,0,1,1.32,2.68c.88,2,1.74,4,2.63,6,.09.21.26.5.45.55.72.18,2.08-1,2.08-1.7q0-5,0-10.06a4.13,4.13,0,0,1,1.82-3.79c.17-.11.26-.34.39-.52l-.16-.19ZM92.61,73.55c-.24.07-.47.2-.72.27s-.66.17-1,.25a7.89,7.89,0,0,1,.06-1c.3-1.76.63-3.52,1-5.29l.23,0c.05.21.12.41.17.62.28,1.38.55,2.76.85,4.14C93.25,73,93.15,73.39,92.61,73.55ZM114.78,60.8c-.87-.39-1.75-.76-2.6-1.19a1.7,1.7,0,0,1-1.11-1.7,2.45,2.45,0,0,1,1.61-2,1.68,1.68,0,0,1,2,.44,12,12,0,0,1,1.39,2.11c.22.4.32.87.5,1.29,0,.11.21.17.32.25.07-.1.2-.19.2-.29,0-1.55,0-3.1,0-4.64a.35.35,0,0,0-.18-.29.34.34,0,0,0-.3.15c-.32.83-1,.73-1.63.57a4,4,0,0,0-4.45,1.68c-1.91,2.47-1.35,4.86,1.46,6.19a13.35,13.35,0,0,1,2.13,1.09,5.61,5.61,0,0,1,1.6,1.62,2.45,2.45,0,0,1-.86,3.13,2.07,2.07,0,0,1-3-.63,10.51,10.51,0,0,1-2.05-4,2.43,2.43,0,0,0-.31-.54,2.1,2.1,0,0,0-.21.59q0,3,0,6a4.17,4.17,0,0,0,.09.58c.17-.12.3-.17.36-.26.89-1.39.89-1.38,2.52-1a4.38,4.38,0,0,0,1.52.13,5.34,5.34,0,0,0,4-6.17A4.71,4.71,0,0,0,114.78,60.8Zm-27.17,10a3.26,3.26,0,0,0-2.76-2.39,8.59,8.59,0,0,0-2.53.16c-1.76.36-3.51.83-5.26,1.26-.23.06-.46.15-.69.22l0,.22a2.14,2.14,0,0,0,.35.06c1.66,0,2,.24,2,1.88,0,2.58.06,5.15,0,7.73,0,1.51-.46,2.87-2.1,3.45-.11,0-.19.19-.28.28a1.11,1.11,0,0,0,.77.06c1.68-.39,3.36-.78,5-1.21a11.05,11.05,0,0,0,2.32-.83A5.7,5.7,0,0,0,87.57,78,11.79,11.79,0,0,0,87.61,70.82Zm-3.11,8.9a2.24,2.24,0,0,1-1.64,2.19c-.64.23-.77.15-.77-.55,0-3.13,0-6.25,0-9.37V69.67c0-.4,0-.79.55-.71.14,0,.33.43.33.67,0,1.24,0,2.47,0,3.71h0c0-1.27,0-2.53,0-3.79a2.28,2.28,0,0,1,.21-.69c.28.09.68.11.82.3a2.31,2.31,0,0,1,.44,1.2Q84.54,75,84.5,79.72Zm48.15-12.58a4,4,0,0,1-2.78-2c-1.21-2.13-2.36-4.29-3.54-6.44a.75.75,0,0,1,.07-1c.75-.88,1.47-1.79,2.23-2.66A3.86,3.86,0,0,1,131,53.73a3.74,3.74,0,0,0,.7-.27l0-.23a5.06,5.06,0,0,0-.94-.13c-1.39,0-2.78.08-4.18.13a2.39,2.39,0,0,0-.56.17,2.59,2.59,0,0,0,.41.46,1.42,1.42,0,0,1,.35,2.35L124.59,59c-.32.41-.67.8-1.09,1.3a2.71,2.71,0,0,1-.14-.51c0-1.27,0-2.53,0-3.79a2.53,2.53,0,0,1,1.19-2.23c.07,0,.1-.15.3-.43a36,36,0,0,0-6.61,1v.26a2.75,2.75,0,0,0,.49.14c1.45.18,1.63,1,1.65,1.94q.07,4.32,0,8.66a2.28,2.28,0,0,1-2,2.48,2.13,2.13,0,0,0-.47.29c.19.07.39.22.57.2,1.84-.19,3.68-.41,5.52-.63.12,0,.24-.14.36-.21-.06-.1-.1-.24-.19-.3a2.14,2.14,0,0,1-.86-2c0-1,0-2,0-3a2.07,2.07,0,0,1,.24-.88c.21-.4.49-.43.71,0,.66,1.37,1.34,2.73,2,4.11a1.26,1.26,0,0,1-.37,1.66c-.11.09-.14.29-.21.43a1.92,1.92,0,0,0,.49.14c.88,0,1.75-.13,2.63-.12,1.26,0,2.53.09,3.79.11.17,0,.34-.14.51-.22A1.77,1.77,0,0,0,132.65,67.14Z"/></svg>