<?xml version="1.0" encoding="UTF-8"?><svg id="b" xmlns="http://www.w3.org/2000/svg" viewBox="0 0 184.3837 59.00549"><g id="c"><path d="M5.68252,50.15014l7.3566.49914s2.5088-.07581,2.6368,1.51053c0,1.29097-2.56104,2.35986-5.56638,2.35986-2.93221,0-5.21889-1.06889-5.21889-2.35986-.07321-1.73268.79187-2.00966.79187-2.00966M6.60502,36.08243c0-2.00966,1.29097-3.59595,2.85899-3.59595,1.64116,0,2.92958,1.58629,2.92958,3.59595,0,1.93649-1.28841,3.50189-2.92958,3.50189-1.56803,0-2.85899-1.5654-2.85899-3.50189M14.53393,30.10831c2.21092-2.43303,5.58735-1.56803,5.58735-1.56803v4.29639c-1.71701-.84674-2.65522-.49654-3.15432-.20126.64552.99568.99564,2.21092.99564,3.44702,0,4.14741-3.85208,7.52125-8.57435,7.52125,0,0-.71866-.12804-2.06457-.20122-.79187,0-1.36418.4965-1.36418,1.14203,0,.71866.57231,1.21783,1.36418,1.21783h.77616c5.14313-.07317,7.15275.36846,7.15275.36846,0,0,4.9967.20385,4.9967,4.94187,0,8.75735-10.13975,7.9106-10.13975,7.9106C.09772,59.18447.02195,52.87846.02195,52.87846c-.27698-3.02364,2.1586-4.31465,2.1586-4.31465-4.01932-3.52019,1.14207-6.74768,1.14207-6.74768-1.93649-2.23181-2.15605-3.72404-2.15605-3.72404-.20377-.64548-.27698-1.30927-.27698-2.00966,0-4.38782,3.77895-7.46634,8.49867-7.46634,2.93213-.07581,5.14568,1.49222,5.14568,1.49222M162.94109,35.71397c-.14898-.94081.84666-2.65518,3.00542-2.65518,2.21076,0,2.71002,1.58629,2.71002,2.43303l-.07577,1.29101c-2.92966.22211-5.36532.71866-7.85314,1.73264-4.29647,1.79014-4.5185,5.08822-4.44273,6.52816.14627,4.16571,4.44273,5.82518,7.07954,5.82518,3.42875,0,5.36532-2.15601,5.36532-2.15601l.71858,1.86068h5.64222c-.4991-.79183-.79179-1.78751-.86756-2.80149v-11.41253c.36846-5.88264-3.70581-7.61532-7.85314-7.61532-2.28669,0-4.42439.3685-6.14148,1.36418-1.65935.94081-2.28397,2.30499-2.9295,4.66485l5.64222.94081ZM168.50754,40.87532c.29525,2.67349-.71874,5.25546-4.00106,5.60566-1.71438.14898-2.93221-.79183-2.56104-2.50621.5696-2.43566,3.70565-2.58201,6.5621-3.09945M178.44607,21.07395h5.93763v29.49953h-5.93763v-29.49953ZM143.28606,29.26157c.07321,1.5654,0,21.3119,0,21.3119h5.8617v-9.97518c.05487-1.36414.27706-2.72832,1.06885-3.94352,1.64116-2.80416,5.71815-1.80844,5.71815-1.80844v-5.80687c-2.71273-.07317-4.50032.57231-6.65637,3.79721v-3.5751h-5.99234ZM119.55676,29.26157h-4.29631v-5.32863h-5.86442v5.32863h-2.58193v4.86606h2.58193v10.06665c-.14635,1.93649.3502,6.45499,6.28775,6.67451,1.29105.07317,2.58201-.21952,3.72408-.71866v-4.53417c-1.93649,1.58366-4.44273,1.16033-4.22317-.92255v-10.56579h4.37207v-4.86606ZM93.89104,35.71397c-.07577-.94081.91987-2.65518,3.06021-2.65518,2.22918,0,2.65522,1.58629,2.65522,2.43303v1.29101c-3.00542.22211-5.44101.71866-7.92899,1.73264-4.29631,1.79014-4.51842,5.08822-4.44265,6.52816.21948,4.16571,4.4976,5.82518,7.07954,5.82518,3.50189,0,5.36524-2.15601,5.36524-2.15601l.77353,1.86068h5.58735c-.49654-.79183-.79179-1.78751-.79179-2.80149v-11.41253c.29525-5.88264-3.70573-7.61532-7.92891-7.61532-2.21355,0-4.44273.3685-6.15974,1.36418-1.63853.94081-2.21084,2.30499-2.85636,4.66485l5.58735.94081ZM99.4575,40.87532c.29533,2.67349-.71866,5.25546-4.00106,5.60566-1.71438.14898-2.85636-.79183-2.50625-2.50621.49654-2.43566,3.65086-2.58201,6.50731-3.09945M27.47788,35.71397c-.07585-.94081.91987-2.65518,3.07856-2.65518,2.21084,0,2.6368,1.58629,2.6368,2.43303v1.29101c-3.00534.22211-5.42266.71866-7.92891,1.73264-4.29631,1.79014-4.50016,5.08822-4.44265,6.52816.21948,4.16571,4.51587,5.82518,7.07954,5.82518,3.50189,0,5.36524-2.15601,5.36524-2.15601l.79187,1.86068h5.56901c-.49654-.79183-.79187-1.78751-.79187-2.80149v-11.41253c.29533-5.88264-3.70565-7.61532-7.92891-7.61532-2.21347,0-4.42439.3685-6.14132,1.36418-1.63861.94081-2.21092,2.30499-2.85644,4.66485l5.56909.94081ZM33.04434,40.87532c.29525,2.67349-.70039,5.25546-4.00106,5.60566-1.71438.14898-2.93221-.79183-2.4879-2.50621.49654-2.43566,3.63252-2.58201,6.48896-3.09945M60.71976,50.57347h6.14132v-22.82502l10.9317,22.82502h6.36088v-29.49953h-6.2119v18.8057l-8.35232-18.8057h-8.86968v29.49953ZM57.291,35.14162c-.29533-3.59595-3.57765-6.32431-7.30173-6.25114-4.6465,0-7.92891,3.02364-7.92891,6.82349,0,1.78751.64552,3.22749,2.14034,4.38782,1.36418.99568,2.85644,1.36414,4.57074,1.78751,1.71701.426,3.79984.72129,3.87306,2.65518.07313,1.36418-1.58637,2.08547-3.07856,2.08547-1.56803,0-2.93221-1.43998-3.00534-2.87734l-4.85043.49654c.49918,4.31465,3.48625,6.76858,8.00212,6.69281,2.63688-.07317,4.50016-.865,5.93755-2.15601,1.49218-1.36418,1.91823-3.09682,1.76925-5.18229-.27706-4.36952-4.00106-4.93924-7.7068-5.95322-1.06885-.27702-2.58201-.64552-2.58201-2.28669,0-1.16296,1.14462-2.23181,2.58201-2.23181,1.79014,0,2.56367,1.6412,2.71002,2.58201l4.8687-.57235ZM128.05542,43.10714v-13.84556h-5.78857v16.3544c.27698,3.24317,2.85636,5.40177,5.29203,5.40177,2.85644,0,4.84772-1.36414,6.36096-2.5271v2.08284h5.78849c-.14898-1.28837,0-21.3119,0-21.3119h-5.64222v14.7132c-2.93221,2.87471-4.29631,2.30499-4.29631,2.30499-2.00962-.51744-1.71438-3.17262-1.71438-3.17262" style=" fill-rule:evenodd; stroke-width:0px;"/><path d="M142.67563,4.00013c-1.8608,1.58629-3.79721,3.37384-5.78865,4.81379-.14627.07317-.36846.21952-.57231.3685-.64552.42333-1.29105.865-2.00962,1.29097l-.07321.07317c-.07321.07317-.12808.20126-.27706.3502h-.14627l-.35028.3685c-.07305,0-.14898.07317-.22203.14635-.07321,0-.14643.0575-.22219.13068-.42333.36846-.84666.71866-1.27015,1.16029h-.07577s-.07305,0-.14627-.07317h-.07321q-.22219-.07317-.22219-.22211v-1.78755c0-.07317,0-.14635.07321-.29529.14898-.42337.29541-.86504.4991-1.36418l.22219-.22215q.14643,0,.29269-.35016c0-.55405-.23782-.25613-.49383.25609-.03669.02612-.05232.05487-.05232.10456-.29269.60628-.59592,1.43472-.59592,1.57584,0,.07317,0,.14894-.07305.29529v.20385c0,.51485-.07593,1.01398-.14898,1.5837,0,.14894,0,.29529-.07321.49914v.07317q-.14643.22215-.35028.22215-.14627-.07581-.14627-.29533c0-.07317,0-.13064-.07577-.20385,0-.14635,0-.36846.07577-.59061v-.05487c0-.21952.14627-.94081-.07577-.94081q-.07321-.93818-.27451-1.5837c0-.14894,0-.27698-.07577-.42596-.07305-.14635-.14627-.29269-.21948-.49654-.05742,0-.09411-.01045-.12537-.02875.03653.01308.0705.02875.12537.02875-.07577-.14635-.14898-.29529-.29525-.44163l-.27706-.49918c-.35012-.60892-.4991-.79183-.57231-1.06885,0-.07317,0-.14898-.07321-.29533-.07321-.07317-.14627-.22211-.22203-.35016h-.05503c0-.07317-.07305-.14635-.14627-.29533-.14898-.29533-.35028-.57231-.57231-.865-.07321-.07581-.14643-.14898-.22219-.27702,0-.07581,0-.14898-.07321-.22215-.07305-.07317-.12792-.14635-.20114-.29529,0,0,0-.05491-.07577-.12808,0-.07317-.07321-.14894-.14643-.29529q-.14898,0-.4991-.42337l-.21948-.22215c-1.84501-2.58197-3.13606-4.59163-4.57345-.94081q-.14635.29533-.07313.51748c0,.12804-.07321.27439-.13072.42333,0,.07317,0,.22215-.07313.3502-.14635.44167-.29533.86764-.44167,1.36418,0,.22215,0,.44167-.05487.66379,0,.12804-.07577.3502-.14898.57235,0,.07317,0,.20122-.07313.35016v.7187c0,.07317,0,.14635-.07321.22211v.49654c0,.22215-.07313.42337-.14898.7187,0,.14894,0,.35016-.07313.57231q-.05487.42337.07313.71866v.07317q0,.22215.22219.29533c-.07321.3502-.14635.70039-.29533,1.14466,0,.14635,0,.3502-.05487.56972v.07577c0,.07317,0,.21952-.07321.3502v.58802c0,.13064,0,.27698.07321.49914v.07317c0,.20385,0,.42337.05487.64548,0,.07317,0,.12808.07313.27702v.07317c0,.07317,0,.22215.07585.3685,0,0,0,.07317.07313.13064.14635.86504,1.2152,4.03767,2.28676,4.03767,0,.27698.14627.27698.35012.27698h.14643s.07305,0,.14882.07317c.07321,0,.14643,0,.29269.07317,0,0,.05758,0,.1308.07317h.44167l.05487-.07317c.07577,0,.22203-.07317.36846-.14635.57231-.07577,1.21783-.42596,1.42168-.94081h.44167v.29533c-.22219,0-.14643.29533.12792.29533q.07577.12804.29541.12804c.4991,0,.92243-.7187,1.06885-1.06885.07577,0,.14898,0,.22203.07317-.07305.42333-.14627.94081-.29525,1.43731v.42337c0,.07581,0,.14898.07321.29533v.07577c0,.27443.07577.7187.42588.7187v-.22215c.49654,0,.56976.14898.9958-.29529.51473,0,3.15169-2.35986,3.37372-2.8564q.14643-.59061.64552-1.58633c.2013-.64548.42349-1.29097.64552-2.00966q.12808,0,.2013-.14894c.07577-.07317.14898-.14635.29525-.21952.05487-.07317.13064-.20385.20385-.3502q.14643,0,.57231-.57235c0-.07317.07321-.14635.14643-.29529q.79179-.42337.99564-.71866c2.08284-2.35986,4.5185-4.44273,6.23288-7.24686,0-.07317,0-.21952-.07577-.36846" style=" fill-rule:evenodd; stroke-width:0px;"/><path d="M128.44238,20.66832v.22215h.42333q.36846-.14898.57231-.51748c-.42333.44167-.49654.29533-.99564.29533" style=" fill-rule:evenodd; stroke-width:0px;"/></g></svg>