<?xml version="1.0" encoding="UTF-8"?><svg id="b" xmlns="http://www.w3.org/2000/svg" viewBox="0 0 144.66329 33.73315"><g id="c"><path d="M81.98458.68468c-.07577,0-7.36697.15161-11.77573.15161-4.25452,0-12.30624-.15161-12.30624-.15161-.53307,0-.76053.30314-.76053.68468,0,0-.53052,5.77294-.53052,6.30601,0,.53052.30322.68213.60628.68213,4.40621-.07577,6.76339-.07577,6.76339-.07577.30322,0,.53052.2273.53052.53307,0,0-.45475,6.685-2.27887,23.16999-.07577.53315.22746.91206.83629.91206h8.81226c.53052,0,.91206-.37891.91206-.91206,1.13935-16.56076,1.82412-23.24576,1.82412-23.24576,0-.30577.30322-.53315.60628-.53315,0,0,1.59682,0,6.1544.15161.45475,0,.68221-.30314.76053-.68213,0-.30569.53052-6.30601.53052-6.30601,0-.38154-.2273-.68468-.68476-.68468M110.32394.68468c.07577,0-7.44544.15161-11.92742.15161-4.25452,0-12.0815-.15161-12.0815-.15161-.45475,0-.75797.30314-.75797.68468,0,0-.53307,5.77294-.53307,6.30601,0,.53052.30322.68213.609.68213,4.40605-.07577,6.53339-.07577,6.53339-.07577.30306,0,.53036.2273.53036.53307,0,0-.45459,6.685-2.27871,23.16999-.07577.53315.15153.91206.83629.91206h8.8121c.53323,0,.91206-.37891.91206-.91206,1.13951-16.56076,1.82412-23.24576,1.82412-23.24576.07593-.30577.30322-.53315.60644-.53315,0,0,1.82412,0,6.30593.15161.45731,0,.68476-.30314.76053-.68213,0-.30569.53052-6.30601.53052-6.30601.07577-.38154-.22746-.68468-.68205-.68468M21.05693,25.22412c-5.69981.2273-9.64855.2273-9.64855.2273-.30577,0-.53307-.2273-.45731-.53044,0,0,.30577-3.42094.83629-9.49694.37899-3.95145,1.44258-14.05468,1.44258-14.05468.07577-.38154-.22746-.68468-.60628-.68468H3.50563c-.37899,0-.75782.30314-.75782.68468,0,0-.609,7.97596-1.13951,14.28197C1.07523,22.33633.01164,32.13641.01164,32.13641c-.07593.45731.2273.68468.6846.68468,0,0,6.15185-.07577,10.40636-.07577,4.17875.07577,9.42125.22738,9.42125.22738.38154,0,.76037-.30314.76037-.68468,0,0,.53052-5.8487.53052-6.22769.07577-.60892-.15153-.83621-.75782-.83621M39.36604,0c-9.26956,0-16.79077,7.52121-16.79077,16.86662-.07577,9.26956,7.52121,16.86654,16.79077,16.86654,9.26701,0,16.78822-7.59698,16.78822-16.86654S48.63305.07577,39.36604,0M39.36604,23.24839c-3.4967,0-6.38185-2.88779-6.38185-6.38178s2.88515-6.38185,6.38185-6.38185c3.49415,0,6.38185,2.88779,6.38185,6.38185s-2.88771,6.38178-6.38185,6.38178M127.79676,0c-9.26956,0-16.86654,7.59698-16.86654,16.86662s7.59698,16.86654,16.86654,16.86654,16.79077-7.52121,16.86654-16.79077c-.07577-9.34541-7.59698-16.86662-16.86654-16.94238M127.79676,23.24839c-3.49399,0-6.38185-2.88779-6.38185-6.38178s2.88787-6.38185,6.38185-6.38185,6.38185,2.88779,6.38185,6.38185c-.07577,3.49399-2.88787,6.38178-6.38185,6.38178" style=" stroke-width:0px;"/></g></svg>