<svg xmlns="http://www.w3.org/2000/svg" viewBox="0 0 77.89 46.74"><path d="M26.9,21.32a1.69,1.69,0,0,0-1.67,1.79,1.72,1.72,0,0,0,1.67,1.83,1.75,1.75,0,0,0,1.68-1.83A1.69,1.69,0,0,0,26.9,21.32Zm12.23,0a1.71,1.71,0,0,0-1.68,1.79,1.68,1.68,0,1,0,3.35,0A1.7,1.7,0,0,0,39.13,21.32Zm-20.58-.21A1.48,1.48,0,0,0,17,22.44h3A1.42,1.42,0,0,0,18.55,21.11Zm-7.86-2.39H8.55v2.62h2.16A1.3,1.3,0,0,0,12.06,20,1.24,1.24,0,0,0,10.69,18.72Zm37.06,2.6a1.69,1.69,0,0,0-1.67,1.79,1.72,1.72,0,0,0,1.67,1.83,1.74,1.74,0,0,0,1.67-1.83A1.68,1.68,0,0,0,47.75,21.32ZM38.94,3.13C17.25-3.91,0,3.13,0,3.13V43.61s17.25-7,38.94,0,39,0,39,0V3.13S60.64,10.17,38.94,3.13ZM12.13,26.82v0l-1.9-3.62H8.58v3.62H6.31V16.75h4.4c2.2,0,3.67,1,3.67,3.17a3,3,0,0,1-2,2.86l2.29,4Zm10.19-3.16H17a1.54,1.54,0,0,0,1.56,1.49A1.61,1.61,0,0,0,20,24.34h2.21A3.57,3.57,0,0,1,18.53,27a3.65,3.65,0,0,1-3.78-3.83,3.78,3.78,0,0,1,3.85-3.9,3.71,3.71,0,0,1,3.76,3.9C22.36,23.31,22.34,23.45,22.32,23.66Zm8.41,3.18H28.62V26a2.71,2.71,0,0,1-2.13,1,3.6,3.6,0,0,1-3.44-3.87,3.64,3.64,0,0,1,3.49-3.86,2.71,2.71,0,0,1,2.06.92v-.8h2.13Zm3.58,0h-2.2V16.75h2.2Zm8.65,0H40.82V26a2.68,2.68,0,0,1-2.11,1,3.61,3.61,0,0,1-3.44-3.87,3.65,3.65,0,0,1,3.49-3.86,2.69,2.69,0,0,1,2,.85V16.78H43Zm8.6,0H49.45V26a2.74,2.74,0,0,1-2.14,1,3.61,3.61,0,0,1-3.44-3.87,3.64,3.64,0,0,1,3.49-3.86,2.68,2.68,0,0,1,2.06.92v-.8h2.14Zm7.91,0h-2.2V22.3a1,1,0,0,0-1-1.1,1,1,0,0,0-1.11,1.06v4.58h-2.2V19.37h2.14v.94a2.19,2.19,0,0,1,2-1.06,2.3,2.3,0,0,1,2.43,2.59Zm3.46,0h-2.2V19.37h2.2Zm-1.08-8.16a1.22,1.22,0,1,1,1.2-1.22A1.23,1.23,0,0,1,61.85,18.68Zm9.71,8.16H69.45V26a2.71,2.71,0,0,1-2.14,1,3.61,3.61,0,0,1-3.44-3.87,3.64,3.64,0,0,1,3.49-3.86,2.68,2.68,0,0,1,2.06.92v-.8h2.14Zm-3.81-5.52a1.7,1.7,0,0,0-1.68,1.79,1.68,1.68,0,1,0,3.35,0A1.68,1.68,0,0,0,67.75,21.32Z"/></svg>