<svg xmlns="http://www.w3.org/2000/svg" viewBox="0 0 48.57 80.96"><path d="M34.41,29.2H14.3L0,43.35V62.76l14.36,14H34.24l14.32-14v-20L34.41,29.2Zm8.5,31.33-11,10.73H16.66L5.59,60.5V45.58l11-10.85H32L42.91,45.21V60.53Z" style="fill-rule:evenodd"/><path d="M0,29.28V43.35L14.22,29.28ZM23.25,78.61A8.23,8.23,0,0,1,24.16,81s.69-2.44,1.89-3.24,1.35-.92,2.06-.92H20.32a4.15,4.15,0,0,1,2.93,1.81M34.49,29.28,48.56,42.85v20l-14.31,14h9.81s4.51-.61,4.51-4.45V29.28ZM0,71.81s-.13,5,5.05,5h9.3L0,62.76Z" style="fill-rule:evenodd;opacity:0.5;isolation:isolate"/><path d="M30.46,49.37a6.62,6.62,0,0,0-.68-.32h-.16s-.17.16.22.39a5.66,5.66,0,0,0,1.17.37,3.38,3.38,0,0,0-.55-.44M31.67,47a2.5,2.5,0,0,0-.71.5,2.7,2.7,0,0,0-.26.91,4.68,4.68,0,0,0,.58-.7,7.18,7.18,0,0,0,.39-.71m-13-4.16a2,2,0,0,0,.78-.16,1.18,1.18,0,0,1-.71-.28c-.34-.27-1.23-.39-1-.06a1,1,0,0,0,.94.5m3.06,5.7a.68.68,0,0,0,0-.12h0Zm3.9-9.21a6.84,6.84,0,0,0-.16-1.15,1.84,1.84,0,0,0-.39.76c0,.27-.06,1-.06,1s.61-.16.61-.59m-8.29,5.87s-.4-.11-.89-.22a3.79,3.79,0,0,0-1.29,0,1.6,1.6,0,0,0,1,.39,3,3,0,0,0,1.23-.21M15.48,47.4c.21.22.5.55.5.55s-.06-.65-.29-.83-.44.07-.21.28m15.2,2.75-.18.16a2.33,2.33,0,0,0,.73.28.8.8,0,0,0,.78-.23,3.3,3.3,0,0,0-.82-.32,1.69,1.69,0,0,0-.51.11m-.18.92-1.1-.32h-.11s-.18.48.44.48,1.12,0,.77-.16m-5.45-8.71a1.35,1.35,0,0,0-.23-.71l-.21.55.28.81s.22-.16.16-.65m1.78,4.87.5.17s.5-.93.07-.72a1.11,1.11,0,0,0-.57.55m-7.58-.64a4,4,0,0,0-1.05-.18c-.5,0-1.39.11-.32.39s1.37-.21,1.37-.21M25,48.66a2.5,2.5,0,0,0,.27.78l.28-.28a8.48,8.48,0,0,0-.05-.94c-.06-.32-.18-.71-.18-.71A2.76,2.76,0,0,0,25,48.66m.89,1.1a2.76,2.76,0,0,0,.89-.39,1.75,1.75,0,0,0,.55-.6,4,4,0,0,0-1.16.33,1.75,1.75,0,0,0-.28.66m-5.68,1.93a2.22,2.22,0,0,0,.77-.28l-.5-.18-.94.23s.12.32.67.23m1.62-4.07c0,.21,0,.58-.06.76a.56.56,0,0,0,.49-.43,1.3,1.3,0,0,0-.05-.93s-.38.33-.38.6m.89,0c-.23,0,.27.72.39,1.09a.63.63,0,0,0,.5.44l-.18-.81s-.5-.72-.71-.72m.05.54a1.67,1.67,0,0,0-.33.78A2.76,2.76,0,0,0,22.72,50a1.26,1.26,0,0,0,.27-.83c-.06-.44-.22-1.1-.22-1.1M32.51,47a1.29,1.29,0,0,0-.27.5l0,0a.16.16,0,0,0-.22,0,2.67,2.67,0,0,1-.93.78,1.71,1.71,0,0,1-.37.09v0h0v0H30.6a1.93,1.93,0,0,0-.65.13v-.69a1.31,1.31,0,0,0-.45.53q-.11.27-.15.42a1.68,1.68,0,0,0-.45.29l0,0a3.46,3.46,0,0,0,.21-.83c0-.28-.06-.78-.06-.78s-.44.44-.44.78a2.49,2.49,0,0,0,.27.85l-1,.71,0-.14-.11-.82a1.27,1.27,0,0,0-.23.6,1.84,1.84,0,0,0,.1.51.14.14,0,0,0,0,.17s0,0,0,0a.69.69,0,0,0-.21.14h0l-.14.13c-.44.5-.77,1-1.33,1.1a.82.82,0,0,1-.69-.09c-.12-.12-.13-.31,0-.62a9.06,9.06,0,0,1,.85-1.76,4.56,4.56,0,0,0,.58-.75l.08,0a.15.15,0,0,0,.11,0,9.65,9.65,0,0,0,.75-.86l.7.25h0a.15.15,0,0,0,.16-.11.15.15,0,0,0-.09-.19l-.61-.22c.11-.15.21-.3.31-.46a2.19,2.19,0,0,0,1.14-.23c.44-.27,1.16-.71.78-.71a7.62,7.62,0,0,0-1.4.32l-.47.54c.06-.12.13-.24.18-.36a4.64,4.64,0,0,0,.22-.69l.58-.51s.06.22.68.26a1.44,1.44,0,0,0,1-.21,3,3,0,0,0-.77-.27,5.85,5.85,0,0,0-.88.2c.19-.18.41-.39.6-.6a2.22,2.22,0,0,1,.57-.47,2.86,2.86,0,0,0,.55-.45.17.17,0,0,0,0-.21,1.84,1.84,0,0,0,.66-.51,1.33,1.33,0,0,0,.28-.72,2.61,2.61,0,0,0-.83.56,1.55,1.55,0,0,0-.32.65l0,0a1.9,1.9,0,0,1-.49.4l-.1.06.09-.15a2.78,2.78,0,0,0,.34-.66c.11-.32,0-.65-.23-.32A3.72,3.72,0,0,0,30,43.91a2.46,2.46,0,0,0-.4.37,11.07,11.07,0,0,1-.86.84,5.88,5.88,0,0,0,.06-2L28.6,42a.15.15,0,0,0-.13-.12,2.22,2.22,0,0,0,0-.56.67.67,0,0,0-.34-.49l-.05.67.3.41a.14.14,0,0,0-.06.15l.09.47h0a1,1,0,0,0-.66-.55c-.5-.11-.55.23-.11.6a.62.62,0,0,0,.8,0l.12.55a5.48,5.48,0,0,1-.05,1.79,1.82,1.82,0,0,0-.15-1,1.31,1.31,0,0,0-.77-.55,5.44,5.44,0,0,0,.34.92,1.75,1.75,0,0,0,.57.74c0,.23-.1.46-.16.68l-.55-.39a.14.14,0,0,0-.21,0,.16.16,0,0,0,0,.22l.63.44a1.59,1.59,0,0,1-.07.2,7.31,7.31,0,0,1-1.42,1.92.18.18,0,0,0,0,.09,4.91,4.91,0,0,0-.39.36c0-.09.05-.33.1-.66a2,2,0,0,0-.06-.78.89.89,0,0,0-.44.94c.11.66.39.44.39.44v.07c-.46.47-1.05,1.14-1.05,1.14a3.9,3.9,0,0,1-.41.76c-.27.44-.27.16-.43-.55a6.12,6.12,0,0,1-.05-2.07c0-.15,0-.33,0-.49a3.74,3.74,0,0,0,1.4-.89l.12-.12a5.46,5.46,0,0,0,1.2-1.41.17.17,0,0,0-.1-.2,2.65,2.65,0,0,0,.23-1c0-.23-.28-.17-.5.38a2.2,2.2,0,0,0-.13,1,7,7,0,0,1-.49.53v-.54s-.39.1-.39.44.2.21.31.19l-.35.34-.11.12a3.66,3.66,0,0,1-1.07.73A6.66,6.66,0,0,0,25,45.35s0-.05,0-.08a1.82,1.82,0,0,0,.56-.61,4.26,4.26,0,0,0,.83-.55,2.81,2.81,0,0,0,.5-1.2l-.55.33-.42.44A5.26,5.26,0,0,1,26,42.55a2.87,2.87,0,0,0,.07-.46.89.89,0,0,0,.83-.39,1.81,1.81,0,0,0,.51-.93l-.78.44-.56.87c0-.12,0-.23,0-.35s0-.34,0-.57a.51.51,0,0,1,0-.13l.47-.36a.16.16,0,0,0,0-.21.16.16,0,0,0-.22,0l-.21.17c0-.14.07-.28.12-.44s.07-.24.1-.38l0-.07a5.06,5.06,0,0,0,.78-.19,2.55,2.55,0,0,0,.89-.82l-1,.32a2.67,2.67,0,0,0-.48.2,8.77,8.77,0,0,1,.45-.83.16.16,0,0,0,0-.15.76.76,0,0,0,.35-.53,1.06,1.06,0,0,0-.21-.88s-.39.28-.39.6a5.39,5.39,0,0,0,.09.73.14.14,0,0,0-.1.07s-.17.28-.34.62l-.06-.26a.16.16,0,0,0-.19-.11.15.15,0,0,0-.11.19l.15.63c0,.13-.11.27-.15.39s-.07.27-.11.38a7.66,7.66,0,0,0-.18.8l-.09.07L25,39.86a.18.18,0,0,0-.09-.06,2.16,2.16,0,0,0,0-1.18,1.64,1.64,0,0,0-.51-.53s-.22.87,0,1.15c.06.1.15.22.23.33a4.5,4.5,0,0,0-.69-.28c-.39-.12-.5.32.12.59.44.2.64,0,.73-.12l.06.07a.17.17,0,0,0,0,.21l1.06,1.42h0c0,.08,0,.18,0,.26a3.71,3.71,0,0,1-.08.76l0,.16-.05-.52s-.05-1.31-.34-.21a1.23,1.23,0,0,0,.34,1.36c0,.25,0,.46,0,.54a3,3,0,0,1-.54,1,2.68,2.68,0,0,0,0-1.06h0a3,3,0,0,0-.46-1.12c-.19-.28-.35-.51-.5-.71a1.26,1.26,0,0,0,.2-.73,1.36,1.36,0,0,0-.27-.82,1.36,1.36,0,0,0-.34.71,1.75,1.75,0,0,0,.07.42,3.27,3.27,0,0,0-.24-.27,4.25,4.25,0,0,1-.42-.55L23,40.44c-.06-.1-.1-.19-.15-.28l.26-.76a.17.17,0,0,0-.1-.2.16.16,0,0,0-.19.1l-.16.48a2.47,2.47,0,0,1-.17-.42.17.17,0,0,0-.09-.11,1.47,1.47,0,0,0,0-1,2.14,2.14,0,0,0-.68-.65s.11.53.23.92a3.4,3.4,0,0,0,.27.63v.1l0,0c-.1,0-.46-.19-.75-.33s-.94,0-.34.44a1.93,1.93,0,0,0,1.18.5.1.1,0,0,0,.08,0c.1.22.22.45.35.68l.15.26a2.2,2.2,0,0,0,.17.25,3,3,0,0,0-1-.55c-.6-.16-.55-.28-.21.27s1.14.42,1.35.4l.19.23.29.33c-.25-.14-.57-.32-.78-.41-.39-.16-.55.12-.39.33s1.39.39,1.39.39v0a9.05,9.05,0,0,1,.53.75l0,0a5.65,5.65,0,0,0-1.33-.72c-.62-.16-.46.07-.07.6s1.19.35,1.51.3l.21.44-.43-.15a.16.16,0,1,0-.11.29l.63.22a2.23,2.23,0,0,1,0,.57,3.07,3.07,0,0,0-.77-.34,1,1,0,0,0-.73,0s.45.28.73.5a1.74,1.74,0,0,0,.66.28l.05-.07v.09c0,.13,0,.26-.07.39a7.3,7.3,0,0,1-.6,1.7c0,.06,0,.11,0,.16l0,0,0,0a.13.13,0,0,0-.06-.1s-.25-.18-.16-.67a2.76,2.76,0,0,1,.36-.93.14.14,0,0,0,0-.21.15.15,0,0,0-.21,0,3.11,3.11,0,0,0-.41,1.05.86.86,0,0,0,0,.22,2.84,2.84,0,0,0-.77-.13,1.4,1.4,0,0,0-.61.1l0,0a1.87,1.87,0,0,0,.18-.82,2.26,2.26,0,0,0-.45.5c-.17.21-.29.24-.37.22,0-.2,0-.38,0-.51s0-.31,0-.47l.64-.25a.15.15,0,0,0,.1-.17,2.34,2.34,0,0,0,.53.51,1.89,1.89,0,0,0,1,.17,2.29,2.29,0,0,0-.67-.65,2.38,2.38,0,0,0-1-.23l.07.09a.19.19,0,0,0-.13,0l-.52.2c0-.33,0-.6,0-.61v-.33a1.22,1.22,0,0,0,.28-.5A4.74,4.74,0,0,0,22,42.41l-.48.85c0-.17,0-.34,0-.48v-.2c0-.24,0-.43-.07-.6a.76.76,0,0,0,.27-.56,1,1,0,0,0-.22-.76,1.27,1.27,0,0,0-.23.6,3.18,3.18,0,0,0,0,.4l0-.06a.18.18,0,0,0-.17-.05,6,6,0,0,1-.23-1.16,3.93,3.93,0,0,0-.21-1,2.15,2.15,0,0,0-.29,1.2A1.74,1.74,0,0,0,21,41.61a.14.14,0,0,0,0,.18,1.6,1.6,0,0,1,.17.81l0,.22c0,.3.05.77.06,1.14a6.42,6.42,0,0,1-1-.82l.19-.91a.16.16,0,0,0-.12-.18h0a.16.16,0,0,0-.16.13l-.14.68L20,42.76c-.11-.15-.22-.32-.33-.49l.16.14a7.27,7.27,0,0,1-.11-1.1,3.14,3.14,0,0,0-.28-1.09,2.83,2.83,0,0,0-.34.88,1.68,1.68,0,0,0,.09.42l-.4-.66,0,0c.07-.09.07-.31-.15-.84-.46-1-.51-.85-.51-.85s-.21-.09-.19.36a3.54,3.54,0,0,0,.64,1.32.15.15,0,0,0,0,.18l.15.26a1.42,1.42,0,0,0-.63-.06c-.39,0-.39.55.16.49a.59.59,0,0,0,.55-.3l.21.37.13.19c.2.31.44.68.65,1l.24.27-.74.44a.15.15,0,0,0,0,.22.14.14,0,0,0,.13.07l.08,0,.78-.48a6.54,6.54,0,0,0,.5.45,1.81,1.81,0,0,1-.47.33c-.5.28-.39.83.11.49a.86.86,0,0,0,.4-.79c.29.23.51.37.52.39h0c0,.1,0,.17,0,.17a8,8,0,0,0,0,1.45,1.21,1.21,0,0,0,0,.18,1.23,1.23,0,0,1-.54-.52c-.1-.34-.55-.28-.21.32a1.35,1.35,0,0,0,.77.71c0,.46,0,1,0,1.25l-.07-.09a.79.79,0,0,0-.35-.26.19.19,0,0,0-.05-.14l-.68-.55a5.68,5.68,0,0,0,.08-.8,4,4,0,0,0-.44-1.27v1.15a2.41,2.41,0,0,0,.19.78l-.59-.45a3.22,3.22,0,0,0-.1-.65c-.12-.39-.28-.18-.28.27,0,0,0,.07,0,.1l-.33-.25a2.34,2.34,0,0,0,.14-1.17,1.36,1.36,0,0,0-.32-.76,3.09,3.09,0,0,0-.23.92,2.49,2.49,0,0,0,.34.95l-.59-.44-.1-.7a.17.17,0,0,0-.17-.13.16.16,0,0,0-.13.18l.06.39,0,0-.47-.39a2.21,2.21,0,0,0,.34-.82,1.61,1.61,0,0,0-.23-.87,1.45,1.45,0,0,0-.23.71,7.22,7.22,0,0,0,.07.87l0,.1a3.46,3.46,0,0,1-.64-.66.16.16,0,0,0-.16-.07l-.08-.56c0-.39-.83-.88-.83-.88a1.49,1.49,0,0,0,.27,1c.21.2.42.36.54.46a.17.17,0,0,0,0,.17l0,0h-.74a.16.16,0,0,0-.16.15.16.16,0,0,0,.16.16h1a10.14,10.14,0,0,0,.92.79l.78.59-.89,0h0a.16.16,0,0,0-.15.15.16.16,0,0,0,.15.16l1.21,0h0s0,0,0,0l.59.45.77.6h-.62a.16.16,0,0,0-.16.16.16.16,0,0,0,.16.15h1c.16.14.29.23.29.24a.14.14,0,0,0,.09,0,.93.93,0,0,0,.12.19,4.34,4.34,0,0,1,.89,1.75s-.44-.16-.89-.28a2.21,2.21,0,0,0-.78-.06l.19.15a.92.92,0,0,0-.07.4.69.69,0,0,0,.39.61,4.45,4.45,0,0,0-.11-.86,2.07,2.07,0,0,0,.61.31A4.22,4.22,0,0,0,22,50c.21.31.52.57.59.81s.68,1.32.18,1.1a4.48,4.48,0,0,1-1.67-1.1c-.5-.55-1-.49-1.23-.72a4.88,4.88,0,0,0-.69-.53.15.15,0,0,0,0-.11h.16a2,2,0,0,0-.05-.83.73.73,0,0,0-.55-.66,2.31,2.31,0,0,1,.12.66,2.89,2.89,0,0,0,.09.6,5.31,5.31,0,0,0-.73-.56l.27-.57a.15.15,0,1,0-.27-.13l-.27.57a.67.67,0,0,0-.12-.06l-.52-.13c.11,0,.26-.18-.25-.87-.66-.94-.66-.71-.66-.71s-.23-.07-.12.37a3.75,3.75,0,0,0,.92,1.18h0a9.16,9.16,0,0,1-.89-.22,2.07,2.07,0,0,1-.92-.37.16.16,0,0,0-.15-.07,6.79,6.79,0,0,1-.42-.67c-.17-.32-.39-.28-.72-.44s-.29.16.12.55a4.5,4.5,0,0,0,.91.65.16.16,0,0,0,0,.15.92.92,0,0,0,.33.24.59.59,0,0,1-.59.27c-.45,0-.89-.16-.61.12a.77.77,0,0,0,1,.16.53.53,0,0,0,.24-.54,3.62,3.62,0,0,0,.72.25l.53.14-.52.29a.16.16,0,0,0-.05.21.16.16,0,0,0,.13.08l.08,0,.79-.46.6.15.2.1h0l.24.14-1,.2a1.62,1.62,0,0,0-.89.44,1.61,1.61,0,0,0,.78.16l.19-.05a.76.76,0,0,0,.28.45h-1l-.83.23a.2.2,0,0,0-.09.06s-.15-.11-.42,0a.75.75,0,0,0-.39.5s.16.12.5-.05a.57.57,0,0,0,.3-.33.15.15,0,0,0,.14.1h0l.77-.22H18l.65,0c-.23.19-.67.62-.38.66s.76-.43.93-.63l.22,0h0a.15.15,0,0,0,.15-.14.17.17,0,0,0,0-.07,5.65,5.65,0,0,0,.64.49A5.21,5.21,0,0,1,22.1,52.5a3.11,3.11,0,0,1,.5,1.86,39.84,39.84,0,0,1,.12,4.5,9.09,9.09,0,0,1-.34,3.08,4.69,4.69,0,0,1-2.17,1.81A6.21,6.21,0,0,0,18.31,65c-.34.45-1,1.49-.77,1.42s.73-.92,1.16-1.31a4.09,4.09,0,0,1,1.12-.76c.55-.28.5-.5.78-.39s.16.16.06.55-.11.44.39-.05a5.68,5.68,0,0,1,.71-.66l.45-.16A9.84,9.84,0,0,0,21.49,65a5.78,5.78,0,0,1-.44.94,2.6,2.6,0,0,0-.39,1.2,2.13,2.13,0,0,0,.28.82,1.51,1.51,0,0,1-.12-1.1,1.18,1.18,0,0,1,.55-.87l.67-.56.22.56.46-.76a7.94,7.94,0,0,0,.39-.83l.22-.66s0,.16.39.54.78.56,1.05,1a4.91,4.91,0,0,1,.5,1.35L25.5,66s.16-.09.72.39.38.55.84.88.16-.16,0-.55-1-1-1.12-1.32a15.42,15.42,0,0,0-1.07-1.15,1.6,1.6,0,0,1,1,.12A3.08,3.08,0,0,1,27,64.9a2.74,2.74,0,0,1,.43.6s.46,1.31.46,0c0-.44-.18-.44.43.06a1.79,1.79,0,0,0,1.17.44,2.29,2.29,0,0,1-1.05-.83c-.39-.6-.66-1.1-1.39-1.31a2.3,2.3,0,0,1-2-2,29.24,29.24,0,0,1-.12-6.09,7.46,7.46,0,0,1,.85-3.24A3.13,3.13,0,0,1,27.1,51.3a3,3,0,0,1,1.35-.39l.28-.08a2,2,0,0,0,.38.05L29,50.74c2.72-.83.7-.45-.21-.27l-.1-.1A7.49,7.49,0,0,0,30,50.25l-.16,0a1.82,1.82,0,0,0-1.33-.12l-.51.16v0s0,0-.06,0l1.18-.85a2.83,2.83,0,0,1,.85-.44,1.84,1.84,0,0,1,.65-.16,1.39,1.39,0,0,0,.57-.12,2.86,2.86,0,0,0,1.06-.87,1.23,1.23,0,0,0,.61-.26,1.57,1.57,0,0,0,.44-.94,4.4,4.4,0,0,0-.78.5m-13,3.25s-.4,0-1-.06l-.42-.29a1.78,1.78,0,0,0-.8-.2c.36-.13.8-.35.8-.35l.09-.31a4,4,0,0,1,.68.58.18.18,0,0,0,.12,0,.11.11,0,0,0,.08,0l0,.05a2.48,2.48,0,0,0,.44.57h0m4.12-1.45c.05.39,0,.94.05,1.43s.27,1.37-.5.38-.95-1-1.12-1.53a3.83,3.83,0,0,0-.46-.87.16.16,0,0,0,.06-.12s0-.67,0-1.27a1.45,1.45,0,0,0,.5-.2s.15.13.52.27a2.27,2.27,0,0,0,1.06.21.55.55,0,0,0,.21.24.11.11,0,0,0,.07,0H24a3,3,0,0,0-.43,1.44m6.24-.24-.16.07.22-.2,0,.09-.1,0"/><path d="M42.49,8.52,41,6.93l1.84-.55s0,0,.39-.48A1.51,1.51,0,0,0,43,3.76C40.4,1.46,31.78.3,24.5,0S8.18,2.22,6.62,3.42,6.4,5.35,6.4,5.35L6.62,6.5l0,0,2.2.06-2,2v.12s.41.48.34.71-.89.49-.66,1,2.06,1.15,2.06,1.15a60.35,60.35,0,0,0,16,2c8.36,0,16-1.81,17.26-2.41s.44-1.43.44-1.7a6.46,6.46,0,0,1,.18-1m-8-4.26c.9.13,1.6.6,1.53,1.06s-.85.71-1.78.58-1.6-.6-1.54-1.05.86-.72,1.79-.59m-10-1.71,2.94,1.81L24.61,5.74,21.54,4.25ZM15,4.41c.93-.1,1.7.19,1.75.65S16.1,6,15.17,6s-1.7-.19-1.75-.64.65-.89,1.57-1m24.21,7a62.11,62.11,0,0,1-14.48,1.81,97.34,97.34,0,0,1-14.37-1.65s-3.91-.65-.23-1.52A49.47,49.47,0,0,1,24.61,8.2a61.09,61.09,0,0,1,14.48,1.86s3.74.44.11,1.31" style="fill-rule:evenodd"/><path d="M0,29.28H48.57V18.67H0Zm7-3.21a2,2,0,1,1,2-2,2,2,0,0,1-2,2m6.94,0a2,2,0,1,1,2.05-2,2,2,0,0,1-2.05,2m7,0a2,2,0,1,1,2-2,2,2,0,0,1-2,2m6.94,0a2,2,0,1,1,2-2,2,2,0,0,1-2,2m7,0a2,2,0,1,1,2-2,2,2,0,0,1-2,2m6.95,0a2,2,0,1,1,2-2,2,2,0,0,1-2,2" style="fill-rule:evenodd"/></svg>