<svg xmlns="http://www.w3.org/2000/svg" viewBox="0 0 84.22 15.41"><path d="M25.33,7.61a2.21,2.21,0,0,0,.36-1.25,2.5,2.5,0,0,0-.27-1.22,2.32,2.32,0,0,0-.72-.77,2.88,2.88,0,0,0-1-.4,6.07,6.07,0,0,0-1.12-.11H19.24v7.68h2.52V8.8h.08l1.47,2.77h3L24.34,8.44A2.26,2.26,0,0,0,25.33,7.61ZM23.06,6.8a.87.87,0,0,1-.23.2.75.75,0,0,1-.29.09l-.29,0h-.51V5.87h.62l.26,0a1,1,0,0,1,.26.08.47.47,0,0,1,.19.18.58.58,0,0,1,.08.32A.54.54,0,0,1,23.06,6.8ZM33.31,4.72A4.11,4.11,0,0,0,32,3.92a4.74,4.74,0,0,0-1.7-.29,4.67,4.67,0,0,0-1.7.29,3.92,3.92,0,0,0-1.36.8A3.59,3.59,0,0,0,26.29,6,4.25,4.25,0,0,0,26,7.66a4.42,4.42,0,0,0,.32,1.69,3.7,3.7,0,0,0,.9,1.3,3.83,3.83,0,0,0,1.36.83,4.67,4.67,0,0,0,1.7.3,4.75,4.75,0,0,0,1.7-.3,4.18,4.18,0,0,0,1.36-.83,4,4,0,0,0,.9-1.3,4.42,4.42,0,0,0,.32-1.69A4.08,4.08,0,0,0,34.21,6,3.86,3.86,0,0,0,33.31,4.72ZM31.66,8.35a1.58,1.58,0,0,1-.33.55,1.48,1.48,0,0,1-.48.35,1.46,1.46,0,0,1-.6.12,1.56,1.56,0,0,1-.62-.12,1.3,1.3,0,0,1-.48-.35,1.72,1.72,0,0,1-.31-.55,2.17,2.17,0,0,1-.11-.69A2.11,2.11,0,0,1,28.84,7a1.37,1.37,0,0,1,.79-.86A1.56,1.56,0,0,1,30.25,6a1.46,1.46,0,0,1,.6.12,1.58,1.58,0,0,1,.48.33,1.41,1.41,0,0,1,.33.53,2.15,2.15,0,0,1,.11.68A1.92,1.92,0,0,1,31.66,8.35Zm6.41-1.89a1.51,1.51,0,0,1,.49-.33,1.8,1.8,0,0,1,1.34,0,1.34,1.34,0,0,1,.54.43L42,4.69a3.82,3.82,0,0,0-1.33-.77A4.73,4.73,0,0,0,39,3.62a4.5,4.5,0,0,0-1.64.3A4.12,4.12,0,0,0,36,4.74,3.92,3.92,0,0,0,35.15,6a4.25,4.25,0,0,0-.32,1.67A3.91,3.91,0,0,0,36,10.63a3.89,3.89,0,0,0,1.33.83,4.5,4.5,0,0,0,1.64.3,4.27,4.27,0,0,0,1.73-.32A3.78,3.78,0,0,0,42,10.61l-1.59-1.9a1.64,1.64,0,0,1-.5.43,1.56,1.56,0,0,1-1.85-.26,1.35,1.35,0,0,1-.34-.52,1.65,1.65,0,0,1-.13-.68A1.7,1.7,0,0,1,37.74,7,1.49,1.49,0,0,1,38.07,6.46Zm20.86-2.6L58.1,8.18h0l-1-4.32H54.38l-.89,4.32h0l-.83-4.32H46.91l-2,2.83h0V3.86H42.33v7.7h2.52V8.49h0l2.05,3.07h3.19l-3-4.18L49.9,3.93,52,11.56h2.6l1.13-4.35h0l1.08,4.35h2.61l2.14-7.7Zm9.61.86a4.11,4.11,0,0,0-1.36-.8,5.16,5.16,0,0,0-3.41,0,4,4,0,0,0-1.35.8A3.72,3.72,0,0,0,61.52,6a4.25,4.25,0,0,0-.32,1.67,4.42,4.42,0,0,0,.32,1.69,3.7,3.7,0,0,0,.9,1.3,3.88,3.88,0,0,0,1.35.83,5,5,0,0,0,3.41,0,4.18,4.18,0,0,0,1.36-.83,4,4,0,0,0,.9-1.3,4.42,4.42,0,0,0,.32-1.69A4.08,4.08,0,0,0,69.44,6,3.86,3.86,0,0,0,68.54,4.72ZM66.87,8.35a1.56,1.56,0,0,1-.32.55,1.48,1.48,0,0,1-.48.35,1.46,1.46,0,0,1-.6.12,1.56,1.56,0,0,1-.62-.12,1.3,1.3,0,0,1-.48-.35,1.72,1.72,0,0,1-.31-.55A2.17,2.17,0,0,1,64,7.66,2.11,2.11,0,0,1,64.06,7a1.37,1.37,0,0,1,.79-.86A1.56,1.56,0,0,1,65.47,6a1.46,1.46,0,0,1,.6.12,1.58,1.58,0,0,1,.48.33,1.39,1.39,0,0,1,.32.53,2.15,2.15,0,0,1,.11.68A1.92,1.92,0,0,1,66.87,8.35ZM77.38,4.72A3.92,3.92,0,0,0,76,3.92a5.13,5.13,0,0,0-3.4,0,4.11,4.11,0,0,0-1.36.8A3.69,3.69,0,0,0,70.37,6,4.25,4.25,0,0,0,70,7.66a4.43,4.43,0,0,0,.33,1.69,3.81,3.81,0,0,0,.89,1.3,4,4,0,0,0,1.36.83,5,5,0,0,0,3.4,0,3.89,3.89,0,0,0,2.27-2.13,4.42,4.42,0,0,0,.32-1.69A4.08,4.08,0,0,0,78.29,6,3.88,3.88,0,0,0,77.38,4.72ZM75.73,8.35a1.56,1.56,0,0,1-.32.55,1.48,1.48,0,0,1-.48.35,1.51,1.51,0,0,1-.61.12,1.54,1.54,0,0,1-.61-.12,1.3,1.3,0,0,1-.48-.35,1.56,1.56,0,0,1-.32-.55,2.17,2.17,0,0,1-.11-.69A1.87,1.87,0,0,1,72.91,7a1.28,1.28,0,0,1,.32-.53,1.37,1.37,0,0,1,.48-.33A1.54,1.54,0,0,1,74.32,6a1.51,1.51,0,0,1,.61.12,1.58,1.58,0,0,1,.48.33,1.39,1.39,0,0,1,.32.53,2.15,2.15,0,0,1,.11.68A1.92,1.92,0,0,1,75.73,8.35Zm5.93,1V3.86H79.05v7.71h5.17V9.33ZM0,15.41H15.41V0H0ZM8.28,3.86h1l4.61,7.7H10L8.28,8.67Zm-2.12,0h1V8.67L5.4,11.56H1.54Z"/></svg>