<svg xmlns="http://www.w3.org/2000/svg" viewBox="0 0 73.11 17.02"><path d="M27.91,3.1H24.28v.8h1.31V7.17h1V3.9h1.3ZM30,5.43h1.47v-.8H30V3.9H31.7V3.1H28.94V7.17h2.85v-.8H30Zm5-.36L36.82,3.4,36,3,34.1,4.86V3.1h-1V7.17h1V5.32l2.11,1.95.9-.43Zm5.94.71-2-2.68h-1V7.17h1V4.48l2,2.69h1V3.1h-1ZM45.2,3a2.14,2.14,0,1,0,2.2,2.13A2.13,2.13,0,0,0,45.2,3Zm0,3.48a1.2,1.2,0,0,1-1.15-1.35,1.17,1.17,0,1,1,2.31,0A1.2,1.2,0,0,1,45.2,6.48ZM49.54,3.1h-1V7.17h2.76v-.8H49.54ZM54.15,3a2.14,2.14,0,1,0,2.2,2.13A2.13,2.13,0,0,0,54.15,3Zm0,3.48A1.2,1.2,0,0,1,53,5.13a1.17,1.17,0,1,1,2.31,0A1.2,1.2,0,0,1,54.15,6.48Zm5.32-2.7a1.54,1.54,0,0,1,1.14.37l.7-.58A2.61,2.61,0,0,0,59.47,3a2.19,2.19,0,0,0-2.29,2.2,2.19,2.19,0,0,0,2.29,2.07,2.5,2.5,0,0,0,1.84-.71V5.1h-1V6.25a1.3,1.3,0,0,1-.82.23A1.25,1.25,0,0,1,58.23,5.2,1.27,1.27,0,0,1,59.47,3.78Zm3.1,3.39h1V3.1h-1Zm4.18-2.44-.31-.14c-.3-.14-.58-.24-.58-.47s.24-.38.58-.38a1,1,0,0,1,.74.31l.65-.58A2.05,2.05,0,0,0,66.44,3c-.82,0-1.62.47-1.62,1.12s.53.94,1.23,1.25l.31.14c.3.13.56.27.56.54a.56.56,0,0,1-.61.48,1.2,1.2,0,0,1-.91-.41l-.69.64a2.19,2.19,0,0,0,1.52.51c1,0,1.73-.58,1.73-1.29S67.49,5.06,66.75,4.73ZM71,5.07,72.82,3.4,72,3,70.1,4.86V3.1h-1V7.17h1V5.32l2.11,1.95.9-.43ZM25.57,14h.66V9.88h-.66Zm5.31-1-2.4-3.06h-.64V14h.64V10.9L30.88,14h.64V9.88h-.64Zm3.69-1.26-.3-.13c-.44-.2-.74-.37-.74-.68s.37-.58.78-.58a1.18,1.18,0,0,1,.78.31l.44-.38a1.72,1.72,0,0,0-1.18-.4c-.76,0-1.47.46-1.47,1s.52.9,1.08,1.15l.31.14c.48.21.73.39.73.71a.73.73,0,0,1-.78.67,1.15,1.15,0,0,1-.94-.47l-.51.41a1.83,1.83,0,0,0,1.37.54,1.38,1.38,0,0,0,1.52-1.18C35.66,12.23,35.09,11.92,34.57,11.68Zm1.91-1.29h1.31V14h.64V10.39h1.3V9.88H36.48ZM41,14h.66V9.88H41Zm1.89-3.57h1.3V14h.64V10.39h1.31V9.88H42.84Zm7.34,1.87a1.2,1.2,0,1,1-2.4,0V9.88h-.64v2.38a1.84,1.84,0,0,0,3.68,0V9.88h-.64Zm1.69-1.87h1.3V14h.65V10.39h1.3V9.88H51.87Z"/><path d="M0,0V17H17V0ZM13.37,5.28c.06,0,0,0,0,0Zm-.09,0s0,0,0,0h0Zm-.16,0c.05,0,0,0,0,0ZM13,5.13s0,0,0,0,0,0,0,0Zm-.11,0s0,0,0,0Zm-.16,0s-.07,0-.07-.05S12.8,5.06,12.75,5.11Zm-.14,0s.06,0,0,.07S12.56,5.15,12.61,5.12ZM12.53,5c0,.1.05.32-.11.27A.21.21,0,0,1,12.53,5Zm-.34-.14s0,0,0,0S12.14,4.83,12.19,4.82ZM12,4.68s0,0,0,.06S11.89,4.67,12,4.68Zm-.2.05c.12.1.2.08.29.18s-.22-.13-.28,0-.07,0-.11-.07S11.74,4.72,11.81,4.73Zm-.44-.17c.16,0,.5.21.19.17S10.9,4.5,11.37,4.56Zm-.27-.12s.07,0,0,.06S11.06,4.45,11.1,4.44Zm0,.24c0,.06,0,0-.06,0h0S11.09,4.68,11.11,4.68ZM11,4.48s0,0,.06,0,0,0,0,0S10.86,4.55,11,4.48ZM11,4.62s0,.06,0,.06S10.92,4.64,11,4.62Zm-.13,0c-.08,0-.11-.1,0-.11s.08,0,.09,0S10.83,4.51,10.83,4.58Zm0,.06a0,0,0,0,1,0,0h0Zm-.22-.36c.08,0,.14,0,.19.1h0S10.59,4.35,10.65,4.28Zm0,.22s-.06,0-.09,0S10.82,4.41,10.7,4.5Zm.2.27s-.08,0-.11,0-.16,0-.23-.08,0-.1,0-.14C10.63,4.79,10.84,4.63,10.9,4.77Zm-.35-.49s0,0,0,.07l-.05.05C10.32,4.43,10.4,4.23,10.55,4.28Zm-.26-.09h0l0,0Zm-.17-.09s0,0,0,0,0,.06-.05,0S10.11,4.12,10.12,4.1Zm-.22.11s-.05,0-.07,0C9.66,4,10.46,4.36,9.9,4.21ZM10,4.15s0,0,0-.06S10.12,4.1,10,4.15Zm-.17-.09c0,.07,0,0-.08,0A0,0,0,0,1,9.86,4.06Zm.2.26c-.09,0-.14.06-.2,0a.2.2,0,0,1-.12-.06A.53.53,0,0,1,10.06,4.32ZM9.62,4s0,0,0,0Zm0,0s.11,0,.05.06S9.56,4,9.61,4ZM9.53,4h0Zm.07.27s-.1,0-.15,0C9.28,4.05,9.76,4,9.6,4.24Zm-.19,0c.1,0,.08.12,0,0Zm0-.3c0,.06-.07.06,0,0S9.37,4,9.38,4Zm-.1,0a.13.13,0,0,1,0-.06S9.32,4,9.28,4ZM9,3.88s.1,0,.1,0,0,0,0,0S8.93,4,9,3.88Zm-.08,0c0,.09-.11.06-.14,0S8.89,3.86,8.93,3.86ZM8.85,4s0,0,0,0-.06,0-.06,0S8.83,4,8.85,4ZM7.09,3.73s0,.06-.08.08,0-.06-.08,0,0,0,0,0S7,3.77,7.09,3.73Zm-.22,0v0c-.07,0-.19.1-.18,0S6.81,3.77,6.87,3.76ZM5.06,6.6s0,0,0,0H5S5.05,6.59,5.06,6.6Zm0-2.21s0,0,0,0S5.1,4.41,5.08,4.39Zm.06,2.35s0,0,0,0S5.21,6.73,5.14,6.74Zm0,.07h0s-.1.06-.15.08S5.15,6.85,5.17,6.81Zm.06-.25s0,.05,0,.05S5.18,6.56,5.23,6.56Zm0,.1h0Zm0-2.3h0Zm0-.09v0S5.22,4.29,5.2,4.27Zm0,0s0,0,0,0S5.19,4.27,5.17,4.25ZM5,4s-.11.07-.08,0ZM5,6.74v0h0S5,6.73,5,6.74ZM4.86,4.16s-.11.06-.08,0Zm0,2.49s0,0-.06,0h0A.06.06,0,0,1,4.86,6.65Zm-.09.14s0,0-.07,0A.06.06,0,0,1,4.77,6.79Zm-.18,0a.05.05,0,0,1,0,0C4.51,6.78,4.56,6.72,4.59,6.75Zm-.14,0s0,.06,0,0h0c-.05,0-.1,0-.14,0S4.41,6.76,4.45,6.78Zm0,.11a.05.05,0,0,1,0,0C4.43,6.92,4.47,6.85,4.5,6.89ZM4.25,7c-.08,0,.07-.1.11-.07s0,0,0,0h0a.11.11,0,0,1-.08,0s0,0,0,0V7A.06.06,0,0,0,4.25,7Zm-.2.08c.08,0,.06-.09.09-.13s.08-.12.14-.08-.06,0,0,.07,0,.05-.06.07-.06,0,0,.07-.1.07-.14.13A.61.61,0,0,1,4.05,7.07ZM4,7.24s0,0,0,0S4,7.2,4,7.24Zm0,2H4s0,0,0,0Zm0-.15s0,0-.06,0,0,0,0,0S3.93,9.05,4,9.07Zm-.09.13s0,0,0,.05,0,0,0,0S3.84,9.19,3.86,9.2Zm-.24,0s0,0,0,0H3.58A0,0,0,0,1,3.62,9.21Zm0,.08s0,0,0,0S3.63,9.29,3.65,9.29Zm-.11,0s0,0,0,0-.07,0-.08-.09S3.48,9.33,3.54,9.31Zm0,.06a.05.05,0,0,1,0,0S3.55,9.33,3.55,9.37Zm-.35,0a.81.81,0,0,1,.22-.07c0,.08-.16,0-.22.08ZM3,9.62s0,0,0,0S3,9.62,3,9.62Zm0-.08s0,0,0,0S3,9.52,3,9.54Zm-.11,0c0,.05-.1,0-.06,0Zm0,.15s0,0,0,0,0,0,0,0,0,0,0,0h0l0,0h0l0,0S2.84,9.66,2.87,9.69Zm-.12,0s0,0,0-.05l.07,0S2.77,9.7,2.75,9.71Zm0,.06s0,0,0,.05,0,0-.06-.05S2.76,9.76,2.79,9.77Zm-.11-.21h.08c0,.06,0,0-.08,0Zm-.09.14h0s0,0,0,0,0,0,0,0h0s0,.06,0,0,0,0,0,0v0h0Zm0,.11s0,0,0,0S2.62,9.84,2.61,9.81Zm-.06-.1v0h0S2.54,9.72,2.55,9.71Zm0,.09s0,.07,0,.1,0,0,0,0h0S2.51,9.75,2.57,9.8Zm-.07,0s0,0,0,0h0S2.48,9.73,2.5,9.76Zm-.12,0s0,0,0,0,0,0,0,0-.06,0-.1,0Zm-1.15,5s0,0,0,0S1.25,14.7,1.23,14.7Zm.08-.14s0,0,0,0S1.37,14.54,1.31,14.56Zm.33,0,0,0h0Zm.09-.13v0h0Zm.1,0h0S1.82,14.51,1.83,14.46Zm.09-.13,0,0S1.9,14.37,1.92,14.33Zm.71-.21s0,0,0,0S2.71,14.12,2.63,14.12ZM2.77,14s0,0,0,0S2.75,13.9,2.77,14Zm0,.08s0,0,.07,0S2.72,14.15,2.74,14Zm.09-.14s0,0,.06,0S2.81,14,2.83,13.89Zm1.35-.35s0,0,0,0S4.21,13.55,4.18,13.54Zm.09-.13s0,0,0,0S4.29,13.41,4.27,13.41Zm.93-.09s0,0,0,0S5.23,13.35,5.2,13.32Zm.09-.14s0,0,0,0S5.31,13.22,5.29,13.18ZM9.22,12a14.89,14.89,0,0,1-2.81,1c-.23,0-.51.13-.75.17s-.37-.1-.56,0v0c-.23,0-.41.12-.73.19,0-.09-.09,0-.14,0s-.13,0-.11.08a.3.3,0,0,0-.26.09c-.22.15-.37.07-.57.17v0a.11.11,0,0,1-.14,0s.08,0,.05-.07a.14.14,0,0,0-.09.05.15.15,0,0,1,0,.13s-.07.06-.11.08,0,0-.06,0,.15-.11.16-.19a5.33,5.33,0,0,0-.56.32c-.07,0-.09.16-.13,0s-.1.28-.12.07a1.32,1.32,0,0,0-.25.16c0-.06-.09,0-.06,0a.14.14,0,0,0-.18.1c-.07-.05-.13.06-.19,0-.28.31-.33-.19-.56,0,0-.09,0-.2,0-.28.05-.31.39-.42.44-.64,0,0,0,0,0,0s0,0,0,0,.23-.17.29-.26.52-.34.64-.54a16.86,16.86,0,0,1,2.52-1.52c.07,0,.1-.06.17-.05s.17,0,.23-.11.14-.08.22-.08,0,0,0,0a2.28,2.28,0,0,1,.78-.31c0-.06.13,0,.17-.06a.24.24,0,0,0,.16-.05,5.34,5.34,0,0,0,1-.21v0h0v0c.51-.06,1.07-.2,1.59-.23.15-.08.36.1.5,0,.06.06.09.12.18.13s.22.82.19.85a5.49,5.49,0,0,0-.7.17C9.42,11.51,9.66,11.89,9.22,12Zm-6.6-.44s0,0,.06,0,.12,0,.15.07-.13.1-.21.1S2.73,11.59,2.62,11.51Zm.12.22c-.07,0-.13.09-.2.1s.1-.1,0-.18a.09.09,0,0,1,.07,0C2.59,11.76,2.72,11.69,2.74,11.73ZM15.5,7.81c-.12.06-.29,0-.44,0-.9-.85-.36,2.18-1.78.76a2,2,0,0,0-.59-.16c-.36-.05-.83-.07-1.23-.1,0,0,.08,0,.11,0s.07,0,.14,0,.19,0,.15.11.11.06.19.05a.3.3,0,0,0,.13.09,1.86,1.86,0,0,1,.07.34c-.19.09-.44.07-.63.17,0,0,.11.42.11.44s.08.3.08.3c-.3.07-.66.28-.89.23h-.23a3,3,0,0,0-.65-.06c0-.05-.12,0-.16-.05A7.32,7.32,0,0,0,8,10.13c-.63,0-1.28.3-1.92.3-.13,0-.17.1-.28,0,0,.12-.1,0-.16.07s-.08,0-.13,0a.07.07,0,0,1-.08.05c0-.12-.1.12-.2,0s-.17,0-.25.07,0,0,0,0-.17,0-.1.14a1,1,0,0,0-.73.27s-.1,0-.17,0-.2.25-.3.16c-.38.43-.9.16-1.3.33,0,0,0,0,0-.06h0c0-.08-.08-.2-.06-.29s-.09.08-.15,0c.12-.24.45-.48,0-.25,0-.05-.09,0-.12,0a.47.47,0,0,0,.12-.19s0-.07,0-.1,0-.14-.05-.24a1.47,1.47,0,0,1,0-.36c0-.09.2-.34.19-.17l0,0s0,0,0,0h0s0,0,0-.05h0l0,0v0h0s-.11,0-.12.11.07,0,.11,0,0-.05,0,0,.09-.07.16-.08l0,0a.44.44,0,0,0,.15-.05s0,0,0,0h0l.06,0s0,0,0,0a0,0,0,0,1,0,0c.11-.08.32-.1.36-.26l0,0s-.11,0-.16,0h0a.63.63,0,0,1,.22-.07v0l.07,0s-.05-.05-.05-.07.15,0,.28,0,.09,0,.08-.09a.51.51,0,0,0,.24-.07c0,.07-.1.06-.13.12s.06,0,.09,0,0,.05.07,0,0,0,0,0,.12-.06.18-.07,0,0,0,0,.31-.12.44-.19.08,0,.1-.06c-.14,0-.24.12-.38.11s.14-.06.18-.12h0a.1.1,0,0,0,.09,0h0l0,0c.15-.11.3,0,.42-.15s0,0,0,0H5l0,0a1.07,1.07,0,0,1,.19-.07c0-.06.11,0,.13,0h0a.13.13,0,0,1,.09,0v0h0c.07,0,.16,0,.22-.08h0s0,0,0,.06-.12,0-.17,0-.16,0-.12.07h.07c0,.14.13,0,.2.07s.08-.05.13-.05.07,0,.09,0a0,0,0,0,0,0,0c.29-.09-.37.24-.39.22s.11,0,.11-.12-.21.06-.17.16,0,.08-.1.08,0-.08.06-.13a1.43,1.43,0,0,0-.63.21s.1,0,.08,0-.29,0-.4.16c0,0-.06-.08,0-.11s0-.07-.09,0c.06.22-.33.17-.44.28.07.05,0,.14-.06.18A13,13,0,0,0,5,9.4c-.14,0,0-.05,0-.09s0,.07,0,.09a2,2,0,0,1,.36-.1.73.73,0,0,0,.51-.22s.1,0,0,0A.76.76,0,0,0,6.39,9c.16-.09.45-.06.61-.18l0,0c-.07,0,0-.1,0-.09v0l0,0s0,0,.06,0,.25,0,.31-.07.07,0,.1,0a.41.41,0,0,0,.09-.1s-.09,0-.12,0a1,1,0,0,0-.38.06s0-.09,0-.13H7s-.08,0-.11,0-.05.09-.06,0a0,0,0,0,1,0,0s-.55.14-.15,0A1.23,1.23,0,0,1,7,8.45s.06,0,.09,0,.12,0,.09.06h0s-.05,0-.06,0,.16,0,.12-.06l0,0v0c.09,0,.17-.07.25,0a.05.05,0,0,1,0,0c.06,0,.17,0,.18,0,.31,0,.09.06.08.17s.31.1.13,0c0-.11.15-.25.25-.18a1.18,1.18,0,0,1,.46,0c0,.14.87-.27.15-.24,0,.05,0,.08,0,.05s0-.07,0-.11-.34,0-.31,0l0,0,0,0s0,.07,0,.11-.12-.12-.2-.17v0s0,0-.05,0,0,.08,0,0,0,0-.05,0-.06,0,0-.1-.08.1-.15.05l-.06,0,0,0c-.07-.1,0,.06-.16,0s-.1,0-.16,0,0,0,0,0-.06.1-.11.05,0,0,0,0-.12-.13,0-.19c0,0-.08,0-.13,0s-.13,0-.2,0a4.68,4.68,0,0,1-.77.09l-.19,0a.07.07,0,0,0-.09,0c0,.05-.08.05-.12.05s0-.05,0-.09L6,8s0,0,0,.05S6,8,5.94,8s-.1.1-.14.16a.09.09,0,0,0-.09,0c-.23,0,0-.18-.28-.09,0,0-.12,0-.1.07s-.1.08-.13,0c0,.07-.1,0-.13.05S5,8.19,5,8.22s.1.06,0,.08-.08-.06-.13,0c-.06-.16-.1-.06-.11.05s-.07.07-.1,0,.16,0,.07-.09-.29,0-.26.1c0-.16-.13,0-.23-.06v0s0-.1.05-.1,0,0,0-.07.15-.07.23-.1c-.18-.07-.29,0-.42.1-.11-.12.2-.29-.16-.28.07,0,0-.15.09-.2s0-.18.1-.23c-.29,0,0-.24,0-.39h0a.07.07,0,0,1,0,.06c.26,0,.51-.21.8-.24,0,.06-.13,0-.17.09S4.93,7,5,7s.09,0,.12,0h0a.1.1,0,0,1-.05,0,1,1,0,0,1,.29-.11s.12,0,.15-.07.34-.12.53-.08c0-.06.11.06.12,0s0,0,0,0,0,0,.06,0l0,0s0,.05,0,.09-.21,0-.23.08.13-.06.21,0,.1,0,.12,0,0,0,.06,0h0s0,0,0,0a.27.27,0,0,0-.21,0s-.12,0-.15,0C6.19,7,6,7.07,6,7c-.11.26-.48.14-.69.3a2.83,2.83,0,0,0,.77-.15c.06,0,.29-.16.34-.07h0s0,0,0,.06.28-.09.42-.06h0s0,0,.06,0,.13.07.22,0L7.06,7a0,0,0,0,1,0,0h0s.09,0,0,0S7,7,7,7L7,7h0S7,7,7,7l0,0s.12,0,.14,0a.16.16,0,0,0,.1,0s0,0,0,0a.08.08,0,0,0,0,0l-.07,0s0,0,0,0-.14,0-.19,0-.07,0-.08,0-.09.08-.13,0-.39.06-.13,0h0c0-.05.06,0,.07-.07s.09,0,.13,0h0a.9.9,0,0,1,.36-.08,0,0,0,0,1,0,0h0s0,.07,0,.11l0,0s-.09,0-.11.06,0,0,0,0a.07.07,0,0,0,0,0l.18,0s0-.06.07-.07c-.2,0,.11-.06.15,0h0s.11,0,.16,0a1.29,1.29,0,0,1,.34,0c.19-.11,0,0-.05-.1a0,0,0,0,1-.08,0c.21-.1.47,0,.71,0,0,0-.32,0-.17.07,0,0,0,0,.08,0s1.06.09.62-.09c0-.07-.1,0-.13-.08h0c.07,0,.18,0,.24.06s.33.09.17.14c0,.09.15,0,.22,0s.27.11.35,0,.33.07.41,0,.34.09.49,0c-.08-.14-.18-.09-.32-.16s-.14,0-.15-.13c-.14.07-.4-.14-.41-.32-.07,0,0-.2-.09-.08-.09-.08.1,0,0-.09s-.08,0-.08,0S9.8,6.05,9.8,6a.52.52,0,0,0-.18,0c0-.06,0-.05-.09-.06l0,0s-.07,0-.08,0a.51.51,0,0,0-.35-.3C9,5.72,9,5.54,9,5.49s-.11-.09-.17,0,0-.06-.08,0-.06,0-.06-.09-.06,0-.09,0-.16,0-.14-.09a.26.26,0,0,0-.27,0s.06,0,0-.08l.06-.08s.1,0,.14,0S8.23,5,8.14,5s-.07,0-.08,0c-.23-.08-.47-.21-.72-.31A2.73,2.73,0,0,1,7,4.59c-.06-.13-.1,0-.15,0,.07-.2-.29-.24-.39-.32s-.22,0-.25-.09-.1,0-.14,0c-.05-.11-.15,0-.21-.08S5.65,4,5.59,4.06s-.07-.06,0-.12c-.15-.08-.36.12-.5,0a3.66,3.66,0,0,1,.73-.16c.19.06,1-.23.73.06a0,0,0,0,0,0,0s0,0,.08,0v0a.12.12,0,0,1,.1,0c.07-.11.21,0,.3,0a.05.05,0,0,1,0,0c.16.07.18,0,.18-.16s0,0,.06,0a1.75,1.75,0,0,1,.57,0s0,0,0,.07.08,0,.11,0l-.05,0c.08,0,.26,0,.29.06s-.12,0-.17,0S8,4,8.08,4s0,0,0,0,.08-.1,0-.19,0,0,0,0c.07.22.12.25.19,0,.08,0,.2,0,.29,0s-.06,0-.05.07c-.09-.13-.29.1-.09.08,0,0,0,.08,0,.12S8.58,4,8.6,4s.09,0,0,.08.19-.11.17,0,.12-.06.16,0l0,0a.13.13,0,0,0-.12,0c.08-.17.35,0,.46,0s-.07.08-.12.06,0,0,0,.07-.14,0-.1-.07a.12.12,0,0,0-.1,0L9,4.2c-.12,0,.55.27.59.16s.25-.06.18.06a.21.21,0,0,0,.11,0,.2.2,0,0,1,.18,0s0,0,0,0,.16,0,.17,0-.13,0-.11-.11.09-.1.14,0h0s0,.09.06.11l0,0s-.06,0-.08,0c0,.18.14.08.22.16a.07.07,0,0,0-.06,0c.06,0,0,.1,0,.08s.06.2.15.07c0,.12.21.14.24,0a.13.13,0,0,0,0,.06s0,0,.05,0,.16.1.24.13,0-.09-.06-.06V5c-.06,0-.22-.06-.16-.15H11c-.05-.06.28,0,.25.09.06-.09.15,0,.2,0s.09.06.15,0a1.28,1.28,0,0,0-.36-.22c.27-.14.52.32.78.19,0,.09.06.1.11.14,0-.31.39-.21.28.06-.34.14,1,.27.63.13a.79.79,0,0,1,.31.14.19.19,0,0,1,.28,0l0,0c.58.06,1,.59,1.47.77a1.78,1.78,0,0,1,.48.51c0,.11.17.12.16.25A.45.45,0,0,1,15.5,7.81ZM3.11,9.62s0,0,0,0h0s0,0,0,0Zm1.11-.51c0,.06,0,.06-.07.09s-.1.06-.11,0S4.15,9.13,4.22,9.11Zm-.16,0h0S4.06,9.07,4.06,9.07Zm.16-.43s0,0,0,0Zm.32,0h0l0,0S4.56,8.6,4.54,8.6Zm.06.29-.06,0v0S4.6,8.86,4.6,8.89Zm.07-.29h0S4.72,8.57,4.67,8.6Zm0,.24a0,0,0,0,1,0,0v0Zm.12-.39,0,0C4.82,8.58,4.78,8.54,4.81,8.45Zm.07.44H4.81S4.89,8.84,4.88,8.89ZM5,8.72s0,0,0,0S4.93,8.73,5,8.72Zm0-.17s0,0,0-.07S5,8.56,4.93,8.55Zm0-.14s0-.07,0-.1l0,0S4.94,8.4,4.92,8.41ZM5,8.34h.1a0,0,0,0,1,0,0s0,0,0,0h0l0,0H5s0,0,0,0A0,0,0,0,0,5,8.34Zm.14-.07s0,0,0-.07h.09S5.15,8.22,5.17,8.27Zm0,.2s0-.06,0-.1A.05.05,0,0,1,5.21,8.47Zm-.1.22s0,0,0,0,0,0,0,0Zm.26-.27c-.13,0-.08-.11-.08-.19s0,.09.07.09S5.39,8.37,5.37,8.42Zm.09-.14c-.1,0-.12-.14-.06-.14s0,0,0,0S5.48,8.24,5.46,8.28Zm-.09.2a0,0,0,0,1,0,0h0A0,0,0,0,1,5.37,8.48Zm-.08.13h0a.17.17,0,0,1,.12,0c0,.06-.1,0-.12.06s0,0,0,0h0S5.28,8.62,5.29,8.61Zm.18,0h0s0,0,0,0Zm.35-.17s0,.05,0,.08-.11,0-.15,0A.48.48,0,0,1,5.82,8.44ZM5.7,8.37h0v0S5.69,8.39,5.7,8.37Zm.21-.07s0,0,0,.08-.11,0-.16,0l0,0C5.89,8.41,5.84,8.25,5.91,8.3Zm-.13-.07h0S5.77,8.26,5.78,8.23Zm.52.29c0,.07-.17,0,0,0h0s.09,0,0,0Zm.29-.22c.1,0,.23-.06.19.07l0,0a.18.18,0,0,0,0-.1s.08.08,0,.09l.19-.05a0,0,0,0,1,0,0,.12.12,0,0,1-.08,0c0-.05.07,0,.1-.05s.05,0,.06,0,0,0,.06,0,0,.06,0,.08.09,0,.11,0-.1,0-.15,0,0,0-.06,0a.08.08,0,0,1-.07,0H7a.3.3,0,0,1-.13,0l0,0,0,0s-.55.13-.14,0c0,0-.23,0-.23,0h0S6.57,8.34,6.59,8.3Zm0-.09c0-.06.08,0,.1-.05s.23,0,.18.12C6.8,8.19,6.67,8.27,6.58,8.21Zm.33,0a.29.29,0,0,0,0-.13s0,0,.06,0S7,8.2,7,8.25Zm.38,0c-.14.06-.2-.17,0-.13,0,0,0,0,0,0S7.27,8.18,7.29,8.21Zm-.87,0,.08,0s.06,0,0,.07S6.41,8.26,6.42,8.2Zm.19.47v0h0s0-.05,0,0h.07s-.3.14-.25.06.06,0,.09,0S6.58,8.61,6.61,8.67Zm.33,0s-.08,0-.12,0-.09,0-.08,0,0,0,.08,0v0S6.91,8.59,6.94,8.63Zm-.5-.16h0Zm0,0a0,0,0,0,1,0,0S6.45,8.5,6.43,8.47Zm.05.35s0,0,0,0h0s.07,0,.1,0v0a.12.12,0,0,1,.08,0h0s.11,0,.15,0-.15.05-.15,0,0,0-.06,0a.68.68,0,0,1-.24.08S6.45,8.8,6.48,8.82Zm0-.43s-.09,0-.1,0h0s0,0,0,0h.08S6.48,8.35,6.46,8.39Zm-.15.46c0,.06-.14,0-.07,0s-.09,0-.11,0,0,0,0,0h0s0,0,0,0a0,0,0,0,0,0,0c.05,0,.1-.07.16,0s0,0,0,0,0,0,0,0Zm-.19-.14,0,0s0,0,0,0S6.11,8.7,6.12,8.71Zm0-.06h.08S6.07,8.72,6.13,8.65Zm.1,0s0,0,0,.06S6.22,8.65,6.23,8.64Zm.13.06s0,0,0,0S6.33,8.64,6.36,8.7Zm0-.09s0,0,0,0S6.36,8.63,6.35,8.61Zm-.07-.38c0-.05.12,0,.06.07Zm-.09.13s.12,0,.07.07A.16.16,0,0,1,6.19,8.36Zm-.06-.09h0C6.31,8.22,6.21,8.4,6.13,8.27Zm0,.15h0c0,.05-.1,0-.11,0H6S6.14,8.4,6.15,8.42Zm-.05.14s0,0-.07,0S6.09,8.54,6.1,8.56Zm0,.35v0a.21.21,0,0,1,.1,0s0,0,0,0h0l0,0C6.16,9,6.1,8.94,6,9S6.07,8.92,6.11,8.91ZM6,9.05V9C6.07,9,6.09,9.06,6,9.05ZM6,9c-.06,0,0-.06,0,0S6,9,6,9Zm0-.07s0,0,0,0-.06,0,0,0,0,0,0,0H6Zm-.08-.41h0s0,0,.06,0S5.92,8.47,5.91,8.48Zm-.07.22s0,0,0,0S5.72,8.76,5.84,8.7Zm0-.08a0,0,0,0,1,.06,0s0,0,0,0Zm.1.38,0,0C5.85,8.93,6,9,5.91,9Zm-.13-.8h0S5.82,8.18,5.78,8.2Zm0,.41s0,.09,0,.07S5.77,8.63,5.78,8.61Zm-.1,0a0,0,0,0,1,0,0s0,0,0,0Zm0-.26h0C5.66,8.28,5.73,8.32,5.69,8.33Zm0,0s0,0,0,0,0,0,0,0S5.66,8.34,5.67,8.34Zm0,.41s0,0,0,0,0,0,0,0l0,0h0S5.68,8.77,5.7,8.75Zm-.11.09h0C5.58,8.73,5.68,8.83,5.59,8.84Zm0-.1h0S5.57,8.77,5.57,8.74Zm-.06.07s0,.09-.07,0,0,0,0,0ZM5.8,9s0,0,0,0ZM5.68,9c.07,0,0,.06.06.06S5.52,9,5.68,9Zm0,.12s0,0,0,0,0,0,0,0Zm-.07.08c0,.05-.22,0-.06-.06S5.58,9.19,5.65,9.19ZM5,9.25c0-.07.09,0,.12-.08S5,9.3,5,9.25Zm-.27,0c.06,0,.15,0,.22-.06S4.78,9.36,4.73,9.29Zm.13.08s0,.05,0,.05-.12.08-.17,0A.73.73,0,0,1,4.86,9.37Zm-.39.11h0C4.44,9.41,4.52,9.47,4.47,9.48Zm-.09.13s0,0,0,0S4.43,9.61,4.38,9.61Zm-.08,0h0S4.32,9.61,4.3,9.59ZM7.46,8.28s0-.06.08,0l0,0C7.58,8.32,7.49,8.3,7.46,8.28Zm.1.06s0,0,0,0S7.54,8.34,7.56,8.34ZM8,8.23s-.08,0-.07.11c-.1-.11-.17,0-.3-.06s.11,0,.16-.08,0,0,0,0l0,0v.05C7.88,8.24,8,8.18,8,8.23Zm-.08-.06s.05,0,.06,0S8,8.2,7.93,8.17Zm.11,0c.05,0,.11,0,.17,0a.12.12,0,0,1-.06.06S8,8.25,8,8.17Zm.11.1s0,0,0,0h0v0Zm.56-.06s0,0,0,0S8.7,8.25,8.71,8.21ZM5.34,4.14s0,0,0,0h0Zm0,0h0S5.3,4.15,5.29,4.13Zm0,.2h0Zm0,2.2h0Zm0-2.31h0S5.3,4.22,5.29,4.22Zm0,2.62s0,0,0,0v0ZM5.36,4l.07,0S5.39,4,5.36,4Zm0,.16h0Zm0,.11s0,0,0,0,0,0,0,0Zm0,2.4s0,0,0,0h0Zm0,0c.07,0,.06.06,0,.06S5.35,6.75,5.39,6.75Zm.11-.13h0S5.52,6.6,5.5,6.62Zm0,0s0,0,0,0S5.52,6.62,5.53,6.66ZM5.46,4.19s0,0,0,0h0S5.47,4.18,5.46,4.19Zm.16,2.46h0S5.63,6.63,5.62,6.65Zm0,0s0,.07,0,0S5.64,6.7,5.66,6.69Zm-.09-.15s0,0,0,0S5.61,6.55,5.57,6.54Zm0-.06h0S5.61,6.46,5.58,6.48Zm.29.18s-.09,0-.13,0,0,0,0,0S5.84,6.7,5.87,6.66Zm0-.14s0,0,0,0S5.87,6.53,5.86,6.52Zm-.15,0h0S5.71,6.5,5.71,6.51ZM6,6.64H6Zm0-.1s0,0,0,0l0,0S5.94,6.54,6,6.54Zm0-.16s0,0,0,0S6,6.4,5.94,6.38Zm.1.15H6s0,0,0,0Zm0,.08s0,0,0,0v0Zm0-.2s0,0,0,0Zm.09,0h0s0,0,0,0Zm.06.13v0h0s0,0,0,0Zm0-.09h0Zm.09.14a.06.06,0,0,1-.07,0S6.3,6.55,6.33,6.57Zm0-.19v0h0l0,0Zm.17.28h0s0,0,0,0l0,0c-.07,0-.12.06-.18,0a0,0,0,0,1,0,0h0l0,0A.21.21,0,0,1,6.45,6.66Zm-.08-.23h0s0,0,0,0A0,0,0,0,0,6.37,6.43Zm.19.1h0s-.11,0-.18,0S6.51,6.54,6.56,6.53Zm-.1-.23v0h0s0,0,0,0Zm.12.12s0,0-.08,0A.1.1,0,0,1,6.58,6.42Zm0,0v0h0v0Zm.13-.1a.11.11,0,0,1-.08,0A.12.12,0,0,1,6.66,6.28Zm0,0h0Zm0,.38s.07,0,.06,0a.13.13,0,0,0,.12,0c0,.07-.1.07-.15.08s-.09,0,0,0,0,0-.06,0l0-.06h0l0,0S6.66,6.58,6.64,6.62Zm.1-.21s0,0,0,0S6.76,6.43,6.74,6.41Zm0-.08h0s0,0,0,0S6.77,6.34,6.76,6.33Zm0,.2-.07,0C6.7,6.45,6.86,6.48,6.78,6.53Zm0,0s-.06,0,0,0ZM6.49,7h0a0,0,0,0,1,.07,0s0,0,0,.06,0,0,0,0S6.48,7,6.49,7Zm-.1-.13s.13,0,.11,0C6.28,7.09,6,7,6.39,6.9Zm.14-.11s0,0,0,0l0,0s.11,0,.08,0a.11.11,0,0,1,.08,0s.13-.06.15,0-.11,0-.13.08-.11,0-.15,0l0-.06Zm.25-.07,0,0S6.8,6.76,6.78,6.72Zm-.44-.43h0ZM6.87,7s-.14.11-.18,0C6.46,7.11,6.77,6.89,6.87,7Zm0-.27h0s0,0,.07,0v0s-.07,0-.08,0,0,0,0-.06Zm0-.12s.07,0,0,0S6.87,6.59,6.87,6.58Zm0-.22s0,0,0-.05h0S6.89,6.35,6.87,6.36Zm0-.13s0,0,0,0S6.89,6.3,6.86,6.23Zm0,0s0,0,0,0h0Zm0,0v0S6.84,6.29,6.83,6.27Zm.51.34c0,.16-.21,0-.27.14S7,6.76,7,6.7H7s0,0,0,0H7A1.13,1.13,0,0,1,7.34,6.61Zm-.28-.28h0Zm0,.19h0a0,0,0,0,1,0,0h0S7.08,6.53,7.09,6.52Zm.14,0v0C7.16,6.56,7.17,6.49,7.23,6.52Zm.08,0h.05s0,0,0,0h0s-.07,0-.1,0v0h0Zm.05-.26h0Zm.12.13s-.07,0-.1,0h0A.16.16,0,0,1,7.48,6.4Zm0-.26v0h0v0Zm0,.13v0S7.51,6.3,7.48,6.27Zm0,.35h0Zm0,0c.09.1-.08.09-.15.07h0s0,0,0,0h0A.18.18,0,0,1,7.56,6.62Zm0-.13h0S7.52,6.52,7.53,6.49Zm.15.26v0a.62.62,0,0,1-.19,0c.07,0-.13.06-.16,0a0,0,0,0,1,0,0h0s0,0,0,0a.2.2,0,0,1,.11,0h0S7.66,6.76,7.68,6.75Zm0-.2,0,0S7.65,6.57,7.63,6.55Zm.34,0s-.11,0-.16,0-.07,0,0-.1.05,0,.08,0S7.94,6.5,8,6.54ZM7.86,5.16v0h0S7.87,5.18,7.86,5.16Zm.09.9s0,0,0,0S7.89,6.1,8,6.06Zm0,.67a.2.2,0,0,1-.24,0,.1.1,0,0,1,0,0C7.8,6.51,7.85,6.75,8,6.73Zm-.12.15h0C7.83,6.81,7.92,6.84,7.86,6.88ZM7.71,6.5h0v0h0Zm0,.31s0,0,0,0,0,0,0,0S7.7,6.81,7.72,6.81Zm-.16.06s0,0,0,0S7.58,6.9,7.56,6.87Zm.06-.24h0v0h0Zm0-.13h0Zm0-.37s0,0,0,0S7.59,6.16,7.57,6.13Zm-.13.49h0S7.44,6.66,7.44,6.62ZM7,6.61H7V6.55s0,0,.06,0ZM7,6.22s0,0,0,0S7,6.21,7,6.22ZM7,6.1s0,0,0,0S7,6.17,7,6.1Zm1.15.35s0,.07,0,.07S8,6.42,8.1,6.45Zm0-.35v0a0,0,0,0,1,0,0Zm.14.55c0,.15-.13.08-.22,0S8.17,6.66,8.22,6.65Zm0-.19v0C8.3,6.42,8.25,6.55,8.19,6.46Zm0-.13h0S8.18,6.37,8.19,6.33Zm.24.24c-.07,0-.25.08-.3,0A.51.51,0,0,1,8.43,6.57Zm-.15-.21v0h0S8.3,6.37,8.28,6.36Zm.37,0a.06.06,0,0,1,0,.07.16.16,0,0,1-.14,0C8.54,6.42,8.59,6.39,8.65,6.41Zm-.09-.09h0C8.59,6.41,8.49,6.34,8.56,6.32Zm.21.23s-.11,0-.13,0A.09.09,0,0,1,8.77,6.55Zm-.11-1h0S8.7,5.54,8.66,5.51Zm.15.61h0s.06,0,0-.07S8.82,6.11,8.81,6.12Zm0,.33h0v0S8.82,6.43,8.81,6.45ZM9,6.69c0,.1-.48.14-.52,0s.07,0,.11,0,0,0,.06,0A1,1,0,0,1,9,6.69Zm0-.82c0-.09,0-.11,0,0S9,5.85,9,5.87ZM9,6.1l0,0S9.06,6.08,9,6.1Zm.17.22s-.08,0-.12,0-.08,0-.1,0S9.1,6.33,9.18,6.32Zm-.07-.68s0,0,0,0S9.1,5.67,9.11,5.64Zm.15.27s0,0,0,0h0S9.27,5.91,9.26,5.91Zm0,.53s0,0,0,0S9.28,6.45,9.3,6.44Zm0,.06s0,0,0,0h0Zm0,.16s-.1,0-.11,0C9.31,6.49,9.52,6.77,9.25,6.66Zm.13-.22s0,0,0,0S9.31,6.46,9.38,6.44Zm-.26.09v0h.07S9.14,6.54,9.12,6.53Zm.06,0s0,0,0,0,0,0,0,0S9.19,6.47,9.18,6.48Zm-.08,0v0C9,6.48,9,6.39,9.1,6.46ZM9,6.52s0,0,0,0H9Zm0,.34a.17.17,0,0,1-.19,0C8.84,6.78,9,6.79,9,6.86Zm0-.25-.05,0S9,6.58,9,6.61ZM8.89,5.56s0,0,0,0l0,0S8.93,5.58,8.89,5.56Zm0,1s0,0,0-.08S8.9,6.51,8.87,6.51Zm-.34,0,0,0C8.61,6.52,8.58,6.58,8.53,6.54Zm.23.07c0,.07-.24,0-.32,0s0,0,0,0A1.51,1.51,0,0,1,8.76,6.61Zm-.32-.53h0S8.44,6.07,8.44,6.08Zm0,.39s-.06.07-.1,0S8.4,6.46,8.43,6.47Zm-.09-.38h0v0h0S8.35,6.08,8.34,6.09Zm-.05.64s.05,0,.08,0S8.3,6.77,8.29,6.73Zm1.2,0s.08,0,0,0S9.38,6.72,9.49,6.73Zm0-.25v0h0S9.47,6.48,9.45,6.48Zm.1,0c.06,0,.14,0,.07.09s-.09,0-.13,0S9.54,6.52,9.55,6.48Zm0-.49V6s0,0,.06,0,0,0,0,0A0,0,0,0,0,9.54,6Zm.57.71a.24.24,0,0,1,.22,0A.24.24,0,0,1,10.11,6.7Zm.28.11s0,.05-.05.05-.08,0-.09-.06S10.34,6.81,10.39,6.81Zm-.3-.23s-.05,0-.07,0,0,0,0,0,0-.09,0,0,.09,0,.09.07Zm0,.21s-.06,0,0,0S10.09,6.79,10.11,6.79ZM10,6.28s0,0,0,0h0S10,6.28,10,6.28Zm-.05.5a0,0,0,0,1,0,0v0C10,6.73,10.07,6.84,9.93,6.78Zm0,.08c0,.07-.11,0-.16,0S9.93,6.86,10,6.86Zm-.15-.07c0,.06-.08,0-.11,0C9.43,6.88,9.67,6.71,9.82,6.79Zm-.31-.13a.13.13,0,0,1,.12,0C9.72,6.77,9.52,6.74,9.51,6.66Zm.2,0,0,0,0,0S9.74,6.67,9.71,6.64Zm.17-.09c-.05,0-.16,0-.18,0s.11,0,.13,0h.05Zm0-.31c-.08,0-.2,0-.07,0-.05,0-.08-.07-.13-.08s.06,0,.1,0S9.93,6.12,9.88,6.24Zm-.11.18s-.1,0-.14,0S9.91,6.39,9.77,6.42ZM9.61,6.1s0,0,0,0S9.62,6.12,9.61,6.1Zm.82.75h0v0A0,0,0,1,1,10.43,6.85Zm0-.14s0,0,0,0S10.4,6.73,10.43,6.71Zm.07,0h0s.08,0,.07,0S10.52,6.77,10.5,6.76ZM8.15,5.12s0,0,0,0,0,0,0,0Zm.6-1.2s-.05,0-.07,0h0S8.72,3.92,8.75,3.92Zm-6.41,6h0l-.06,0S2.33,10,2.34,9.92Z"/><rect x="16.97" width="1.71" height="17.02" style="opacity:0.5"/></svg>