<?xml version="1.0" encoding="UTF-8"?><svg id="b" xmlns="http://www.w3.org/2000/svg" viewBox="0 0 207.12931 52.99101"><g id="c"><path d="M55.07121,12.76622c-2.97137,2.31284-2.67086,2.23967-2.67086,2.23967l1.80848,2.83547s3.02887-2.69175,3.67439-2.69175c1.88417,0,3.102,1.51575,4.19438,2.05412,1.45302.71602,2.67349,1.35369,4.91575-.45734,2.23963-1.81108,1.78751-1.66732,2.81194-2.16909,1.02188-.50177,1.66995-.64289,3.40786,0,1.73782.64289,3.98272,1.09497,4.91304,1.09497.9304,0,1.59682-.16724,3.1753-.85192.86237-.37372,1.64643-1.24658,3.1099-1.08456,1.80059.19863,2.38598,1.37463,4.05593,1.37463,1.66732,0,1.1002.0209,3.03405-.33712,1.9313-.35801,1.79014-.48346,3.67176-.33975,1.88162.14376,1.17859.24305,3.45746.45212,2.09073.19077,2.54804-.28225,2.90868-.42596.35546-.14376.94866-.49654,2.09592-1.80585,1.14207-1.30927.92514-1.43731,2.28669-1.51312,1.35892-.07054,1.85291.24042,3.45483.21167,1.7013-.03394,2.61862-.21167,3.87043-1.26748,1.13154-.95907,1.37718-1.3511,1.37718-1.3511l-2.38335-2.02533s-1.23091,1.27533-2.09855,1.43213c-.97474.1751-3.55149-.54097-5.31029-.17773-1.63598.33975-3.49407,2.62643-3.86516,3.08637-.39199.47824-.74218.75004-1.98354.75004-1.23873,0-3.30848-.66379-4.45318-.66379-2.60291,0-3.38162.84152-4.62561.84152-1.66469,0-4.16049-1.60723-5.63967-1.56544-2.38598.07321-3.09155.99572-4.25707,1.49485-1.16823.50177-1.30931.64548-3.26414.14112-1.95475-.49914-3.8024-1.29101-4.94965-1.29101-2.02541,0-4.15786.39984-6.4707,3.10467-.97219,1.1368-1.43731.81536-1.43731.81536,0,0-.5227.04965-1.44784-.81536-1.28052-1.19167-4.12388-3.62211-7.36705-1.09501M89.70079,21.34851l44.35652-6.59089-.48618-3.3817-44.28586,6.59089.41551,3.3817ZM169.2277,14.21143l-43.21693,3.17522.27698,3.14124,43.07856-3.14124-.13861-3.17522ZM48.81744,27.95244c5.74678,0,10.68079-3.37643,12.91787-8.22423l-3.04458-1.72742c-1.602,3.81551-5.37306,6.49682-9.77392,6.49682-5.85134,0-10.59458-4.74324-10.59458-10.59454s4.74324-10.59454,10.59458-10.59454c3.75797,0,7.04556,1.95738,8.94289,4.91049l2.74662-1.99662c-2.54022-3.75275-6.87313-6.22239-11.78889-6.22239-7.82962,0-14.17223,6.25899-14.17223,13.97624,0,7.71984,6.34262,13.9762,14.17223,13.9762M14.59556,51.94564c-.21685-.311-.53052-.94862-.9434-1.90774s-1.00872-2.41214-1.79014-4.35648l-3.92785-9.75302h-.48873l-4.00888,9.72954c-.80495,1.96002-1.41905,3.42086-1.84238,4.38519-.42341.9617-.74745,1.59674-.96693,1.90515-.22219.30837-.42859.45731-.62726.45208v.33452c.22474,0,.52007-.00263.88598-.00786.36846-.00522.82321-.00782,1.36155-.00782.41025,0,.82321.00259,1.2282.00782.41033.00522.80232.00786,1.18386.00786v-.33452c-.3998-.01304-.55923-.24564-.48083-.69254.07585-.44949.33975-1.22302.78924-2.32066h5.03076c.42859,1.09764.68468,1.87117.76826,2.32066.08103.4469-.07058.6795-.45994.69254v.33452c.42078-.00786.85719-.01567,1.30668-.01567h2.69965c.36846,0,.66897.00782.90153.01567v-.33452c-.19595.00522-.40243-.14635-.61936-.45471M5.84607,46.92801l.0209-.06009c.39725-1.07671.71084-1.92082.93559-2.52973.22474-.61414.38944-1.07148.49654-1.37726.10719-.30573.18295-.53833.22474-.69513h.01834c.04179.16465.115.39984.21422.70821.10192.30837.25354.76834.46783,1.37463.21167.61151.51218,1.45039.89379,2.51929l.0209.06009h-3.29285ZM23.56724,50.29399c-.2509.10192-.59057.15157-1.01917.1542-.41033.01045-.84682.01567-1.30931.01567-.45994,0-.91469-.00522-1.359-.01567-.15153-.01045-.24827-.05487-.29269-.12282s-.06005-.19863-.0575-.38417v-3.30852h2.02015c.59065-.00782,1.00872.02353,1.25444.08888.24564.06532.38672.20644.42596.41551h.24301c-.00782-.29533-.01045-.57757-.013-.84411v-1.51575c.00255-.24564.00518-.5044.013-.77879h-.24301c-.05232.19599-.20122.31622-.44431.3685-.24301.05224-.66379.07577-1.2727.06795h-1.98354v-3.65609h2.31811c.5932-.00522,1.05314.05487,1.36936.17769.32141.12282.50436.35542.55668.69254h.2639c.00526-.63504.01571-1.19953.02616-1.69085.01045-.49128.02353-.95648.03916-1.39289-.55923.00782-1.2073.01308-1.93912.01308-.7291.00259-1.47384.00259-2.2291.00259-.83629-.00259-1.589-.00259-2.25534-.00786-.66379-.00259-1.15778-.00522-1.47655-.00782v.26917c.22738.00263.39199.13327.49128.39199.10192.25613.16206.77097.18032,1.5445.02616.77357.03397,1.93649.02871,3.48362v2.4304c.00526,1.66995-.00255,2.9139-.02871,3.73712-.0209.8258-.08621,1.372-.19077,1.64116-.10192.26917-.27698.40247-.51744.40247v.26917c.31622-.00786.84674-.01045,1.59156-.01308.74218-.00259,1.59674-.00259,2.56367-.00259.65597,0,1.31976,0,1.99399.00259.67687.00263,1.31976.00522,1.92867.01308,0-.43904.00782-.89898.01563-1.37463.0079-.47038.02361-1.02965.03924-1.66991h-.26135c-.06269.30051-.21948.49914-.47038.60365M35.85004,51.14859c-.69521-.97478-1.24399-1.74313-1.63861-2.3024-.39725-.55923-.71084-.99305-.93295-1.30668-.22474-.31096-.42341-.58798-.59847-.8284v-.05491c.16724-.06532.34756-.15939.53315-.27439.18814-.1176.3632-.2535.5357-.39721.3502-.26658.67423-.66642.97482-1.20216.30051-.53574.45994-1.20998.4782-2.02011-.02616-1.11854-.29006-1.9914-.78397-2.61599-.49399-.62459-1.06367-1.04273-1.70393-1.2544-.737-.2535-1.59674-.37895-2.57675-.37895-.30577,0-.64026.00263-1.00354.01045-.36328.00786-.68468.01567-.96174.02353-.36064.00263-.69513.00522-1.0009.01045s-.57494.00786-.80487.01045v.26658c.24301-.00786.41551.115.51999.37109.10192.2535.16732.76834.19077,1.5445.02353.77616.03142,1.94434.02616,3.50189v2.44089c.00526,1.66732-.00263,2.90864-.02616,3.73449-.0209.82321-.08358,1.3694-.18814,1.63594-.09929.26917-.26917.40507-.50436.40507v.26921c.22993-.01049.51744-.01308.86237-.01308.34238-.00263.72129-.00263,1.1368-.00263.36591,0,.72392,0,1.06367.00263.34756,0,.62718.00259.84411.01308v-.26921c-.21693-.00782-.37636-.12804-.47038-.35542-.09929-.22734-.15943-.66115-.18295-1.29882-.02353-.64026-.03397-1.57584-.03134-2.81457v-.77879c.09148.00263.18814.00263.29006.01045.10456.00263.19867.00786.29006.00786.60373.91987,1.1943,1.82412,1.76406,2.71006.56705.8859,1.12109,1.74309,1.65424,2.57416.09929.08621.2143.14372.3502.1751.13327.02871.27961.04179.44167.0392h2.85636v-.26921c-.19603-.04442-.41288-.18291-.65597-.42333-.24301-.23782-.49128-.53837-.74737-.89639M32.55456,42.89038c-.00782.49132-.10711.89639-.30051,1.21783-.19077.31881-.41551.55664-.6795.70821-.18814.13068-.39717.22997-.635.29792-.23527.07058-.4861.10452-.75271.10452-.09666,0-.19077,0-.29006-.00259-.09403-.00263-.19077-.00786-.29006-.01567v-4.4009c.07577-.01045.18295-.02353.32141-.03397.14116-.01308.29269-.0183.45475-.0209.68731.00782,1.22038.20122,1.59674.58016.37891.37895.56976.89375.57494,1.54709v.0183ZM48.37585,39.29438c-1.05849-.60892-2.26579-.91728-3.61689-.92773-1.41123.01045-2.67086.3293-3.77895.95648-1.11328.622-1.98617,1.48963-2.62899,2.59768-.64552,1.10546-.97482,2.38598-.9879,3.84163.01308,1.37463.33712,2.6055.96956,3.69006.63244,1.08452,1.487,1.94434,2.56375,2.57416,1.07667.62718,2.28924.95126,3.63515.96434,1.41123-.01308,2.66296-.34238,3.75542-.9905,1.08975-.64548,1.94949-1.52357,2.57938-2.63947.62455-1.11591.94603-2.38075.95903-3.7998v-.02094c-.013-1.4086-.32667-2.65255-.9434-3.724-.61155-1.07412-1.44521-1.91559-2.50617-2.52192M49.01866,45.67098c-.00255.93036-.19332,1.76139-.56705,2.49317-.37109.73433-.89116,1.31449-1.54977,1.74309-.66379.42337-1.42687.64289-2.30232.65075-.86245-.00786-1.62816-.22738-2.28932-.65075-.66115-.42859-1.17859-1.00613-1.55495-1.73527-.37372-.73174-.56449-1.56017-.57494-2.48531.0079-.93555.20122-1.77184.57231-2.50621.37372-.73696.89643-1.31972,1.56803-1.74572.66642-.42859,1.44521-.64548,2.33374-.65334.84411.01045,1.59156.2326,2.24745.66379.65334.43123,1.16823,1.01398,1.5445,1.74576.37372.73433.56976,1.55491.57231,2.46174v.0183ZM60.43382,39.23692c-.38672-.2143-.8284-.37636-1.31449-.4835-.48873-.10715-.99572-.16983-1.52361-.18814-.3502-.01567-.69776-.02353-1.03488-.0209-.33712.00522-.6795.01045-1.01661.0209-.32667.00259-.6716.00522-1.04014.01308-.36583.00782-.70558.01304-1.01135.02349v.2718c.23519.02612.40507.16465.50962.41292.10719.25086.16987.75526.1934,1.51575.02616.75526.03661,1.91033.03397,3.45483v2.43044c.00263,1.66732-.00263,2.90605-.02353,3.72663-.0209.81536-.08103,1.35896-.18295,1.62549-.09929.26658-.27435.41033-.51481.42859v.26921c.23782-.01049.51481-.01308.83366-.01571h2.15597c.34764.00263.68213.00522,1.0088.01571v-.26921c-.2509-.02612-.42859-.14112-.53833-.35279-.10982-.2143-.17777-.59847-.20385-1.16296-.02353-.55923-.03661-1.37722-.03397-2.4513v-.61414c.31359,0,.63508-.01045.97219-.02875s.66897-.06536.99564-.1359c.36064-.07317.70302-.17247,1.02188-.30314.32141-.12804.61673-.28747.88853-.47824.30051-.1934.57494-.42337.82058-.69776.24564-.27443.45731-.58016.635-.91732.14898-.29792.2718-.63763.36591-1.01135.09148-.37372.13853-.77879.14372-1.2152-.01563-.94344-.2143-1.73527-.60628-2.37816-.3868-.64289-.89898-1.13943-1.53405-1.48437M59.94254,43.15432c0,.2718-.03134.52007-.09411.74482-.06005.22474-.14108.42337-.24046.59584-.09666.17247-.22211.33189-.37364.47302-.15424.14372-.31367.25613-.48354.33975-.18551.09929-.38936.18032-.61147.23256-.22211.0575-.45738.0967-.70302.11237-.11237.00786-.23519.01308-.37109.01308-.13853,0-.24564-.00522-.33449-.01308v-4.81638c.12019-.01049.24046-.01571.36583-.01571.12545-.00259.24046-.00522.33975-.00259.29796,0,.57494.03134.83366.09407.25354.06536.47828.15943.67687.28488.32404.20381.57231.47038.74218.8075.16987.33189.25354.71084.25354,1.13158v.0183ZM75.05817,39.29438c-1.05577-.60892-2.26316-.91728-3.61426-.92773-1.4086.01045-2.67086.3293-3.77895.95648-1.11064.622-1.98617,1.48963-2.63162,2.59768-.64289,1.10546-.97219,2.38598-.98527,3.84163.01308,1.37463.33712,2.6055.96956,3.69006.63244,1.08452,1.487,1.94434,2.56375,2.57416,1.07667.62718,2.28669.95126,3.63515.96434,1.41123-.01308,2.66296-.34238,3.75016-.9905,1.09756-.64548,1.95738-1.52357,2.58201-2.63947.62981-1.11591.94866-2.38075.95911-3.7998v-.02094c-.01045-1.4086-.32667-2.65255-.93822-3.724-.61418-1.07412-1.45039-1.91559-2.51143-2.52192M75.7037,45.67098c-.00526.93036-.1934,1.76139-.56449,2.49317-.37636.73433-.89379,1.31449-1.55495,1.74309-.6586.42337-1.42695.64289-2.29713.65075-.86508-.00786-1.63079-.22738-2.29195-.65075-.65852-.42859-1.18123-1.00613-1.55495-1.73527-.37109-.73174-.56449-1.56017-.57231-2.48531.00526-.93555.19603-1.77184.56968-2.50621.37636-.73696.89906-1.31972,1.5654-1.74572.66905-.42859,1.44521-.64548,2.33637-.65334.84148.01045,1.59411.2326,2.24489.66379.65589.43123,1.17078,1.01398,1.54705,1.74576.37636.73433.56713,1.55491.57239,2.46174v.0183ZM89.62758,51.14859c-.70031-.97478-1.24391-1.74313-1.64116-2.3024-.39717-.55923-.70821-.99305-.93295-1.30668-.22474-.31096-.42333-.58798-.59847-.8284v-.05491c.16724-.06532.34756-.15939.53315-.27439.18814-.1176.36583-.2535.53315-.39721.35275-.26658.67942-.66642.97738-1.20216.29788-.53574.45994-1.20998.4782-2.02011-.02608-1.11854-.28743-1.9914-.78397-2.61599s-1.06367-1.04273-1.70656-1.2544c-.73429-.2535-1.59148-.37895-2.57675-.37895-.30314,0-.63763.00263-1.0009.01045-.36591.00786-.68731.01567-.96174.02353-.35801.00263-.6925.00522-1.0009.01045-.30314.00522-.57494.00786-.80487.01045v.26658c.24301-.00786.41288.115.52007.37109.10448.2535.16724.76834.19077,1.5445.02345.77616.03134,1.94434.02871,3.50189v2.44089c.00263,1.66732-.00526,2.90864-.02871,3.73449-.02353.82321-.08366,1.3694-.18559,1.63594-.10456.26917-.2718.40507-.50436.40507v.26921c.22993-.01049.51481-.01308.85982-.01308.3423-.00263.72121-.00263,1.13417-.00263.36846,0,.72647,0,1.06885.00263.34238,0,.62455.00259.84148.01308v-.26921c-.21693-.00782-.37628-.12804-.47302-.35542-.09666-.22734-.15679-.66115-.18032-1.29882-.02353-.64026-.03397-1.57584-.02871-2.81457v-.77879c.08885.00263.18551.00263.28743.01045.10456.00263.20122.00786.28751.00786.60892.91987,1.19167,1.82412,1.76398,2.71006.56968.8859,1.12109,1.74309,1.65951,2.57416.09666.08621.2143.14372.34756.1751.13327.02871.27961.04179.43904.0392h2.85899v-.26921c-.19859-.04442-.41288-.18291-.65597-.42333-.24038-.23782-.49128-.53837-.74482-.89639M86.33217,42.89038c-.01045.49132-.10974.89639-.30314,1.21783-.18814.31881-.41815.55664-.6795.70821-.18551.13068-.39462.22997-.635.29792-.23782.07058-.4861.10452-.75008.10452-.09929,0-.19595,0-.29269-.00259-.09411-.00263-.19077-.00786-.28743-.01567v-4.4009c.07577-.01045.18032-.02353.31622-.03397.14108-.01308.29269-.0183.45731-.0209.68731.00782,1.22046.20122,1.59937.58016.37636.37895.56713.89375.57494,1.54709v.0183ZM97.06002,38.56787h-1.96002c-.68731,0-1.41123,0-2.17958-.00522-.76308,0-1.51308-.00522-2.23963-.01567,0,.4469.00263.93559.01045,1.4661.00263.52789.00526,1.09238.00526,1.69344h.26127c.07585-.3502.22738-.59324.45994-.73696.23264-.14112.56449-.21167.99835-.20644h2.36771v5.91661c.00518,1.66732-.00526,2.9139-.03142,3.73971-.02345.82058-.09403,1.36677-.20903,1.63598-.115.26917-.30314.40507-.56713.41288v.26921c.2509-.00786.56713-.01308.93822-.01308.37372-.00263.77361-.00263,1.19957-.00263.3998,0,.78134,0,1.14725.00263.36846,0,.69776.00522.99046.01308v-.26921c-.27443.0183-.47038-.10974-.59065-.37632-.12019-.26658-.1934-.81799-.21685-1.65165-.02879-.83103-.03924-2.08543-.03397-3.7606v-5.91661h2.36763c.42604-.00522.75008.05746.97482.19336.22211.1359.37109.3868.44686.75004h.27961v-3.15954c-.65852.01045-1.36673.01567-2.12981.01567-.76316.00522-1.52624.00522-2.28932.00522M106.3949,52.02926c-.11764-.26654-.18814-.8075-.2143-1.6229-.02616-.81273-.03397-2.05408-.03134-3.72141v-2.42781c-.00263-1.55495.00518-2.71528.02871-3.48099.0209-.76308.08629-1.2727.19077-1.52357.10456-.2509.27706-.38417.51744-.39725v-.29006c-.25082.00259-.55923.00522-.92251.00782-.36328.00526-.74482.00786-1.14462.00786-.44686,0-.852-.00259-1.2152-.00786-.36846-.00259-.65334-.00522-.852-.00782v.29006c.25354.01308.43386.14635.54097.39984.10982.2535.17777.76571.2013,1.52883.02608.76571.03397,1.92341.02871,3.47313v2.46442c.00526,1.65424-.00263,2.88511-.02871,3.69529-.02616.81013-.09674,1.34588-.20911,1.60982-.115.26394-.30577.40507-.56968.42337v.28484c.2064-.00786.49391-.01045.85974-.01308.36854-.00259.7945-.00259,1.27797-.00259.3998,0,.77879,0,1.14462.00259.36591.00263.69258.00522.97738.01308v-.26658c-.26917-.02612-.46512-.16987-.58013-.43904M123.15432,39.54788c-.58013-.34493-1.24136-.60892-1.98873-.78397-.74745-.18032-1.62027-.26921-2.62125-.26921-.45204,0-.87019.00786-1.25962.02094-.38936.01045-.77879.02349-1.17596.03397-.37109.01045-.73963.02612-1.10546.04442-.36591.0209-.66379.03397-.89379.04701v.30577c.2509.00263.43386.12282.5436.36587.10974.24042.17506.73696.19859,1.49745.02353.75526.03134,1.913.02879,3.46269v2.43566c.00782,1.66991-.00526,2.9139-.02879,3.73449-.02871.81799-.09403,1.35896-.21167,1.62027-.115.26394-.30051.39984-.56449.40507v.26921c.25872.00782.54623.01567.865.01826.32149.00522.64552.01045.97219.0183.33712.00263.69513.00786,1.07412.0183.37628.01045.75526.0183,1.1368.0183,1.07667.00522,2.05149-.10978,2.91913-.33975.86764-.2326,1.62808-.60628,2.28669-1.13158.87282-.66379,1.54187-1.49745,2.00962-2.50098.46783-1.00617.70302-2.1665.70566-3.48885v-.01567c.00255-1.18645-.23264-2.29191-.71084-3.31897-.47302-1.02443-1.19957-1.84764-2.17958-2.46701M123.26151,45.49851c-.0079.86764-.15161,1.63335-.43904,2.28928-.29014.65597-.68731,1.19953-1.1943,1.62812-.38944.32667-.84937.57235-1.37207.73437-.52525.16465-1.06359.24564-1.62545.24564-.16206,0-.32667-.00259-.49136-.01567-.16724-.01045-.32141-.02875-.45467-.0575-.07058-.00782-.11764-.04179-.14116-.09144-.02608-.05228-.03653-.12545-.03397-.2143v-9.10754c.17251-.0183.35546-.03397.54623-.04969.19077-.01567.3998-.0209.62718-.02349.59847.00259,1.15515.0784,1.65951.23256.50699.15157.94077.36587,1.30405.6403.49654.39984.89116.93032,1.17604,1.58629.28743.65334.43115,1.38248.43904,2.18217v.0209ZM131.32369,52.02926c-.12019-.26654-.18814-.8075-.2143-1.6229-.02879-.81273-.03661-2.05408-.03134-3.72141v-2.42781c-.00526-1.55495.00255-2.71528.02608-3.48099.02353-.76308.08892-1.2727.19085-1.52357.10448-.2509.27961-.38417.51999-.39725v-.29006c-.25346.00259-.55923.00522-.92514.00782-.36064.00526-.74218.00786-1.14462.00786-.44423,0-.84937-.00259-1.2152-.00786-.36846-.00259-.65071-.00522-.85192-.00782v.29006c.25082.01308.43378.14635.54097.39984.11237.2535.18024.76571.20377,1.52883.02353.76571.03142,1.92341.02616,3.47313v2.46442c.00526,1.65424-.00263,2.88511-.02871,3.69529-.02353.81013-.09674,1.34588-.20911,1.60982-.115.26394-.30314.40507-.56705.42337v.28484c.2064-.00786.49128-.01045.85711-.01308.37117-.00259.7945-.00259,1.2806-.00259.3998,0,.77879,0,1.14462.00259.36591.00263.68995.00522.97482.01308v-.26658c-.26917-.02612-.46257-.16987-.57757-.43904M147.34612,36.9868c-.45475-.25086-.96693-.44167-1.53397-.56709-.56976-.12545-1.16041-.19599-1.78233-.21693-.40515-.01826-.81013-.02875-1.2022-.02353-.39462.00526-.79179.01308-1.18896.02353-.37644,0-.78142.00522-1.21273.01308-.42859.01045-.8205.0183-1.17588.02875v.31881c.2718.02875.47038.18818.5932.48087.12282.29529.19859.88331.2273,1.76661s.03924,2.22918.03669,4.0324v2.83551c.0051,1.94434-.00526,3.39214-.02616,4.34599-.02361.95389-.09411,1.58633-.21438,1.89729-.12011.31363-.31885.47824-.59847.49918v.31359c.27706-.00786.59847-.01567.97219-.01567h2.51414c.40499,0,.79705.00782,1.17588.01567v-.31359c-.28743-.02616-.49654-.16206-.62718-.41292-.12537-.24564-.2064-.69517-.23511-1.3511-.03142-.65856-.04195-1.61245-.03924-2.86163v-.71866c.3632,0,.73692-.01049,1.12899-.03397.39462-.02353.78142-.07581,1.16551-.15943.42078-.08362.8154-.20122,1.19167-.3502.37372-.15157.71874-.33712,1.03759-.55664.35012-.22474.66642-.49914.95385-.81799.28998-.31881.53562-.67423.74218-1.06885.17514-.34756.31885-.74218.42588-1.18123.10719-.43645.16206-.90947.16732-1.41646-.01308-1.10024-.2509-2.02274-.70566-2.77278-.45459-.75522-1.05306-1.33016-1.79014-1.73264M146.77381,41.55495c0,.31881-.03924.60892-.10719.87023-.07305.26135-.16716.49132-.28217.69258-.115.20381-.26127.38936-.43912.55664-.17769.16461-.3632.29529-.56178.39462-.21693.11496-.45475.20644-.71602.27176-.25872.06536-.53323.10978-.81811.13068-.13319.01045-.27435.01567-.4337.01567-.15951,0-.28743-.00522-.3868-.01567v-5.62133c.1359-.01045.27961-.01567.42604-.0183.14627-.00259.2769-.00259.39446-.00259.34772,0,.67168.03657.96964.10974.29796.07581.56178.18559.78924.33452.38154.23519.66897.54882.86756.94081.19875.3894.29796.82844.29796,1.31976v.0209ZM161.02188,38.58095c-.35538-.00259-.6795-.00522-.97474-.01567v.26917c.26382.00263.45459.13327.5696.39199s.18295.77357.20656,1.54713c.02345.77353.03653,1.93908.03397,3.48881v2.14297c0,.68991-.05758,1.27007-.16732,1.73527-.11245.46516-.29014.85456-.53833,1.16555-.27435.35542-.60628.62718-.99564.81013-.39207.18555-.81285.27702-1.26489.27961-.50707-.00259-.96964-.10192-1.39042-.29792-.42062-.19599-.75782-.47038-1.01398-.82844-.22474-.31881-.39191-.70821-.50436-1.16292-.10703-.45475-.1619-1.01139-.15935-1.66732v-2.17694c-.00255-1.54973.00526-2.71528.03126-3.48881.02616-.77357.09411-1.28841.20385-1.54713.11245-.25872.29014-.38936.53578-.39199v-.26917c-.26654.00259-.57486.00522-.93295.00782-.35283.00526-.73963.00786-1.15243.00786-.44949,0-.84937-.00259-1.19965-.00786-.35538-.00259-.64807-.00522-.8859-.00782v.26917c.24054.00263.41296.13327.52015.39199.10448.25872.16716.77357.19077,1.54713.0209.77353.02871,1.93908.02616,3.48881v2.21351c-.00526.91206.05997,1.69085.19587,2.32852.1308.63504.35809,1.20212.6795,1.7013.46257.79183,1.10554,1.40338,1.9313,1.82671.82577.42337,1.79541.63767,2.9086.64289,1.04014-.0209,1.9313-.23256,2.67349-.63504.74218-.40243,1.30141-.88072,1.67259-1.43472.39462-.49654.69513-1.0976.89898-1.80844.20385-.70821.30833-1.62027.30833-2.72836v-2.10636c-.00255-1.54973.00526-2.71528.02616-3.48881.0209-.77357.07848-1.28841.17769-1.54713.09682-.25872.25872-.38936.48091-.39199v-.26917c-.19603.01045-.46512.01308-.81013.01567h-2.28142ZM175.59392,45.95845c-.33193,0-.67168-.00259-1.01653-.01045-.34246-.00522-.6795-.01308-1.01669-.02353v.28747c.3372.04183.55141.29269.64026.75526.08885.45994.12553,1.16033.115,2.10114v.62459c-.00526.24827-.00782.49654-.01834.73696-.18279.04705-.37883.0784-.59049.09933-.20656.0209-.42604.02875-.65605.02875-.865-.00263-1.64643-.20648-2.33884-.60892-.69258-.40247-1.24144-.97219-1.65169-1.71438-.40515-.74218-.61155-1.62549-.61936-2.65778.02345-1.48963.50436-2.67086,1.43205-3.53849.9304-.87023,2.1535-1.3119,3.67184-1.3302.43641,0,.82848.03397,1.17859.10192.35028.06536.65334.15943.90679.27965.18567.08885.35028.20903.49128.36064.14387.15157.24054.33971.30067.56445h.2769c.00798-.75004.0209-1.36414.03669-1.83456.01818-.47038.03908-.95911.06795-1.4687-.24564-.05487-.48618-.10192-.71618-.14112-.23511-.03661-.45731-.06795-.66897-.09407-.31104-.03661-.6141-.06273-.90153-.07317-.29014-.01571-.59065-.02094-.90424-.0183-1.57592.00522-2.96092.30577-4.16567.89639-1.20475.5932-2.15079,1.43209-2.83299,2.51402-.68715,1.08456-1.03488,2.37031-1.04525,3.85731v.0183c.01037,1.5262.34501,2.82765.99835,3.91481.65334,1.08456,1.5445,1.91559,2.67333,2.49313,1.12899.57757,2.41748.87027,3.86516.87549.82848,0,1.54977-.04705,2.17168-.14112.62208-.09148,1.17078-.21952,1.64914-.38417-.01053-.22734-.01834-.53311-.02616-.90683-.00526-.37891-.00782-.77353-.01053-1.18386v-1.1969c-.01308-1.14466.01308-1.91819.07848-2.31803s.2509-.6011.55397-.61155v-.28747c-.26382.01045-.55141.0183-.86756.02353-.31359.00786-.66897.01045-1.06104.01045M187.11364,50.00393c-.08374.10715-.17785.19077-.28759.24564-.12011.07317-.26127.12808-.42333.16465-.16206.03397-.35793.05487-.5932.05487h-2.66567c-.13064,0-.21693-.02612-.26654-.0784-.04705-.05228-.0705-.14112-.06524-.26654v-5.8696c-.00526-1.54713.00255-2.70483.02871-3.47054.02616-.76312.09411-1.27533.20114-1.52883.10719-.2535.28233-.38676.5227-.39984v-.29006c-.20911.00259-.49654.00522-.85974.00782-.36336.00526-.75271.00786-1.17349.00786-.44423,0-.86229-.00259-1.24383-.00786-.38154-.00259-.67423-.00522-.87808-.00782v.29006c.25872.01308.44423.14635.55652.39984.10974.2535.1804.76571.20656,1.52883.02345.76571.03126,1.92341.02871,3.47054v2.42518c.00255,1.66995-.00526,2.9139-.02871,3.72926-.02361.81536-.08885,1.35632-.19603,1.62027-.10719.26135-.28233.39462-.53052.40247v.30314c.24819,0,.75,0,1.5-.00786.75271-.00259,1.62553-.00522,2.61862-.00782.69784.00259,1.39297.00522,2.0881.00782.69513.00786,1.30668.00786,1.83975.00786.00782-.48087.01579-.95648.02616-1.42691.01308-.47038.02616-1.02702.04179-1.67514h-.27961c-.02871.13849-.08358.26394-.16716.37109M192.67212,52.02926c-.11756-.26654-.18806-.8075-.21422-1.6229-.02361-.81273-.03397-2.05408-.03142-3.72141v-2.42781c-.00255-1.55495.00526-2.71528.02871-3.48099.02361-.76308.08629-1.2727.19093-1.52357.10448-.2509.2769-.38417.51744-.39725v-.29006c-.2509.00259-.55939.00522-.92003.00782-.36575.00526-.74729.00786-1.14717.00786-.44423,0-.85192-.00259-1.21783-.00786-.36846-.00259-.65079-.00522-.84937-.00782v.29006c.2509.01308.43115.14635.54105.39984.11229.2535.17769.76571.20114,1.52883.02361.76571.03397,1.92341.02871,3.47313v2.46442c.00526,1.65424-.0051,2.88511-.02871,3.69529-.02616.81013-.09666,1.34588-.20911,1.60982-.11484.26394-.30577.40507-.56705.42337v.28484c.20385-.00786.49128-.01045.85719-.01308.36846-.00259.79179-.00259,1.28052-.00259.39733,0,.77887,0,1.14207.00259.36591.00263.69258.00522.97746.01308v-.26658c-.2718-.02612-.46257-.16987-.58028-.43904M206.59879,52.06065c-.18567-.26658-.45475-.81277-.80758-1.63598s-.86756-2.06716-1.53924-3.73449l-3.36335-8.36009h-.42078l-3.43402,8.34179c-.68987,1.67781-1.21512,2.92958-1.57848,3.75801-.36064.82584-.64026,1.3694-.83103,1.63335-.18806.26394-.36846.39203-.53578.3868v.28747c.19093,0,.44439-.00263.75797-.00786.31885-.00263.70566-.00786,1.16807-.00786.35554,0,.70566.00522,1.05322.00786.35028.00522.68731.00786,1.01669.00786v-.28747c-.34501-.01049-.48346-.2117-.41551-.59324.06795-.38417.29269-1.04796.67679-1.98877h4.31465c.36591.94081.58794,1.6046.65589,1.98877.07066.38154-.05997.58276-.39462.59324v.28747c.36064-.00786.73437-.01308,1.12117-.01308.38425-.00263.77089-.00263,1.1577-.00263.4522,0,.84156,0,1.15515.00263.31614,0,.57486.00522.77361.01308v-.28747c-.16987.00522-.34501-.12545-.53052-.3894M199.10103,47.76167l.01563-.05487c.34246-.92251.609-1.64379.80232-2.16909.18822-.52529.33193-.91728.42333-1.17863.09156-.26131.15951-.45994.19603-.59584h.01834c.03653.14112.09666.34497.18024.60628.08374.26394.21693.65856.39988,1.18127.18295.52266.43912,1.24132.76834,2.15601l.01834.05487h-2.82247Z" style=" fill-rule:evenodd; stroke-width:0px;"/></g></svg>