<?xml version="1.0" encoding="UTF-8"?><svg id="b" xmlns="http://www.w3.org/2000/svg" viewBox="0 0 174.95985 38.17948"><g id="c"><path d="M50.91177,15.10498C49.82984,5.99221,40.23102-.5072,28.38208.03114c-2.11422-.0967-4.31728.03397-6.49419.39721C8.65647,2.63141-1.11749,12.78954.10293,23.07308c1.08193,9.11277,10.68602,15.62526,22.52973,15.07384.45734.0209.91991.03134,1.38507.03134,1.68303,0,3.40259-.14372,5.10911-.42596,13.23142-2.2057,23.00279-12.36379,21.78492-22.64733M26.23125,37.05977c-1.1969.19859-2.40687.32926-3.59859.38413-10.27046-.49391-18.1053-6.43405-19.05397-14.45444C2.4027,13.07438,11.91271,3.26385,24.78086,1.11829c1.19953-.19863,2.40951-.3293,3.60122-.38417,10.26783.49395,18.10267,6.43409,19.05393,14.45448,1.17604,9.91504-8.33657,19.72561-21.20475,21.87117M16.54618,20.81515c-.04183-2.75711-.78138-5.68928-2.663-7.77734-.89902-1.05059-1.77969-2.11681-2.61076-3.22227-.27439-.27702-.70558.13327-.8859.33975-1.20216,1.50267-2.25012,3.12035-3.09945,4.84776-.16465.36587-.26917.79446-.18032,1.19167.36064,1.2727.865,2.49576,1.45562,3.67698.08888.20907.13068.43382.13853.66119.00522.2143-.02612.43119-.10192.63244-.52529,1.11328-.96693,2.26316-1.26225,3.46005-.06273.36064.11237.72651.27439,1.03751.91728,1.67518,2.02274,3.23272,3.2824,4.67007.16461.17769.57494.60892.84148.39199.73174-.82844,1.48178-1.64379,2.23441-2.45393,2.04368-1.82934,2.61862-4.82946,2.57679-7.45589M36.38416,9.73715c-.22215-.23782-.69254-.60632-1.01139-.32408-1.00613,1.16033-2.04101,2.29454-3.08374,3.41826-2.04886,2.10899-2.94525,5.11956-2.97663,8.00994-.03134,2.79368.74222,5.8513,2.96355,7.7068.88594.87545,1.77188,1.75094,2.66041,2.62643.30837.22734.74741-.16728.95648-.37636,1.38771-1.46347,2.62121-3.06544,3.66654-4.79548.18295-.31622.38417-.71084.29269-1.08716-.41029-1.27533-.96956-2.49053-1.6046-3.66394-.09148-.21167-.13068-.43904-.12545-.66638.00522-.24046.0575-.47824.15943-.69517.70562-1.24395,1.32498-2.53496,1.80059-3.88342.1176-.41815-.00259-.87808-.19077-1.25703-.9826-1.79537-2.16387-3.46791-3.50711-5.01241M15.18463,11.50376c1.91559,2.03319,4.83468,2.78323,7.55259,2.75189,3.00012-.03661,6.17011-.99831,8.23205-3.27196,1.0401-.97474,2.08547-1.94171,3.1465-2.89297.27176-.31359-.13331-.76571-.36064-.98001-1.54713-1.34847-3.22227-2.53755-5.02549-3.52278-.34234-.1751-.75267-.33975-1.14203-.2326-1.38771.4861-2.71269,1.12372-3.99061,1.85024-.21167.10192-.4469.15943-.68209.16465-.23256.00522-.46779-.02875-.67946-.12282-1.14725-.62459-2.33111-1.17341-3.57247-1.58107-.40243-.10192-.84148.06269-1.18908.25872-1.73005,1.04533-3.33201,2.28146-4.79548,3.67435-.21952.22215-.58539.6795-.35283.99831.95126.97215,1.90515,1.94171,2.85903,2.90605M30.48581,29.64567c-2.07239-1.86331-4.98629-2.57938-7.71724-2.61335-2.63166-.03661-5.62914.53574-7.47942,2.55848-.81799.74741-1.64379,1.48437-2.49053,2.20043-.22211.25872.20907.67164.3868.83366,1.43209,1.25181,2.98704,2.352,4.65436,3.26932.311.16202.67687.33189,1.03751.27176,1.20738-.29006,2.36771-.73174,3.49144-1.2544.20122-.07581.41815-.10715.63244-.10192.22474.00786.44949.04705.65593.1359,1.17341.58539,2.38079,1.08452,3.64042,1.4478.39725.08885.82321-.0183,1.18645-.18295,1.72746-.8467,3.3425-1.89729,4.84258-3.09941.20644-.1751.61673-.60892.33971-.88331-1.08716-.82321-2.14293-1.69348-3.18044-2.58201" style=" stroke-width:0px;"/><path d="M82.37917,11.78182c-4.56029,0-8.28692,1.84242-8.28692,7.28079v.56713c0,1.51312,1.26489,2.76229,2.77541,2.76229,1.51045,0,2.66822-1.24918,2.66822-2.76229l-.00526-.65597c0-1.84242.96438-3.06807,2.80676-3.06807,2.01752,0,2.80676,1.09497,2.80676,2.89297,0,1.57848-.61418,2.28146-2.41214,2.76233l-3.42086.92251c-4.1683,1.13943-5.96371,2.93739-5.96371,7.36705,0,3.15691,1.48963,6.75291,5.69973,6.75291,2.89297,0,4.72753-.72392,6.13095-3.18044.16724,1.45302,1.40597,2.5846,2.90342,2.5846s2.67612-1.12636,2.84855-2.57679l.00263-14.41265c0-4.25452-1.36155-7.23637-8.55354-7.23637M85.14414,28.8418c0,2.58724-2.10636,3.64042-3.72926,3.64042-1.62027,0-2.27887-1.49222-2.27887-3.29022,0-2.10377.96438-3.29022,3.4183-3.81551.74737-.1751,1.75617-.56972,2.58983-1.18382v4.64914ZM121.66052,11.78182c-4.56292,0-8.28955,1.84242-8.28955,7.28079v.56713c0,1.51312,1.26489,2.76229,2.77541,2.76229,1.51308,0,2.66822-1.24918,2.66822-2.76229l-.00526-.65597c0-1.84242.96438-3.06807,2.80676-3.06807,2.01752,0,2.80676,1.09497,2.80676,2.89297,0,1.57848-.61418,2.28146-2.41214,2.76233l-3.42086.92251c-4.1683,1.13943-5.96371,2.93739-5.96371,7.36705,0,3.15691,1.48963,6.75291,5.69973,6.75291,2.8956,0,4.72753-.72392,6.13095-3.18044.16987,1.45302,1.40597,2.5846,2.90605,2.5846,1.49745,0,2.67349-1.12636,2.84591-2.57679l.00263-14.41265c0-4.25452-1.35892-7.23637-8.5509-7.23637M124.42285,28.8418c0,2.58724-2.10636,3.64042-3.72926,3.64042-1.62027,0-2.27887-1.49222-2.27887-3.29022,0-2.10377.96174-3.29022,3.42094-3.81551.74474-.1751,1.75353-.56972,2.5872-1.18382v4.64914ZM172.22894,25.11776c1.50526,0,2.73091-1.21779,2.73091-2.72309-.21167-6.44195-2.0436-10.61284-8.63712-10.61284-8.15628,0-9.38456,5.87746-9.38456,12.19128,0,5.87746.3502,12.63036,9.12321,12.63036,5.70236,0,8.33142-2.34156,8.5509-7.82439,0-1.5053-1.2152-2.71006-2.72046-2.71006-1.50534,0-2.70746,1.22046-2.70746,2.72836-.3502,2.89297-1.1943,3.68484-3.21182,3.68484-2.237,0-2.98181-2.7205-2.98181-5.48284v-1.88684l9.23822.00522ZM162.99072,20.59667c0-2.19262.70039-4.69097,3.11253-4.69097,2.27879,0,2.84591,1.66991,3.02624,4.68833l.01045.0575c0,.48346-.39725.87286-.88072.87286l-5.2685-.00522v-.92251ZM155.11668,31.86807c-1.75353,0-2.14815-.74482-2.14815-2.58724v-12.76363h3.50707c1.10809-.03134,1.99662-.9434,1.99662-2.05672,0-1.11587-.88853-2.02533-1.99662-2.06453h-3.50707v-6.46284c.01045-.10188.01563-.20381.01563-.30573,0-1.67777-1.35892-3.03413-3.03668-3.03413-1.67514,0-3.03413,1.35636-3.03413,3.03413l.00263.15157v6.61701h-6.04729v-6.46021c.00782-.09407.01308-.18818.01308-.28484,0-1.67781-1.36155-3.03413-3.03676-3.03413-1.67777,0-3.03405,1.35632-3.03405,3.03413,0,.06269.00255.12541.00518.18814v6.55691h-3.07066c-1.1368,0-2.05676.92773-2.05676,2.06453s.91995,2.05672,2.05676,2.05672h3.07066v13.50845c0,4.77981.87808,6.29556,5.61351,6.29556h2.5454c1.2361,0,2.237-1.0009,2.237-2.23704s-.95911-2.2161-2.19521-2.2161c-1.75353,0-2.14815-.74482-2.14815-2.58724v-12.76363h6.04729v13.50845c0,4.77981.87808,6.29556,5.61351,6.29556h2.5454c1.2361,0,2.237-1.0009,2.237-2.23704s-.95911-2.2161-2.19521-2.2161M107.06759,1.64985c-1.67259,0-3.02632,1.35632-3.02632,3.02628v28.91414c0,1.67255,1.35373,3.02628,3.02632,3.02628s3.02624-1.35373,3.02624-3.02628l-.00526-.16465c.00263-.65856.00526-4.64132.00526-28.74949,0-1.66995-1.35373-3.02628-3.02624-3.02628M100.55246,4.69439c0-1.66991-1.35636-3.02624-3.02624-3.02624-1.66732,0-3.01842,1.34588-3.02632,3.00797h-.01826l.01826,28.93244c0,1.67255,1.35373,3.02624,3.02632,3.02624,1.66987,0,3.02624-1.35369,3.02624-3.02624,0-.10978-.00782-.21952-.01826-.32667V5.02369c.01045-.10715.01826-.21693.01826-.3293M67.99791,1.5427c-1.74572,0-3.15958,1.41646-3.15958,3.15954l.00263.12023v22.22133c0,3.33205-.52789,4.91049-2.80676,4.91049-2.28142,0-2.80668-1.57844-2.80668-4.91049v-.38154c.03653-.18555.05487-.37632.05487-.56972,0-1.61504-1.30931-2.92694-2.92439-2.92694-1.61764,0-2.92694,1.3119-2.92694,2.92694,0,.06273.00263.12804.00526.19077v1.15511c0,4.91049,1.6229,9.16504,8.28955,9.16504,6.40267,0,9.42899-2.71787,9.42899-9.38456V4.83292l.00263-.13068c0-1.74309-1.41387-3.15954-3.15958-3.15954" style=" stroke-width:0px;"/></g></svg>