<?xml version="1.0" encoding="UTF-8"?><svg id="b" xmlns="http://www.w3.org/2000/svg" viewBox="0 0 139.63948 77.23998"><g id="c"><path d="M72.89415,6.23251s-.14898-7.85833-12.86563-5.92706c-12.7165,1.91559-13.62074,3.69788-13.62074,3.69788,0,0-3.03158,3.12035-2.72054,5.20059.29796,2.07761.90679,1.18645,1.20475.44427.29525-.74218,1.66206-4.01151,3.32683-4.15786,1.66461-.14894,1.96002-.74482,1.96002.44427s-.44423,1.04014-.89116,1.78233c-.46002.74218,0,2.67345,1.05577,2.08024,1.05577-.59324,1.66477-2.37557,2.56901-1.9313.90679.4469,1.21767.74222.31359,1.78233-.92259,1.0401-8.03881,1.63335-8.03881,1.63335l-1.5.29792s.59592,3.55157-1.21783,7.4141c-1.81104,3.86253.75782,1.93126.75782,1.93126,0,0,13.32549-10.23653,17.41029-14.99022,0,0,3.34246-2.33111,6.04721,1.93126.75797,1.18908,1.21783,1.487,1.21783,1.487l4.9916-3.12035ZM94.56661,43.99288c-1.9313,3.78936-9.13621,2.98708-9.13621,2.98708,0,0,1.93115-.54882.56449,5.40703-1.39552,5.97148-11.61638,2.18476-11.61638,2.18476,0,0,.32667.48869-3.32683,2.16909-7.60495,3.47577-16.04348-8.14061-16.04348-8.14061-11.06752-3.80503-3.0445-8.40978-3.0445-8.40978,0,0,2.77541-1.89988.54886-3.52019-2.21347-1.63335-2.48017-8.14057-2.48017-8.14057,0,0-14.3969,6.7738-8.02302,20.07054,6.35841,13.27848,39.27624,9.49171,39.27624,9.49171,0,0,13.55024-1.3511,16.8769-10.57624,3.3112-9.22514-2.21347-10.3097-2.21347-10.3097,0,0,.54886,2.98445-1.38244,6.78688M57.77054,48.60023s.54886,1.61767,1.11336,2.43566c.55141.81536,5.80955,4.06897,10.50302,3.80244,4.70927-.28225,2.76505-1.35114.28233-2.16909-2.4958-.81799-7.18944-5.42274-7.18944-5.42274l-4.70927,1.35373ZM64.41111,46.16197s4.97581,4.33818,9.13637,5.97152c4.14478,1.6046,6.07592,2.70483,9.12058,1.08452,3.0445-1.63335,2.21347-5.43578-3.04466-6.23806-5.24489-.81799-9.95416-4.0716-9.95416-4.0716l-5.25813,3.25361ZM71.33386,41.27501s4.69364,1.90251,8.00739,2.71787c3.32683.80232,7.75377,1.62027,11.89855,0,4.14478-1.63335,4.4271-5.70232-.5487-4.88696-4.97852.80228-15.49462-1.89992-15.49462-1.89992l-3.86261,4.06901ZM76.57891,35.03691s9.41599,1.89992,14.39434,1.08456c4.97581-.81799,6.90711-2.43566,7.45597-5.68928.56449-3.25365-1.64914-2.16909-6.07608-.81799-4.4271,1.3511-13.82985.26658-13.82985.26658l-1.94438,5.15613ZM79.07199,27.7117c11.33676,1.08452,14.66359-2.7022,17.1436-3.52019,2.4958-.81536,6.37404-10.3097-1.37973-4.87129-7.74085,5.4227-14.93013,3.50452-14.93013,3.50452l-.83374,4.88696ZM80.72113,19.85333s10.51866.81799,14.94576-5.15354c7.18928-9.70079,3.0445-11.92997-2.4958-5.68928-5.52722,6.2381-11.88547,5.4227-11.88547,5.4227l-.56449,5.42011ZM89.02632,3.58782s-9.95432,0-12.44741,16.80126c-2.48272,16.81693-4.42694,17.63229-9.40546,21.43735-4.97581,3.78672-11.98739,7.17364-15.47883,3.25102-1.96002-2.19784,1.36665-2.98449,1.36665-2.98449,0,0,0,.53315,2.21363,1.35114,2.2291.81795,3.0445,1.36677,3.60899-.26658.55141-1.63335,1.64898-1.90251-1.94438-5.97152-3.59591-4.0716-7.18928-10.57887-2.20039-15.99894,4.96273-5.4227,20.42863-15.71673,30.42459-19.25259,15.61218-5.52726,7.18944,5.15354,7.18944,5.15354,0,0-1.94438,4.0716-10.5161,5.97152,0,0-.55141-5.15354,7.18928-9.49171" style=" fill-rule:evenodd; stroke-width:0px;"/><path d="M11.54061,63.73676h10.74085v2.76233h-7.23362v2.31803h6.60915v2.66041h-6.60915v2.52451h7.4271v2.9557h-10.93433v-13.22097ZM36.91363,76.95773h-2.25781l-.20656-1.43994c-.92243,1.27793-2.51143,1.72219-3.76053,1.72219-4.08464,0-6.72942-3.06025-6.72942-6.90711,0-3.81811,2.64478-6.86265,6.72942-6.86265,2.7936,0,5.78067,1.45562,6.10734,4.76673h-3.52015c-.12027-1.12895-1.24925-1.81104-2.66041-1.81104-2.27361,0-3.13335,1.96002-3.13335,3.90695,0,1.97573.85974,3.93574,3.13335,3.93574,1.73782,0,2.91131-.78665,3.089-1.9914h-2.4513v-2.56893h5.66041v7.24945ZM37.79171,76.95773h3.60915l.84666-2.37553h4.69364l.84666,2.37553h3.6535l-5.03594-13.22097h-3.56465l-5.04902,13.22097ZM52.48146,63.73676h5.17184l2.33103,8.80962h.02887l2.33374-8.80962h5.16913v13.22097h-3.29812v-10.04313h-.04434l-2.8381,10.04313h-2.67349l-2.8381-10.04313h-.02871v10.04313h-3.31375v-13.22097ZM73.4588,66.41025h2.73362c.72655,0,1.42423.31359,1.42423,1.26225,0,.95126-.83103,1.26225-1.42423,1.26225h-2.73362v-2.52451ZM83.58826,63.73676h3.52015v13.22097h-3.52015v-13.22097ZM89.53099,63.73676h10.75648v2.76233h-7.23633v2.31803h6.61186v2.66041h-6.61186v2.52451h7.42981v2.9557h-10.94996v-13.22097ZM102.44097,63.73676h3.60899l4.68056,8.14061h.02871v-8.14061h3.31375v13.22097h-3.61171l-4.67785-8.24513h-.0445v8.24513h-3.29796v-13.22097ZM127.16065,66.69249h-4.02722v10.26524h-3.50452v-10.26524h-4.02706v-2.95574h11.5588v2.95574ZM128.70515,63.73676h10.75393v2.76233h-7.23378v2.31803h6.61186v2.66041h-6.61186v2.52451h7.41418v2.9557h-10.93433v-13.22097ZM0,63.73676h3.50452v10.26528h6.29827v2.9557H0v-13.22097ZM69.95173,76.95773h6.47852c2.87989,0,5.25813-.96434,5.25813-4.11603,0-1.50008-.89116-2.71791-2.33374-3.13343,1.05577-.52003,1.78488-1.47133,1.78488-2.65778,0-2.74925-2.55593-3.34246-4.87388-3.31375h-6.3139v13.22097ZM73.4588,71.16394h2.82247c1.05322,0,1.8868.38676,1.8868,1.5445,0,1.1002-.77345,1.487-1.8868,1.487h-2.82247v-3.0315ZM44.59435,67.40593h.02871l1.50271,4.6361h-3.06284l1.53142-4.6361Z" style=" fill-rule:evenodd; stroke-width:0px;"/></g></svg>