<?xml version="1.0" encoding="UTF-8"?><svg id="b" xmlns="http://www.w3.org/2000/svg" viewBox="0 0 156.09569 26.60911"><g id="c"><path d="M22.97141,1.84501c0-.61936-.49918-1.13425-1.1368-1.13425h-2.27105c-.61936,0-1.13417.51489-1.13417,1.13425v16.92149L5.30247,1.84501c-.86764-1.13425-1.2936-1.13425-1.89725-1.13425H1.11591C.49654.71076,0,1.22565,0,1.84501v22.86422c0,.622.49654,1.1368,1.11591,1.1368h2.28932c.61936,0,1.13417-.51481,1.13417-1.11854V7.98378l12.98574,16.72545c.852,1.1368,1.41905,1.1368,2.03841,1.1368h2.27105c.63763,0,1.1368-.51481,1.1368-1.11854V1.84501ZM154.97978.78134h-2.28932c-.61936,0-1.15251.51489-1.15251,1.11591v22.81198c0,.622.53315,1.1002,1.15251,1.1002h2.28932c.60365,0,1.11591-.4782,1.11591-1.1002V1.89725c0-.60102-.51226-1.11591-1.11591-1.11591M97.6663,1.89725c0-.60102-.51489-1.11591-1.13425-1.11591h-2.27097c-.64026,0-1.1368.51489-1.1368,1.11591v15.27506c0,2.85381-2.51669,5.19537-5.62133,5.19537-3.08637,0-5.62396-2.34156-5.62396-5.19537V1.89725c0-.60102-.51481-1.11591-1.13417-1.11591h-2.27105c-.62192,0-1.15243.51489-1.15243,1.11591v15.27506c0,5.21363,4.576,9.4368,10.18162,9.4368s10.16335-4.22317,10.16335-9.4368V1.89725ZM38.61493,0c-5.60562,0-10.16335,4.22317-10.16335,9.45507v15.25416c0,.622.51489,1.1002,1.13425,1.1002h2.27097c.622,0,1.15251-.4782,1.15251-1.1002v-7.64403h11.22958v7.64403c0,.622.49654,1.1002,1.13417,1.1002h2.27097c.63771,0,1.13425-.4782,1.13425-1.1002v-15.25416c0-5.23189-4.5394-9.45507-10.16335-9.45507M44.23889,13.17914h-11.22958v-3.72408c0-2.90868,2.5009-5.23189,5.60562-5.23189s5.62396,2.32321,5.62396,5.23189v3.72408ZM71.82282.78134h-18.96253c-.55141,0-.99564.42596-.99564.97482v1.93386c0,.53315.44423.99309.99564.99309h7.1998v20.02612c0,.622.49654,1.1002,1.11854,1.1002h2.28932c.61936,0,1.13417-.4782,1.13417-1.1002V4.68311h7.2207c.53052,0,.97474-.45994.97474-.99309v-1.93386c0-.54886-.44423-.97482-.97474-.97482M122.12726,3.69002v-1.93386c0-.54886-.44423-.97482-.97474-.97482h-17.27695c-.55141,0-.99301.42596-.99301.97482v1.93386c0,.53315.44159.99309.99301.99309h12.70094l-13.32286,16.55039c-.44431.56705-.97482,1.15243-.97482,1.70385v1.9313c0,.55141.44431.97738.97482.97738h17.81002c.54878,0,.99301-.42596.99301-.97738v-1.9313c0-.55141-.44423-.99564-.99301-.99564h-13.33857l13.42742-16.65495c.45994-.56705.97474-1.1002.97474-1.59674M146.60656,3.69002v-1.93386c0-.54886-.44431-.97482-.99309-.97482h-17.2586c-.55141,0-.97738.42596-.97738.97482v1.93386c0,.53315.42596.99309.97738.99309h12.69831l-13.32031,16.55039c-.45994.56705-.97474,1.15243-.97474,1.70385v1.9313c0,.55141.44167.97738.97474.97738h17.81002c.53052,0,.99309-.42596.99309-.97738v-1.9313c0-.55141-.46257-.99564-.99309-.99564h-13.34112l13.4117-16.65495c.45994-.56705.99309-1.1002.99309-1.59674" style=" fill-rule:evenodd; stroke-width:0px;"/></g></svg>