<?xml version="1.0" encoding="UTF-8"?><svg id="b" xmlns="http://www.w3.org/2000/svg" viewBox="0 0 81.50188 89.07879"><g id="c"><path d="M1.61425,25.56642s.20907-.43641.68209-1.15507c.45471-.72129,1.15511-1.70656,2.10373-2.80676.96697-1.11854,2.16127-2.33111,3.64046-3.52541,1.47647-1.1943,3.2013-2.34945,5.22926-3.29812,0,0,.37899.96701,1.1368,2.54022.7579,1.55495,1.91559,3.75279,3.48889,6.18056,1.55232,2.44348,3.52541,5.15358,5.91402,7.78782,2.40687,2.61599,5.22926,5.15613,8.49077,7.25986,0,0-.32404-1.23346-.9304-3.16477-.62455-1.93386-1.55232-4.56811-2.78578-7.35397-1.23091-2.80676-2.78586-5.76241-4.62306-8.3575-1.85809-2.59764-4.01932-4.81638-6.50204-6.12306,0,0,.19077-.49391.66379-1.30668.47302-.8154,1.25181-1.9522,2.40695-3.29804,1.15507-1.32765,2.69175-2.8251,4.73798-4.38005,2.04631-1.53397,4.58645-3.10727,7.73295-4.56547,0,0-.19077.49128-.43649,1.38244-.2273.90943-.53044,2.2161-.71866,3.84682-.20903,1.63079-.30314,3.60126-.17243,5.81999.13327,2.2161.51218,4.68048,1.27007,7.29646l1.1577,3.31638c.71866,1.99136,1.66732,4.64387,2.67086,7.29646,1.00617,2.63425,2.06712,5.28939,2.95829,7.2782.88853,1.99136,1.62816,3.3163,1.98881,3.3163.07577,0,.51218-.66379,1.15507-1.8372.64552-1.1577,1.51834-2.84328,2.50361-4.88951,1.00354-2.0672,2.12207-4.47408,3.25888-7.12667,1.1368-2.63425,2.31276-5.49588,3.39207-8.45416.51226-1.98881.90951-3.54376,1.1943-4.87133.28488-1.34584.45475-2.44348.53052-3.50452.09674-1.06359.07585-2.10373.02098-3.29804-.07585-1.1943-.20911-2.54014-.37899-4.26496.03661.03653.737.49391,1.81893,1.28833,1.0793.77616,2.54014,1.87643,4.11343,3.16477,1.55232,1.28841,3.2013,2.7676,4.64132,4.3042,1.46084,1.53405,2.71002,3.12561,3.48881,4.66222,0,0-.34238-.0209-.90943.11237-.55149.13335-1.34592.43649-2.29458,1.04277-.94603.62455-2.02797,1.55495-3.18303,2.99489-1.1368,1.42168-2.33111,3.33464-3.48889,5.91402l-3.3163,7.39057-3.56202,7.86614-2.84328,6.25377-1.15778,2.54022,1.82156,1.38244c1.11846.8729,2.65251,2.0672,4.31983,3.41304,1.64906,1.32494,3.4313,2.80412,5.02286,4.20754,1.61245,1.4216,3.0524,2.76752,4.01932,3.86508,0,0-.51218-1.98873-1.02443-5.1535-.51218-3.16477-1.02443-7.48723-1.04269-12.16779-.03661-4.68311.43641-9.70597,1.91559-14.27152,1.47655-4.54984,3.94093-8.62404,7.90275-11.4099,0,0,.53052.16987,1.36418.50962.83366.32404,1.97046.81532,3.18311,1.44258,1.2152.60628,2.52188,1.34584,3.69784,2.19784,1.15515.85192,2.19784,1.80059,2.86163,2.82502,0,0-.87282.24564-2.12463,1.0218-1.24918.7579-2.89823,2.04623-4.43484,4.1317-1.53405,2.0672-2.99234,4.94709-3.86516,8.86976-.89116,3.94356-1.1943,8.92718-.47302,15.25672.50954,4.43755,1.51571,7.96033,2.68912,10.74874,1.1943,2.80412,2.57938,4.8687,3.90432,6.38704,1.32757,1.49745,2.59772,2.46182,3.52541,3.0315.9304.58802,1.53669.79705,1.53669.79705l-2.08547,1.97046c-1.27007,1.17604-2.97663,2.7676-4.77722,4.37742-1.77969,1.61245-3.63778,3.24053-5.211,4.49234-1.57321,1.27007-2.82502,2.16123-3.43138,2.31284,0,0,.07585-1.1943-.16979-3.18574-.22738-2.00699-.77624-4.83209-2.0097-8.11178-1.21257-3.27714-3.1465-7.01167-6.1205-10.82196-2.99489-3.82855-7.05082-7.71198-12.5467-11.33405l-.0575,2.16123-.09403,5.23189-.115,6.34788c-.03661,2.10373-.0575,4.05593-.0575,5.55338,0,1.42168.30577,2.76752.77879,4.00106.47302,1.23083,1.11846,2.36763,1.78225,3.3163.68213.94603,1.38252,1.72482,1.9522,2.29195.58539.56968,1.36418,1.00609,1.36418,1.00609-.0209.09411-.51218.28225-1.36418.45475-1.04269.20648-2.65515.41551-4.66485.53052-2.00699.13327-4.43484.15153-7.12396-.0575-2.69175-.19077-5.65012-.60628-8.72078-1.32757,0,0,.37891-.26398.93032-.77616.54886-.51226,1.30668-1.28841,2.06457-2.29458.7579-1.00354,1.51834-2.25526,2.12463-3.75271.60636-1.47655,1.04014-3.18311,1.13688-5.13531.03653-.62455.11237-2.237.18814-4.35907.0575-2.12199.13327-4.75624.17251-7.42973.01826-2.65259,0-5.36261-.09674-7.61795-.11237-2.25534-.28488-4.07683-.60628-4.96799-1.11854-.79442-2.65259-1.98873-4.35907-3.35291-1.72482-1.36418-3.60118-2.91913-5.40185-4.47408-1.81885-1.55232-3.56194-3.10727-4.96536-4.47145-1.42168-1.34584-2.51925-2.52188-3.0524-3.29804,0,0,.32404.56713.72129,1.80059.41815,1.23091.8729,3.12561,1.15515,5.83562.2848,2.71265.37891,6.21716,0,10.63374-.35809,4.43484-1.17341,9.77918-2.6892,16.16622-.43641,1.83983-.81532,3.71618-1.11846,5.59254-.32412,1.87643-.58802,3.75279-.8154,5.55338-.20903,1.81893-.37891,3.58028-.51218,5.22934-.13335,1.64906-.20911,3.20401-.28488,4.60735-.77616-.51218-1.9522-1.28841-3.27714-2.1795-1.32757-.90951-2.80676-1.93394-4.22844-2.99497-1.40075-1.06096-2.76752-2.16123-3.82855-3.16477-1.04273-1.00609-1.81889-1.93386-2.08284-2.67341-.0967-.30314,1.40075-2.44348,3.35295-5.76249,1.9339-3.33464,4.34077-7.88449,6.02635-13.01972,1.66995-5.15613,2.63688-10.89764,1.72482-16.64187-.88853-5.74152-3.67694-11.48566-9.4943-16.6209" style=" fill-rule:evenodd; stroke-width:0px;"/></g></svg>