<?xml version="1.0" encoding="UTF-8"?><svg id="b" xmlns="http://www.w3.org/2000/svg" viewBox="0 0 180.71607 24.86347"><g id="c"><path d="M45.05165,1.0663h-16.19238v3.24572h4.3121l-7.47942,14.11999-8.08833-14.07294,5.90094-.02608-.01045-3.26669H0v3.30067h5.41229l10.59195,19.86406h13.0328l10.59187-19.89804,5.41229-.03397.01045-3.23272ZM149.5048,1.0663h-16.18704v3.24572h4.30939l-7.47942,14.11999-8.08841-14.07294,5.90094-.02608-.01037-3.26669h-23.49411v3.30067h5.40966l10.59195,19.86406h13.03535l10.59203-19.89804,5.41221-.03397.00782-3.23272ZM99.51921,20.59061c-1.91304,0-5.61614-.00782-5.61614-.00782V4.35907l5.33127-.02608-.00782-3.26669h-21.40083v3.30067h5.40966l.01045,16.21583h-5.70491v3.61426l5.70754.03397h27.01944v-10.78272h-3.52015c-.19077,5.70762-5.14313,7.1423-7.22852,7.1423M59.60542.40243c-9.19898,0-16.65495,5.47761-16.65495,12.23056s7.45597,12.23048,16.65495,12.23048,16.65487-5.47761,16.65487-12.23048S68.8044.40243,59.60542.40243M59.3676,21.26485c-3.24317,0-5.8696-3.88606-5.8696-8.67891,0-4.79548,2.62643-8.68154,5.8696-8.68154,3.24053,0,5.8696,3.88606,5.8696,8.68154,0,4.79285-2.62907,8.67891-5.8696,8.67891M164.06375,0c-9.20161,0-16.65487,5.56646-16.65487,12.43178,0,6.86261,7.45326,12.42906,16.65487,12.42906,9.19651,0,16.65232-5.56646,16.65232-12.42906,0-6.86532-7.45581-12.43178-16.65232-12.43178M163.82338,21.20216c-3.24053,0-5.86952-3.94874-5.86952-8.8227,0-4.87125,2.62899-8.82007,5.86952-8.82007,3.24325,0,5.86952,3.94882,5.86952,8.82007,0,4.87396-2.62627,8.8227-5.86952,8.8227" style=" fill-rule:evenodd; stroke-width:0px;"/></g></svg>