<?xml version="1.0" encoding="UTF-8"?><svg id="b" xmlns="http://www.w3.org/2000/svg" viewBox="0 0 148.63979 36.43017"><g id="c"><path d="M52.91261,0c-1.57848,0-2.64733,1.1185-2.64733,2.7806v10.02746c-1.58629-1.46351-3.66658-2.27365-5.82518-2.27101-7.15275,0-10.88983,6.51508-10.88983,12.92824,0,6.41057,3.73708,12.92306,10.88983,12.92306,2.59509,0,4.576-.75263,5.9271-2.17431.23782,1.30668,1.17341,2.17431,2.5454,2.17431,1.58629,0,2.65251-1.1185,2.65251-2.78323V2.77274c0-1.65424-1.06622-2.77274-2.65251-2.77274M44.76159,31.63724c-4.3696,0-5.91929-4.39827-5.91929-8.16673,0-3.77105,1.54969-8.17977,5.91929-8.17977s5.91139,4.40086,5.91139,8.17455c0,3.77109-1.5445,8.17196-5.91139,8.17196M116.67063,15.29073c.99309-.0209,1.9731.21952,2.84328.69776.60636.34497,1.28578.53833,1.98099.56186,1.36673,0,2.28142-1.20475,2.28142-2.33111,0-2.20043-2.85899-3.68221-7.1057-3.68221-7.92891,0-11.48048,6.49419-11.48048,12.92824s3.55157,12.92306,11.48048,12.92306c4.57074,0,6.9698-1.89729,6.9698-3.77368,0-1.39552-.8859-2.32852-2.19784-2.32852-.6716,0-1.18123.26658-1.72746.55405-.92506.53574-1.97828.80754-3.0445.79183-4.88441,0-6.18582-5.13782-6.18582-8.16673,0-3.03146,1.30668-8.17455,6.18582-8.17455M21.97832,5.10385c-.40243-1.05577-1.14207-2.97137-3.4313-2.97137s-2.99234,1.82152-3.42094,2.9139c-.01563.03134-3.79195,10.15809-6.76858,18.10271H2.6892c-1.98617,0-2.6892,1.2544-2.6892,2.32588,0,1.1185.70566,2.3154,2.6892,2.3154h3.95656c-1.04796,2.79368-1.75353,4.69101-1.75353,4.69101-.22474.53833-.35283,1.11064-.38154,1.69344,0,1.1185.83366,2.25534,2.42777,2.25534,1.67522,0,2.21874-1.09764,2.61862-1.8947l.08621-.17773,2.11944-5.76504s.12282-.35542.28488-.80491h6.55165c1.98881,0,2.69702-1.19694,2.69702-2.31544,0-1.07408-.70566-2.32588-2.69702-2.32588h-4.84254c1.26489-3.44438,3.53849-9.60931,4.7903-13.0328,1.34065,3.65086,5.69709,15.51811,5.70236,15.5207.00518.00522,1.06622,2.94002,1.06622,2.94002l2.09855,5.72066c.27172.69776.81795,2.12463,2.72309,2.12463,1.59937,0,2.43822-1.13417,2.43822-2.25793-.02871-.59061-.16198-1.176-.39462-1.72219.01308.04183-10.20251-27.3357-10.20251-27.3357M95.64615,15.29073c.99309-.0209,1.9731.21952,2.84073.69776.60628.34497,1.28841.53833,1.98617.56186,1.36155,0,2.27879-1.20475,2.27879-2.33111,0-2.20043-2.85373-3.68221-7.1057-3.68221-7.91846.00259-11.47522,6.50723-11.47522,12.93346,0,6.42365,3.54894,12.92306,11.47522,12.92306,4.58382,0,6.98032-1.89729,6.98032-3.77368,0-1.39552-.88335-2.32852-2.2031-2.32852-.66642,0-1.18123.26658-1.72219.55405-.92777.53574-1.98091.80754-3.0524.79183-4.87651,0-6.17801-5.13782-6.17801-8.16673,0-3.03146,1.29886-8.17977,6.17537-8.17977M137.42067,10.52918c-7.36441,0-11.2165,6.51508-11.2165,12.92828,0,6.41057,3.85208,12.92302,11.2165,12.92302s11.21913-6.48896,11.21913-12.90998c0-6.42361-3.86253-12.93087-11.21913-12.93087v-.01045ZM137.42067,31.6242c-4.36697,0-5.91402-4.39827-5.91402-8.16673,0-3.77109,1.54705-8.16673,5.91402-8.16673,4.36952,0,5.91921,4.40086,5.91921,8.17455,0,3.77109-1.55232,8.17196-5.91921,8.17196v-.01304ZM81.40597,22.88252c0-6.06559-4.10817-12.34289-10.99175-12.34289-7.50031,0-11.43079,6.51771-11.43079,12.93087,0,5.96371,3.0524,12.92306,11.65817,12.92306,4.69882,0,10.27573-3.02364,10.27573-5.57427,0-1.57325-1.08975-2.42522-2.10636-2.42522-.75263,0-1.359.48346-2.07502,1.04014-1.19167.93032-2.82239,2.20302-6.03684,2.20302-3.61689,0-6.08126-2.38075-6.36088-5.97671h14.1905c1.9652,0,2.87726-.88335,2.87726-2.778M64.32251,21.36677c.2143-2.08547,1.25444-6.25114,6.07608-6.07082,3.86508,0,5.43574,3.41563,5.66312,6.07082h-11.7392Z" style=" stroke-width:0px;"/></g></svg>