<?xml version="1.0" encoding="UTF-8"?><svg id="b" xmlns="http://www.w3.org/2000/svg" viewBox="0 0 141.95886 77.43111"><g id="c"><path d="M10.51882,16.6654V0H0v13.92137c0,.93555.115,1.83979.33975,2.74403l.85464,2.49835,8.58225,17.06783c.48346.75786.74218,1.66206.74218,2.71002s-.25872,1.98354-.80758,2.84073L0,61.18649h10.51882l9.67981-19.40416c.54886-.85719.839-1.79277.839-2.84073s-.25872-1.95216-.80758-2.71002l-9.71123-19.56618ZM43.02369,16.6654V0h-10.5161v13.92137c0,.93555.12808,1.83979.35283,2.74403l.85448,2.49835,8.56662,17.06783c.48346.75786.74218,1.66206.74218,2.71002s-.25872,1.98354-.78924,2.84073l-9.72687,19.40416h10.5161l9.6956-19.40416c.53307-.85719.82321-1.79277.82321-2.84073s-.25872-1.95216-.79179-2.71002l-9.72702-19.56618ZM26.76343,60.76834l9.72687-19.56881c.53323-.75786.79195-1.65947.79195-2.71002,0-1.04796-.27451-1.98354-.82321-2.83814l-9.6956-19.40676h-10.50047l9.71123,19.40676c.54615.8546.78924,1.79018.78924,2.83814,0,1.05055-.24309,1.95216-.72655,2.71002l-8.58225,17.06783-.85448,2.50098c-.22474.9042-.3372,1.80581-.3372,2.7414v13.92137h10.50047v-16.66277Z" style=" fill-rule:evenodd; stroke-width:0px;"/><path d="M115.16417,51.05735c.2273.0967.32412.37109.32412.78924v7.46897c0,.37109-.09682.66119-.32412.79183l-1.21002.24046v.59847h5.74415v-.59847l-1.21002-.24046c-.24293-.13064-.33975-.42074-.33975-.79183v-7.46897c0-.41815.09682-.69254.33975-.78924.22474-.14635.59592-.22734,1.21002-.22734v-.66119h-5.74415v.66119l1.21002.22734ZM107.82591,50.86399c.51473,0,.93551.19336,1.25691.61151.32412.42074.46783.93559.46783,1.58107,0,.83888-.22474,1.40338-.74218,1.72746l-2.01489.41811v-3.40255c0-.59847.32141-.93559,1.03233-.93559M112.26067,53.05656c0-.93559-.32141-1.62812-1.03217-2.14556-.69258-.49914-1.7249-.74218-2.98453-.74218h-5.56375v.61414l1.20986.22474c.24054.14635.3372.42074.3372.79187v7.51599c0,.32408-.09666.61414-.3372.74218l-1.20986.24305v.59584h5.61335v-.59584l-1.25962-.29006c-.14372-.17773-.24038-.50177-.24038-.93559v-3.30852c.78924.14635,1.30668.37109,1.54705.69517l.22746.80491.09666,1.20998c.04705.88853.27435,1.53405.61155,1.95216.32396.42078.93551.66119,1.72746.66119,1.54705,0,2.28924-.83888,2.28924-2.51665h-.61155c-.04961.74218-.2273,1.11328-.54886,1.11328l-.43641-.27439-.4991-1.35373-.80758-1.50004c-.46767-.46779-1.1132-.74222-1.9522-.88857,1.0663-.04701,1.90515-.22474,2.56646-.54878.83884-.41815,1.25691-1.12899,1.25691-2.06457M94.08219,56.6055l1.30668-3.30589,1.45039,3.30589h-2.75707ZM97.21043,57.39737l.74218,1.82148.19332.61414-.19332.37109-.74218.14376h-.66115v.59847h5.71017v-.59847l-.93567-.2901-.56449-.74218-4.06375-9.34014h-.79179l-3.5176,8.40456-.83884,1.35632-1.25707.61155v.59847h4.38786v-.59847h-.74218c-.61426,0-.88861-.24046-.88861-.7579l.17769-.93559.46783-1.25699h3.5176ZM84.2089,55.66992h1.12899c1.53142-.04701,2.32337.79187,2.32337,2.53236,0,1.34065-.79195,2.04886-2.32337,2.04886-.75782,0-1.12899-.37109-1.12899-1.12899v-3.45224ZM84.2089,54.97738v-2.98445c0-.71084.32157-1.08193,1.03233-1.08193.59592,0,1.03233.1934,1.35373.56449.32412.32408.46783.83888.46783,1.54973,0,1.29101-.78924,1.95216-2.339,1.95216h-.51489ZM87.29009,55.25181v-.04969c.75797-.03134,1.35373-.27439,1.77451-.64548.46783-.41815.70821-.98264.70821-1.67777,0-.88594-.37117-1.54709-1.07938-2.01489-.69513-.45212-1.63063-.69517-2.85628-.69517h-5.64493v.66119l1.16041.22734c.24293.14376.32396.37109.32396.78924v7.46897c0,.32408-.08103.61414-.32396.79183l-1.16041.24046v.59847h6.16237c1.40334,0,2.48256-.32408,3.17785-1.01661.56449-.51744.85448-1.17863.85448-1.96787,0-1.53401-1.03217-2.4696-3.09682-2.71002M75.09358,50.83001v-.66119h-5.80683v.66119c.6141,0,.98527.08099,1.22565.22734.2273.0967.32412.37109.32412.78924v7.46897c0,.37109-.09682.66119-.32412.79183l-1.22565.24046v.59847h5.80683v-.59847l-1.22565-.24046c-.22474-.13064-.32141-.42074-.32141-.79183v-7.46897c0-.41815.09666-.69254.32141-.78924l1.22565-.22734ZM65.73773,52.03999c.46783.79183.69258,1.95216.69258,3.54894,0,1.58107-.22474,2.79104-.69258,3.58291-.46767.70821-1.12899,1.0793-2.01744,1.0793l-1.11336-.27439c-.19332-.14376-.28998-.43382-.33704-.80491v-7.13185c0-.41815.09666-.70821.33704-.83888.22746-.1934.59847-.2901,1.11336-.2901.88845-.04701,1.54977.33975,2.01744,1.12899M67.75533,59.41226c1.01398-.98264,1.53142-2.28932,1.58103-3.82333,0-1.64379-.56705-2.95047-1.63079-3.88606-1.08193-1.06626-2.62899-1.58111-4.54976-1.53405h-4.90259v.66119l1.17588.22734c.22746.0967.37117.37109.37117.78924v7.46897c0,.37109-.14372.66119-.37117.79183l-1.17588.24046v.59847h5.339c1.72474,0,3.08119-.51748,4.16312-1.53405M141.73412,37.89388l-.09666-3.82333h-9.77663v.61155l1.21002.22734c.24309.14376.33975.37109.33975.78924v7.51862c0,.37109-.09666.66119-.33975.78924l-1.21002.24305v.59584h10.00138l.09666-4.09772h-.66115c-.22474,1.06622-.69258,1.85546-1.35373,2.4696-.69513.61155-1.53397.93559-2.5663.93559l-1.03233-.24305c-.22474-.12804-.32141-.37109-.27435-.78924v-3.5489c.79179,0,1.30668.09666,1.63079.33712.33704.22734.61139.74218.83884,1.48437h.61155v-4.38782h-.61155c-.22746.71084-.50181,1.22569-.83884,1.45302-.32412.22474-.839.37109-1.63079.37109v-3.03409c-.04705-.41815.04961-.69254.27435-.78924.14643-.14635.51744-.24305,1.03233-.24305,1.92078-.03134,3.13079,1.03229,3.69529,3.13079h.66115ZM127.92516,35.37722c.33975.41815.46783.93559.46783,1.58111,0,.85456-.22474,1.40334-.74218,1.72478l-2.01489.43645v-3.4209c-.04977-.64548.33704-.96693,1.03217-.93559.51489,0,.93567.1934,1.25707.61414M131.10301,36.95833c0-.96956-.32141-1.67781-1.01653-2.14556-.70821-.50177-1.69348-.74222-3.00016-.74222h-5.51685v.61155l1.21002.22734c.24309.14376.33975.37109.33975.78924v7.51862c0,.37109-.09666.66119-.33975.78924l-1.21002.24305v.59584h5.56646v-.59584l-1.25962-.29006c-.19348-.17773-.29014-.51748-.24038-.96956v-3.3216c.80487.14376,1.32231.37113,1.54705.70825l.24309.79183.08103,1.20998c.04689.93559.24038,1.58111.61139,1.99921.32412.42078.93567.66119,1.72746.66119,1.54721,0,2.2894-.83888,2.2894-2.56371h-.59592c-.04961.78924-.24309,1.16033-.56449,1.16033l-.42078-.27439-.51473-1.40338-.79195-1.50008c-.4337-.46779-1.07922-.74218-1.96783-.8859,1.0663-.03397,1.96783-.22738,2.5663-.54882.839-.42074,1.25707-1.12899,1.25707-2.06453M113.293,40.50723l1.30668-3.30848,1.45294,3.30848h-2.75962ZM115.90635,33.89286h-.78924l-3.50197,8.38885-.83884,1.40338c-.28998.27443-.70821.46779-1.2727.61155v.59843h4.4035v-.59843h-.75782c-.59847,0-.93567-.24046-.88861-.7579-.04705-.32145.04977-.64548.19348-.96693l.46767-1.27533h3.50197l.75782,1.82412.17769.66119-.17769.37109-.75782.14376h-.64552v.59843h5.69454v-.59843c-.42078-.04705-.69258-.14376-.93567-.2901l-.5487-.78924-4.08209-9.32443ZM105.80831,34.68209v-.61155h-5.69454v.61155l1.21002.22734c.22746.14376.32412.37109.32412.78924v7.51862c0,.37109-.09666.66119-.32412.78924l-1.21002.24305v.59584h9.06587l.09666-4.14478h-.66115c-.22474.98264-.61155,1.77447-1.21002,2.41995-.61155.70825-1.25707,1.03229-2.06465,1.03229l-.83884-.19336c-.14372-.13068-.22474-.42078-.22474-.79187v-7.46897c0-.41815.08103-.64548.32141-.78924l1.21002-.22734ZM92.01499,39.44101c-.04689-3.27455.839-4.90267,2.56646-4.85562,1.69332-.04705,2.53233,1.58107,2.53233,4.85562,0,3.25884-.839,4.88959-2.53233,4.88959-1.72746,0-2.61335-1.63075-2.56646-4.88959M100.11377,39.44101c0-1.50008-.56433-2.80676-1.64371-3.92003-1.11336-1.07934-2.43822-1.62812-3.88861-1.67777-1.53413,0-2.84081.54878-3.92003,1.67777-1.12899,1.11328-1.67785,2.41995-1.63079,3.92003-.04705,1.53401.50181,2.84069,1.63079,3.96968,1.07922,1.06363,2.3859,1.62812,3.92003,1.62812,1.45039,0,2.77525-.56449,3.88861-1.62812,1.07938-1.12899,1.64371-2.43566,1.64371-3.96968M85.28828,35.42428c.27435.42074.42078.98523.42078,1.58107,0,1.45302-.75797,2.19521-2.21092,2.19521h-.54886v-3.25884c0-.42074.08103-.71084.27451-.88853.19332-.1934.42062-.2901.74218-.2901.56449,0,.98511.24305,1.32231.66119M88.41907,36.92436c0-.93559-.37101-1.64383-1.08193-2.16127-.69258-.45208-1.62808-.69254-2.75707-.69254h-5.71017v.61155l1.22565.22734c.22474.14376.32141.37109.32141.78924v7.51862c0,.37109-.09666.66119-.32141.78924l-1.22565.24305v.59584h5.75723v-.59584l-1.30668-.29006c-.24038-.13068-.37117-.46779-.37117-.88857v-3.11249h1.77451c1.08193,0,1.96783-.2901,2.66296-.80754.70821-.54878,1.07938-1.30668,1.03233-2.22655M70.93318,39.44101c0-3.27455.8859-4.90267,2.61335-4.85562,1.67769-.04705,2.53233,1.58107,2.53233,4.85562,0,3.25884-.85464,4.88959-2.53233,4.88959-1.72746,0-2.61335-1.63075-2.61335-4.88959M79.06322,39.44101c0-1.50008-.56449-2.80676-1.63063-3.92003-1.12899-1.07934-2.43566-1.62812-3.88606-1.67777-1.54977,0-2.85644.54878-3.9698,1.67777-1.07922,1.11328-1.64643,2.41995-1.64643,3.92003,0,1.53401.56721,2.84069,1.64643,3.96968,1.11336,1.06363,2.42003,1.62812,3.9698,1.62812,1.45039,0,2.75707-.56449,3.88606-1.62812,1.06614-1.12899,1.63063-2.43566,1.63063-3.96968M63.34912,34.76308c.56449,0,.98527.24305,1.30668.66119.29014.42074.42078.98523.42078,1.58107,0,1.45302-.74218,2.19521-2.19513,2.19521h-.56449v-3.25884c0-.42074.09666-.71084.28998-.88853.17769-.1934.42078-.2901.74218-.2901M66.723,34.76308c-.71076-.45208-1.64643-.69254-2.75962-.69254h-5.71017v.61155l1.20986.22734c.24054.14376.3372.37109.3372.78924v7.51862c0,.37109-.09666.66119-.3372.78924l-1.20986.24305v.59584h5.75707v-.59584l-1.32231-.29006c-.22474-.13068-.37101-.46779-.37101-.88857v-3.11249h1.77435c1.08193,0,1.96799-.2901,2.67875-.80754.69258-.54878,1.06359-1.30668,1.01653-2.22655,0-.93559-.37101-1.64383-1.06359-2.16127M108.56809,24.32797h-2.75978l1.30668-3.3242,1.4531,3.3242ZM108.4373,17.69788h-.80487l-3.50181,8.38625-.839,1.40338-1.2727.61414v.59584h4.4035v-.59584h-.75782c-.59847,0-.88845-.24305-.88845-.74218l.19332-.98523.46783-1.25703h3.50181l.75797,1.82412.17769.64289-.17769.37109-.75797.14635h-.64552v.59584h5.69454v-.59584l-.91987-.27439-.56449-.80754-4.06646-9.32184ZM101.88828,17.96968h-.66115l-.61155.66379c-1.1132-.66379-2.14552-.98523-3.08119-.93559-1.50255-.04965-2.80923.51485-3.88861,1.67518-1.11336,1.11328-1.67769,2.41995-1.63079,3.92003-.04689,1.58107.46783,2.88775,1.50016,3.96968,1.03488,1.06363,2.43822,1.62812,4.25978,1.62812,1.43731,0,2.51669-.37109,3.30848-1.16033.75782-.78924,1.12899-1.87117,1.12899-3.22749h-.69513c-.04705,1.16296-.3868,2.09851-.93567,2.71006-.61155.64548-1.40334.98523-2.43566.98523-2.19258,0-3.27451-1.64643-3.2249-4.90526-.04961-3.27455.88606-4.90267,2.80684-4.85562.8859,0,1.58103.27439,2.14552.83888.41823.51744.8859,1.40338,1.35373,2.5663h.66115v-3.87298ZM91.79024,18.53418v-.66119h-3.98527v.66119l1.30668.37109c.24309.14635.3868.42074.3868.79183v5.54815h-.04705l-5.29211-7.37227h-3.88606v.66119l1.2727.22734c.22746.14376.37117.37113.37117.80754v7.50031l-.32157.78924-1.22565.24305v.59584h4.25723v-.59584l-1.45039-.24305c-.22746-.17769-.37117-.44949-.37117-.78924v-6.66143h.04705l6.03429,8.28955h1.45039v-9.00039c0-.37109.08103-.64548.32412-.79183.22474-.1934.61139-.32145,1.12883-.37109M74.80344,24.32797h-2.75707l1.30668-3.3242,1.45039,3.3242ZM79.30376,27.82726l-.56449-.80754-4.06375-9.32184h-.80758l-3.54902,8.38625c-.27435.71084-.56433,1.17863-.83884,1.40338l-1.25691.61414v.59584h4.43476v-.59584h-.74218c-.61155,0-.93551-.24305-.93551-.74218l.17769-.98523.51744-1.25703h3.49925l.75782,1.82412.17769.64289-.17769.37109-.75782.14635h-.64552v.59584h5.71017v-.59584c-.43386-.04965-.70821-.14635-.93551-.27439M65.73773,25.90645c0,1.40338-.79179,2.09851-2.33884,2.09851-.74218,0-1.12899-.37109-1.12899-1.16292v-3.45224h1.12899c1.54705-.04705,2.33884.79183,2.33884,2.51665M63.30207,18.63347c.61155,0,1.03233.1751,1.35373.54619.32412.33975.46783.83888.46783,1.54973,0,1.30668-.78924,1.95216-2.339,1.95216h-.51473v-2.98445c0-.69513.33704-1.06363,1.03217-1.06363M66.77006,18.58382c-.71076-.46779-1.64643-.71084-2.85644-.71084h-5.66041v.66119l1.17588.22734c.22746.14376.32412.37113.32412.80754v7.50031l-.32412.78924-1.17588.24305v.59584h6.17785c1.4035,0,2.46709-.32145,3.17785-1.01657.56449-.51485.839-1.20998.839-2.01489,0-1.53405-1.03233-2.46964-3.08119-2.69438v-.04965c.74218-.04705,1.35628-.2901,1.77451-.66119.46767-.41815.69242-.96693.69242-1.67777,0-.88594-.37101-1.53142-1.06359-1.99921" style=" fill-rule:evenodd; stroke-width:0px;"/></g></svg>