<?xml version="1.0" encoding="UTF-8"?><svg id="b" xmlns="http://www.w3.org/2000/svg" viewBox="0 0 152.07233 51.87908"><g id="c"><path d="M63.48362,38.34188l4.78767,6.31909h-17.27431l-5.46709,7.21811h-7.92899l24.28853-32.05542,24.2859,32.05542h-7.92628l-16.35962-21.59415-6.10479,8.05695h7.69898ZM95.95452,31.555h6.31909v20.32408h-6.31909v-20.32408ZM80.19863,21.63473h37.83087v6.31909h-37.83087v-6.31909ZM35.53378,42.73756c0,5.04116-4.10035,9.14152-9.14148,9.14152H0v-8.36795h6.31909v2.04886h20.07321c1.56013,0,2.82239-1.26225,2.82239-2.82243,0-1.55754-1.26225-2.82243-2.82239-2.82243H0v-6.31909h21.2152c1.55758,0,2.81984-1.26225,2.81984-2.8198,0-1.56017-1.26225-2.82243-2.81984-2.82243H6.31909v2.04886H0v-8.36795h21.2152c5.03857,0,9.13892,4.10035,9.13892,9.14152,0,1.2152-.24046,2.3729-.67168,3.43657,3.4183,1.32235,5.85134,4.64391,5.85134,8.52474" style=" stroke-width:0px;"/><path d="M136.9973,9.33076c-2.41214-1.35369-5.05947-2.20302-7.74603-2.81194-4.67793-1.06363-9.4943-1.40338-14.2846-1.33806-2.43566.03138-4.86606.16202-7.2912.39203-2.339.22211-4.68056.51481-6.9934.91987-2.29713.39984-4.58382.84411-6.84953,1.39556-.24572.06009-.49136.12019-.737.18032-.07321.01826-.05487.13064.0209.12282,21.9705-2.08024,39.89808,3.54108,41.76662,13.85338.97219,5.37042-2.58201,11.07541-9.21469,16.1218-.06269.04965.00526.14372.07058.09929,5.28939-3.45487,10.88983-7.33044,14.68441-12.47616,1.359-1.84242,2.50361-4.0533,2.70483-6.36874.37636-4.31987-2.51143-8.05958-6.13087-10.09018M151.8385,5.92557c-.71084-2.7597-3.34246-4.14218-5.91139-4.8687-1.02706-.29006-2.08028-.49914-3.13869-.65334-4.71445-.6716-9.61186-.39984-14.31332.05491-2.73354.26394-5.45927.62718-8.16936,1.06363-1.70385.2718-3.40259.57494-5.09599.91728-.07321.01567-.06013.12545.01826.12282,3.52541-.15943,7.05864-.22734,10.58413-.08362,4.51842.18295,9.11532.63504,13.29407,2.47745,3.44183,1.51838,6.50731,4.33555,7.21552,8.17718.4782,2.60291.0705,5.39658-.86245,7.85837-.02608.06532.06013.115.10456.06273.14116-.16724.28225-.33712.42333-.50699,2.25271-2.7205,4.38005-5.752,5.47243-9.14674.56186-1.74835.84411-3.67176.37891-5.47498" style=" stroke-width:0px;"/></g></svg>