<?xml version="1.0" encoding="UTF-8"?><svg id="b" xmlns="http://www.w3.org/2000/svg" viewBox="0 0 156.43488 67.87052"><g id="c"><path d="M43.49311,17.84123l.47038.76045c.12011.19603.08103.45212-.09411.59847l-.67679.57494c-.13335.115-.19348.29533-.14898.46779l.21693.87286c.05487.22474-.06013.45471-.26925.54097l-.81795.33189c-.16206.06536-.2718.22215-.28488.39725l-.05758.89898c-.01292.22997-.19332.41292-.42062.42859l-.87808.0575c-.17259.01304-.32412.12541-.38951.29006l-.32667.83629c-.08358.2143-.31088.33189-.52781.27439l-.85464-.21952c-.16987-.04442-.34756.01308-.45986.15157l-.56194.68995c-.14372.17769-.39462.21952-.58794.09666l-.7449-.48083c-.14627-.0967-.33449-.0967-.48075,0l-.7449.48083c-.19332.12286-.44423.08103-.58794-.09666l-.56449-.68995c-.10974-.13849-.28743-.19599-.45731-.15157l-.85464.21952c-.21948.0575-.44694-.06009-.52781-.27439l-.32667-.83629c-.0654-.16465-.21693-.27702-.38951-.29006l-.88064-.0575c-.22474-.01567-.40515-.19863-.42078-.42859l-.05742-.89898c-.01053-.1751-.12027-.33189-.28233-.39725l-.81795-.33189c-.21167-.08625-.32667-.31622-.26925-.54097l.21693-.87286c.04179-.17247-.01563-.35279-.14898-.46779l-.67934-.57494c-.17259-.14635-.21438-.40243-.09156-.59847l.47038-.76045c.09411-.15161.09411-.34238,0-.49132l-.47038-.76312c-.12282-.19336-.08103-.44949.09156-.59847l.67934-.5749c.13335-.11237.19077-.29533.14898-.46779l-.21693-.87286c-.05742-.22215.05758-.45475.26925-.53837l.81795-.33449c.16206-.06536.2718-.21952.28233-.39725l.05742-.89898c.01563-.22997.19603-.41292.42078-.42859l.88064-.0575c.17259-.01308.32412-.12545.38951-.29006l.32667-.83629c.08087-.2143.30833-.33189.52781-.27439l.85464.22211c.16987.04442.34756-.01567.45731-.15157l.56449-.69254c.14372-.17769.39462-.21952.58794-.09407l.7449.48083c.14627.09411.33449.09411.48075,0l.7449-.48083c.19332-.12545.44423-.08362.58794.09407l.56194.69254c.11229.1359.28998.19599.45986.15157l.85464-.22211c.21693-.0575.44423.06009.52781.27439l.32667.83629c.0654.16461.21693.27698.38951.29006l.87808.0575c.2273.01567.4077.19863.42062.42859l.05758.89898c.01308.17773.12282.33189.28488.39725l.81795.33449c.20911.08362.32412.31622.26925.53837l-.21693.87286c-.0445.17247.01563.35542.14898.46779l.67679.5749c.17514.14898.21422.40511.09411.59847l-.47038.76312c-.09411.14894-.09411.33971,0,.49132M53.0501,16.67827C52.60588,7.73797,45.49221.47548,36.73498.02336c-10.22612-.53052-18.62797,8.0465-18.10797,18.48688.44167,8.94026,7.55774,16.20279,16.31512,16.6575,10.22612.52789,18.62541-8.04914,18.10797-18.48947" style=" stroke-width:0px;"/><path d="M63.34322,52.31054c-1.50781.94344-3.20401,1.26489-4.77451,1.03488-.00798.00522-.01579.01049,0,0,.68987-.43119,1.46076-2.63684.71076-3.88865-.51489-.85456-.88064-1.45825-1.05849-1.7588-.08358-.13849-.12792-.21167-.12792-.21167-.12553-.2117-.36862-.61155-.79977-1.3302-.75-1.25181-3.02632-1.54973-3.71618-1.11854-.00782.00786-.01563.01049,0,.00263.51218-1.53665,1.56284-2.93217,3.06811-3.87561,3.25106-2.03319,7.38276-1.18908,9.23032,1.88947,1.85028,3.07588.71602,7.2207-2.53233,9.25648M68.90968,41.01302c-4.98888-8.30263-15.6227-10.90291-23.75546-5.8121-8.13005,5.09344-10.67816,15.95193-5.69183,24.25193,4.98888,8.30263,15.62526,10.90554,23.75546,5.8121,8.13005-5.09344,10.68071-15.95193,5.69183-24.25193" style=" opacity:.5; stroke-width:0px;"/><path d="M12.79497,53.31615c-.11245-.16724-.21167-.34234-.30322-.52525-.39462-.76571-.61936-1.63335-.61936-2.55848,0-3.04454,2.41732-5.51681,5.40185-5.51681,1.74835,0,3.30322.84937,4.2912,2.16387.06524.08885.12792.17773.19077.26917.0705.10978.141.22215.2064.33716.45475.81013.71602,1.74831.71602,2.74662,0,3.04717-2.41987,5.51677-5.4044,5.51677-1.74835,0-3.30322-.8467-4.28849-2.16383-.06795-.08625-.13064-.17773-.19077-.26921M17.27423,32.5975h0C7.73543,32.5975,0,40.49506,0,50.23241c0,9.73998,7.73543,17.63492,17.27423,17.63492s17.27423-7.89493,17.27423-17.63492c0-9.73735-7.73543-17.63492-17.27423-17.63492" style=" opacity:.75; stroke-width:0px;"/><path d="M93.05003,23.67789c-1.00601,1.00613-2.48256,1.54446-4.21528,1.54446h-5.71273V8.5544h5.71273c1.73272,0,3.20927.53833,4.21528,1.5445,1.73272,1.73264,1.63861,4.2859,1.63861,6.60393s.09411,5.24238-1.63861,6.97506M91.80875,11.36375c-.86756-.88853-1.99144-1.21783-3.27722-1.21783h-3.62989v13.48492h3.62989c1.28578,0,2.40966-.32667,3.27722-1.2152,1.14733-1.1943,1.10028-3.67698,1.10028-5.7128,0-2.03841.04705-4.14478-1.10028-5.33908" style=" stroke-width:0px;"/><path d="M108.38578,25.22419l-1.33539-3.76842h-7.27828l-1.33539,3.76842h-1.89733l6.1335-16.67058h1.50016l6.11006,16.67058h-1.89733ZM103.4465,11.10687l-3.13606,8.80177h6.22506l-3.089-8.80177Z" style=" stroke-width:0px;"/><polygon points="123.60509 25.22367 114.75631 11.85635 114.75631 25.22367 112.97653 25.22367 112.97653 8.55568 114.6622 8.55568 123.51098 21.87595 123.51098 8.55568 125.29075 8.55568 125.29075 25.22367 123.60509 25.22367" style=" stroke-width:0px;"/><path d="M134.40033,25.364c-2.50361,0-4.14222-.63244-5.71273-2.20043l1.21783-1.21783c1.37973,1.38244,2.67078,1.82675,4.54195,1.82675,2.43566,0,3.93311-1.14729,3.93311-3.09163,0-.865-.25872-1.61504-.79705-2.08284s-.95911-.60892-2.17694-.79705l-1.94167-.30314c-1.31194-.2117-2.34171-.63244-3.06811-1.26489-.84156-.74741-1.26489-1.77969-1.26489-3.11249,0-2.83288,2.03833-4.70668,5.339-4.70668,2.12989,0,3.53594.53837,4.96289,1.82675l-1.14733,1.14725c-1.02961-.93555-2.12989-1.4295-3.88606-1.4295-2.224,0-3.51233,1.24136-3.51233,3.09159,0,.81799.23511,1.47396.75,1.91823.51489.44686,1.38244.77353,2.24745.91465l1.82683.27965c1.56795.23519,2.34156.56186,3.04195,1.17078.91461.77357,1.40589,1.92082,1.40589,3.30326,0,2.92435-2.2945,4.72757-5.75978,4.72757" style=" stroke-width:0px;"/><polygon points="154.25506 25.22367 149.17478 16.35132 145.66229 20.56405 145.66229 25.22367 143.88522 25.22367 143.88522 8.55568 145.66229 8.55568 145.66229 18.13101 153.43711 8.55568 155.61406 8.55568 150.369 14.99241 156.36406 25.22367 154.25506 25.22367" style=" stroke-width:0px;"/><path d="M92.58108,46.26114l-3.70326-7.40884h-3.33464v7.40884h-2.66551v-17.58527h6.81555c3.33209,0,5.45672,2.14819,5.45672,5.13786,0,2.51929-1.53142,4.12388-3.50707,4.66748l4.05067,7.77993h-3.11245ZM89.49463,31.07233h-3.95145v5.50632h3.95145c1.77706,0,2.98708-1.01135,2.98708-2.7414,0-1.72742-1.21002-2.76493-2.98708-2.76493" style=" stroke-width:0px;"/><polygon points="99.05417 46.26014 99.05417 28.6775 110.29156 28.6775 110.29156 31.07134 101.71984 31.07134 101.71984 36.2092 109.03194 36.2092 109.03194 38.57951 101.71984 38.57951 101.71984 43.86368 110.29156 43.86368 110.29156 46.26014 99.05417 46.26014" style=" stroke-width:0px;"/><polygon points="120.73222 31.07233 120.73222 46.26114 118.06399 46.26114 118.06399 31.07233 113.22409 31.07233 113.22409 28.67587 125.57212 28.67587 125.57212 31.07233 120.73222 31.07233" style=" stroke-width:0px;"/><path d="M134.63799,46.40805c-3.58028,0-6.29811-2.44611-6.29811-6.07604v-11.65558h2.66822v11.53276c0,2.34678,1.43205,3.8024,3.62989,3.8024s3.65605-1.45562,3.65605-3.8024v-11.53276h2.66567v11.65558c0,3.62993-2.74144,6.07604-6.32172,6.07604" style=" stroke-width:0px;"/><path d="M153.32243,46.26114l-3.70326-7.40884h-3.33464v7.40884h-2.66551v-17.58527h6.813c3.33464,0,5.45927,2.14819,5.45927,5.13786,0,2.51929-1.53142,4.12388-3.50707,4.66748l4.05067,7.77993h-3.11245ZM150.23598,31.07233h-3.95145v5.50632h3.95145c1.77706,0,2.98708-1.01135,2.98708-2.7414,0-1.72742-1.21002-2.76493-2.98708-2.76493" style=" stroke-width:0px;"/><path d="M86.87346,65.07836c-2.29195,0-3.79195-.57753-5.22926-2.01489l1.11591-1.11332c1.26217,1.26489,2.44077,1.67255,4.15514,1.67255,2.22926,0,3.60118-1.05055,3.60118-2.83024,0-.79183-.23511-1.47655-.7291-1.90515-.49383-.42859-.87808-.55923-1.99399-.7291l-1.77706-.27965c-1.19949-.19336-2.14297-.57753-2.80668-1.1577-.77105-.68472-1.1577-1.62812-1.1577-2.84855,0-2.59246,1.86591-4.30683,4.88696-4.30683,1.94949,0,3.23527.49132,4.54195,1.66995l-1.05051,1.05055c-.94348-.85719-1.94965-1.30668-3.55684-1.30668-2.03578,0-3.21437,1.1368-3.21437,2.82765,0,.75004.21422,1.3511.68731,1.7588.47038.40507,1.26217.70562,2.05668.83366l1.66987.25872c1.43476.2143,2.14297.51485,2.78594,1.07148.83613.70558,1.28578,1.75617,1.28578,3.02101,0,2.67871-2.10118,4.32773-5.27121,4.32773" style=" stroke-width:0px;"/><polygon points="99.28131 58.65029 99.28131 64.94848 97.65322 64.94848 97.65322 58.65029 93.11112 49.69432 94.86728 49.69432 98.46591 57.00127 102.02275 49.69432 103.78146 49.69432 99.28131 58.65029" style=" stroke-width:0px;"/><path d="M110.08181,65.07836c-2.29195,0-3.79195-.57753-5.22926-2.01489l1.11591-1.11332c1.26217,1.26489,2.44348,1.67255,4.15514,1.67255,2.22926,0,3.60118-1.05055,3.60118-2.83024,0-.79183-.23511-1.47655-.7291-1.90515-.49128-.42859-.87808-.55923-1.99128-.7291l-1.77977-.27965c-1.19949-.19336-2.14297-.57753-2.80668-1.1577-.77105-.68472-1.1577-1.62812-1.1577-2.84855,0-2.59246,1.86591-4.30683,4.88696-4.30683,1.94949,0,3.23527.49132,4.54195,1.66995l-1.05051,1.05055c-.94348-.85719-1.94965-1.30668-3.55684-1.30668-2.03578,0-3.21437,1.1368-3.21437,2.82765,0,.75004.21422,1.3511.68731,1.7588.47038.40507,1.26217.70562,2.05668.83366l1.66987.25872c1.43476.2143,2.14297.51485,2.78594,1.07148.83613.70558,1.28578,1.75617,1.28578,3.02101,0,2.67871-2.09863,4.32773-5.27121,4.32773" style=" stroke-width:0px;"/><polygon points="123.23998 51.15101 123.23998 64.94952 121.6119 64.94952 121.6119 51.15101 117.19787 51.15101 117.19787 49.69276 127.654 49.69276 127.654 51.15101 123.23998 51.15101" style=" stroke-width:0px;"/><polygon points="130.5063 64.9498 130.5063 49.69304 139.97716 49.69304 139.97716 51.15129 132.13438 51.15129 132.13438 56.52957 138.81946 56.52957 138.81946 57.98523 132.13438 57.98523 132.13438 63.49414 139.97716 63.49414 139.97716 64.9498 130.5063 64.9498" style=" stroke-width:0px;"/><polygon points="154.80568 64.9498 154.80568 53.35695 150.62693 62.55074 149.23396 62.55074 144.99252 53.35695 144.99252 64.9498 143.36444 64.9498 143.36444 49.69304 144.99252 49.69304 149.96306 60.51492 154.80568 49.69304 156.43376 49.69304 156.43376 64.9498 154.80568 64.9498" style=" stroke-width:0px;"/></g></svg>