<?xml version="1.0" encoding="UTF-8"?><svg id="b" xmlns="http://www.w3.org/2000/svg" viewBox="0 0 174.28732 61.36422"><g id="c"><path d="M13.24446,45.70108h1.44002v-3.87298l3.81555-5.45409v-.11237h-1.6099l-2.92694,4.24407-2.92694-4.24407h-1.6099v.11237l3.81811,5.46453v3.86253ZM1.44784,40.24437v-2.73091h2.01233c1.17859,0,1.90243.3632,1.90243,1.38763,0,.94348-.77871,1.34592-1.9731,1.34592l-1.94167-.00263ZM1.44784,44.45191v-2.92694h2.41477c1.38771,0,2.20566.42851,2.20566,1.51308,0,.9304-.66387,1.41642-1.96783,1.41642l-2.65259-.00255ZM.00526,45.69845h4.28594c2.18205,0,3.3163-.96956,3.3163-2.49835,0-1.41387-.8859-2.16387-2.32848-2.41214.9564-.31885,1.57576-1.01398,1.57576-2.05668,0-1.69611-1.22038-2.46964-3.20656-2.46964H0l.00526,9.4368Z" style=" stroke-width:0px;"/><path d="M160.01053,60.96179h4.05593l10.22086-24.63873h-4.09517l-8.18508,19.8249-7.61005-19.81964h-4.09246l3.21437,8.26603-5.21092,12.139-8.0806-20.39984h-4.05848l9.78174,24.62828h4.05864l5.18221-11.92215,4.81901,11.92215ZM109.64604,48.68425c0-5.25287,3.76834-9.13103,8.948-9.13103,5.25558,0,8.98739,3.87816,8.98739,9.13103,0,5.17965-3.73181,9.09187-8.98739,9.09187-5.17965,0-8.948-3.91485-8.948-9.09187M105.95075,48.68425c0,7.20762,5.43566,12.64599,12.64328,12.64599,7.2861,0,12.71921-5.43837,12.71921-12.64599,0-7.28339-5.43311-12.71921-12.71921-12.71921-7.20762,0-12.64328,5.43582-12.64328,12.71921M101.45841,60.96179v-3.29804h-13.47973v-21.33543h-3.7685v24.63346h17.24823ZM66.05786,30.99706c0,1.41123.90679,1.95738,2.21092,1.95738,1.26744,0,2.13771-.54615,2.13771-1.95738,0-1.45039-.87027-1.95738-2.13771-1.95738-1.30413,0-2.21092.50699-2.21092,1.95738M56.92675,30.99706c0,1.41123.90679,1.95738,2.17439,1.95738,1.26744,0,2.17423-.54615,2.17423-1.95738,0-1.45039-.90679-1.95738-2.17423-1.95738-1.2676,0-2.17439.50699-2.17439,1.95738M56.56355,36.32306h-3.7685v14.46229c0,6.15974,3.69529,10.57887,10.83496,10.57887,7.21033,0,10.94215-4.88959,10.94215-10.57887v-14.45703h-3.7685v14.16697c0,4.24407-2.28142,7.35397-7.17364,7.35397-4.81901,0-7.0639-2.89815-7.0639-7.31736l-.00255-14.20884ZM28.80974,46.72424v-7.13704h5.25287c3.08103,0,4.97054.9434,4.97054,3.62471,0,2.46438-2.02797,3.51496-5.14568,3.51496l-5.07773-.00263ZM28.80974,57.70554v-7.64666h6.30338c3.62479,0,5.76249,1.12372,5.76249,3.95137,0,2.42522-1.73798,3.69529-5.14313,3.69529h-6.92274ZM25.04124,60.96179h11.19815c5.68673,0,8.65817-2.53496,8.65817-6.52294,0-3.69529-2.32066-5.65267-6.08916-6.30338,2.5009-.83366,4.1317-2.64733,4.1317-5.36261,0-4.42184-3.18822-6.4498-8.36277-6.4498h-9.5361v24.63873Z" style=" stroke-width:0px;"/><path d="M153.09018,23.18834c1.55742.90679,5.10899,2.14034,8.66056,2.14034,5.83299,0,10.03535-3.01061,10.03535-7.57353,0-3.47836-2.31811-5.43574-6.66673-6.59352l-4.78248-1.23346c-2.24745-.61673-3.40514-1.45302-3.40514-3.15169,0-1.84764,1.62808-3.29812,5.4698-3.29812,2.75452,0,5.94018.90687,7.68056,1.95746l1.08975-3.47836c-1.84756-.97746-5.17965-1.95746-8.62404-1.95746-6.52031,0-9.52828,3.2249-9.52828,7.10314,0,3.22482,2.03068,5.43574,6.15966,6.41312l4.41929,1.08983c3.00797.7291,4.27796,1.69866,4.27796,3.44175,0,2.42522-2.46438,3.80503-6.05247,3.80503-3.2249,0-6.15711-1.23083-7.82698-2.28142l-.90679,3.61689ZM133.16065,3.61952c5.25542.03397,8.98739,3.1883,8.98739,9.0579,0,5.79639-3.73197,8.98468-8.98739,8.98468h-6.12314V3.61952h6.12314ZM123.26917,24.95495h10.0379c7.28339,0,12.7165-4.34863,12.7165-12.2828,0-8.00731-5.43311-12.31932-12.7165-12.3533h-10.0379v24.6361ZM109.502,24.95495h3.7685V.32667h-3.7685v24.62828ZM91.74941,3.61952c2.75197,0,4.9262,1.52097,4.9262,4.67266,0,2.93484-2.17423,4.60735-4.9262,4.60735h-7.3566V3.61952h7.3566ZM80.62447,24.95495h3.76834v-9.04745h4.49234l8.95087,9.0579h4.34863v-.61673l-8.6242-8.5143c3.9489-.50699,7.02993-3.36862,7.02993-7.6075,0-5.47235-3.76834-7.89757-9.23814-7.89757h-10.72777v24.62565ZM52.86795,24.95495h3.77105v-10.46123h3.04721l9.56481,10.47168h4.49505v-.5436l-10.80369-11.59022L72.72683.91206V.33456h-3.91477l-9.09187,10.83233h-3.07848V.32667h-3.77376v24.62828ZM33.7042,4.09517l4.99941,12.57286h-10.29662l5.29721-12.57286ZM21.31166,24.9654h3.839l2.24761-5.43574h12.28535l2.17168,5.43574h3.839L35.91257.32667h-4.38531l-10.21559,24.63873ZM17.25318,24.9654v-3.29804H3.77345V.33193H.0051v24.63346h17.24808Z" style=" stroke-width:0px;"/></g></svg>