<?xml version="1.0" encoding="UTF-8"?><svg id="b" xmlns="http://www.w3.org/2000/svg" viewBox="0 0 195.32713 45.57663"><g id="c"><path d="M42.7928,42.28772c-6.73724,2.58724-4.80075-7.22854.08358-3.89128l-.60365-3.12557c-3.61426-.42337-6.93327,1.64641-6.64057,5.32341.30841,3.89128,3.826,5.48543,6.93327,4.52632.115-1.09238.60365-2.96353.22738-2.83288M50.10234,37.84503l-.58539-2.27885h-5.61614v9.70077h5.98979l.14643-2.11681h-3.54894v-1.62812h2.58983v-2.27885h-2.67086v-1.39813h3.69529ZM57.49292,40.44794l-6.4132-5.03072v9.91506l2.50617-.21169v-4.88435l6.28256,5.30772v-10.18947l-2.37553.35803v4.73541ZM60.45383,37.89206h2.67086v7.52123l2.27879-.08101v-7.50556h2.29458v-2.19782h-6.50986l-.73437,2.26316ZM81.02874,42.85744c-1.4791,0-2.7022-1.15511-2.7022-2.58722,0-1.43474,1.2231-2.58985,2.7022-2.58985,1.49745,0,2.7022,1.15511,2.7022,2.58985,0,1.43211-1.20475,2.58722-2.7022,2.58722M81.02874,35.27087c-2.91386,0-5.27368,2.27885-5.27368,5.08036,0,2.78323,2.35982,5.06206,5.27368,5.06206,2.92958,0,5.29203-2.27883,5.29203-5.06206,0-2.80151-2.36245-5.08036-5.29203-5.08036M70.72693,40.02457s-.08103-2.34419,0-2.34419,1.41642-.35801,1.4791,1.0741c.08366,1.62812-1.4791,1.27009-1.4791,1.27009M72.7131,35.56618h-4.41139v9.70077l2.50625-.277v-3.69529l2.65251,3.90697,2.52188-.70039c-1.26744-1.77447-2.52188-3.41826-2.45656-3.4836,3.84163-3.69527-.81269-5.45145-.81269-5.45145M110.98039,42.28772c-6.73979,2.58724-4.8033-7.22854.08103-3.89128l-.6011-3.12557c-3.61426-.42337-6.93582,1.64641-6.64313,5.32341.31104,3.89128,3.826,5.48543,6.93582,4.52632.11245-1.09238.6011-2.96353.22738-2.83288M151.31487,37.84503l-.58539-2.27885h-5.339v9.70077h5.71273l.14643-2.11681h-3.54902v-1.62812h2.58991v-2.27885h-2.67094v-1.39813h3.69529ZM166.89308,42.28772c-6.73979,2.58724-4.80067-7.22854.08103-3.89128l-.60102-3.12557c-3.61426-.42337-6.93582,1.64641-6.64313,5.32341.31104,3.89128,3.82592,5.48543,6.95145,4.52632.115-1.09238.58539-2.96353.21167-2.83288M117.3439,42.85744c-1.49745,0-2.7022-1.15511-2.7022-2.58722,0-1.43474,1.20475-2.58985,2.7022-2.58985,1.49753,0,2.70228,1.15511,2.70228,2.58985,0,1.43211-1.20475,2.58722-2.70228,2.58722M117.3439,35.27087c-2.91386,0-5.27368,2.27885-5.27368,5.08036,0,2.78323,2.35982,5.06206,5.27368,5.06206s5.27376-2.27883,5.27376-5.06206c0-2.80151-2.35982-5.08036-5.27376-5.08036M154.76723,40.02457s-.0654-2.34419,0-2.34419c.08087,0,1.41642-.35801,1.4791,1.0741.09937,1.62812-1.4791,1.27009-1.4791,1.27009M156.75325,35.56618h-4.41131v9.70077l2.50617-.277v-3.69529l2.65259,3.90697,2.52196-.70039c-1.26744-1.77447-2.52196-3.41826-2.45656-3.4836,3.84155-3.69527-.81285-5.45145-.81285-5.45145M139.15761,40.7563l-3.1099-5.40181-2.34411,8.23468-2.31284-8.23468-3.2694,5.40181-3.10982-5.40181-2.7022,9.4891,2.54014.55403.89379-4.15261,2.2945,3.98796,2.62117-4.23101.8154,4.31204,1.8868-.4704,2.52451.55403.89387-4.15261,2.2945,3.98796,2.62117-4.23101.8154,4.31204,2.53743-.63244-2.62117-9.32706-3.26925,5.40181ZM189.95867,41.52201h2.60283v-2.27885h-2.66822v-1.39813h3.67966l-.5881-2.27885h-5.25797v9.70077h5.63425l.14643-2.11681h-3.54886v-1.62812ZM168.42195,45.15196h2.27887v-10.10844l-2.27887.47302v9.63543ZM175.0311,41.16398l.99309-1.88684,1.05849,1.88684h-2.05157ZM183.70745,35.59754h-2.54014v8.64236l-5.0621-8.96903-5.15876,9.34535,2.2945.53574,1.05849-2.03319h3.35283l1.56284,2.03319,1.9522-.5697v.65071h5.65004l.40499-2.27883h-3.51489v-7.3566Z" style=" fill-rule:evenodd; stroke-width:0px;"/><path d="M96.19956,36.16726c-.95911,0-1.82156-.27702-2.13252-.39201.13064-.06273.26135-.14635.4077-.1934.09666.03136.66642.17771,1.49745.17771.84674,0,1.59411-.16202,1.70911-.19338.30841.08101.56976.16202.7161.22736-.35809.11237-1.25444.37372-2.19784.37372M97.3886,35.50084c-.29269.06534-.83103.14635-1.41642.14635s-1.04277-.08101-1.28578-.14635c.91206-.277,1.93649-.16463,2.7022,0M98.60906,35.28916h.04961l7.3566-9.53873.48873-.37634-7.77993,9.94643-.18032.39201c-.42341-.16465-2.91394-1.04273-4.60735-.0183l-.1934-.32404c.24301-.18032,1.69085-1.10807,4.86606-.08103M86.19037,25.18071c.22738.19338.56976.45471.99309.7631l6.64057,9.18072.11237-.06534-4.86606-7.94199c.48865.26133,1.02443.52007,1.59411.76571l3.46791,7.11355c-.24301.11237-.38936.20907-.47038.25872l-7.4716-10.07447ZM85.76704,23.76427l.03134-.01569-.38936-1.20475,2.09847,2.26057,1.18912,1.95477c-.53833-.30837-1.02706-.63504-1.41642-.91206l-1.51316-2.08284ZM92.94331,33.67673l-5.45145-7.52123c.38936.26133.84674.55403,1.3511.83105l4.10035,6.69018ZM86.9221,22.23285l2.11681,2.29713,1.5445,3.1883c-.60102-.25872-1.15507-.53574-1.64379-.82844l-1.31712-2.1325-.70039-2.52449ZM89.167,21.87482l1.97046,2.34417,1.43213,4.21534c-.63508-.17769-1.2361-.40507-1.80585-.63504l-1.62808-3.35293.03134-2.57154ZM91.75682,21.74414l1.79014,2.23181.81277,4.85037c-.56968-.08101-1.12109-.21169-1.64379-.35803l-1.46347-4.33032.50436-2.39383ZM94.52434,28.97268c.52007.08103,1.07412.11498,1.62816.13068l-.01834,5.58213c-.2273-.01569-.45467,0-.66634.01567l-.94348-5.72848ZM94.71774,34.81614c-.17769.03136-.33975.08103-.47038.13068l-3.40259-6.98288c.55405.22736,1.15515.43904,1.77451.61673l2.09847,6.23547ZM92.76562,28.61465c.51999.14635,1.05841.26135,1.61237.34236l.95911,5.74415c-.17769.0183-.3423.04967-.48865.08362l-2.08284-6.17013ZM94.78306,21.84346l1.38507,2.06716-.01563,5.06206c-.55405,0-1.10809-.04965-1.66214-.13066l-.79705-4.80075,1.08975-2.19782ZM96.28059,29.10336c.56968-.01569,1.10801-.04965,1.64379-.09931l-1.0088,5.74678c-.22738-.03136-.43904-.04967-.635-.06534v-5.58213ZM96.29885,24.10661l1.51316-2.10114.97738,1.98615-.84674,4.88437c-.53833.06271-1.09238.09668-1.66206.09668l.01826-4.86606ZM98.88605,24.18762l1.65951-2.05147.56968,2.34419-1.43213,4.08466c-.50436.11498-1.04269.21169-1.59411.29269l.79705-4.67007ZM101.21452,24.57702l2.03323-2.1142-.06532,2.48792-1.5445,3.02887c-.56976.19599-1.1577.3894-1.79277.55403l1.36936-3.95662ZM103.37839,24.86971l1.90515-2.13248-.3423,2.11681-1.40079,2.27885c-.52007.26133-1.08975.53833-1.72482.76571l1.56276-3.02889ZM105.57623,25.91245l.58539-.79707-.17769.4704-.06532.06534-.34238.26133ZM105.34885,26.22081l.30841-.21167-3.43394,4.44531,3.12553-4.23364ZM103.63974,27.22957c.52007-.27439.99309-.55141,1.39815-.81275l-5.53248,7.50295,4.13433-6.6902ZM101.73459,28.07631c.6011-.22738,1.17078-.4861,1.67522-.74743l-4.80075,7.81392-.43904-.11498,3.56457-6.95151ZM97.48534,34.8475l-.43904-.08101,1.00872-5.77812c.55405-.08103,1.07412-.16204,1.57848-.27702l-2.14815,6.13615ZM99.7981,28.66431c.61673-.14635,1.20475-.32667,1.75617-.52268l-3.51496,6.83655-.42333-.0967,2.18213-6.21716ZM106.97438,22.98287l-.63244,1.67516-1.09238,1.4661c-.42333.277-.91206.58539-1.48174.89639l1.12372-1.82414,2.08284-2.21351ZM107.23573,24.44636l-.32404.40768-.37636.32667.70039-.73435ZM98.82073,35.38586l9.35841-11.94825-.09666-.08101-1.85546,1.97046.2273-.60369,1.23873-1.69083-.09929-.08364-.95911,1.31976.58539-1.54711-.11492-.06534-1.88688,2.00183,1.27007-2.04886-.11492-.06534-1.25444,2.01752.37628-2.24749-1.88943,2.10114.99309-1.92082-.13064-.04967-1.13943,2.24749.04961-2.57154-2.05141,2.16387.76571-2.21351-.115-.03136-.78142,2.21351-.6011-2.39383-1.65943,2.08286.35801-2.04888-.13064-.01828-.32667,1.90513-.99309-2.0175-1.5445,2.1142v-2.04888h-.13072v1.8555l-1.40071-2.10114-1.10546,2.24749-.34238-2.06716-.13064.01567.32404,1.93649-1.82148-2.27883-.52007,2.45915-.78142-2.3285-.13064.04967.76571,2.27883-1.98617-2.36247-.03397,2.65517-1.12372-2.3285-.11237.04967,1.07412,2.21351-2.00189-2.16648-.11492.06534.635,2.26316-1.25436-2.19782-.11237.06532,1.2361,2.16648-1.92086-2.06716-.11237.06273.38944,1.18908-.70039-.95911-.11237.08101,2.16387,2.97924c-.65071-.47304-1.04014-.83105-1.08975-.88072l-1.44784-1.93649-.115.06534,1.44784,1.95218,7.86359,10.58146.25872.40768-.74745,4.37738.13072.01567.73174-4.31204.38936.13068-.30841,4.21534.13072.01569.30833-4.19967.42341.11498-.16206,4.06899.13072.01569.16198-4.06899.42341.08101-.03397,3.93831h.13064l.03397-3.92264c.17769.0183.35801.03397.55405.03397l.01563,3.873h.13072l-.01826-3.873c.19595,0,.40762-.01567.60365-.04965l.09666,3.93831h.13072l-.09674-3.95401.35809-.04965.30833,4.00365.13072-.01567-.31104-4.01934.34238-.06534.45731,4.05332.12808-.0183-.45475-4.06899.19603-.06532.68205,4.19965.13072-.03136-.68213-4.19965.22738-.08103.63508,4.29637.13064-.01569-.63508-4.34599.16206-.42337Z" style=" fill-rule:evenodd; stroke-width:0px;"/><path d="M92.78293,40.0912v.52005h.30833v2.83288h6.26422c-.02353-1.22828-.06269-2.83288-.06269-2.83288h.16198v-.52005h-6.67184ZM94.03474,42.40139c0,.19601-.08103.37372-.35809.37372-.29269,0-.3423-.1934-.3423-.37372v-.94342s.01826-.277.29533-.277v-.56972h.128v.58539c.19603.03397.29269.13068.29269.24566l-.01563.95909ZM95.2891,42.40139c0,.19601-.08103.37372-.35801.37372-.29269,0-.34238-.1934-.34238-.37372v-.94342s.01571-.26133.27706-.277v-.56972h.13064v.58539c.1934.03397.30841.13068.30841.24566l-.01571.95909ZM96.5409,42.40139c0,.19601-.08103.37372-.37372.37372-.27698,0-.32404-.1934-.32404-.37372v-.94342s0-.24566.25872-.277v-.56972h.13064v.58539c.21174.03397.32667.13068.32667.24566l-.01826.95909ZM97.79534,42.40139c0,.19601-.08103.37372-.37372.37372-.27698,0-.34238-.1934-.34238-.37372v-.94342s.01571-.22736.26135-.26133v-.58539h.12808v.58539c.22993.01567.3423.13068.3423.24566l-.01563.95909ZM99.0497,42.40139c0,.19601-.08358.37372-.37628.37372-.27443,0-.33975-.1934-.33975-.37372v-.94342s.01571-.22736.22738-.26133v-.58539h.13064v.58539c.24309.01567.35801.13068.35801.24566v.95909ZM99.35811,44.53389h-6.26685v.42337c0,.53572.14635.61936,1.0088.61936h4.44529c.45475,0,.82848-.18032.82848-.88072,0-.19861-.00526-.62198-.01571-1.12111v.95909Z" style=" stroke-width:0px;"/><path d="M96.47758,0c-4.461,0-8.12231,1.38246-10.90546,4.11603-3.09427,3.02889-4.41139,7.19456-4.34607,9.9804.08103,3.54633,2.37561,7.92632,3.07592,8.75473l.13072.16465-.06532-.79707.5357.53574-.04705-.7814.43904.45734.13072-.70037.66634.50436.17777-.73174.53833.61675.26135-.71604.78134.58539.30841-.7814.97738.588.35801-.79969.84674.6847.53578-.81275.86237.81275.65071-.86241.86245,1.05843.68468-1.05843.83103.9774.79705-.81536.66642.94342.91206-.99046.68468,1.05579.74745-.95911.56976,1.12374.81532-.8807.6011.81536,1.02443-.91206.42333.99309.84674-.75004.42341.9774.91206-.81275.30833,1.00874.8154-.79707v.84413l.89371-.60108.18032.65073.65079-.45473.06532.60108.52007-.45473-.06532.71606.65334-.32667-.19603.86241.16206-.19338c.03397-.03397,3.36854-3.62995,3.36854-8.28696,0-4.94707-3.67694-15.15222-15.07121-15.15222M105.36823,21.57585l-.2143-.43382.55141-.92773c.115.24566.24564.47302.35801.71868-.17769.30837-.37364.60106-.56968.89375l-.04705-.09668v-.22738l-.0784.07317ZM100.57793,21.90774l-.38154-.53572.44694-.71606.50699.73435-.57239.51744ZM99.17986,21.92343l-.31885-.61675.36583-.60369.46783.66381-.51481.55664ZM96.25028,21.73005l-.27443-.38678.33712-.59061.37372.4913-.43641.4861ZM86.28551,21.30407l-.0784-.0967-.09666.3894c-.17514-.25088-.34238-.49393-.50699-.74743l.22738-.7631.58539.84674-.13072.37109ZM81.37766,14.49105c.01045-.0784.01308-.15157.02616-.23258.03397.22736.08095.43904.14635.70037-.02353.18032-.03924.3502-.0575.52266-.05232-.33451-.09148-.6664-.115-.99046M82.84639,8.13015c-.02616.13068-.04187.2535-.04187.41551-.13064.25872-.26135.52007-.37628.7814,0-.13068.02353-.26656.04961-.39462.11237-.26656.23519-.53313.36854-.8023M102.20609,1.16033c.14372.18293.32404.27963.52007.38415-.11237.08103.06532-.04703-.04705.03397l-.01571.01569-.03397.03136c-.19077-.12545-.39462-.22215-.58539-.33189,0,0,.0079-.00524.03134-.02614.12027-.01306.05232-.03136.09148-.12284.01308.00524.02616.01047.03924.01569M111.41552,14.951c-.11756.2143-.20903.42859-.24038.65856.01563-.21169.01563-.40768,0-.63506l.04961-.71604c.01571.2143.06277.39984.18822.60892,0,.02873.00255.05748.00255.08362M111.22475,14.14348c-.01563-.22738-.03397-.45473-.06532-.68209,0-.24566,0-.45734-.01571-.66903.0079.10976.04705.20907.09674.30316.03134.20122.06013.39984.08358.59061-.05487.14896-.09929.29269-.09929.45734M110.45904,19.28655l-.38936.70039c-.14635-.21169.06269-.29271.09666-.45473.115-.26133.21167-.48869.29269-.75004-.01563.16465-.14635.27702,0,.50438M103.54148,12.06062l.6011.94342-.50436,1.02704c-.17769-.32667-.37372-.63504-.58539-.97738l.48865-.99309ZM102.98752,10.92121l.45731-.96172c.21167.32667.42333.60369.61673.92775l-.45467.99307-.61936-.95909ZM103.93092,7.09525l.32667-.7631.635.82844-.3423.79707-.61936-.86241ZM102.17475,9.71646l-.65079-.92775.45475-.91206.66642.89639-.47038.94342ZM102.76014,10.8402l-.50444.99307-.635-.96172.48865-.97476c.22738.30837.43912.60106.65079.94342M89.1524,11.86463l-.52007-.91206.5357-.99309.55405.88072-.56968,1.02443ZM89.65676,12.97268l-.55405,1.05841-.55405-.9617.53841-1.02443.56968.92773ZM84.75672,22.41212l-.09929-.09407c-.09929-.1359-.20122-.26919-.29006-.41031,0-.17769.01563-.3737.04697-.58539l.28751.41553.05487.67423ZM84.23665,22.24226c.00263.02873-.00263.06009,0,.08885-.16206-.24305-.32667-.4704-.48873-.73174-.01563-.16202-.01563-.34234-.01563-.53835l.50436.75004c-.00263.0392.00263.07317,0,.11237l-.03397-.03136.03397.3502ZM81.38029,13.29674c.03134-.20644.06532-.40768.10448-.61675.01571.21169.04969.42337.08103.66642-.04705.26133-.11237.52005-.14635.78138-.02608-.20646-.04179-.39201-.0575-.58278.00526-.08101.01308-.16726.01834-.24827M81.51874,12.54933c-.01045-.13329-.00255-.26396,0-.39723.05232-.31361.115-.63244.19603-.95911,0,.18293,0,.36326.01571.55927-.08103.27439-.14635.52005-.21174.79707M81.74612,14.11212c-.04961-.24566-.09666-.48871-.13064-.71606.04961-.27702.13064-.53835.19595-.79969l.14635.6847c-.08095.277-.13064.55403-.21167.83105M81.94215,14.9902c-.06532.27702-.115.52005-.14635.78138-.08366-.24303-.13072-.48869-.19603-.74741l.13072-.7814c.06532.25872.11237.4861.21167.74743M81.84286,12.45002c-.03142-.22736-.04705-.45473-.0654-.6664l.24572-.79707.08095.63504c-.09666.27702-.18032.53574-.26127.82844M96.39663,7.51862l-.63508-.86241.55141-.86239c.21167.26133.42333.50436.65334.79705l-.56968.92775ZM96.98202,8.57702l-.58539,1.00876-.63508-.92775.55141-.95909.66905.87808ZM96.37829,5.63178l-.60102-.76571c.19595-.27702.35801-.52005.5357-.76571.21167.22736.4077.43904.61936.71606l-.55405.81536ZM96.37829,3.96968l-.56968-.65073.50436-.65073.58802.60369-.5227.69776ZM96.37829,2.55324c-.1934-.17771-.37372-.35803-.55141-.52005.16206-.17771.32404-.34236.47038-.50438.19603.16202.37372.29269.56976.47302l-.48873.55141ZM96.36265,1.4478c-.17777-.13068-.34238-.26133-.52007-.3737.16198-.14635.30833-.24566.45467-.35803.18032.09668.34238.21169.5227.32406l-.45731.40768ZM96.34694.6664c-.16206-.09668-.30841-.16202-.47302-.24305.14635-.06532.29269-.13066.42333-.1803.16206.04965.31104.09668.48873.1803-.14635.06273-.27698.14637-.43904.24305M88.66367,4.73539l.37372.56972-.6011.84672-.35801-.61936c.19603-.29269.38944-.53572.58539-.79707M87.6863,4.83209l-.24309-.48608c.19603-.22999.37372-.45734.58539-.6847l.26135.42335c-.21167.22738-.4077.47302-.60365.74743M88.7447,4.60473l-.29269-.52007c.19603-.22736.37372-.45471.58539-.68468l.32667.45733c-.21167.22736-.4077.4704-.61936.74743M89.80311,4.5394l.43904.60369-.61673.86239-.4077-.6664c.21167-.27702.38936-.53835.58539-.79969M89.88414,4.41133l-.35801-.53833.60365-.6847.37372.47302-.61936.75002ZM91.02357,4.37736l.47302.63506-.60373.84672-.45467-.6847c.19595-.277.38936-.53572.58539-.79707M91.10452,4.2467l-.40507-.56972c.1934-.24303.38944-.45471.58539-.68209l.42341.50438-.60373.74743ZM91.36587,2.87991l-.37372-.42335c.21174-.19601.38944-.37372.58539-.55405.115.09931.24309.22999.38944.35803-.21167.19601-.40507.40768-.6011.61936M91.88594,1.12113l.34238.21169c-.19603.14635-.37372.31098-.56976.47302l-.32404-.27702c.1934-.14635.37372-.27702.55141-.40768M91.69254.92775l.55141-.24566c.09929,0,.18032.01567.29269.06534-.1934.08101-.37372.19599-.56968.30837-.09674-.06273-.17769-.0967-.27443-.12804M92.4896,2.84855c.16206.17771.30841.33975.48873.53574l-.60365.73174-.45475-.58539.56968-.68209ZM92.57063,2.73356l-.42333-.45471.56968-.53835c.13072.11498.27706.24305.43904.39201-.19595.19338-.38936.38938-.58539.60106M92.78229,1.65949l-.37364-.32667c.19332-.14635.35801-.27702.5357-.3894.13072.06534.26135.14635.4077.24305-.19603.14635-.37372.29269-.56976.47302M92.70134.73174c.17769-.0967.3423-.18032.50436-.24566.11237.0183.22738.04967.35801.09931-.18032.08101-.3423.19599-.53833.29269l-.32404-.14635ZM93.88775,1.62551l.48873.40768-.56968.60369c-.16206-.18032-.30841-.34236-.45475-.48871.17769-.19599.35801-.35803.5357-.52266M93.95315,1.54448l-.42341-.34234.5227-.3894c.14635.08103.27698.16204.43904.27702-.18032.13068-.34238.27702-.53833.45471M94.11776.7631c-.14635-.08101-.26135-.14635-.39199-.19338.18032-.09931.32667-.14637.48865-.21169.13072.01567.26135.04703.4077.11237-.16461.08101-.32667.18032-.50436.29269M95.0925,1.56278c.16469.12804.34238.27439.5227.43904l-.5227.56972-.51999-.50438c.17769-.19601.3423-.35803.51999-.50438M95.1579,1.46347l-.47046-.35803c.16206-.14635.30841-.26133.47046-.35801.16461.08101.32667.18032.48865.29269-.16198.13066-.30833.26133-.48865.42335M95.22322.68209c-.14635-.08101-.29269-.16204-.42341-.21169.14635-.08101.29269-.14635.45738-.19599.14635.03395.29269.06532.43904.14894-.14635.06273-.31104.16204-.47302.25874M91.31627.92775c.06532,0,.14635,0,.2273.03134-.19332.08103-.37364.19601-.58539.32667-.08095-.04965-.13064-.08362-.21167-.09929.19603-.11237.39199-.1934.56976-.25872M90.87723,1.3511c.09666.04703.18032.0967.29269.19338-.19603.13068-.38944.29269-.6011.47302l-.26135-.26133c.19603-.16202.39199-.277.56976-.40507M90.48779,2.1142l.32404.32667c-.19595.21169-.38936.3894-.60102.63506l-.31104-.4077c.19603-.21167.39207-.38938.58802-.55403M89.5601,2.27885l-.21174-.22999c.21174-.16202.38944-.29269.58539-.42335.08103.03397.14635.08362.22738.16463-.21167.14635-.38936.30839-.60102.48871M89.46073,2.35986l.27706.30837-.61936.61936-.24309-.35801c.19603-.21169.38944-.39201.58539-.56972M88.61407,2.57154l-.14635-.19601c.21167-.16202.39199-.29269.60365-.42335.04705.03136.08103.06532.14635.11498-.21167.16202-.4077.32406-.60365.50438M88.51733,2.65255c.06532.08101.13072.16202.21167.27702l-.61936.63504-.17769-.34234.58539-.56972ZM88.35527,2.40689c-.19595.16465-.39199.311-.60365.48871l-.01571-.03136-.03134-.04967v-.03134l-.01826-.03397c.19595-.16204.39199-.29269.58802-.43904.08095.08101.09666.09668.09666.09668,0,0-.03397-.03136-.01571,0M87.8013,3.23794c-.21174.19601-.4077.39201-.60373.61936l-.128-.31098.58539-.55143.14635.24305ZM87.10091,3.96968l.19595.37634c-.21167.24303-.39199.48608-.58539.73174l-.18032-.43904.56976-.66903ZM82.85158,14.07814l-.25872-.7814c.09666-.30837.17769-.58539.29269-.87808l.27698.76571-.31096.89377ZM83.1469,15.03985l-.26135.86241c-.115-.27702-.22738-.53835-.30841-.81536.06277-.29271.14635-.55143.24309-.84413l.32667.79707ZM82.93524,12.25664c-.09937-.24566-.14635-.48871-.21174-.73437.11237-.29269.22738-.5697.35809-.86239.04697.22736.128.43904.21167.70037l-.35801.89639ZM84.0903,8.77304l.22738.6664c-.14635.31098-.30841.58539-.45475.91206l-.21167-.70037.43904-.87808ZM83.45523,8.85405l-.08095-.56972.43904-.79707.09666.52007c-.14635.277-.30833.55403-.45475.84672M84.47974,14.06245l-.37372-.86239c.13064-.32667.26135-.60369.39199-.92775l.38936.83105c-.14635.32406-.26127.63242-.40762.95909M84.87173,15.0869c-.115.32667-.24564.61936-.34238.92773-.16198-.29269-.29269-.56972-.43904-.87808.11237-.30839.22738-.60108.34238-.91206l.43904.86241ZM83.81332,10.51353c.08103.22736.17769.47302.27698.73435l-.4077.92773-.27698-.76571c.14635-.31098.26135-.60367.4077-.89637M83.633,12.33765l.32667.79707-.35801.92773-.32667-.81275c.11492-.311.22993-.60369.35801-.91206M83.57023,14.22449l.37372.84672c-.09929.311-.21167.58539-.29269.89639-.14635-.29269-.26135-.55403-.37628-.84674.08358-.30837.18024-.58539.29525-.89637M83.61729,16.12962l.42341.84674-.24309.84672-.42333-.84672c.06532-.29269.14635-.55405.24301-.84674M83.76364,17.96942l.47302.84672c-.06532.27702-.13064.52007-.18032.76571l-.47038-.83105.17769-.78138ZM84.18705,17.05737l.29269-.87808c.16461.29269.31096.58539.48865.87808l-.30833.87808c-.16206-.29269-.31104-.56972-.47302-.87808M84.56069,12.11029l-.32404-.81538.42341-.92773.3423.78138-.44167.96172ZM84.72538,10.20515l-.27706-.73174.48873-.89639.27698.70037-.48865.92775ZM85.48846,14.04678c-.16206-.29269-.29269-.58539-.42078-.8807l.42078-.95911.45731.86241c-.16198.32667-.30833.65073-.45731.9774M85.93013,15.12086l-.4077.94342c-.16206-.29269-.32667-.58539-.47302-.89375l.39199-.94603.48873.89637ZM85.55378,12.02665l-.38936-.82844c.16198-.34234.30833-.63504.47302-.94342l.40507.79707-.48873.97478ZM85.71847,10.07447l-.34238-.76571.50436-.90945.35801.73174c-.19595.30839-.35801.61936-.51999.94342M85.96147,8.23468l-.29269-.66642c.17769-.30837.34238-.58539.53833-.86239l.30841.63504-.55405.89377ZM86.28814,6.55953l-.23001-.56972c.18032-.27702.37636-.52266.55405-.76571l.24564.50438-.56968.83105ZM86.36917,4.19967c-.03397-.115-.04969-.21169-.04969-.27702.19603-.21169.37372-.37632.56976-.55403l.06532.21169c-.19603.19599-.38944.38938-.58539.61936M86.40052,4.65438l-.56968.71606c-.04705-.14635-.08103-.27702-.11237-.40768.19332-.22738.37364-.43906.56968-.66642l.11237.35803ZM86.22283,3.85731v.0967c-.18032.19599-.37636.39201-.56976.60367,0-.09929,0-.18032.03142-.24564.18032-.19601.35801-.35803.55397-.53574-.01563.12804,0-.04965-.01563.08101M85.74981,5.5011l.18032.48871-.55405.81275-.16206-.53572c.17777-.27702.33975-.52268.53578-.76573M85.29506,6.9489c.06532.18032.13072.37372.22738.58539l-.52007.89639c-.08358-.22736-.14635-.43904-.21167-.65073.16206-.29269.32404-.5697.50436-.83105M84.56069,7.06388c-.03134-.1803-.06269-.34234-.08095-.50436.16461-.26135.32667-.50438.50436-.75004.03397.14635.06532.27702.115.45734-.19603.25872-.35809.52005-.53841.79705M84.95276,5.33908c-.18032.22736-.35809.45473-.52007.69776,0-.12804,0-.24303.03134-.33973.16206-.22997.32667-.44165.50436-.63506-.01563.08103-.01563.16204-.01563.27702M84.498,7.19456c.03134.17771.09666.35803.16206.56972l-.48873.86241-.16206-.60369c.16206-.29269.30841-.55141.48873-.82844M83.87864,7.34091l-.01571-.45733c.16206-.25874.30841-.48871.4861-.73176,0,.13068.01834.26135.03397.4077-.16198.25872-.32667.50436-.50436.78138M83.82895,6.52555c-.01563.09929-.03134.22736-.03134.35803l-.45731.76571c0-.14635.01826-.29269.04961-.42337.14635-.24305.27706-.47302.43904-.70037M83.38991,9.00039c.03134.19599.09674.3894.16206.61936-.14635.29269-.29269.56972-.42341.87808l-.14627-.6664c.13064-.29269.26127-.55405.40762-.83105M82.86984,9.0814c-.01826-.19599-.01826-.35803-.01826-.53574.14635-.26133.27698-.50699.4077-.76571,0,.16204.01571.30839.03397.48871-.14635.277-.29533.53572-.42341.81275M82.90126,9.81314c-.13072.27702-.24309.55405-.37372.84674-.03397-.21169-.04969-.42337-.06532-.61675l.35801-.81538.08103.58539ZM82.47785,10.80623l.14635.68468-.30833.86241-.14635-.70037.30833-.84672ZM82.47785,13.2314c-.09666.29533-.16198.56972-.24301.86502-.08103-.26133-.14635-.50699-.21167-.76571.08095-.277.16198-.53835.25872-.83105.04961.24566.11492.47302.19595.73174M82.07015,10.8402c-.01563-.21169-.01563-.4077,0-.58541.09937-.277.19603-.52266.31104-.78138l.01563.55141c-.11492.27702-.2273.52268-.32667.81538M82.20087,14.24277l.26135.7814c-.0654.27439-.13072.55141-.19603.81275-.09666-.26133-.17769-.52005-.24301-.78138.03134-.27702.11237-.53835.17769-.81277M82.25048,15.98327l.32667.79707c-.04961.27702-.09929.52268-.13064.7814-.115-.27702-.21167-.53574-.31096-.79707.03397-.26133.06532-.52007.11492-.7814M82.44651,17.6924c.09666.26135.22738.52007.35801.79707-.03397.24566-.04961.45734-.06532.6847l-.35801-.78138c.01563-.22738.01563-.45734.06532-.70039M82.68952,16.86135c.04969-.25872.09937-.52005.18032-.79707l.37372.81538c-.08103.29269-.13064.55141-.19595.81275-.13072-.277-.24309-.53833-.35809-.83105M83.0319,17.83875l.42333.81277-.13064.73435-.4077-.81536.115-.73176ZM83.32459,19.51654c.14635.277.29269.52005.47302.79707l-.06532.63504-.45731-.78138c0-.21169.01826-.42337.04961-.65073M84.41434,21.20737c-.17769-.25872-.32404-.52005-.48602-.79707l.11237-.68209.50436.81277c-.04705.22736-.09674.45471-.13072.6664M84.39871,18.91284l.22738-.81275.52262.86239-.24564.81277-.50436-.86241ZM85.13045,17.15407l.3423-.90947c.18032.30839.34238.58541.53841.89377l-.35809.91206-.52262-.89637ZM85.60346,18.21247l.56968.8807-.30833.84672c-.18032-.29531-.35809-.5697-.53841-.8807l.27706-.84672ZM86.10782,15.18619c.14635-.32667.27698-.63504.43904-.9774l.53833.92775-.45731.9774-.52007-.92775ZM86.12353,13.13472l.47302-.99309.48865.89639c-.16198.32406-.30833.65073-.48865.99307l-.47302-.89637ZM86.58084,16.29165l.56968.91206-.40762.94342-.55405-.92775.39199-.92773ZM86.66187,11.96392l-.43904-.84672c.16198-.34234.32404-.65073.50436-.9774l.45475.83105-.52007.99307ZM86.7925,9.95949l-.39199-.79707.53833-.92773.4077.75002-.55405.97478ZM87.8013,12.09199c.17769.311.35801.588.5357.91206l-.52007,1.02704-.52007-.92773.50444-1.01137ZM87.86662,11.91428c-.18032-.30837-.32667-.60369-.48873-.89639l.53833-.97476.50444.84411c-.19603.34234-.37636.66901-.55405,1.02704M87.01988,8.07264l-.34238-.70037c.18032-.30839.35809-.58539.55405-.87808l.35801.6664-.56968.91206ZM87.31257,6.34784l-.29269-.60369c.19603-.29269.37372-.52005.56968-.78138l.30841.53833c-.1934.27702-.37372.55405-.58539.84674M88.33701,6.31387l.42341.6847-.58539.92773-.4077-.73174.56968-.8807ZM89.24906,9.78178l-.48865-.84672.56968-.95909.50436.79707-.58539,1.00874ZM89.41375,7.79564l-.45738-.76571c.19603-.30839.39199-.58541.58539-.8781l.47302.71606-.60102.92775ZM90.51913,11.83327l-.56968-.92775.56968-1.02704c.19603.29269.39207.588.58539.89639l-.58539,1.05841ZM91.05755,12.95701l-.56976,1.05579-.60365-.95909.55405-1.04273.61936.94603ZM90.40421,14.2088l.635.96172c-.1934.35803-.35801.69776-.5357,1.0401l-.61936-.97476c.18032-.34236.3423-.6847.52007-1.02706M90.42247,16.40664l.66642.95909c-.19603.34236-.34238.65334-.52007,1.01137l-.63508-.9617.48873-1.00876ZM90.5035,18.53914l.66642.94342-.50444.94342c-.21167-.32406-.42333-.60108-.635-.92775l.47302-.95909ZM90.60016,9.70077l-.5357-.86241.56968-.9774.56976.83105c-.21174.33975-.4077.66642-.60373,1.00876M90.71517,7.69894l-.48873-.7814.58539-.89637.5227.73174-.61936.94603ZM91.83889,14.2088l.65071.9774-.56968,1.05841-.63508-.99307.55405-1.04273ZM91.28484,13.03802l.56976-1.05841.65071.95909-.60365,1.0741-.61681-.97478ZM91.8546,16.42231l.66642.9774-.55405,1.00876c-.21167-.32406-.43904-.63504-.65071-.95909l.53833-1.02706ZM91.93563,11.79929l-.6011-.94342.58539-1.02443.61673.90945-.60102,1.05841ZM92.00095,9.65112l-.56976-.89377c.19603-.32667.37372-.65334.58539-.9617l.58539.84672c-.21167.32667-.40507.65073-.60102,1.00876M92.08198,7.61793l-.53841-.81538c.21174-.30837.39207-.58539.58802-.89375l.56976.7631-.61936.94603ZM92.21261,5.75984l-.50436-.71606.58539-.79707.52007.66901-.6011.84413ZM93.30236,14.2088l.68476.9774-.60373,1.0741-.65071-.99307.56968-1.05843ZM92.7484,13.01974c.19595-.35803.37628-.69778.56968-1.05581l.66905.97478c-.21174.35803-.39207.70039-.60373,1.0741l-.635-.99307ZM93.31807,16.438l.68468.9774-.58539,1.04271-.65071-.97738.55141-1.04273ZM93.40174,11.78362l-.61944-.95911.58547-1.02704.635.92773-.60102,1.05843ZM93.43308,9.60145l-.6011-.89375.58539-.9774.61673.86241c-.19332.32667-.38936.66901-.60102,1.00874M93.4984,7.56826l-.56976-.83105c.19603-.32404.37372-.60106.58547-.89375l.58539.78138-.6011.94342ZM93.57943,5.69711l-.53578-.73435.56976-.79707c.1934.22736.37372.42335.56968.68468l-.60365.84674ZM93.69443,4.03502c-.18032-.22736-.34238-.43904-.50444-.61675l.55141-.66901c.18032.16463.34238.35803.5227.55403l-.56968.73174ZM94.79981,14.19313c.24572.34234.45738.65073.68476.99307l-.60373,1.0741-.65071-.99307.56968-1.0741ZM94.23013,13.01974l.58539-1.0741.66905.9774-.60373,1.08977-.65071-.99307ZM94.81552,16.45628c.23001.32406.44167.61675.68468.97478l-.60102,1.04273-.65334-.9774.56968-1.04012ZM94.89918,11.76793l-.65334-.9774.58794-1.02443.66642.94342-.60102,1.05841ZM94.91481,9.58578l-.635-.91206.58539-.97478.65071.87808-.6011,1.00876ZM94.94616,7.53429l-.60102-.84411.55405-.89637.63236.79705-.58539.94342ZM94.98013,5.64747l-.56968-.75004c.17769-.27702.35801-.53574.55141-.7814.19603.21169.39199.44165.58802.70039l-.56976.83105ZM95.02719,3.98798l-.5357-.63506.52007-.66901c.19595.18032.37364.35803.56968.588l-.55405.71606ZM96.39663,18.4738l-.65334-.95911.58794-1.05841.66642.95911-.60102,1.05841ZM96.98202,19.58185l-.58539.99048-.63508-.90945.55141-1.01137.66905.93034ZM96.39663,16.26029l-.65334-.99307.58794-1.0741.66642.99307-.60102,1.0741ZM96.39663,14.0128l-.65334-1.00876.58794-1.05841.66642.9774-.60102,1.08977ZM96.39663,11.76793l-.65334-.9774.56968-1.02443.68468.94342-.60102,1.05841ZM96.96631.43904c.12808-.08101.24301-.13068.37372-.16463.17769.04965.3423.11498.52007.19599-.13072.06534-.24309.13068-.37372.22736-.18032-.09668-.35801-.17771-.52007-.25872M97.43669.74743c.18032.09668.35809.21167.55405.34234l-.42333.3894-.53578-.40507.40507-.32667ZM97.51772,1.56278c.19603.14635.37636.29269.58802.48608l-.44167.53835-.58539-.53835c.14635-.19338.29269-.33973.43904-.48608M101.21301.95909h.03397c.21167.08103.38936.16204.6011.26135l-.03142.03134-.03397.01569-.04697.03397-.03397.04965c-.19603-.13066-.4077-.22997-.6011-.32667l.04705-.03136.03397-.01828c.06532-.01569.04705-.01569.03134-.01569M102.3211,1.79014l-.19603.29269c-.21167-.18032-.42333-.32667-.63508-.47302l.19603-.22736c.21167.13068.42333.24305.63508.40768M102.0284,1.28576c.08358-.06271.01563.00522.01563.00786-.00518-.00263-.01045-.00524-.01563-.00786M103.49188,2.00183c.21167.13068.42333.25872.61936.42337,0,.06532-.01571.11237-.06532.21169-.19603-.16465-.38944-.32667-.61936-.47304l.03397-.04965.01563-.04703c.06532-.11498-.04961.04703.01571-.06534M104.27322,2.4252l.01571-.0183-.01571-.03136.03397.01569.58539.40768c-.00255.01567-.00255.02353-.00518.03136.00263-.00522.00518,0,.00518.04965,0,.08101.01571.04967.01571.04967,0,0-.01571.01567-.01571.06532l-.61936-.48869c0-.06795.0079-.0575.01308-.04442,0-.00522,0-.01308-.01308-.03659M110.4277,10.23651l.03134.65073-.30833-.7631c0-.22736-.01834-.42337-.03397-.61936l.31096.73174ZM110.97911,12.565c-.04705-.24305-.11237-.47302-.1934-.73174,0-.22736,0-.43904-.03397-.65073l.21167.71606c.01571.22736.03397.43904.01571.6664M111.12546,13.39605c0,.24305-.03134.4704-.04705.73174-.04961-.24305-.08103-.47302-.13064-.71606.03134-.26133.03134-.48869.03134-.71604.06532.24303.115.45471.14635.70037M110.89808,13.34641l-.11237.76571c-.04961-.24566-.115-.48871-.19595-.75004.04961-.25872.08095-.52005.09666-.76571.08103.26133.14635.48869.21167.75004M110.68642,12.4683l-.24301-.76571.03134-.70037c.08103.26133.18032.48869.26135.75004-.01571.22736-.01571.4704-.04969.71604M108.18025,14.06245l-.42341-.87808.30841-.91206c.16461.29269.31096.56972.45731.87808l-.3423.91206ZM108.52255,15.07121c-.115.311-.22738.60369-.37372.94342-.11492-.29269-.24564-.56972-.37628-.86241l.35801-.92773c.14635.29269.27698.55403.39199.84672M106.11305,14.04678l-.52007-.92775.42341-.9617.5357.91206-.43904.9774ZM106.55209,15.10519l-.47038,1.00876-.47302-.91206.45467-.99309.48873.89639ZM105.33162,9.0814l.32667-.83105c.21174.29531.38944.56972.58539.8807l-.32667.86241c-.19332-.30837-.37364-.60367-.58539-.91206M105.39702,13.03802c-.16206.32406-.29269.65073-.47302.99307l-.55141-.94603c.14635-.33973.29269-.65073.45467-.99307l.56976.94603ZM106.3744,6.73722c.1934.26135.37372.52268.58539.81538l-.22738.73174-.56968-.84672.21167-.70039ZM105.80464,5.82516l.14635-.5697c.21174.24564.38944.47302.6011.73435l-.16206.61675-.58539-.7814ZM105.87004,10.1555c.21167.29269.38936.58539.56968.89637l-.37636.92775-.55141-.92775.35809-.89637ZM106.43972,9.21208l.25872-.79707.55405.86239-.27706.83105c-.16198-.31098-.3423-.588-.5357-.89637M107.12185,7.6336l.14635-.65073c.19595.25872.37628.50438.55397.7814-.04961.22736-.09666.45471-.16198.69776-.18032-.27441-.35809-.53574-.53833-.82844M106.94408,10.27048l.53578.87808-.34238.89639-.50436-.89639c.115-.32406.21167-.60106.31096-.87808M107.57915,13.10336c-.115.30837-.23001.61675-.37636.94342l-.47038-.89639.35801-.94342c.17777.30839.34238.58539.48873.89639M107.10613,16.22632l.4077.83105-.47302.9774-.37372-.83105.43904-.9774ZM107.17145,16.06428c-.13064-.29269-.27698-.58539-.42333-.87808l.40762-.9617c.16206.29269.30841.5697.45475.86241-.14635.32667-.27698.63504-.43904.97738M107.4328,9.3741c.08103-.27702.14635-.52005.21167-.76571.17769.27702.33975.53835.50436.83105l-.21167.79707c-.16461-.29269-.32667-.56972-.50436-.86241M107.90319,10.38286c.18032.29531.32667.56972.48873.86502l-.27706.87808-.47038-.89639c.11237-.29269.17769-.5697.25872-.84672M108.31089,9.53875c.04969-.26135.11237-.48871.14635-.73437.16206.27702.30841.53835.47302.81538l-.16461.7631-.45475-.84411ZM108.68461,8.10401c.01563-.21169.03397-.40507.03397-.58539.16198.24566.30833.48871.45467.76571,0,.19601,0,.3894-.03134.61936-.14898-.26133-.29533-.52266-.45731-.79969M108.74993,10.5292c.14635.27702.29269.53835.42333.83105l-.21167.83105-.42333-.84674.21167-.81536ZM109.75865,14.07814c-.09666-.27702-.21167-.53574-.32404-.81277l.22738-.83105c.11237.27702.21167.52268.32404.79707-.06269.27702-.128.55405-.22738.84674M110.00437,15.02418l-.29269.86241c-.08366-.26135-.16469-.50438-.26135-.7814.11237-.311.19595-.56972.27698-.86241.09674.25872.19603.50438.27706.7814M109.6777,12.28798c-.115-.29269-.24309-.55403-.37372-.83103.06532-.27441.11237-.53574.16198-.77879.13072.27441.26135.52005.37372.81275-.04705.24305-.09666.50438-.16198.79707M109.31961,13.18437c-.09666.29269-.17769.58539-.29269.89377-.11492-.29269-.2273-.55141-.37364-.86241l.27698-.86241c.14635.27702.25872.53835.38936.83105M109.33532,15.03985l-.34238.91206-.32404-.81536.32404-.91206.34238.81536ZM108.94596,16.11394c.09666.277.19595.50438.27698.76571l-.37636.90945-.27435-.7631c.128-.311.25872-.60369.37372-.91206M109.49993,17.82308c.06277.22736.11237.43904.16206.65073-.13064.29269-.26135.56972-.39199.86241-.04705-.21169-.08103-.42337-.14635-.65073.14635-.29269.24564-.56972.37628-.86241M109.54698,17.66104c-.04705-.24564-.13064-.47302-.1934-.73435l.32412-.87808c.08095.24305.14635.48869.21167.73174-.09674.29269-.21167.56972-.34238.8807M110.08532,17.66104c.03142.22738.0654.42337.08103.63244l-.3423.83105c-.03142-.19601-.04969-.3894-.08103-.61936l.3423-.84413ZM110.11674,17.51469c-.03142-.22997-.08103-.44165-.13072-.68468l.27706-.84674.14635.70039-.29269.83103ZM110.29706,15.83692c-.04969-.26133-.13072-.48869-.19603-.76571l.21167-.82844.21167.74743-.2273.84672ZM110.08532,13.31504c.0654-.27702.09674-.53835.16206-.79969l.26135.78138c-.04969.26133-.09929.52268-.16469.79969-.08095-.26133-.16198-.50699-.25872-.78138M110.36238,11.62158l-.09929.74743c-.11237-.27702-.1934-.52007-.32412-.79707.04705-.26135.08103-.50438.09674-.73174.13064.25872.21167.50436.32667.78138M110.03571,10.70953c-.11237-.27702-.22738-.53835-.35801-.79707.01563-.24566.01563-.43904.03397-.65073l.35801.7631c0,.21169,0,.44165-.03397.6847M109.28826,8.38103l-.03397-.55141c.13072.24303.27706.4704.4077.73174.01571.17771.03134.3737.03134.58539-.13064-.26133-.27698-.50438-.40507-.76571M109.56269,9.81314c-.03134.22999-.04705.45734-.09674.73437l-.40762-.83105c.03397-.24305.06532-.47302.08358-.70039.16206.27702.27443.52268.42078.79707M108.7839,6.99857c-.03397-.16204-.06532-.29269-.115-.42337.16206.22736.30841.43904.45475.6664.04961.14635.08103.311.09929.48871l-.43904-.73174ZM108.70024,7.42192c-.14635-.26133-.30833-.50438-.48602-.75002l-.03397-.4704c.16198.24303.32667.45471.48865.69776.01571.16463.04969.32667.03134.52266M108.55389,8.00733c-.03134.21167-.04697.42335-.09666.6664l-.48873-.81277.08103-.61936.50436.76573ZM108.04954,7.12922l-.52007-.76571.03142-.50438.52262.71606c0,.16202-.01826.34234-.03397.55403M106.99113,5.09342c0-.14635,0-.277-.03134-.3737.19595.19599.37372.40768.55405.63504.03134.11239.03134.25874.03134.42337-.17769-.24566-.35801-.47302-.55405-.6847M107.38312,6.26683c-.03397.19338-.06532.3737-.09929.58539l-.56968-.76571c.04961-.19601.06532-.37372.09929-.53574.19595.24305.37372.45471.56968.71606M106.84478,4.99674c0,.13066-.01571.277-.03134.45471l-.58539-.70037.04705-.40507c.19595.21167.37628.40507.56968.65073M106.29337,3.84163c.1934.17771.37372.32406.56968.53572.03142.06534.06277.16204.08103.27702l-.56968-.58539c-.01834-.09931-.04969-.16465-.08103-.22736M105.65829,3.67698c.01571-.09668,0-.17771-.01826-.25872l.60365.53574.01571.32667-.6011-.60369ZM106.06336,4.65438c-.01563.16204-.06532.32667-.09666.50438l-.6011-.70037.09674-.45473.60102.65073ZM105.46234,3.93831l-.61936-.60367.04961-.29269c.22738.18032.4077.34234.61936.53835l-.04961.35801ZM105.18528,4.36169l-.17769.52005-.61936-.70037c.06532-.17771.11237-.32406.16206-.4704.21167.21169.42333.40507.635.65073M104.68092,3.23794l-.115.39201c-.2273-.21169-.42333-.40768-.635-.60369l.115-.32406c.21167.17771.42333.33975.635.53574M103.75323,2.94525l-.18032.40768c-.22738-.21169-.42341-.40768-.63508-.60367l.18032-.35803c.21167.18032.42333.34234.63508.55403M100.12326,2.86424c.21167.19599.42333.40768.635.63504l-.39199.65073-.635-.70037c.13064-.21169.26127-.40768.39199-.58539M99.53787,2.19521l.35801-.43904c.21167.16465.40507.311.63508.52268l-.37636.48608-.61673-.56972ZM101.35935,2.92958l-.63508-.58541c.115-.16463.19603-.29531.29533-.42335l.65071.53574-.31096.47302ZM101.97872,3.66131l-.35801.61936-.63508-.70037.34238-.56972c.22738.21169.42333.42337.65071.65073M99.27652,9.79747l.68468.94342-.56968,1.04273-.65334-.9774.53833-1.00876ZM98.69113,8.67372l.52007-.92775.68468.89639-.55405.9774-.65071-.94603ZM99.3262,11.96392c.2273.32406.43904.63244.66634.97478-.17769.35803-.37364.70039-.58539,1.0741l-.65071-.99307.56976-1.05581ZM99.89588,4.99674l.42333-.73437c.22738.26133.43904.48871.66642.75004l-.43904.76571c-.22738-.26133-.43904-.53835-.65071-.78138M100.48127,5.92447c.22738.27702.43904.53574.66642.82844l-.47038.8807-.65079-.8807.45475-.82844ZM100.62762,7.79564l.66642.91206-.52007.95909-.65071-.94342.50436-.92773ZM100.70865,9.83144c.24564.32406.45731.61675.66897.95909l-.53833,1.00876-.635-.97478.50436-.99307ZM101.1973,5.09342l.38944-.70037c.22993.24566.42333.48869.65334.75004l-.39199.74741-.65079-.79707ZM102.19038,3.74232l.27706-.53574.65071.65073-.29269.58539-.63508-.70037ZM103.11815,2.34417l-.61936-.47302.13064-.21167c.21174.13066.4077.26133.63508.42335l-.14635.26133ZM102.74443,2.66822l-.24564.45473-.63508-.60108.23001-.3737.65071.52005ZM101.3123,1.54448c-.08358.08103-.16461.19601-.26135.311l-.61936-.45734.26135-.24303c.21167.11237.4077.22736.61936.38938M100.70865,1.10544l-.58539-.30837c.08103-.04965.14635-.08101.21167-.08101l.58539.24303c-.06532.03397-.13064.08103-.21167.14635M100.25389,1.3511l-.32667.33973c-.21167-.16202-.38936-.30837-.60102-.43904.11237-.11237.21167-.21167.30833-.29269.21167.13068.4077.22738.61936.39201M99.66851.92775c-.19595-.115-.37628-.21169-.56968-.311.09666-.04703.17769-.08101.27435-.11237.18032.08101.37636.14635.56976.24305-.09674.04965-.17769.09668-.27443.18032M99.13017,1.18647c-.115.11498-.22738.22736-.35801.37632l-.58539-.42337c.13064-.11498.24301-.22997.35801-.31098.1934.11498.37372.22736.58539.35803M99.3262,2.1325l-.4077.52005-.6011-.55403c.14635-.17771.27443-.32406.40507-.45473.21167.14635.39199.30839.60373.48871M98.59184.78138c-.1934-.11498-.37372-.19599-.55141-.277.11237-.06534.22738-.09931.32404-.13068.18032.04965.35801.11237.55405.21169-.09674.04965-.21167.11237-.32667.19599M97.59875,2.7022c.21167.1934.4077.37372.61936.60108l-.48873.6847-.60102-.66903.47038-.61675ZM97.66407,4.11603c.21167.24566.42341.47302.65334.73435l-.52262.79709-.61681-.76573.4861-.76571ZM97.72939,5.80949c.21174.26133.42341.52266.65079.81536l-.53578.90945-.63508-.86239.52007-.86241ZM97.77907,7.69894l.66642.89377-.56976.99307c-.21167-.32406-.42333-.61675-.65071-.92775l.55405-.95909ZM98.4951,10.7252l-.58539,1.04273-.66897-.9774.56968-1.02443.68468.95909ZM97.82868,16.45628l.66642.95911-.60102,1.04271-.65334-.9617.58794-1.04012ZM97.90971,16.26029l-.65071-.99307.58539-1.0741.66642.99307c-.21167.35803-.38936.71606-.6011,1.0741M97.90971,14.0128l-.65071-1.00876.56968-1.04012.68213.97478-.6011,1.0741ZM98.44549,3.36862l.42333-.60369.63508.61936-.43904.66903-.61936-.6847ZM98.99954,4.18136l.66897.73435-.48865.7814-.63508-.7814.45475-.73435ZM99.11446,5.84346c.22738.29269.43904.53574.68213.82844l-.52007.89637c-.22738-.29269-.42333-.58539-.65071-.86239l.48865-.86241ZM99.35755,18.44244l-.61936-.94603c.21167-.35803.39199-.70037.58802-1.05841l.635.9617-.60365,1.04273ZM99.91159,19.53221l-.61936,1.00876-.58539-.89639.58539-1.02443.61936.91206ZM99.40715,16.2446l-.65071-.97738.58539-1.05843.65071.9774c-.21167.34236-.38936.70039-.58539,1.05841M100.80794,18.40846l-.60365-.94342.58539-1.04273.61936.94342-.6011,1.04273ZM101.32801,19.48256l-.61936.99307-.55405-.87808.56968-1.00876.60373.89377ZM100.85499,16.22632l-.61673-.95909.56968-1.05843.63244.96172-.58539,1.05579ZM100.87063,14.0128c-.21167-.33973-.40507-.65073-.63236-.99307l.5357-1.02445c.24564.30839.43904.61936.66642.96172-.21167.35803-.37372.69776-.56976,1.05579M101.39333,6.85222l.40507-.81538c.23001.27702.44167.52268.66905.83105l-.43904.84672-.63508-.86239ZM102.46745,5.2241l.32404-.66642c.23001.25874.44167.4861.65334.74743l-.34238.73174c-.21167-.277-.42333-.53574-.635-.81275M103.32982,3.93831l.22738-.50436c.21167.21167.42333.42335.63508.6664l-.22738.55403-.63508-.71606ZM103.93092,4.76936l.65334.74743-.29533.6847c-.21167-.27702-.42078-.53835-.63244-.79969l.27443-.63244ZM104.77766,5.5978l.21167-.60106c.21167.24303.4077.4704.61936.74741l-.22738.65073-.60365-.79707ZM105.3656,6.52555c.20911.277.40507.52266.6011.81536l-.27698.7631-.6011-.86241.27698-.71604ZM104.87695,11.92997c-.19603-.32406-.37636-.63506-.58802-.94342l.42333-.94342.58802.92773-.42333.95911ZM104.89258,16.14531c-.16198-.30839-.32667-.60108-.51999-.92775.19332-.35803.32404-.6664.48602-1.00876l.55405.92775-.52007,1.00876ZM105.34734,17.20371c-.17769.34234-.35801.66901-.55141,1.00876l-.47302-.8781c.17769-.34234.32404-.6664.50436-1.00874.19603.30837.35801.58539.52007.87808M105.90138,18.29348c.14635.27702.27698.53835.4077.79969l-.53841.95909-.38936-.78138.52007-.9774ZM105.9667,18.13144c-.13064-.29269-.27698-.5697-.43904-.86239.17769-.34236.34238-.65073.48873-.99309.17769.29269.32404.56972.47038.86241-.16206.32667-.32404.65073-.52007.99307M106.97542,18.19678l.35809.76571-.50444.94342-.3423-.76571.48865-.94342ZM107.69152,19.89024l.22738.65073c-.16206.29269-.32404.56972-.50436.86241-.0654-.21169-.13072-.4077-.22738-.63506l.50436-.87808ZM107.75684,19.7282l-.27698-.71604c.18032-.32667.31096-.61936.45731-.92775.12808.25872.21167.4861.29269.73174l-.47302.91206ZM108.00248,17.91978c-.11492-.27702-.19595-.52007-.32667-.79707.14635-.32667.27706-.61936.4077-.94342.14635.277.24309.52005.35801.79707l-.43904.94342ZM108.7839,17.95375l.22738.69776-.43904.89637c-.04969-.22736-.115-.45471-.21167-.70037l.42333-.89375ZM109.20468,19.48256c.04961.21167.06532.39199.09929.58539l-.43904.81536c-.01834-.18032-.04969-.35803-.08103-.55403.14635-.29269.29269-.55403.42078-.84672M108.89628,21.48439c.16206-.25872.29269-.50438.43904-.74743,0,.14635-.01571.27702-.04705.42337l-.44167.73174c.03397-.11498.04969-.26133.04969-.40768M109.33532,21.14203l.39199-.71604c-.03397.14635-.04961.26133-.115.39199l-.38936.70039c.04705-.11498.08103-.22738.11237-.37634M109.40064,20.59061c0-.16463-.01563-.32667-.01563-.52266.14635-.27441.26127-.52007.37364-.79707.01571.18032.03397.35803.03397.53835-.13064.25872-.24564.52005-.39199.78138M109.83968,19.80923c.115-.26135.24564-.50438.34238-.7814,0,.17771-.01571.34236-.04969.50438l-.33975.76571c.03142-.16463.04705-.31098.04705-.48869M110.23166,18.89717c.01571-.18032,0-.37372,0-.56972.09674-.29269.19603-.53835.27706-.81277.03134.20907.03134.3894.03134.58541-.09666.25872-.17769.52005-.30841.79707M110.57404,18.11577c.08103-.26133.16206-.50438.22738-.76571,0,.19599-.01571.3737-.04969.55403-.06532.24305-.14635.48871-.24301.74743.03134-.16204.04705-.33975.06532-.53574M110.55578,17.36573c-.01571-.21167-.03142-.42074-.08103-.65073.09929-.277.18032-.55141.22738-.81275.04961.22736.06532.43904.09929.6664l-.24564.79707ZM110.7361,15.75591c-.03397-.22736-.08103-.47302-.13072-.71606.06532-.277.115-.52266.16206-.78138.06532.22736.09929.45471.14635.70037l-.17769.79707ZM111.01309,15.82125c0,.21169.01571.42335.01571.61675-.04969.26133-.115.52266-.17777.78138,0-.21169,0-.38938-.01826-.61675.08103-.277.115-.52266.18032-.78138M110.9634,15.00587l.115-.74741c.03134.22736.06532.43904.06532.6664-.03397.24566-.06532.50438-.11492.76571-.01571-.22736-.03142-.43904-.0654-.6847M110.75173,11.06756c-.08103-.24305-.16198-.48871-.25872-.73174-.00782-.08364-.0209-.15943-.03397-.2326.09929.27702.18822.55141.2718.82582.00526.04703.01308.08885.0209.13851M110.03834,9.04743c.0209.11237.04179.21952.06269.34236l-.35801-.73176c-.02616-.15418-.04442-.28484-.07321-.41551.13072.26917.25354.53574.36854.80491M108.58787,6.42885c-.04961-.06534-.14635-.0967-.13064-.19599l-.29269-.3894c-.01571-.06534-.08103-.08362-.115-.13068l.01571.01569c.04961.13066.06532.24303.09929.39201l-.52007-.66903c-.03397-.13066-.04961-.22736-.09929-.34234.18032.19599.32667.39199.48873.60367-.02098-.03136-.02098-.07056-.01053-.11498.15424.19863.30059.40245.44431.6063l-.01045.02875.13064.19599ZM90.43292,1.15772c.11764.15418.12282.04703.18295.06273-.1934.09668-.38944.21167-.58539.34234l-.04705-.03397-.06532-.03136h-.03397c.15679-.10192.33449-.14635.46512-.30575.02879-.01047.05495-.02353.08366-.03397M87.57393,2.74925v.03397h.01563c-.21167.16202-.39199.32406-.60365.48869v-.11498c.12282-.09931.21167-.20385.29533-.31622.0784-.05748.16198-.10976.24564-.16724l.04705.07579ZM85.06768,5.69711l-.03397-.37632.53841-.65073.04697.31098c-.19332.22736-.35801.45473-.55141.71606M84.39871,5.72848l-.48873.6847c.01834-.0575.02879-.11237.04442-.16204.16469-.2378.33712-.47302.51744-.7056-.02353.05487-.04961.10976-.07313.18293M83.35594,7.18411c-.00518.0209-.01308.03659-.01563.05748l-.39988.69517c.12808-.25088.26917-.50177.41551-.75265M82.02318,10.23651c-.09937.26133-.18032.50438-.26135.78138v-.00261c.08103-.30575.17251-.61414.27698-.92773-.00518.04965-.01045.09668-.01563.14896M81.73049,16.63138c.00255-.2378.03134-.47563.06532-.71345.06269.24566.16198.48871.25872.76573l-.08103.73174c-.06795-.2143-.14108-.42598-.20385-.63244-.01308-.04965-.02616-.09929-.03916-.15157M81.98921,17.53038c.08095.25872.19595.50438.31096.7631l-.00782.17249c-.10719-.30055-.20911-.6063-.30314-.91469v-.0209ZM82.75492,19.30485l.40762.7631c0,.17249-.00782.33451-.00255.4913-.1359-.28486-.26917-.588-.40507-.90683v-.34756ZM83.633,21.50267l.00263.01308c-.01053-.0183-.02098-.0392-.03142-.06011.01045.01567.0209.03136.02879.04703M84.88736,19.90591l.53841.84674-.19603.70037-.5227-.81538c.04969-.24303.09937-.47038.18032-.73174M86.35346,19.18987l.33975-.8781.60365.91208-.35801.86239-.58539-.89637ZM87.28123,15.21756l.47038-1.00876.56976.94342-.48873,1.01137-.55141-.94603ZM87.78559,16.32563l.6011.94342-.45475.9617-.58539-.92773c.14635-.34236.27443-.63506.43904-.9774M87.88225,18.40846l.61944.91206c-.14643.30839-.27706.60108-.39207.89377-.21167-.29269-.42333-.60108-.61673-.90945l.38936-.89639ZM87.97899,9.8628l-.43904-.83105.55405-.94342.45467.78138-.56968.99309ZM89.0374,14.2088l.61936.94342-.52007,1.04273c-.21167-.32667-.4077-.63504-.58802-.95909.14635-.36064.31104-.6847.48873-1.02706M89.07137,16.37528l.63508.94342-.48873.99307-.61936-.9617.47302-.97478ZM89.1524,18.48947l.65071.92775-.45475.91206-.61936-.91206.42341-.92775ZM90.19773,21.41121l.41815-.8206.15943.20907-.46783.70298-.10974-.09146ZM91.90166,18.58879c.22993.32406.45731.61675.68468.94342l-.53578.95909-.65334-.92773.50444-.97478ZM93.35205,18.63582c.22738.311.45475.60369.68205.92775l-.55141.9774c-.22993-.30839-.43904-.61936-.66897-.92775l.53833-.9774ZM94.83378,18.65151l.66642.93034-.56968.99048-.65071-.92775.55397-.99307ZM97.81041,18.65151l.65334.91206c-.21167.35803-.4077.66901-.60365,1.00876l-.63508-.90945.58539-1.01137ZM101.55539,19.54788l.56968-1.00874c.21167.30837.37372.5697.55405.86239-.19603.34236-.39199.66642-.60373.99309l-.51999-.84674ZM102.20609,18.35882l-.56976-.92775.55405-1.04012.6011.92775-.58539,1.04012ZM102.27141,16.21062l-.58539-.95909.53578-1.04273.60365.94342-.55405,1.05841ZM102.28712,14.0128l-.61681-.97478.52007-1.02704c.21167.32667.42341.63504.63508.9617l-.53833,1.04012ZM102.69482,6.9489l.37364-.78138.65079.83105-.38944.83105-.635-.88072ZM103.28021,7.99163l.65071.87808-.43904.92775c-.21167-.32406-.40507-.61936-.61673-.92775l.40507-.87808ZM103.46053,18.4738c.17769.29269.35801.55403.51999.84672l-.58539.9774-.48865-.83105.55405-.99307ZM103.54148,18.29348l-.53833-.90945.55405-1.00876c.19603.29269.35801.58539.53833.89377-.18032.34234-.35801.6847-.55405,1.02443M103.62251,16.17928l-.56968-.94342.52007-1.02706.58794.94342-.53833,1.02706ZM104.14258,8.96903l.37636-.86502c.21167.311.40507.56972.61673.89639l-.38944.87808c-.18032-.30837-.39199-.60108-.60365-.90945M104.7306,18.39279l.47038.83105c-.1934.32404-.37372.63242-.56968.95909l-.43904-.81275.53833-.9774ZM106.22805,20.96432l.52007-.91206c.11492.24566.19595.45734.30833.6847-.17769.30839-.35801.58539-.55141.89377-.08358-.22736-.16461-.43904-.27698-.66642M107.33351,21.54973l.18032.53833-.31104.46518-.04705-.54619-.22474.15157.40251-.6089ZM107.65755,22.19782l-.03134-.10976c.19595-.26133.3423-.52266.50436-.79707l.115.50438c-.16987.26135-.32404.49393-.49136.73698l.03661-.44429-.13327.10976ZM108.19588,21.14203l-.14635-.58539c.16469-.29269.31104-.5697.45738-.86241.06532.21169.128.4077.17769.61938l-.48873.82842ZM108.79961,21.01398c.01563.17771.03134.32406.03134.4704-.16206.26133-.30841.52266-.47038.76571,0-.14635-.01834-.29269-.03397-.45473.16198-.26133.32667-.50438.47302-.78138M108.39973,22.56371c.12808-.18295.2509-.36064.38417-.55666-.01826.12806-.04969.22736-.09929.32406-.11237.15157-.21956.30053-.33456.45212l.04969-.21952ZM111.04443,17.07304c-.14635-.22736-.01563-.38938,0-.60106l.115-.73174c0,.16202.08103.32667.1934.49914-.01308.11498-.0209.2326-.03924.34497l-.26917.48869ZM85.60865,4.25976c.0079.0392.00526.07056-.00518.10192l-.42341.45473c.01571.08101-.04961.08101-.09666.11498l.09666-.11498-.03916-.06534c.15153-.16726.30833-.33189.46775-.49132M85.21403,22.1534l-.08358-.08362c.02871-.15941.05487-.31622.09929-.48608l.06795.08362-.08366.48608ZM87.00417,21.19169l-.09403.26133-.29796-.42337.29269-.79707.60373.86241-.13853.37109-.36591-.27439ZM88.094,21.02965l-.18032.43382-.1934-.27178.3423-.81277.63244.86241-.05224.1176-.54878-.32928ZM89.08708,21.58107l-.18032-.24303.39199-.84674.34756.45996-.20122-.16724-.35801.79705ZM91.72389,21.50267l-.11492-.11237.37628-.73435.18822.24305-.44957.60367ZM93.23704,21.64902l-.20903-.25872.38936-.66901.23256.30053-.41288.6272ZM94.52546,21.3119l.32404-.57494.34756.44951-.41288.42857-.25872-.30314ZM97.48901,21.23089l.29006-.49393.41288.55927-.36328.46516-.33967-.5305ZM101.69647,21.08977l.31359-.51744.5227.79969-.26135.40245-.21167.18293-.36328-.86764ZM102.78367,21.32757l.53052-.85194.47038.76571c-.16469.2718-.33456.53052-.51489.8023l-.34756-.83627-.13845.12021ZM104.10598,21.48961l-.12545-.19863.56976-.92773.42333.73174-.5357.83366-.18032-.57494-.15161.1359ZM105.44663,22.03319l.14372.26656-.14372.0967v-.36326ZM106.30908,21.95479l.13064-.17771.23782.55925-.20648.14112-.16198-.52266ZM108.02864,22.72573l.24827-.36064c0,.08623-.00263.16204-.01045.23521l-.23782.12543Z" style=" fill-rule:evenodd; stroke-width:0px;"/><path d="M34.75367,12.98706c-2.03586,0-3.61426,2.18215-3.61426,3.74493,0,.43904.3423,4.01934,4.01932,4.01934,3.02887,0,3.90695-2.84857,3.90695-3.79199,0-.95909-.87808-3.97229-4.31202-3.97229M38.28427,16.79733c.50436,1.05841-.21167,2.4252-1.60982,3.06023-1.40071.61936-2.96355.27702-3.46791-.78138-.52007-1.05841.21167-2.4252,1.61245-3.06025,1.39815-.61936,2.94529-.277,3.46528.7814M179.55693,21.06233h3.72671l-1.90259-3.67962-1.82412,3.67962ZM193.75014,21.71304c-1.25181-2.35986-5.19273-10.28615-5.80955-11.29753-.635-1.00876-1.90515-1.8215-3.1595-2.61858-1.27015-.81536-2.87989-1.61243-4.7694-1.13941-1.8868.4704-3.43386,2.87991-4.7694,6.44452,0,0-1.18641-3.02626-5.32066-4.8347-4.13441-1.8215-3.79466-2.01752-7.16328-2.01752-3.35299,0-4.47671.13068-4.47671.13068,0,0-1.48166.06534-2.5218,1.13941,0,0-2.10118-1.20475-3.72926-1.27009-1.6099-.06532-5.32082,0-6.93327.13068s-2.52196.94342-2.79886,1.67516c0,0-2.03578-1.93649-3.92274-1.93649-1.90515,0-3.43657,1.46608-3.43657,1.46608,0,0-1.8214-1.27009-4.34591-1.27009-2.52196,0-5.46716.06534-6.59089.06534-1.1238,0-3.36862,1.41644-3.36862,3.69529,0,2.29452-.14635,10.28615-.14635,10.28615,0,0-.61936-.53835-2.10118-.53835v-8.33397c0-1.28578-.76571-2.14817-2.16387-3.02628-1.40071-.87808-3.22482-2.14817-5.04639-2.14817-1.36418,0-1.93649.10976-2.28669.41031.27706.44165.53052.88853.7579,1.34063.44431-.24564.94603-.39984,1.47918-.39984,1.82412,0,2.92958,1.28578,2.92958,3.15693s.14635,10.28879.14635,10.28879c0,0,2.89815.12804,4.1683.12804,1.28578,0,2.57148.92775,2.57148,2.92958,0,1.98615-1.70911,2.75187-3.17522,2.75187h-6.88358c-.66634,0-2.52706-.06795-2.86944-3.13865l-1.17604,1.67518c.1438.88853.46257,1.45041,1.45566,2.09851,1.54713,1.00876,3.43657,2.14819,5.53511,2.4252,2.1011.27702,7.22852.13068,8.20334.06534.97738-.06534,2.45911-1.33543,2.45911-1.33543,0,0,2.03323.79707,2.73362,1.13943.70039.32667,2.79886.32667,3.92258-1.28578,1.12372-1.60982,1.12372-2.21351,1.12372-3.15693v-2.96353h1.27015s.0654,1.54709.0654,2.35986c0,.79969,1.18641,2.21351,2.16387,2.96353.99293.73174,3.72655,2.08286,4.21528,2.27885.48873.21169,3.49925.13068,4.55774-1.40077,0,0,1.88935,1.13943,2.65515,1.40077.78142.27702,7.22596.06534,8.13802,0s2.37553-.79707,2.73346-1.33543c0,0,1.67785,1.4661,3.58299,1.4661,1.8868,0,3.98798-2.14819,3.98798-2.14819,0,0,2.5872,2.01752,4.89733,2.01752,2.32848,0,3.45236-1.40077,3.45236-1.40077,0,0,4.75361,3.8913,7.91056-1.15509h2.87989s3.49925,1.75878,4.98107,2.35986c1.46602.60367,3.49925.73435,4.90004-1.60984,1.40079-2.36247.3423-4.1683-.91206-6.52816M131.62029,13.3477c-1.59682,0-3.48362-.06534-3.48362-.06534v2.2292h2.44093c1.53142,0,2.13244.70037,2.13244,1.80581,0,1.10807-.91206,1.98615-1.9522,1.98615-1.02706,0-2.86426-.04965-2.86426-.04965v4.85299c0,1.35112-.91206,2.74925-2.93213,2.74925-2.00189,0-2.92958-1.69344-2.92958-2.92958l.13064-13.10336c0-2.21351,1.28578-3.09159,2.68657-3.09159h5.90876c1.52887,0,3.30322.81277,3.30322,2.57154,0,1.75617-.86229,3.04456-2.44077,3.04456M141.19036,24.1696c0,1.51575-1.15515,2.73617-2.99489,2.73617-1.82156,0-3.0445-1.33541-3.0445-2.73617l.06524-13.39605c0-1.8215,1.09246-3.04195,2.97926-3.04195,1.90515,0,2.99489,1.69085,2.99489,2.9139v13.5241ZM152.42249,26.92147h-5.7467c-2.49053,0-3.77632-1.30145-3.77632-2.58722s-.13064-10.35412-.13064-13.15302c0-2.81457,1.70911-3.22227,2.88244-3.22227,1.15515,0,4.0848-.11498,6.03955-.11498,1.33284,0,2.91386.76571,2.91386,2.75187s-1.51579,2.75187-2.67078,2.75187c-1.17078,0-3.72671-.06534-3.72671-.06534v2.39122h3.17258c1.28578,0,2.0672.58539,2.0672,1.57848,0,1.01135-.60102,1.82412-1.39823,1.82412h-3.77616v2.50621h3.53052c1.82412,0,2.86426.71606,2.86426,2.52449,0,1.80583-.73166,2.81459-2.24489,2.81459M170.03392,22.70613c.48873.87808,1.41642,2.39383-.53578,3.74232-1.95475,1.33543-3.97219-.40507-4.76924-1.57848-.78142-1.17078-3.1099-4.86606-3.1099-4.86606v3.92264c0,2.40953-1.64387,2.99491-2.97926,2.99491-1.35118,0-2.62117-1.23612-2.62117-2.87991,0-1.62812-.12808-11.93258-.12808-13.21836,0-2.27883,1.39807-2.86424,2.44093-2.86424,1.04269,0,2.68641-.06532,5.85915-.06532,3.17514,0,6.57773,2.99489,6.57773,6.38181,0,3.39996-2.49053,5.32078-2.49053,5.32078,0,0,1.26744,2.23181,1.75617,3.1099M189.32304,26.85613c-3.36862,1.27009-4.39552-2.52188-4.39552-2.52188h-7.32534c-.66642,2.16385-2.68386,3.44963-4.50797,2.29452-1.83991-1.17078-1.28578-2.8172-.86245-3.92264.43912-1.10807,5.5194-11.02052,6.03955-12.40299.48857-1.28576,1.35102-2.23179,2.75181-2.23179,1.39807,0,2.0672.29531,2.68386,1.3511l6.64057,13.33333s1.59682,3.10729-1.02451,4.10035M84.3499,22.82111c-.66642-.81538-2.97926-5.21104-3.06029-8.72598-.02608-1.25703.23782-2.87732.87027-4.56815-.03134-.03397-.05487-.07056-.08885-.10454-1.87117-1.79016-4.14996-3.41826-8.56135-3.41826s-8.48032,3.58289-8.48032,3.58289c0,0-2.11681-2.44348-2.96355-3.17522s-6.77121-1.95218-6.77121,3.90697c0,0-2.78323-2.96355-3.48354-3.82596-1.35118-1.70913-7.45334-1.22044-7.45334,3.09421,0,0-3.89124-3.90695-9.31135-3.90695s-9.58841,5.04639-9.58841,5.04639c0,0-.42341-1.70913-1.77443-2.76756-1.35118-1.05841-2.11426-2.52449-4.83472-2.52449-2.69965,0-4.15004,3.50189-4.73543,5.04639,0,0-1.18904-1.95218-2.19784-2.92958-1.02443-.9774-1.87117-2.52188-4.589-2.52188-1.59682,0-3.12561.5697-4.15267,3.49927C2.16514,11.45825.47166,20.71997.13191,22.10244c-.3423,1.3694-.26127,3.56722,3.3033,6.33217,3.56465,2.76754,6.77121-.56972,6.86787-1.38246,0,0,2.62125,2.44087,5.08036,2.44087,2.45656,0,4.15004-2.44087,4.15004-2.44087,0,0,1.3511,2.44087,4.91567,2.44087s4.31465-3.09159,4.31465-3.09159c0,0,2.71791,3.09159,7.97596,3.09159,5.2555,0,8.46206-3.41826,8.46206-3.41826,0,0,2.63688,2.27883,3.98798,3.0132,1.3511.73174,5.60043.97478,5.76249-3.58291l3.56457,3.41826c1.27007,1.22044,4.15259.9774,5.42274-.08101,1.26744-1.05841,1.85546-3.66131,1.85546-3.66131,0,0,2.55322,2.35986,3.48099,2.92958.9304.5697,2.88252,1.62812,6.95153,1.62812s8.30263-3.33725,8.54564-5.94277c0,0,.0079-.08625.01834-.22736l-.44167-.7631v.01567ZM22.98313,26.40141c-1.28578.32406-2.73362-.50438-3.09163-1.23873-.34238-.71606-1.6934-5.42011-1.6934-5.42011l-1.96791,4.3643c-.47302,1.00876-1.40071,2.17954-2.91386,2.17954-1.53142,0-2.45919-1.51312-2.91394-2.34417-.47294-.84672-2.05141-4.08468-2.05141-4.08468,0,0-.81277,2.5219-.99309,3.5803-.16206,1.05841-.86245,2.73617-3.20656,2.73617-2.32856,0-2.78323-2.73617-2.55593-3.69527.22738-.94605,2.32856-10.8402,2.79894-12.45265.45731-1.6281.99309-3.0759,2.91386-3.0759,1.62816,0,2.26316.50438,2.67086,1.22042.42333.73176,3.38433,7.60226,3.38433,7.60226,0,0,2.00444-3.62995,2.91386-6.47852,1.05841-3.24055,5.19273-2.89821,5.94273-.16463.34238,1.20475,2.74925,12.17561,3.15695,13.91872.4077,1.72482-1.10546,3.01059-2.39379,3.35295M34.93136,26.44845c-5.53248,0-9.68507-4.40874-9.68507-9.7818,0-5.35475,5.19273-9.2774,9.73476-9.2774,5.95844,0,9.91245,4.86606,9.91245,9.50477s-4.42702,9.55442-9.96214,9.55442M62.55454,23.82987c0,3.96968-4.31202,2.45654-5.19273,1.56278-.87808-.89639-5.42011-6.54383-5.42011-6.54383,0,0-.04969,3.35293-.04969,4.8164,0,1.45041-1.17078,2.89821-2.97663,2.89821-1.8084,0-2.73617-1.51314-2.73617-2.89821,0-1.39813-.29269-11.79929-.29269-13.20004,0-.89639.18032-2.29454,1.51316-3.01059,1.33547-.73437,2.91386-.34236,3.84163.82842.92777,1.17341,5.60043,6.88619,5.60043,6.88619v-5.14309c0-1.17339.74745-2.75185,2.68649-2.75185,1.92086,0,3.07592,1.46608,3.07592,2.91388,0,1.45041-.04961,9.6694-.04961,13.64171M79.79216,24.65831c-1.74046,1.28576-3.66131,1.97046-6.64049,1.97046-2.96355,0-9.37675-2.91388-9.37675-9.45774,0-6.52553,5.7128-9.71644,9.03437-9.71644s6.0055.94342,7.16328,2.27883c1.17078,1.35112.92769,2.74925.24301,3.53066-.70039.78138-2.16387,1.40075-3.97227.66901-1.80585-.73435-1.39815-.73435-3.02632-.78138-1.7588-.06534-3.54894,1.6281-3.54894,3.80764,0,2.16648,1.92086,3.95662,3.89132,3.95662,1.98354,0,3.27188-1.79014,3.27188-1.79014,0,0-1.87372-.04965-2.62117-.04965-.76571,0-1.51316-.27702-1.51316-1.56278s1.04014-1.28578,2.21355-1.28578h3.72663c1.15507,0,2.96355.50438,2.96355,2.89821,0,2.40689-.04969,4.2467-1.80848,5.53248M163.75144,13.16738h-2.0672v2.7989s1.28578-.04703,2.0672-.04703c.79705,0,1.65951-.35803,1.65951-1.3511s-1.10554-1.40077-1.65951-1.40077" style=" fill-rule:evenodd; stroke-width:0px;"/></g></svg>