<?xml version="1.0" encoding="UTF-8"?><svg id="b" xmlns="http://www.w3.org/2000/svg" viewBox="0 0 69.99866 123.92487"><g id="c"><path d="M44.66594,29.1963h-20.10978l-14.29513,14.15132v19.41461l14.36053,14.03892h19.88232l14.31332-13.98928v-19.96603l-14.15126-13.64955ZM53.16716,60.5278l-10.9943,10.73566h-15.25169l-11.07533-10.76703v-14.91442l11.02573-10.84804h15.43193l10.86367,10.47694v15.31687Z" style=" fill-rule:evenodd; stroke-width:0px;"/><path d="M10.26007,29.27835v14.07031l14.21665-14.07031h-14.21665ZM33.51102,78.61325c.81013,1.57064.90695,2.34941.90695,2.34941,0,0,.69513-2.44609,1.89462-3.24055,1.19694-.77618,1.3432-.92253,2.05668-.92253h-7.79301c.45475.07579,2.24489.4469,2.93476,1.81367M44.75112,29.27835l14.06768,13.56854v19.96341l-14.31332,13.98928h9.81045s4.5185-.61414,4.5185-4.45314V29.27835h-14.08331ZM10.26007,71.81331s-.13064,4.9706,5.05157,4.9706h9.29317l-14.34474-14.02064v9.05004Z" style=" fill-rule:evenodd; opacity:.5; stroke-width:0px;"/><path d="M40.71656,49.3727c-.27435-.16204-.6795-.32406-.6795-.32406h-.16206s-.1619.16202.22474.3894c.38951.20905,1.16823.37109,1.16823.37109,0,0-.27706-.27441-.55141-.43643M41.93184,46.96056s-.55141.27441-.71347.50177c-.13335.15681-.22219.66117-.25617.90422.04705-.04965.42859-.43643.58013-.69515.17785-.27441.38951-.71084.38951-.71084M28.96173,42.7975c.45204,0,.77616-.16204.77616-.16204,0,0-.3868,0-.71092-.27439-.33959-.27441-1.23075-.3894-1.00346-.06534.20911.33973.50181.50177.93822.50177M32.02202,48.49723s.0051-.04705.01037-.11498l-.01037.00261v.11237ZM35.92371,39.28515c0-.43643-.16206-1.14988-.16206-1.14988,0,0-.38936.4861-.38936.76049,0,.27702-.06269.98784-.06269.98784,0,0,.6141-.16202.6141-.59845M27.63416,45.16258s-.40515-.11237-.89116-.22736c-.50181-.11239-1.29631.04965-1.29631.04965,0,0,.34246.33973.95656.38678.6141.04965,1.23091-.20907,1.23091-.20907M25.73938,47.39699c.20911.22738.50181.55143.50181.55143,0,0-.06524-.64811-.29269-.82582-.20911-.16204-.43641.06273-.20911.27439M40.94386,50.14886l-.18024.16204s.2273.16202.7291.27439c.50181.11498.77887-.22474.77887-.22474,0,0-.61681-.32406-.82592-.32406-.2273,0-.50181.11237-.50181.11237M40.76362,51.07138c-.32141-.0967-1.10028-.32406-1.10028-.32406h-.11229s-.17769.48608.43641.48608c.61681,0,1.11846-.04703.77616-.16202M35.30961,42.36107c-.04977-.50177-.22746-.71345-.22746-.71345l-.21167.55141.27706.81015s.22474-.16204.16206-.64811M37.08923,47.23497l.50181.16202s.50181-.92251.06524-.71343c-.45204.22736-.56705.55141-.56705.55141M29.51043,46.58686s-.5487-.17771-1.05051-.17771-1.39297.11237-.32396.3894c1.05051.27439,1.37447-.21169,1.37447-.21169M35.25985,48.65924c.04977.3894.27451.77879.27451.77879l.2769-.27702s0-.61414-.04961-.9382c-.0654-.32406-.17769-.71345-.17769-.71345,0,0-.38936.77879-.32412,1.14988M36.15101,49.75946s.50181-.11237.89116-.38676c.3868-.27702.54886-.59847.54886-.59847,0,0-1.00361.15943-1.16551.32145-.16206.16204-.27451.66379-.27451.66379M30.46699,51.68813c.55141-.115.77616-.27702.77616-.27702l-.50181-.17771-.93806.22736s.11229.32406.66371.22738M32.08726,47.62437c0,.20122-.03653.57231-.05487.75788.03397,0,.3372-.02092.49128-.43382.17769-.43906-.04961-.92514-.04961-.92514,0,0-.3868.32406-.3868.60108M32.97587,47.5747c-.22746,0,.2769.71345.38936,1.08454.11229.3894.50181.43643.50181.43643l-.17769-.80752s-.50181-.71345-.71347-.71345M33.02548,48.11044s-.27706.33973-.32412.77616c-.06524.43643.27451,1.14988.27451,1.14988,0,0,.32396-.3894.2769-.82582-.06524-.43643-.2273-1.10022-.2273-1.10022M42.77324,47.02329c-.13064.12282-.22203.33712-.2769.49916-.00798-.00784-.01053-.01569-.01834-.02092-.06795-.05226-.16206-.0392-.21438.02875-.0051.00522-.43641.56972-.93806.77616-.17259.06534-.27706.08625-.36862.09409,0-.01045.00271-.02092.00526-.03397-.00526.00261-.01834.0183-.01834.0183v.01828c-.03126.00261-.05997.00261-.08885.00522-.14372.00784-.31088.01569-.64026.13329v-.69254s-.2769.16202-.45459.53574c-.07066.17247-.12027.31098-.15424.41551-.33449.16987-.44167.28486-.44167.28486l-.05487.0392c.04961-.1359.21422-.61675.21422-.83627,0-.27702-.06524-.77879-.06524-.77879,0,0-.43641.43906-.43641.77879,0,.28747.21693.75004.26382.85194l-.9773.70823.04961-.1359-.11229-.82582s-.22746.32406-.22746.59847c0,.15679.05232.36587.09937.51744-.03397.05228-.03397.12021.00255.17249.00782.00784.01579.01306.02361.0209-.06013.02614-.1308.07319-.20911.14112-.01834-.00522-.02871-.01045-.02871-.01045l.02345.01306c-.04434.03922-.08885.08103-.13845.13329-.43641.50177-.77616.98784-1.32757,1.10022-.30849.04967-.56721.03397-.69513-.09668-.115-.11237-.1308-.30839.01563-.61414.33975-.66379.50181-1.42427.84156-1.76663.19332-.18293.45204-.52527.58013-.75002.02616.01828.05216.02873.08358.02873.03653,0,.07577-.01306.10719-.04181.02616-.02614.38154-.38676.75782-.86241l.70039.24827c.01834.00784.03653.00784.03653.00784.07848,0,.13861-.0392.16206-.1019.02616-.07842-.01563-.16465-.09411-.1934l-.61139-.21691c.10974-.15157.21677-.30575.31088-.46255.12808.00522.73708.01567,1.13951-.22999.43896-.27439,1.16551-.71082.77871-.71082-.38936,0-1.39297.32406-1.39297.32406l-.4782.53572c.06795-.12021.13064-.24042.18295-.36326.08629-.20644.15951-.44427.22219-.68993.06524-.05487.30051-.25611.57486-.51222.00526.03397.0654.22474.6795.26658.66387.04965.98782-.20907.98782-.20907,0,0-.5487-.27441-.77616-.27441-.19603,0-.7945.18032-.88064.20646.19603-.18555.4128-.39462.60357-.6063.24835-.27178.40259-.36848.56721-.4704.15679-.10192.31885-.20383.5487-.4521.05487-.0575.05487-.14635.00271-.20385.20385-.10192.49654-.27961.66371-.51483.27451-.3737.27451-.71345.27451-.71345,0,0-.54886.22738-.82592.55143-.19859.22213-.28217.50175-.31614.65856-.00782.00522-.01563.00784-.02361.01306-.20385.21952-.3423.30839-.48857.39984-.03397.02092-.0654.04181-.09937.06534l.08629-.14896s.2273-.32406.33975-.66379c.11484-.32406,0-.64811-.22474-.32406-.17514.24564-.28233.91728-.32157,1.22042-.115.08625-.24293.19863-.4077.37634-.2769.30314-.60884.61412-.85974.83627.1359-.7239.17769-1.47916.06795-2.02797l-.22474-1.10024c-.01563-.06532-.06269-.11237-.13064-.12021.01308-.13068.01834-.33451-.01834-.56186-.06524-.37111-.33975-.4861-.33975-.4861l-.04961.66381.29796.4129c-.04705.03136-.07321.09146-.06013.15418l.09666.4704h-.01037s-.16206-.43643-.66387-.55141c-.50181-.11237-.55141.22736-.11229.60106.32141.27702.64536.13329.80216.02875l.115.55141c.09411.48348.06795,1.13943-.04434,1.78233.02616-.25613.03397-.6847-.14643-1.0349-.19332-.40507-.77616-.55141-.77616-.55141,0,0,.11245.43643.33975.92251.17514.42076.4731.66903.56976.7422-.04179.22997-.09666.45733-.15951.67162l-.55141-.38676c-.06524-.05489-.16461-.03136-.21167.03395-.04961.07056-.03126.16465.03924.2143l.62463.44167c-.02361.06532-.03924.1411-.0654.20122-.37101.89639-1.41371,1.91298-1.42168,1.92343-.026.02353-.03908.05489-.04434.08887-.09156.07056-.23256.20122-.38936.36062.01563-.09668.05487-.33451.10448-.66379.04705-.43643-.0654-.77616-.0654-.77616,0,0-.55141.27439-.43641.9382.11245.66379.3868.43643.3868.43643v.07317c-.45731.46518-1.05051,1.14203-1.05051,1.14203,0,0-.115.32406-.40515.76049-.27706.43643-.27706.16204-.43641-.55141-.16206-.71084-.115-1.69868-.04961-2.07239.01818-.14635.03653-.33189.03653-.4861.19077-.06532.8154-.31098,1.39552-.89375l.12027-.1176c.62718-.62461,1.07922-1.07671,1.19949-1.41383.02616-.07842-.01563-.16465-.09411-.1934.09411-.26133.2718-.79969.22474-.95909-.04961-.22474-.27435-.16204-.50165.3894-.15951.39984-.14387.81013-.12553.99046-.12537.15418-.29269.33451-.49128.53835v-.54097s-.3868.09668-.3868.43643c0,.22997.19348.2143.30833.18816-.10974.10976-.2273.22474-.35012.34758l-.115.1176c-.40243.39984-.81269.61675-1.07141.73174.14372-.30575.46257-1.02443.55397-1.63596.00526-.02875.01053-.05226.01563-.08101.22746-.14112.41551-.37372.55939-.60892.23766-.12545.60884-.33973.82577-.5488.3423-.32406.50436-1.19692.50436-1.19692l-.55141.32406-.42333.44427c-.00526-.24044-.01053-.74218.06795-1.12636.03924-.17771.05742-.32928.06795-.46779.04705.01045.42859.08101.83884-.3894.45204-.48608.50181-.92251.50181-.92251l-.77887.43643-.56178.86764c.01037-.12021.01308-.2326.01563-.34497.00526-.16985.01053-.34756.03397-.57231.00526-.05489.01563-.08887.0209-.1359l.47038-.35542c.06795-.05226.08103-.14635.03142-.2143-.05232-.06795-.14898-.08362-.21693-.03136l-.21167.16204c.03397-.13851.0705-.27702.11756-.43904.03397-.115.0705-.24044.10719-.38156.00782-.0209.01563-.04442.02345-.06534.18567-.02873.49399-.08623.78669-.18816.43641-.16202.88845-.82582.88845-.82582l-1.00346.32406c-.21948.07056-.37372.14374-.4782.20385.20385-.43382.44423-.83366.44678-.83888.02887-.04442.02616-.09931.00526-.14374.12282-.0784.29014-.23521.35028-.53313.115-.50177-.20911-.87547-.20911-.87547,0,0-.38936.27441-.38936.59847,0,.21952.05216.53833.08358.72651-.04179.00784-.07848.03134-.09937.06793-.01308.02092-.17243.28747-.33975.61938l-.06269-.25088c-.0209-.08364-.12282-.14374-.18295-.11239-.08358.02092-.1359.10192-.115.18557l.15169.6272c-.05487.13329-.11245.27178-.14898.39723-.03924.14112-.07577.26656-.10719.37893-.08103.27963-.13845.51746-.18024.79446l-.09682.07056-.78653-1.06885c-.02361-.03136-.05758-.04967-.09411-.0575.05487-.27963.14116-.88592-.02871-1.17861-.22746-.37372-.50436-.53574-.50436-.53574,0,0-.22474.87547-.04705,1.14988.06013.1019.14898.22213.23782.33712-.1804-.09148-.4522-.21691-.69258-.28747-.3868-.11237-.50181.32406.115.59845.44423.19863.64807,0,.7291-.12543.02345.02875.0445.05487.06269.07579-.06013.05226-.07321.14112-.02345.20646l1.05306,1.42427c.00271.00522.00798.00261.01308.00784-.0051.08101-.01308.17771-.01563.2535-.00526.24566-.01037.45734-.07577.76571-.01053.05228-.01834.10715-.02616.15943l-.04961-.51746s-.04961-1.3119-.33975-.20905c-.2064.80752.14627,1.20214.33975,1.3511-.00526.25611.00255.46518.00526.54097-.07066.22997-.26143.70821-.53849,1.01659.06013-.31883.089-.66117.01308-1.06102,0,0-.00255-.00263-.00255-.00524-.06269-.32406-.18551-.67946-.46512-1.11589-.18295-.28225-.34756-.51222-.49654-.71084.05742-.08101.20385-.33189.20385-.72912,0-.50177-.27451-.82582-.27451-.82582,0,0-.33975.3894-.33975.71345,0,.12021.03142.27439.07321.42074-.08613-.1019-.16716-.19338-.23782-.27439-.18024-.20124-.31885-.36064-.42859-.54358l-.14372-.26133c-.05742-.09931-.10192-.18816-.15424-.28225l.25888-.76049c.026-.0784-.01579-.16726-.09411-.19338-.08374-.02875-.16732.01567-.19603.09668l-.15951.47563c-.06524-.1411-.12792-.27961-.16461-.41813-.01308-.05228-.04961-.09148-.09666-.10454.06795-.22997.16732-.67687.01563-.95648-.2273-.3894-.67934-.64811-.67934-.64811,0,0,.11229.53574.2273.92251.0654.22999.18551.46518.27435.62983v.09668c-.01037.01308-.01818.02614-.02616.04181-.09395-.0392-.45731-.19077-.75-.32928-.3423-.16202-.94077,0-.3423.43643.61681.43643.89116.50177,1.18386.50177.03653,0,.05742-.01828.07577-.0392.10192.22213.2273.44688.35809.67948l.14627.26394c.05232.08887.11245.16726.17243.24827-.20385-.15679-.61139-.43904-1.04525-.55403-.59847-.16204-.54886-.27441-.20911.27439.28488.4861,1.14733.41815,1.34847.39462.06269.07579.12808.14896.19859.2326.08629.09668.1804.20383.28233.32667-.24309-.13851-.56194-.31361-.77887-.40247-.38936-.16202-.5487.11239-.38936.32406.16206.22738,1.39297.3894,1.39297.3894l.01308-.01306c.15424.20122.32667.43904.5227.74218.00782.01045.01308.02092.01818.03136-.31359-.21952-.90153-.59845-1.33012-.71345-.61681-.16202-.45475.06534-.0654.60108.3163.44688,1.19167.34758,1.50526.29531.089.15941.15951.30577.21182.44165l-.43131-.15418c-.07832-.02875-.16987.01306-.19859.09409-.02616.0784.01308.16724.09411.19599l.62463.22213c.03908.20124.04705.38678.03397.56711-.18295-.10454-.48873-.26396-.77105-.33451-.45204-.115-.7291.04703-.7291.04703,0,0,.45475.277.7291.50177.27451.21167.66387.277.66387.277l.04961-.07056c-.00526.03136-.01037.06534-.01563.0967-.02616.12806-.04961.2535-.0705.38678-.1099.72912-.59592,1.69344-.60118,1.7013-.02871.05748.00782.10976.04705.15418-.00782.01045-.01563.01828-.02345.02875l-.01579.02351c-.0051-.04181-.02871-.0784-.06524-.10192-.01053-.00784-.24835-.17771-.15951-.66901.10719-.55403.36064-.92514.36336-.92775.04961-.07056.03397-.16463-.03669-.21167-.06524-.05489-.1619-.03136-.21167.03395-.01308.0183-.29269.42337-.4128,1.04796-.01579.07842-.02105.14896-.02361.21691-.16461-.04965-.46783-.12282-.76563-.12282-.36862,0-.54631.06273-.61426.09146.01308-.01567.03669-.02612.04705-.04442.17769-.27439.17769-.8258.17769-.8258,0,0-.11229.06532-.45204.50175-.16732.2143-.29014.24566-.37372.22213-.00782-.19861-.01563-.37893-.02616-.51222-.01563-.14635-.02345-.30837-.02616-.46779l.64026-.24564c.07321-.02875.1099-.10454.09156-.17771.13064.16463.33193.39201.53578.51744.32396.22736,1.00346.16204,1.00346.16204,0,0-.29269-.43645-.6795-.6455-.38936-.22738-1.00346-.22738-1.00346-.22738,0,0,.02345.03659.06524.09148-.03653-.0183-.08103-.02353-.12282-.00784l-.52781.20383c.0051-.32928.02345-.60106.02345-.61151,0-.01569,0-.14637-.00255-.33191.09921-.10452.21167-.26133.28743-.49391.16206-.4861.16206-1.26225.16206-1.26225l-.47565.85194c-.00782-.17769-.0209-.34495-.03653-.47824l-.01834-.20905c-.01834-.23521-.03397-.42859-.0705-.59063.08613-.06009.23256-.21169.2769-.56186.04977-.4861-.22474-.76049-.22474-.76049,0,0-.2273.32145-.2273.59845,0,.11237.01818.25872.04179.39462-.01308-.01828-.02361-.03659-.03653-.05226-.03924-.05228-.10192-.06795-.16206-.04967-.07848-.26917-.23256-.8415-.23256-1.16817,0-.43643-.20911-1.03488-.20911-1.03488,0,0-.3423.53311-.29269,1.19692.04705.49391.45204.88853.6586,1.05841-.04195.05487-.04705.13066-.00271.18555.12553.15941.14643.40245.17769.80752l.01834.21691c.03397.30053.04961.77355.05742,1.14466-.19332-.13068-.58013-.42598-.95114-.81799l.19077-.91206c.01818-.08101-.03397-.16202-.11772-.18032-.01292-.00261-.0209-.00522-.0209-.00522-.08358,0-.14627.05226-.15935.12282l-.14372.6847c-.02616-.03397-.06013-.06009-.08358-.09407-.1099-.15159-.22474-.31883-.3372-.4861l.16206.13851s-.11245-.60108-.11245-1.10283c0-.4861-.27435-1.08454-.27435-1.08454,0,0-.33975.59845-.33975.87547,0,.10454.03924.26133.08629.41813l-.39462-.65856c-.00271-.00784-.01053-.01306-.01834-.0209.06269-.08887.06795-.311-.15935-.84152-.45475-1.05055-.50181-.8415-.50181-.8415,0,0-.21167-.09668-.19603.35803.01563.38417.49654,1.10807.64026,1.31712-.04961.04705-.06269.12284-.02871.18293l.15424.25874c-.12808-.04183-.36862-.10454-.63515-.06011-.38936.04965-.38936.55141.16206.48608.37899-.03136.50436-.19599.54615-.30053l.21438.36848.12537.19077c.20656.31883.44167.67948.65605.98001.07305.09931.15679.18032.23511.26919l-.73947.44949c-.07321.04442-.09411.13851-.04977.21169.02616.04703.07577.07317.12808.07317.02871,0,.05487-.00784.08103-.02353l.78397-.47563c.16987.17249.34246.32145.49654.44951-.04705.05748-.16461.16463-.47038.33451-.50181.27441-.38936.82582.11245.48346.37883-.24303.40754-.61675.39972-.78399.28759.22997.50707.37109.52525.38154.01308.00784.02616.00784.03924.01047.00271.09929.00271.16985.00271.16985-.00271.03659-.0654.84672,0,1.45041.00255.05228.00782.1176.01037.18555-.17243-.10192-.45986-.29792-.53833-.52266-.09666-.33975-.55141-.27441-.21167.32406.30833.56709.72655.69776.76834.71082.01308.45212.01834.95911.01834,1.24397-.02616-.03136-.04977-.06534-.07321-.09148-.08629-.11237-.23527-.21169-.35538-.25611.00782-.04965-.00798-.10192-.04977-.13851-.0051-.00261-.27961-.23258-.6795-.55141.03397-.19861.08103-.52527.08103-.80491,0-.43643-.43896-1.26225-.43896-1.26225v1.14988c0,.24042.09921.55141.18806.78138-.18024-.14374-.37883-.29792-.58539-.45733-.01037-.18032-.03908-.43382-.10448-.64811-.11229-.3894-.27435-.17771-.27435.27439,0,.03397.00526.06534.01037.09409l-.33177-.25088c.05742-.15679.24038-.70298.14372-1.17078-.09682-.5488-.32412-.76049-.32412-.76049,0,0-.2273.55141-.2273.92251,0,.29792.2273.75526.33449.95389l-.58284-.43906-.10192-.69776c-.01563-.08362-.10192-.13588-.17514-.13066-.08358.01306-.141.09146-.12792.17508l.05742.38678-.04179-.02875c-.10448-.08101-.28488-.22474-.47565-.38676.02361-.03136.27435-.38678.3372-.8206.04705-.43643-.22746-.87286-.22746-.87286,0,0-.2273.33973-.2273.71345,0,.38676.06524.87286.06524.87286l.04195.09668c-.26398-.22736-.53849-.48869-.64042-.65856-.03126-.05487-.09395-.08362-.15408-.07317l-.08885-.56186c-.04977-.3894-.82592-.87547-.82592-.87547,0,0-.06524.71343.27451,1.03749.20385.20124.4128.36587.54089.45996-.03397.04703-.04179.11237-.01037.16724.00782.01308.02871.03136.03653.04444h-.74218c-.08629,0-.15424.06795-.15424.15418,0,.08362.06795.15157.15424.15157h.99309c.3632.3737.88845.77355.91987.79446l.77361.588-.8859-.03659h-.00526c-.08374,0-.14898.06534-.15153.14635-.00526.08625.06269.15681.14627.15943l1.21257.04965h.00526c.02345,0,.02345-.03397.04434-.04442l.59336.44949c.28217.21691.53562.41815.76037.59847h-.61936c-.08613,0-.15408.06795-.15408.15418,0,.08362.06795.15157.15408.15157h1.0009c.16732.13851.29014.23782.29269.24044.02616.0209.05503.03136.08629.03397.02361.04965.06269.10976.12553.18816.45459.53574.77616,1.24656.89116,1.74833,0,0-.43912-.16202-.89116-.27441-.43657-.11237-.77616-.06532-.77616-.06532,0,0,.08087.07056.18806.15418-.04179.07579-.07577.20907-.07577.39723,0,.43643.38936.61414.38936.61414,0,0-.00255-.47824-.10703-.86502.18551.13068.40754.26394.60884.31622.36064.09407.73182.10976.84937.11237.21167.31098.5227.57755.59065.81013.11484.33973.67934,1.32759.17769,1.10022-.50181-.20905-1.18131-.5488-1.66732-1.10022-.50181-.55141-1.00361-.48608-1.23091-.71345-.14372-.13327-.51489-.45471-.69003-.53572.00271-.0392-.00782-.07842-.03397-.10976h.15679s.0654-.22738-.04689-.82582c-.11245-.60108-.55141-.66379-.55141-.66379,0,0,.11484.33973.11484.66379,0,.18555.05232.42598.09682.60106-.1804-.16724-.4522-.39723-.73437-.56447l.2718-.57233c.03653-.07579.0051-.16726-.07321-.20385-.07321-.03659-.16732-.00261-.2013.07319l-.2718.57231c-.03908-.01567-.07832-.04442-.11484-.05487-.20656-.06011-.36336-.09931-.5227-.1359.10974-.03136.25872-.18032-.24835-.86502-.66371-.94081-.66371-.71343-.66371-.71343,0,0-.22746-.06534-.11245.3737.09937.39723.76308,1.03488.91987,1.18123-.01563-.00261-.02871-.00522-.04179-.01045-.21693-.04703-.47038-.10454-.89116-.21952-.73947-.18555-.91716-.37632-.91716-.37632-.03669-.05228-.09937-.07317-.15695-.06273-.13064-.19077-.31359-.4704-.42062-.67425-.16206-.32406-.3868-.277-.71092-.43904-.3423-.16202-.29269.16204.11245.55141.24819.24827.65589.49654.91716.64289-.02345.04967-.02345.10976.01053.15679.01834.02875.09666.12023.32667.2326-.06269.09931-.24309.32928-.59065.27963-.45204-.04967-.89116-.16204-.6141.11237.27435.277.66387.38938,1.00346.16202.25617-.15679.25362-.41813.23782-.53574.16477.07842.39733.16465.72655.24566.20911.0575.37899.10192.5227.1359l-.51218.29792c-.07321.04181-.09937.1359-.05487.20646.026.05226.07832.0784.13064.0784.02616,0,.05232-.00522.07832-.02092l.7945-.45994c.18551.04181.35028.0784.5932.15157.06269.01828.13335.06534.2013.09931,0,0,0,.00261.00255.00522,0,0,.01053,0,.01579.00261.08358.04181.16716.09407.24819.14896-.16206.03136-.56705.10715-1.04269.19599-.59847.11237-.88861.43643-.88861.43643,0,0,.4522.22738.77616.16204.05232-.00784.12282-.03397.19077-.05228.0209.08625.10464.3502.28488.44951h-.96166l-.83629.23258c-.03653.01045-.0654.03659-.08358.06534-.03669-.03659-.15169-.11237-.42349.01828-.33959.17771-.38936.50177-.38936.50177,0,0,.16206.11237.50181-.04965.18551-.10192.26398-.23521.29796-.33189.02345.06009.07832.09668.13845.09668,0,0,.02871-.00261.0445-.00522l.77089-.22213h1.53142c.24309,0,.46512.00522.6586.01308-.23001.19861-.67695.62198-.38154.66117.30833.03659.75782-.43121.93024-.6272.1359.01045.21438.01828.21438.01828h.0209c.07832,0,.14627-.0575.15424-.1359.00255-.02612-.00271-.04965-.01053-.07056.18551.17249.39717.32928.635.49132.50181.32406,1.39042.82582,1.84501,1.63596.43657.82321.38951.71084.50181,1.8607.11245,1.16555.16206,3.35033.11245,4.5002-.06285,1.14988.04961,2.25271-.33975,3.07854-.3868.82582-1.32757,1.37463-2.16913,1.81106-.84156.43904-1.55487.81013-1.89462,1.24918-.33975.45212-1.00361,1.48961-.77616,1.42429.2273-.04967.7291-.92253,1.16551-1.31192.45204-.3737.55141-.48608,1.11591-.76049.55141-.277.50181-.50175.77871-.38938.27451.11237.16206.16202.0654.55141-.115.38678-.115.43643.3868-.04965.48602-.50177.71347-.66381.71347-.66381l.45204-.16202s-.56705.87547-.7291,1.3119c-.15951.43643-.22474.55141-.43641.9382-.22746.3737-.3868.87547-.3868,1.19953,0,.33973.27435.82582.27435.82582,0,0-.29269-.52007-.115-1.10285.16206-.5488.115-.48346.55141-.87286.45475-.3894.66387-.55141.66387-.55141l.2273.55141.4522-.76049c.2769-.50177.38936-.82582.38936-.82582l.2273-.66379s0,.16204.3868.5488c.38936.3894.77887.55141,1.05322.94081.27706.37109.50181,1.35896.50181,1.35896l.2273-.55143s.16206-.09668.71347.3894c.56705.50177.3868.55141.84156.87547.43641.33975.1619-.16202-.04977-.55141-.22474-.37109-.95385-1.03488-1.11591-1.3119-.17769-.27441-1.06885-1.14988-1.06885-1.14988,0,0,.33975-.11237.95385.11498.61681.20907.94093.27441,1.23091.54882.27706.277.43641.60106.43641.60106,0,0,.45475,1.30929.45475.04703,0-.43643-.17769-.43643.43641.06534.61681.4861,1.16567.43643,1.16567.43643,0,0-.66387-.22474-1.05067-.8258-.38936-.59847-.66371-1.10024-1.39281-1.31192-.72926-.22474-1.66732-.38676-2.00707-1.97308-.32412-1.58892-.22746-4.82687-.115-6.08912.115-1.26225.33975-2.47745.8414-3.23794.50181-.76049.66387-.92251,1.32757-1.3119.68221-.3894,1.34592-.3894,1.34592-.3894.09937-.02875.19348-.05748.28488-.08362.22474.05226.37899.05226.37899.05226,0,0-.03397-.06009-.08374-.14112,2.72325-.82842.70039-.44427-.20895-.27178-.03397-.03659-.06795-.07056-.10464-.09931.67423.00261,1.28578-.12021,1.28578-.12021l-.16206-.04703s-.5487-.32406-1.32757-.115c-.24038.07056-.4077.11762-.51218.15159-.00526-.02353-.00526-.03659-.00526-.03659,0,0-.01818-.02092-.05997-.03397l1.17859-.85196c.00255-.00261.18295-.19599.84666-.44427.35809-.13851.50436-.14635.65079-.15418.141-.00786.28488-.01569.56705-.12284.56705-.23519,1.0218-.81536,1.0663-.87025.17498-.02612.40243-.08885.60884-.25872.3868-.33973.43641-.94081.43641-.94081,0,0-.55141.27702-.77616.50177M29.75352,50.2717c-.01818,0-.4077-.04183-.98001-.0575-.09921-.07056-.24564-.16987-.42588-.29269-.23001-.14896-.59847-.19077-.79721-.20124.36064-.13066.79721-.34756.79721-.34756l.09395-.31622c.36336.25611.67695.57755.68221.58278.02871.03136.07305.04703.11229.04703.03142,0,.06013-.01045.08629-.02873.00782.01567.01563.03397.02871.05487.12282.21691.26925.40245.43912.57233-.01053-.00522-.02361-.01045-.03669-.01306M33.86703,48.82128c.04961.38938,0,.93818.04961,1.42427.06269.50177.27435,1.37724-.50181.3894-.77871-.98786-.94077-1.03751-1.11846-1.53928-.09666-.29008-.27706-.6063-.4522-.87025.03142-.02875.05487-.07056.05487-.1176,0-.0392,0-.66379-.01292-1.27009.13845-.02875.35267-.08885.50165-.19338.03142.04442.14898.12543.5227.26656.65079.24566.99054.21952,1.05577.21169.08885.16463.2013.23519.20911.24042.02616.0183.05232.02353.07832.02353.01579,0,.03142-.00522.04705-.01045-.24564.43382-.48857,1.12374-.4337,1.44519M40.11028,48.58085c-.05742.02092-.11245.04442-.16461.06534l.21948-.19601.04705.09409c-.03142.01045-.0654.02353-.10192.03659" style=" stroke-width:0px;"/><path d="M52.74718,8.52233l-1.45821-1.58892,1.84501-.5488s0-.04967.38936-.4861c.25872-.30837.7291-1.32757-.2273-2.13773C50.65653,1.46103,42.04286.29548,34.75692.02107c-7.30173-.27439-16.32039,2.20045-17.87541,3.39998-1.57066,1.2152-.22474,1.92604-.22474,1.92604l.22474,1.14988-.02871.05226,2.20039.06011-1.96002,2.02535v.11237s.40515.48608.33975.71343c-.04705.20907-.89116.4861-.66371,1.0349.2273.55141,2.05668,1.14988,2.05668,1.14988,0,0,6.46017,1.97569,16.04603,1.97569,8.35479,0,15.98064-1.81367,17.25844-2.41212,1.28068-.59847.43657-1.42429.43657-1.69868,0-.27702.18024-.98784.18024-.98784M44.71635,4.26255c.90679.13068,1.60192.59847,1.53669,1.05318-.06269.43643-.85719.71084-1.77977.58278-.90679-.13066-1.60448-.59845-1.53924-1.05318.0654-.43643.85719-.71082,1.78233-.58278M34.75692,2.54558l2.94784,1.81367-2.83284,1.37724-3.07592-1.48961,2.96092-1.7013ZM25.25209,4.40889c.92514-.09668,1.7013.1934,1.7509.64811.04705.43643-.64807.88855-1.57066.98784-.92498.08101-1.70114-.19599-1.7509-.64811-.04705-.45471.64807-.89114,1.57066-.98784M49.45959,11.37087c-3.62734.87547-8.74431,1.81367-14.47537,1.81367-5.7467,0-14.37871-1.65165-14.37871-1.65165,0,0-3.90169-.64809-.22474-1.52095,3.67439-.89116,6.75031-1.81367,14.49116-1.81367,7.73814,0,14.47521,1.8607,14.47521,1.8607,0,0,3.73979.43643.11245,1.3119" style=" fill-rule:evenodd; stroke-width:0px;"/><path d="M10.26023,29.27939h48.57435v-10.60499H10.26023v10.60499ZM17.23784,26.07281c-1.11591,0-2.03833-.90683-2.03833-2.00705,0-1.10285.92243-2.00968,2.03833-2.00968,1.11862,0,2.04105.90683,2.04105,2.00968,0,1.10022-.92243,2.00705-2.04105,2.00705M24.18419,26.07281c-1.11591,0-2.0227-.90683-2.0227-2.00705,0-1.10285.90679-2.00968,2.0227-2.00968,1.13425,0,2.04105.90683,2.04105,2.00968,0,1.10022-.90679,2.00705-2.04105,2.00705M31.14617,26.07281c-1.13154,0-2.03849-.90683-2.03849-2.00705,0-1.10285.90695-2.00968,2.03849-2.00968,1.11846,0,2.02541.90683,2.02541,2.00968,0,1.10022-.90695,2.00705-2.02541,2.00705M38.09252,26.07281c-1.1317,0-2.03849-.90683-2.03849-2.00705,0-1.10285.90679-2.00968,2.03849-2.00968,1.11846,0,2.02525.90683,2.02525,2.00968,0,1.10022-.90679,2.00705-2.02525,2.00705M45.03871,26.07281c-1.11591,0-2.0227-.90683-2.0227-2.00705,0-1.10285.90679-2.00968,2.0227-2.00968,1.11862,0,2.04105.90683,2.04105,2.00968,0,1.10022-.92243,2.00705-2.04105,2.00705M51.98506,26.07281c-1.11591,0-2.0227-.90683-2.0227-2.00705,0-1.10285.90679-2.00968,2.0227-2.00968,1.13425,0,2.04105.90683,2.04105,2.00968,0,1.10022-.90679,2.00705-2.04105,2.00705" style=" fill-rule:evenodd; stroke-width:0px;"/><path d="M10.76172,105.81671l-1.45312-2.8512c-.58533-1.14197-1.04797-1.93396-1.38489-2.37561-.33984-.44165-.76843-.84924-1.28589-1.22034,1.00879-.1803,1.7876-.61938,2.3363-1.31714.54895-.69519.82324-1.61511.82324-2.75964,0-.90161-.1803-1.67786-.53833-2.32593-.36072-.64819-.81799-1.10278-1.3772-1.36682-.55676-.26135-1.48706-.39197-2.78845-.39197H0v14.60864h2.41199v-6.09961h.49915c.55676,0,.96179.05493,1.21521.16467.25354.10974.49133.30835.71606.59851.22754.29004.65601,1.00867,1.28589,2.15857l1.74829,3.17786h2.88513ZM4.20471,97.38605h-1.79272v-3.70581h1.89209c1.08447,0,1.73779.03662,1.96533.10718.31885.10718.56958.30054.75781.58545.18555.28223.2771.65588.2771,1.12109,0,.4834-.09155.8728-.2771,1.16553-.18823.29004-.42871.48608-.72913.58276-.29797.09668-.99573.1438-2.09338.1438ZM20.37585,103.34442h-6.69556v-3.96448h6.0188v-2.46167h-6.0188v-3.23804h6.47607v-2.47217h-8.88806v14.60864h9.10754v-2.47229ZM31.99634,103.80304v-5.81982h-5.21106v2.47217h2.77014v1.84766c-.39709.38416-.85193.68726-1.35901.90942-.50964.22217-.99817.33191-1.47119.33191-1.00879,0-1.81104-.39465-2.40186-1.1864-.6897-.91736-1.03479-2.25537-1.03479-4.01416,0-1.64111.31885-2.86157.95654-3.66394.63757-.79968,1.47131-1.19958,2.50085-1.19958.66394,0,1.23621.19873,1.71436.59851.47827.39722.80493.97217.98535,1.72229l2.39111-.54626c-.24561-1.40857-.797-2.47742-1.65942-3.20398-.85986-.72913-2.00439-1.09241-3.4314-1.09241-1.18896,0-2.21094.28235-3.06543.8468-.85181.56445-1.54712,1.41895-2.08276,2.56104-.5332,1.14209-.80225,2.51929-.80225,4.12646,0,1.56812.26392,2.93213.79175,4.08984.53052,1.1604,1.2439,2.03064,2.14819,2.61084.9043.58276,1.94702.8728,3.1283.8728.97205,0,1.93884-.22217,2.90076-.66895.96423-.44434,1.70654-.97485,2.23181-1.59424ZM35.84241,91.2088h-2.41211v14.60864h2.41211v-14.60864ZM42.73962,90.95734c-1.18384,0-2.19006.2771-3.02112.82849-.82849.55139-1.50269,1.39026-2.01758,2.51672-.51477,1.12622-.77087,2.55835-.77087,4.29895,0,2.39905.56982,4.28589,1.71436,5.66052,1.00098,1.20215,2.37036,1.80322,4.10547,1.80322,1.71973,0,3.0813-.60632,4.08472-1.82422,1.14209-1.37451,1.71436-3.28491,1.71436-5.72839,0-2.41736-.54089-4.28333-1.62024-5.58997-1.07922-1.30933-2.47473-1.96533-4.18909-1.96533ZM45.12036,102.29413c-.62732.83362-1.41394,1.24915-2.36511,1.24915-.94604,0-1.73779-.41809-2.37549-1.25952-.64038-.83887-.95923-2.1012-.95923-3.78149,0-1.71436.30835-2.97925.92773-3.79736.61938-.81531,1.42163-1.22559,2.40698-1.22559.98254,0,1.77954.40503,2.38855,1.21521.60889.81274.91467,2.06458.91467,3.75793,0,1.72754-.3136,3.00806-.93811,3.84167ZM59.18774,105.81671v-14.60864h-2.25281v9.75562l-4.90259-9.75562h-2.35205v14.60864h2.25269v-9.52563l4.82166,9.52563h2.43311ZM63.3031,103.34442v-3.96448h6.0188v-2.46167h-6.0188v-3.23804h6.47607v-2.47217h-8.88806v14.60864h9.10754v-2.47229h-6.69556ZM13.47913,109.27338c-.44434-.13855-1.39038-.20911-2.8407-.20911h-3.88611v14.60864h2.41211v-5.50891h1.58374c1.46338,0,2.49316-.14636,3.08899-.43372.59851-.29016,1.09753-.79199,1.49475-1.50537.3999-.71338.59839-1.59937.59839-2.65515,0-1.16296-.22998-2.11414-.6925-2.8512s-1.04797-1.21777-1.75867-1.44519ZM13.12903,114.81891c-.20654.32935-.4707.55664-.79199.68213-.32397.12805-.93555.19067-1.83447.19067h-1.33813v-4.15515h1.17859c1.01135,0,1.67517.0575,1.98865.1698.31104.11243.57507.33716.78931.66907.21167.33191.31885.74219.31885,1.22827,0,.48083-.10449.88586-.31079,1.21521ZM23.87988,117.14582c0,1.45569-.06543,2.4043-.19604,2.84595-.12805.44165-.37097.78662-.72388,1.0376-.35278.24817-.8075.37366-1.36682.37366-.65857,0-1.18909-.17773-1.59399-.52795-.40259-.35278-.65613-.85193-.76331-1.49487-.05994-.37366-.08887-1.17334-.08887-2.40161v-7.91321h-2.41199v7.79309c0,2.18469.15674,3.68481.47302,4.50012.31616.81274.82312,1.44519,1.52344,1.89209.70312.44946,1.67786.67419,2.92688.67419,1.20227,0,2.16919-.27173,2.90356-.81274s1.20728-1.24915,1.4165-2.12463c.20898-.87292.31348-2.28931.31348-4.24939v-7.67273h-2.41199v8.08044ZM33.39441,118.31305h2.77014v1.84753c-.39709.38416-.85193.68738-1.35901.90955-.50952.22205-.99817.33179-1.47119.33179-1.00879,0-1.81104-.39453-2.40173-1.18652-.68982-.91724-1.03491-2.25525-1.03491-4.01404,0-1.64124.31885-2.86169.95654-3.66394.63757-.79956,1.47131-1.19946,2.50085-1.19946.66394,0,1.23633.19849,1.71448.59839.47815.39722.80481.97217.98523,1.72217l2.39111-.54614c-.24561-1.40857-.797-2.47754-1.65942-3.20398-.85974-.72913-2.00439-1.09241-3.4314-1.09241-1.18896,0-2.21082.28223-3.06531.8468-.85193.56445-1.54724,1.41907-2.08289,2.56104-.5332,1.14209-.80225,2.51929-.80225,4.12659,0,1.56787.26392,2.93213.79175,4.08984.53052,1.1604,1.24402,2.03052,2.14819,2.61072.9043.58276,1.94702.87292,3.1283.87292.97205,0,1.93896-.22217,2.90076-.66907.96423-.44421,1.70654-.97473,2.23181-1.59412v-5.82007h-5.21106v2.47241ZM42.48792,109.18586h-2.41211v14.4884h8.43066v-2.47229h-6.01855v-12.01611ZM49.16785,123.6745h2.41211v-14.60864h-2.41211v14.60864ZM56.651,109.06647l-4.66504,14.60864h2.57153l.9906-3.30859h4.79541l1.04797,3.30859h2.6239l-4.80334-14.60864h-2.56104ZM56.2876,117.89435l1.62292-5.42017,1.6543,5.42017h-3.27722Z" style=" stroke-width:0px;"/></g></svg>