<?xml version="1.0" encoding="UTF-8"?><svg id="b" xmlns="http://www.w3.org/2000/svg" viewBox="0 0 161.91823 33.07985"><g id="c"><path d="M0,0v6.16229h13.73837v24.21795h6.99859V6.16229h13.2837V0H0ZM78.87102,18.64631h7.48468c.24564-5.11956-2.26316-8.23468-6.40538-9.08928h-13.58158c-9.48912,1.48178-9.5936,19.20558-.6795,20.99831l14.8857-.12282c3.5176-1.27007,5.45145-3.9174,5.85126-8.63453h-7.55518c-.05224,2.36771-1.0793,2.59246-2.38598,2.71528h-6.87832c-1.53142,0-3.06292-1.27011-3.01061-3.11771v-3.04458c.29533-2.77015,2.50617-2.77015,4.03759-2.99489l6.02639.12019c1.0088.05228,2.21092-.05224,2.21092,3.17003M50.76964,30.25742h7.22588V1.72223h-7.22588v28.53519ZM117.62447,9.31402v21.34588h7.08743v-12.13645c.92251-4.31724,10.16591-4.26496,11.47258-.39984l-.05224,12.53629h7.50558v-12.08417c.32922-3.84686,11.29753-4.94446,11.0022.34756v11.8568h7.2782l-.05232-12.70872c.17251-12.37946-15.51288-8.80962-18.8031-5.41489-.45467.45212-.85456.05228-.90679-.05228-5.11697-5.46712-14.93794-2.99489-16.69674-.74741-.34756.45212-.79969,0-.79969-.3502v-2.24485l-7.03511.05228ZM97.70809,15.14702c.31359-.0183,2.38598.03397,2.38598.03397v9.20947s-2.07239,0-2.38598-.01567v-.03661c-1.30668-.17247-2.4383-.74741-2.4383-2.94262v-3.27196c-.12019-2.29713,1.01143-2.87207,2.4383-2.94262v-.03397ZM106.27463,15.12871c1.30413.12282,2.45401.57494,2.38343,3.04717v3.21968c-.10456,2.36767-1.0088,2.82239-2.38343,2.94262-.31359.0183-2.43822.05228-2.43822.05228v-9.26174h2.43822ZM108.65806,9.26174h-4.82164v-2.8198h-3.74234v2.87207h-4.9967c-.97482,0-7.22596.81795-7.15538,6.51245v7.53692c.05224,4.36952,5.22145,6.94631,7.15538,6.89403h4.9967v2.82243h3.74234v-2.82243h5.11952c3.96972-.05228,7.0848-3.7423,7.0848-6.73724v-7.34611c0-3.96972-3.62207-6.91233-7.38268-6.91233M49.35841,21.51838c0-2.12467.22738-4.83995-.17251-6.51249-1.13154-2.87207-3.51752-5.27376-6.4262-5.69187l-12.9335.07054c-9.4368.22474-10.16854,20.00263-.29788,20.75263,2.21084.17251,4.6674.3293,6.77376.45212l-.01826.0183c2.38598.05228,4.54458,0,6.5987-.3502,3.63778-.62459,6.65102-2.76756,6.47588-6.73724l-7.05082-.05224c-.10456,1.49745-.62718,2.07239-2.38335,2.12463h-7.435c-1.93394-.33189-2.21092-1.89729-2.21092-4.07419h19.08009ZM40.77616,14.20621c1.0793,0,1.7588,1.27007,1.53142,2.8198l-11.97702.05228c-.17506-1.32235.17251-2.87207,1.65424-2.87207h8.79136Z" style=" fill-rule:evenodd; stroke-width:0px;"/></g></svg>